<svg xmlns="http://www.w3.org/2000/svg" id="Layer_2" data-name="Layer 2" viewBox="0 0 256.36 72.15"><defs><radialGradient id="radial-gradient" cx="43.28" cy="36.07" r="39.84" fx="43.28" fy="36.07" gradientUnits="userSpaceOnUse"><stop offset="0" stop-color="#fff"/><stop offset="1" stop-color="#99d9e8"/></radialGradient><radialGradient id="radial-gradient-2" cx="50.6" cy="25.8" r="40.52" fx="50.6" fy="25.8" gradientTransform="matrix(.91 0 0 1.01 -4.65 .92)" gradientUnits="userSpaceOnUse"><stop offset="0" stop-color="#ccebb9"/><stop offset="1" stop-color="#66bb50"/></radialGradient><style>.cls-1{fill:#695114}.cls-7{opacity:.15}</style></defs><g id="Layer_2-2" data-name="Layer 2"><path d="M43.28 0C19.98 0 1.73 29.65 0 54.69c7.31 12.69 24.94 17.46 43.28 17.46s35.97-4.77 43.28-17.46C84.84 29.65 66.58 0 43.28 0Z" style="fill:url(#radial-gradient)"/><path id="mound" d="M79.79 53.16c.09 7.45-16.78 14.51-37.51 15.02-20.73-.51-37.6-7.57-37.51-15.02 0-7.31 16.17-22.41 37.51-22.79 21.34.38 37.51 15.47 37.51 22.79Z" style="fill:url(#radial-gradient-2)"/><path d="M58.32 51.3c0 4.16-7.17 7.54-16.02 7.54s-16.02-3.37-16.02-7.54 7.17-7.53 16.02-7.53 16.02 3.37 16.02 7.53Z" class="cls-1" style="opacity:.64"/><path d="M39.91 18.36c1.34 5.31-4.3 7.74-7.25 11.72-5.1 6.41-8.59 19.45.27 24.76.33.2.68.38 1.04.54 5.11 2.3 12.41 1.65 17.33-.74 2.21-1.07 4.29-2.75 4.74-5.09.67-3.51-3.6-4.84-3.4-8.32.09-1.52.55-2.68 1.34-4 1.19-1.98 1.72-6.08-1.59-6.36.16 1.43-2.15 5.69-4.23 3.97-1.24-1.02.2-3.31.46-4.48 1.43-6.48-1.51-15.21-9.5-16.85" style="fill:#ff7f00"/><path d="M47.3 46.53c.19.93.17 1.93.01 2.86-.15.89-.46 1.76-.98 2.53-.26.39-.58.75-.94 1.07-.16.14-.34.3-.54.4-.21.1-.45.11-.67.17-.4.09-.77.16-1.19.17-.43.02-.86-.04-1.29-.06h-.27c-.87 0-1.76-.43-2.5-.82-.83-.44-1.59-.99-2.23-1.64-2.87-2.91-3.22-6.75-1.46-10.22 1.51-2.97 4.57-5.14 6.09-8.07.25-.49.56-1.16.62-1.7.07-.7.15-1.49-.16-2.13.03.07.56.23.67.32.18.15.32.33.42.53.2.43.19.94.12 1.39-.07.5-.21 1.02-.44 1.48-.31.6-.38 1.27-.67 1.89-.24.53-.44 1.12-.79 1.62-.36.52-.7 1.06-.84 1.66-.19.81-.34 1.64-.37 2.47-.03 1.08.68 2.14 1.22 3.08.64 1.12 1.59 1.67 2.94 1.25 1.71-.54 3.11-2.55 3.78-3.98-1.34 2.87-1.07 3.09-.54 5.75Z" style="fill:#ff0"/><g style="opacity:.75"><path d="M41.15 51.36c-1.22-.12-2.15-.81-2.49-1.88-.34-1.07-.7-2.72-.39-3.8.11-.4.34-.78.44-1.21.1-.47.05-1.11.45-1.46.15-.13.23 1.13.23 1.18 0 .19-.12.55-.02.73.17.33.34.09.46.2.51.45.73 1.54 1.07 2.19.97 1.85 2.47 2.5 4.17.82-.41 1.02-1.44 2.04-2.68 2.54" style="fill:#fff"/></g><g class="cls-7"><path d="M75.95 45.51c-4.28-1.43-7.03 10.95-14.29 15.42-6.78 4.17-15.96 5.41-20.72 6.96 11.75.44 21.66-2.22 29.75-5.56 6.33-2.62 13.75-8.32 5.26-16.81" class="cls-1"/></g><g class="cls-7"><path d="M10.56 59.97c-6.9-4.52 7.61-19.57 10.23-23.62-3.33.52-11.06 7.32-13.09 10.29-3.58 5.25-4.73 9.28 2.3 13.56" class="cls-1"/></g><path d="M111.51 54c-8.43 0-13.72-5.96-13.72-14.93s5.49-15.02 13.67-15.02c3.36 0 5.96.8 8.1 2.1l-.8 5.24c-1.89-1.43-4.24-2.56-7.05-2.56-5.12 0-8.26 3.9-8.26 10.19s3.36 10.15 8.47 10.15c2.68 0 5.12-.96 7.34-2.43l.75 4.78a15.886 15.886 0 0 1-8.52 2.48ZM135.16 53.49l-.42-2.64c-1.64 1.72-3.73 3.06-6.75 3.06-3.44 0-5.75-2.1-5.75-5.62 0-4.91 4.03-7.05 12.21-7.84v-.59c0-2.18-1.26-3.02-3.48-3.02-2.35 0-4.57.67-6.75 1.64l-.63-4.03c2.35-.92 4.82-1.64 8.05-1.64 5.24 0 7.84 1.93 7.84 6.8v13.88h-4.32Zm-.71-10.11c-5.83.71-7.21 2.43-7.21 4.36 0 1.47.92 2.35 2.47 2.35 1.72 0 3.36-.8 4.74-2.18v-4.53ZM167.25 53.49V40.24c0-1.76-.63-2.98-2.48-2.98-1.55 0-3.02 1.01-4.49 2.52V53.5h-5.03V40.25c0-1.76-.67-2.98-2.52-2.98-1.55 0-3.02 1.01-4.49 2.52v13.72h-5.03V33.25h4.28l.46 2.85c1.89-1.8 3.94-3.27 6.67-3.27 2.89 0 4.45 1.3 5.2 3.27 1.8-1.8 4.03-3.27 6.75-3.27 3.82 0 5.71 2.31 5.71 6.08v14.6h-5.03ZM185.36 53.7c-1.93 0-3.48-.34-4.7-.8v7.63l-5.03.76V33.23h4.28l.46 2.77c1.43-1.64 3.4-3.19 6.21-3.19 4.24 0 7.63 3.19 7.63 9.98 0 7.55-4.19 10.91-8.85 10.91Zm-.13-16.44c-1.8 0-3.23 1.13-4.57 2.85v8.68c1.22.59 2.18.88 3.9.88 2.6 0 4.57-2.14 4.57-6.59 0-3.9-1.64-5.83-3.9-5.83ZM205.66 27.7c-1.72 0-2.64.75-2.64 2.56v2.98h3.86l.63 4.11h-4.49V53.5h-4.99V37.35h-2.94v-4.11h2.94v-3.48c0-4.49 2.85-6.17 7-6.17.88 0 1.55.08 2.05.17l.67 4.11c-.5-.08-1.26-.17-2.1-.17ZM212.04 29.83c-1.68 0-3.02-1.17-3.02-2.85s1.34-2.94 3.02-2.94 2.98 1.22 2.98 2.94-1.34 2.85-2.98 2.85Zm-2.56 23.66V33.23h5.03v20.26h-5.03ZM224.45 41.87v11.62h-5.03V33.23h4.28l.63 4.07c1.34-2.35 3.36-4.32 6.5-4.49l.8 4.99c-3.15.21-5.75 1.89-7.17 4.07ZM249.96 44.35h-13c.25 3.94 2.35 5.66 5.45 5.66 2.6 0 4.74-.96 6.96-2.52l.59 3.94c-2.18 1.51-4.82 2.47-8.1 2.47-5.66 0-9.9-3.23-9.9-10.53 0-6.59 3.94-10.57 9.23-10.57 6.08 0 8.81 4.57 8.81 10.32 0 .42-.04.92-.04 1.22Zm-8.89-8.05c-2.01 0-3.65 1.59-4.03 4.91h8.05c-.33-3.15-1.59-4.91-4.03-4.91Z"/><path d="M252.19 25.24v.54h-1.04v2.72h-.65v-2.72h-1.04v-.54h2.73Zm3.53 3.26-.12-1.92c-.01-.25-.01-.56-.02-.91h-.04c-.08.29-.18.67-.28.97l-.59 1.81H254l-.59-1.86c-.06-.25-.16-.64-.23-.92h-.04c0 .3-.01.61-.02.91L253 28.5h-.62l.24-3.26h.97l.56 1.6c.07.25.13.49.22.83h.01c.08-.3.16-.58.23-.82l.56-1.61h.94l.25 3.26h-.65Z" style="fill:#cccbcb"/></g></svg>