<svg xmlns="http://www.w3.org/2000/svg" viewBox="0 0 32 32" fill-rule="evenodd" xmlns:v="https://vecta.io/nano"><path fill="#5c85de" d="M9.57 5.45L4 8.66v14.68l5.57 3.21v-2.78l-3.21-1.82v-11.9l3.21-1.82V5.45z"/><g fill="#3367d6"><path d="M4 11.45v9.1l2.36 1.4v-11.9L4 11.45z"/><path d="M4 11.45l2.36-.54v-.86L4 11.45z"/></g><path fill="#5c85de" d="M22.43 5.45v2.78l3.21 1.82v11.9l-3.21 1.82v2.78L28 23.34V8.66l-5.57-3.21z"/><g fill="#3367d6"><path d="M25.64 21.95l2.36-1.4v-9.1l-2.36-1.4v11.9z"/><path d="M25.64 10.91l2.36.54-2.36-1.4v.86zm0 10.29v.75l2.36-1.4-2.36.65z"/></g><path fill="#5c85de" d="M16 8.77l-3.21 1.71L16 12.2l3.21-1.72L16 8.77z"/><path d="M16.43 16.16l3.11-1.71v-3.32l-3.11 1.71v3.32zm-.75-3.32l-3.22-1.71v3.32l3.22 1.71v-3.32z" fill="#3367d6"/><path fill="#5c85de" d="M12.31 15.06l-3.1 1.72 3.1 1.71 3-1.71-3-1.72z"/><path d="M12.53 22.46l3.11-1.72v-3.43l-3.11 1.72v3.43zm-.54-3.43l-3.1-1.72v3.43l3.1 1.72v-3.43z" fill="#3367d6"/><path fill="#5c85de" d="M19.77 15.06l-3.11 1.72 3.11 1.71 3.11-1.71-3.11-1.72z"/><path d="M20.09 22.46l3.11-1.72v-3.43l-3.11 1.72v3.43zm-.64-3.43l-3.11-1.72v3.43l3.11 1.72v-3.43z" fill="#3367d6"/></svg>