<svg xmlns="http://www.w3.org/2000/svg" viewBox="0 0 32 32" fill-rule="evenodd" xmlns:v="https://vecta.io/nano"><path d="M16,4,6.17,8.09v6.74C6.17,20.89,10.36,26.56,16,28c5.64-1.38,9.83-7,9.83-13.11V8.09Zm0,4.54a3.14,3.14,0,1,1-2.23.92A3.15,3.15,0,0,1,16,8.54Zm4.92,13.34A10.27,10.27,0,0,1,16,25.39a10.27,10.27,0,0,1-4.92-3.51V19.19c0-2,3.28-3,4.92-3s4.92,1,4.92,3Z" fill="#669df6"/><path d="M16,4V8.54a3.15,3.15,0,1,1,0,6.29h0v1.34c1.64,0,4.92,1,4.92,3v2.69A10.27,10.27,0,0,1,16,25.39v2.55c5.64-1.38,9.83-7,9.83-13.11V8.09Z" fill="#4285f4"/></svg>