<?xml version="1.0" standalone="no"?>
<!DOCTYPE svg PUBLIC "-//W3C//DTD SVG 20010904//EN"
 "http://www.w3.org/TR/2001/REC-SVG-20010904/DTD/svg10.dtd">
<svg version="1.0" xmlns="http://www.w3.org/2000/svg"
 width="56.000000pt" height="56.000000pt" viewBox="0 0 56.000000 56.000000"
 preserveAspectRatio="xMidYMid meet">

<g transform="translate(0.000000,56.000000) scale(0.100000,-0.100000)"
fill="#000000" stroke="none">
<path d="M130 532 c-66 -33 -103 -119 -81 -192 11 -37 213 -300 231 -300 14 0
210 247 225 285 19 44 19 76 0 123 -22 51 -52 81 -97 93 -32 8 -46 6 -83 -10
-44 -19 -45 -19 -84 0 -48 23 -66 23 -111 1z m111 -174 l39 -31 40 32 c22 18
45 31 51 29 11 -4 -77 -128 -90 -128 -8 0 -101 114 -101 124 0 14 24 4 61 -26z"/>
</g>
</svg>
