<svg xmlns="http://www.w3.org/2000/svg" width="144" height="144" fill="none" viewBox="0 0 144 144"><rect width="144" height="144" fill="#E7E4F2" rx="72" transform="matrix(-1 0 0 1 144 0)"/><path fill="#fff" d="M89 31.65 55 48v36l34 16.35v-68.7Z"/><path fill="#AEA5D6" d="M89 39h14v46a8 8 0 0 1-8 8h-6V39Z"/><path stroke="#171321" stroke-linecap="square" stroke-width="2" d="M89 93h6a8 8 0 0 0 8-8V39H89M55 53v-5l34-16.35v68.7L55 84V61"/><circle cx="47" cy="89" r="23" fill="#fff"/><path stroke="#171321" stroke-linecap="square" stroke-width="2" d="M67.717 98.99a23 23 0 1 0-4.1 5.913"/><circle cx="47" cy="89" r="15" fill="#6FDAC9"/><path stroke="#171321" stroke-linecap="square" stroke-width="2" d="M46.103 80.817a1 1 0 0 1 1.794 0l1.81 3.667a1 1 0 0 0 .752.547l4.046.587a1 1 0 0 1 .555 1.706l-2.928 2.854a1 1 0 0 0-.288.885l.691 4.03a1 1 0 0 1-1.45 1.054l-3.62-1.902a1 1 0 0 0-.93 0l-3.62 1.902a1 1 0 0 1-1.45-1.054l.69-4.03a1 1 0 0 0-.287-.885l-2.928-2.854a1 1 0 0 1 .555-1.706l4.046-.587a1 1 0 0 0 .753-.547l1.81-3.667ZM93 108a21.992 21.992 0 0 0 15.556-6.444A21.992 21.992 0 0 0 115 86"/></svg>