<svg xmlns="http://www.w3.org/2000/svg" width="144" height="144" fill="none" viewBox="0 0 144 144"><rect width="144" height="144" fill="#E7E4F2" rx="72" transform="matrix(-1 0 0 1 144 0)"/><path fill="#AEA5D6" d="M46 45a6 6 0 0 1 6-6h46v53H50l-4 3V45Z"/><path fill="#fff" d="M98 92H51.962A5.962 5.962 0 0 0 46 97.962V98a6 6 0 0 0 6 6h46V92Z"/><path stroke="#171321" stroke-linecap="square" stroke-width="2" d="M46 97.962v0A5.962 5.962 0 0 1 51.962 92H98v12H52a6 6 0 0 1-6-6V47a8 8 0 0 1 8-8h44v45"/><path fill="#FF9D73" stroke="#171321" stroke-linecap="square" stroke-width="2" d="M79 98v10l6-3 6 3V98H79Z"/></svg>