<svg xmlns="http://www.w3.org/2000/svg" width="144" height="144" fill="none" viewBox="0 0 144 144"><rect width="144" height="144" fill="#E7E4F2" rx="72"/><path fill="#fff" fill-rule="evenodd" d="M71 78c0 3.802-.849 7.406-2.367 10.633L91 111v12h-5a8 8 0 0 1-8-8h-7v-4l-2-2h-6l-3-3-2 2-5.78-5.78c-1.989.509-4.073.78-6.22.78-13.807 0-25-11.193-25-25s11.193-25 25-25 25 11.193 25 25Zm-40.894 8L54 62.106A17.556 17.556 0 0 0 45.635 60C35.895 60 28 67.896 28 77.635c0 3.027.763 5.876 2.106 8.365Z" clip-rule="evenodd"/><path fill="#171321" d="m68.633 88.633-.905-.426-.3.636.498.497.707-.707ZM91 111h1v-.414l-.293-.293L91 111Zm0 12v1h1v-1h-1Zm-13-8h1v-1h-1v1Zm-7 0h-1v1h1v-1Zm0-4h1v-.414l-.293-.293L71 111Zm-2-2 .707-.707-.293-.293H69v1Zm-6 0-.707.707.293.293H63v-1Zm-3-3 .707-.707-.707-.707-.707.707L60 106Zm-2 2-.707.707.707.707.707-.707L58 108Zm-5.78-5.78.707-.707-.403-.403-.552.141.248.969ZM54 62.106l.707.707.95-.95-1.182-.637-.475.88ZM30.106 86l-.88.475.638 1.181.95-.949-.708-.707Zm39.431 3.058A25.903 25.903 0 0 0 72 78h-2c0 3.652-.815 7.11-2.272 10.207l1.81.852Zm22.17 21.235L69.34 87.926l-1.414 1.414 22.367 22.367 1.414-1.414ZM92 123v-12h-2v12h2Zm-6 1h5v-2h-5v2Zm-9-9a9 9 0 0 0 9 9v-2a7 7 0 0 1-7-7h-2Zm-6 1h7v-2h-7v2Zm-1-5v4h2v-4h-2Zm-1.707-1.293 2 2 1.414-1.414-2-2-1.414 1.414ZM63 110h6v-2h-6v2Zm-3.707-3.293 3 3 1.414-1.414-3-3-1.414 1.414Zm-.586 2 2-2-1.414-1.414-2 2 1.414 1.414Zm-7.194-5.78 5.78 5.78 1.414-1.414-5.78-5.78-1.414 1.414ZM46 104c2.232 0 4.4-.281 6.468-.811l-.496-1.938A24.028 24.028 0 0 1 46 102v2ZM20 78c0 14.36 11.64 26 26 26v-2c-13.255 0-24-10.745-24-24h-2Zm26-26c-14.36 0-26 11.64-26 26h2c0-13.255 10.745-24 24-24v-2Zm26 26c0-14.36-11.64-26-26-26v2c13.255 0 24 10.745 24 24h2ZM53.293 61.399 29.399 85.293l1.414 1.414 23.894-23.894-1.414-1.414ZM45.635 61c2.857 0 5.543.72 7.89 1.986l.95-1.76A18.557 18.557 0 0 0 45.635 59v2ZM29 77.635C29 68.448 36.448 61 45.635 61v-2C35.343 59 27 67.343 27 77.635h2Zm1.986 7.89A16.557 16.557 0 0 1 29 77.635h-2c0 3.197.806 6.209 2.226 8.84l1.76-.95Z"/><path stroke="#171321" stroke-linecap="square" stroke-width="2" d="m65 92 25.5 25.5"/><path fill="#FF9D73" stroke="#171321" stroke-linecap="square" stroke-width="2" d="M60 67 35 92l4 4 25-25-4-4Z"/><path fill="#fff" stroke="#171321" stroke-linecap="square" stroke-width="2" d="M96 70.5c12.426 0 22.5-10.074 22.5-22.5S108.426 25.5 96 25.5 73.5 35.574 73.5 48v22.5H96Z"/><circle cx="96" cy="48" r="15" fill="#6FDAC9"/><path fill="#171321" fill-rule="evenodd" d="M97 42v-1h-2v6h-6v2h6v6h2v-6h6v-2h-6v-5Z" clip-rule="evenodd"/><circle cx="73" cy="72" r="6" fill="#fff" stroke="#171321" stroke-linecap="square" stroke-width="2"/><path stroke="#171321" stroke-linecap="square" stroke-width="2" d="M125 48a29.007 29.007 0 0 0-8.494-20.506A29.005 29.005 0 0 0 96 19"/></svg>