<svg xmlns="http://www.w3.org/2000/svg" width="144" height="144" fill="none" viewBox="0 0 144 144"><rect width="144" height="144" fill="#E7E4F2" rx="72" transform="matrix(-1 0 0 1 144 0)"/><circle cx="72" cy="72" r="35" fill="#fff"/><path fill="#AEA5D6" d="M94.397 98.897A34.86 34.86 0 0 1 72 107a34.86 34.86 0 0 1-22.397-8.103l9.054-9.054a8 8 0 0 1 5.657-2.343h15.372a8 8 0 0 1 5.657 2.343l9.054 9.054Z"/><circle cx="72" cy="68" r="12" fill="#D0C5E2" stroke="#171321" stroke-linecap="square" stroke-width="2"/><path stroke="#171321" stroke-linecap="square" stroke-width="2" d="m50 98 6.314-6.314A16 16 0 0 1 67.627 87h8.746a16 16 0 0 1 11.313 4.686l6.984 6.98a34.997 34.997 0 0 1-47.713-2.215A35 35 0 1 1 106.64 77"/><circle cx="96" cy="96" r="14" fill="#FF9D73" stroke="#171321" stroke-linecap="square" stroke-width="2"/><path stroke="#171321" stroke-linecap="square" stroke-width="2" d="M96 101.5c11.819-6.849 3.056-13.418 0-7.997-3.056-5.395-11.819 1.148 0 7.997Z"/></svg>