<svg width="144" height="144" fill="none" viewBox="0 0 144 144" xmlns="http://www.w3.org/2000/svg"><rect width="144" height="144" rx="72" fill="var(--gl-illustration-base-fill-color, #e7e4f2ff)"/><path d="m49.308 95.3 36.59 13.319a8 8 0 0 0 10.254-4.782l5.348-14.693L36.142 75l8.846 16.554a8 8 0 0 0 4.32 3.747Z" fill="var(--gl-illustration-fill-color-default, #ffffff)" stroke="var(--gl-illustration-stroke-color-default, #171321ff)" stroke-width="var(--gl-illustration-stroke-width-default, 2)" stroke-linecap="square"/><path fill-rule="evenodd" clip-rule="evenodd" d="M104 56v27a8 8 0 0 1-8 8H57.061a8 8 0 0 1-5.34-2.043l-15.057-13.5c-3.547-3.18-3.547-8.734 0-11.913l15.057-13.5A8 8 0 0 1 57.06 48H96a8 8 0 0 1 8 8ZM51 73a4 4 0 1 0 0-8 4 4 0 0 0 0 8Z" fill="var(--gl-illustration-fill-color-default, #ffffff)"/><circle cx="51" cy="69" r="4" stroke="var(--gl-illustration-stroke-color-default, #171321ff)" stroke-width="var(--gl-illustration-stroke-width-default, 2)"/><path d="M94 48h2a8 8 0 0 1 8 8v27a8 8 0 0 1-8 8H57.061a8 8 0 0 1-5.34-2.043l-15.057-13.5c-3.547-3.18-3.547-8.734 0-11.913l15.057-13.5A8 8 0 0 1 57.06 48H86" stroke="var(--gl-illustration-stroke-color-default, #171321ff)" stroke-width="var(--gl-illustration-stroke-width-default, 2)" stroke-linecap="square"/></svg>