<svg xmlns="http://www.w3.org/2000/svg" width="151" height="144" fill="none" viewBox="0 0 151 144"><rect width="132" height="132" x="13" y="6" fill="#E7E4F2" rx="66"/><path stroke="#171321" stroke-linecap="square" stroke-linejoin="round" stroke-width="2" d="M68 72h66"/><path fill="#D0C5E2" d="M17 46.08H8V107h42l9-9H17V46.08Z"/><path stroke="#171321" stroke-linecap="square" stroke-width="2" d="M17 46H8v61h39.486a6 6 0 0 0 4.277-1.793L53 103.95"/><path fill="#fff" d="M17 37h35l12 11v42a8 8 0 0 1-8 8H17V37Z"/><path fill="#fff" d="M64 48 52 37v11h12Z"/><path fill="#171321" d="M17 37v-1h-1v1h1Zm35 0 .676-.737-.287-.263H52v1ZM17 98h-1v1h1v-1Zm48-42.5v-1h-2v1h2ZM64 48v1l.676-1.737L64 48Zm-12 0h-1v1h1v-1ZM17 38h35v-2H17v2Zm39 59H17v2h39v-2Zm-38 1V37h-2v61h2Zm45-42.5V90h2V55.5h-2ZM51.324 37.737l12 11 1.352-1.474-12-11-1.352 1.474ZM64 47H52v2h12v-2Zm-11 1V37h-2v11h2Zm3 51a9 9 0 0 0 9-9h-2a7 7 0 0 1-7 7v2Z"/><path stroke="#171321" stroke-linecap="square" stroke-width="2" d="M29 58h13"/><path stroke="#FF9D73" stroke-linecap="square" stroke-width="2" d="M46 58h6"/><path stroke="#AEA5D6" stroke-linecap="square" stroke-width="2" d="M29 66h7"/><path stroke="#171321" stroke-linecap="square" stroke-width="2" d="M40 66h12M29 74h2"/><path stroke="#FF9D73" stroke-linecap="square" stroke-width="2" d="M35 74h7"/><path stroke="#AEA5D6" stroke-linecap="square" stroke-width="2" d="M46 74h6"/><path stroke="#171321" stroke-linecap="square" stroke-width="2" d="M29 82h11M44 82h2"/><circle cx="136" cy="72" r="14" fill="#D0C5E2" stroke="#171321" stroke-linecap="square" stroke-width="2"/><path stroke="#171321" stroke-linecap="square" stroke-width="2" d="m131 77 5-5-5-5M137 77l5-5-5-5"/><circle cx="96" cy="72" r="14" fill="#fff" stroke="#171321" stroke-dasharray="6 6" stroke-linecap="square" stroke-width="2"/><path stroke="#171321" stroke-width="2" d="M103.5 73H96V63"/><circle cx="64" cy="72" r="6" fill="#fff" stroke="#171321" stroke-linecap="square" stroke-width="2"/></svg>