<svg xmlns="http://www.w3.org/2000/svg" width="144" height="144" fill="none" viewBox="0 0 144 144"><rect width="144" height="144" fill="#E7E4F2" rx="72"/><path fill="#fff" d="M89.222 51.528v.07c.424-.046.855-.07 1.292-.07 6.42 0 11.625 5.205 11.625 11.625 0 6.276-4.974 11.39-11.195 11.617v.008H55.64c-7.61 0-13.778-6.169-13.778-13.778 0-7.61 6.169-13.778 13.778-13.778 1.063 0 2.099.12 3.093.349 1.749-6.644 7.797-11.543 14.99-11.543 8.56 0 15.5 6.94 15.5 15.5ZM36 88h70v10a8 8 0 0 1-8 8H36V88Z"/><path stroke="#171321" stroke-linecap="square" stroke-width="2" d="M63 88H36v18h62a8 8 0 0 0 8-8V88H71V75h20c6.22-.227 11-5.724 11-12 0-6.42-5.066-11.472-11.486-11.472-.437 0-.868.024-1.292.07v-.07C89.222 42.968 82.56 36 74 36c-7.193 0-13.52 4.927-15.268 11.57a13.82 13.82 0 0 0-3.093-.348C48.029 47.222 42 53.391 42 61c0 6.726 4.68 12.326 11.054 13.536 0 0 1.946.464 9.946.464M74 97h22"/><circle cx="58" cy="97" r="3" fill="#AEA5D6" stroke="#171321" stroke-linecap="square" stroke-width="2"/><circle cx="47" cy="97" r="3" fill="#FF9D73" stroke="#171321" stroke-linecap="square" stroke-width="2"/><circle cx="94" cy="45" r="14" fill="#6FDAC9" stroke="#171321" stroke-linecap="square" stroke-width="2"/><path fill="#171321" fill-rule="evenodd" d="M93 51v1h2v-6h6v-2h-6v-6h-2v6h-6v2h6v5Z" clip-rule="evenodd"/><path stroke="#171321" stroke-linecap="square" stroke-width="2" d="M116 45a21.992 21.992 0 0 0-6.444-15.556A22.005 22.005 0 0 0 94 23"/></svg>