<svg xmlns="http://www.w3.org/2000/svg" width="144" height="144" fill="none" viewBox="0 0 144 144"><rect width="144" height="144" fill="#E7E4F2" rx="72"/><circle cx="61" cy="81" r="35" fill="#fff"/><path stroke="#171321" stroke-linecap="square" stroke-width="2" d="M95.942 78.99a35 35 0 1 1-10.068-22.612"/><circle cx="53" cy="94" r="10" fill="#D0C5E2" stroke="#171321" stroke-linecap="square" stroke-width="2"/><circle cx="75" cy="81" r="10" fill="#D0C5E2" stroke="#171321" stroke-linecap="square" stroke-width="2"/><circle cx="53" cy="68" r="10" fill="#D0C5E2" stroke="#171321" stroke-linecap="square" stroke-width="2"/><path fill="#fff" stroke="#171321" stroke-linecap="square" stroke-width="2" d="M96.5 71c12.426 0 22.5-10.074 22.5-22.5S108.926 26 96.5 26 74 36.074 74 48.5V71h22.5Z"/><circle cx="96.5" cy="48.5" r="15" fill="#6FDAC9"/><path fill="#171321" fill-rule="evenodd" d="M97.5 42.5v-1h-2v6h-6v2h6v6h2v-6h6v-2h-6v-5Z" clip-rule="evenodd"/><path stroke="#171321" stroke-linecap="square" stroke-width="2" d="M126 48a29.007 29.007 0 0 0-8.494-20.506A29.005 29.005 0 0 0 97 19"/><circle cx="75" cy="70" r="6" fill="#fff" stroke="#171321" stroke-linecap="square" stroke-width="2"/></svg>