<svg xmlns="http://www.w3.org/2000/svg" width="144" height="144" fill="none" viewBox="0 0 144 144"><rect width="144" height="144" fill="#E7E4F2" rx="72" transform="matrix(-1 0 0 1 144 0)"/><circle cx="72" cy="72" r="35" fill="#fff"/><path fill="#AEA5D6" d="M94.397 98.897A34.86 34.86 0 0 1 72 107a34.86 34.86 0 0 1-22.397-8.103l9.054-9.054a8 8 0 0 1 5.657-2.343h15.372a8 8 0 0 1 5.657 2.343l9.054 9.054Z"/><circle cx="72" cy="68" r="12" fill="#D0C5E2" stroke="#171321" stroke-linecap="square" stroke-width="2"/><path stroke="#171321" stroke-linecap="square" stroke-width="2" d="m50 98 6.314-6.314A16 16 0 0 1 67.627 87h8.746a16 16 0 0 1 11.313 4.686l6.984 6.98a34.997 34.997 0 0 1-47.713-2.215A35 35 0 1 1 106.64 77"/><circle cx="96" cy="96" r="14" fill="#D0C5E2" stroke="#171321" stroke-linecap="square" stroke-width="2"/><path fill="#171321" fill-rule="evenodd" d="M97.481 88H94.52l-.201 2.008a6.184 6.184 0 0 0-1.365.566l-1.562-1.278-2.095 2.095 1.278 1.562c-.24.426-.431.884-.566 1.365l-2.008.2v2.963l2.008.201c.135.481.326.939.566 1.365l-1.278 1.562 2.095 2.095 1.562-1.278c.426.24.884.431 1.365.566l.2 2.008h2.963l.201-2.008a6.194 6.194 0 0 0 1.365-.566l1.562 1.278 2.095-2.095-1.278-1.562c.24-.426.431-.884.566-1.365l2.008-.2v-2.963l-2.008-.201a6.192 6.192 0 0 0-.566-1.365l1.278-1.562-2.095-2.095-1.562 1.278a6.181 6.181 0 0 0-1.365-.566l-.2-2.008ZM96 99.852a3.852 3.852 0 1 0 0-7.704 3.852 3.852 0 0 0 0 7.704Z" clip-rule="evenodd"/></svg>