<svg xmlns="http://www.w3.org/2000/svg" width="144" height="144" fill="none" viewBox="0 0 144 144"><rect width="144" height="144" fill="#E7E4F2" rx="72"/><path fill="#D0C5E2" d="M48 100h40a8 8 0 0 1-8 8H48v-8ZM41 92h54v8H41v-8Z"/><path stroke="#171321" stroke-linecap="square" stroke-width="2" d="M41 92v8h54M48 100v8h32a8 8 0 0 0 8-8v0"/><path fill="#fff" d="M87.333 56H48.675a4 4 0 0 0-3.693 2.462l-11.666 28C32.218 89.096 34.153 92 37.008 92H99c2.854 0 4.79-2.904 3.692-5.538l-11.666-28A4 4 0 0 0 87.333 56Z"/><path stroke="#171321" stroke-linecap="square" stroke-width="2" d="m44.34 60.003.642-1.541A4 4 0 0 1 48.675 56h38.658a4 4 0 0 1 3.693 2.462l11.666 28C103.79 89.096 101.854 92 99 92H37.008c-2.855 0-4.79-2.904-3.693-5.538l7.692-18.46"/><path fill="#fff" stroke="#171321" stroke-linecap="square" stroke-width="2" d="M96 70.5c12.426 0 22.5-10.074 22.5-22.5S108.426 25.5 96 25.5 73.5 35.574 73.5 48v22.5H96Z"/><circle cx="96" cy="48" r="15" fill="#6FDAC9"/><path fill="#171321" fill-rule="evenodd" d="M97 42v-1h-2v6h-6v2h6v6h2v-6h6v-2h-6v-5Z" clip-rule="evenodd"/><path stroke="#171321" stroke-linecap="square" stroke-width="2" d="M125 48a29.007 29.007 0 0 0-8.494-20.506A29.005 29.005 0 0 0 96 19"/><circle cx="75" cy="70" r="6" fill="#fff" stroke="#171321" stroke-linecap="square" stroke-width="2"/></svg>