<svg xmlns="http://www.w3.org/2000/svg" width="144" height="144" fill="none" viewBox="0 0 144 144"><rect width="144" height="144" fill="#E7E4F2" rx="72"/><path fill="#171321" d="M48 40h-2v70h2V40Z"/><path fill="#fff" d="M47 41h57l-8 20.5 8 20.5H47V41Z"/><circle cx="74" cy="62" r="14" fill="#6FDAC9"/><path fill="#171321" fill-rule="evenodd" d="m76.457 57.093-.26.966-2.419 9.03-.259.966-1.932-.518.26-.966 2.419-9.03.259-.965 1.931.517Zm-5.946 8.02-.707-.708-2.09-2.09 2.09-2.089.707-.707-1.414-1.414-.707.707-2.797 2.797-.707.707.707.707 2.797 2.797.707.707 1.414-1.415Zm7.96-.708-.708.707 1.414 1.415.707-.707 2.797-2.797.707-.707-.707-.707-2.797-2.797-.707-.707-1.414 1.414.707.707 2.09 2.09-2.09 2.09Z" clip-rule="evenodd"/><path stroke="#171321" stroke-linecap="square" stroke-width="2" d="M47 41h57l-7.5 20.5L104 83H47V41Z"/></svg>