<svg xmlns="http://www.w3.org/2000/svg" width="144" height="144" fill="none" viewBox="0 0 144 144"><rect width="144" height="144" fill="#E7E4F2" rx="72"/><path fill="#D0C5E2" d="M60 43.08h-9V104h42l9-9H60V43.08Z"/><path stroke="#171321" stroke-linecap="square" stroke-width="2" d="M60 43h-9v61h39.486a6 6 0 0 0 4.277-1.793L96 100.95"/><path fill="#fff" d="M60 34h35l12 11v42a8 8 0 0 1-8 8H60V34Z"/><path fill="#fff" d="M107 45 95 34v11h12Z"/><path fill="#171321" d="M60 34v-1h-1v1h1Zm35 0 .676-.737-.287-.263H95v1ZM60 95h-1v1h1v-1Zm48-42.5v-1h-2v1h2Zm-1-7.5v1l.676-1.737L107 45Zm-12 0h-1v1h1v-1ZM60 35h35v-2H60v2Zm39 59H60v2h39v-2Zm-38 1V34h-2v61h2Zm45-42.5V87h2V52.5h-2ZM94.324 34.737l12 11 1.352-1.474-12-11-1.352 1.474ZM107 44H95v2h12v-2Zm-11 1V34h-2v11h2Zm3 51a9 9 0 0 0 9-9h-2a7 7 0 0 1-7 7v2Z"/><path stroke="#171321" stroke-linecap="square" stroke-width="2" d="M72 55h13"/><path stroke="#FF9D73" stroke-linecap="square" stroke-width="2" d="M89 55h6"/><path stroke="#AEA5D6" stroke-linecap="square" stroke-width="2" d="M72 63h7"/><path stroke="#171321" stroke-linecap="square" stroke-width="2" d="M83 63h12M72 71h2"/><path stroke="#FF9D73" stroke-linecap="square" stroke-width="2" d="M78 71h7"/><path stroke="#AEA5D6" stroke-linecap="square" stroke-width="2" d="M89 71h6"/><path stroke="#171321" stroke-linecap="square" stroke-width="2" d="M72 79h11M87 79h2"/><circle cx="45.5" cy="85.5" r="22.5" fill="#fff"/><path stroke="#171321" stroke-linecap="square" stroke-width="2" d="M25.233 75.728a22.5 22.5 0 1 0 4.012-5.785"/><circle cx="45.5" cy="85.5" r="15.5" fill="#D0C5E2"/><path fill="#171321" fill-rule="evenodd" d="m47.57 80.038-.258.966-2.42 9.03-.259.966-1.931-.518.259-.966 2.419-9.03.259-.965 1.932.517Zm-5.945 8.02-.707-.708-2.09-2.09 2.09-2.089.707-.707-1.414-1.414-.707.707-2.797 2.797-.707.707.707.707 2.797 2.797.707.707 1.414-1.414Zm7.96-.708-.708.708 1.415 1.414.707-.707 2.796-2.797.707-.707-.707-.707L51 81.757l-.707-.707-1.415 1.414.707.707 2.09 2.09-2.09 2.09Z" clip-rule="evenodd"/></svg>