<svg xmlns="http://www.w3.org/2000/svg" width="144" height="144" fill="none" viewBox="0 0 144 144"><rect width="144" height="144" rx="72" fill="#E7E4F2"/><path d="M107 93V57H37V101H99C103.418 101 107 97.4183 107 93Z" fill="white"/><rect x="47" y="68" width="8" height="8" rx="2" stroke="#171321" stroke-width="2"/><rect x="47" y="82" width="8" height="8" rx="2" stroke="#171321" stroke-width="2"/><rect x="61" y="68" width="8" height="8" rx="2" stroke="#171321" stroke-width="2"/><rect x="61" y="82" width="8" height="8" rx="2" stroke="#171321" stroke-width="2"/><rect x="75" y="68" width="8" height="8" rx="2" stroke="#171321" stroke-width="2"/><rect x="75" y="82" width="8" height="8" rx="2" stroke="#171321" stroke-width="2" stroke-linecap="square"/><rect x="89" y="68" width="8" height="8" rx="2" stroke="#171321" stroke-width="2"/><path d="M37 45H107V57H37V45Z" fill="#AEA5D6"/><path d="M38 57H106" stroke="#171321" stroke-width="2" stroke-linecap="square" stroke-linejoin="round"/><path d="M107 83V93C107 97.4183 103.418 101 99 101H37V45H107V74" stroke="#171321" stroke-width="2" stroke-linecap="square"/><rect x="55" y="40" width="5" height="10" fill="white" stroke="#171321" stroke-width="2"/><rect x="84" y="40" width="5" height="10" fill="white" stroke="#171321" stroke-width="2"/><circle cx="101" cy="95" r="14" fill="#6FDAC9" stroke="#171321" stroke-width="2" stroke-linecap="square"/><path fill-rule="evenodd" clip-rule="evenodd" d="M100 101L100 102L102 102L102 101L102 96L107 96L108 96L108 94L107 94L102 94L102 89L102 88L100 88L100 89L100 94L95 94L94 94L94 96L95 96L100 96L100 101Z" fill="#171321"/><path d="M101 117C103.889 117 106.75 116.431 109.419 115.325C112.088 114.22 114.513 112.599 116.556 110.556C118.599 108.513 120.22 106.088 121.325 103.419C122.431 100.75 123 97.8891 123 95" stroke="#171321" stroke-width="2" stroke-linecap="square"/></svg>