<svg width="144" height="144" fill="none" viewBox="0 0 144 144" xmlns="http://www.w3.org/2000/svg"><rect width="144" height="144" rx="72" fill="var(--gl-illustration-base-fill-color, #e7e4f2ff)"/><circle cx="61" cy="81" r="35" fill="var(--gl-illustration-fill-color-default, #ffffff)"/><path d="M95.942 78.99a35 35 0 1 1-10.067-22.612" stroke="var(--gl-illustration-stroke-color-default, #171321ff)" stroke-width="var(--gl-illustration-stroke-width-default, 2)" stroke-linecap="square"/><circle cx="53" cy="94" r="10" fill="var(--gl-illustration-accent-fill-color-subtle, #d0c5e2ff)" stroke="var(--gl-illustration-stroke-color-default, #171321ff)" stroke-width="var(--gl-illustration-stroke-width-default, 2)" stroke-linecap="square"/><circle cx="75" cy="81" r="10" fill="var(--gl-illustration-accent-fill-color-subtle, #d0c5e2ff)" stroke="var(--gl-illustration-stroke-color-default, #171321ff)" stroke-width="var(--gl-illustration-stroke-width-default, 2)" stroke-linecap="square"/><circle cx="53" cy="68" r="10" fill="var(--gl-illustration-accent-fill-color-subtle, #d0c5e2ff)" stroke="var(--gl-illustration-stroke-color-default, #171321ff)" stroke-width="var(--gl-illustration-stroke-width-default, 2)" stroke-linecap="square"/><path d="M96.5 71c12.426 0 22.5-10.074 22.5-22.5S108.926 26 96.5 26 74 36.074 74 48.5V71h22.5Z" fill="var(--gl-illustration-fill-color-default, #ffffff)" stroke="var(--gl-illustration-stroke-color-default, #171321ff)" stroke-width="var(--gl-illustration-stroke-width-default, 2)" stroke-linecap="square"/><circle cx="96.5" cy="48.5" r="15" fill="var(--gl-illustration-status-fill-color-success, #6fdac9ff)"/><path d="M102.5 48.5h-6m-6 0h6m0 0v-6m0 6v6M126 48a29.007 29.007 0 0 0-8.494-20.506A29.005 29.005 0 0 0 97 19" stroke="var(--gl-illustration-stroke-color-default, #171321ff)" stroke-width="var(--gl-illustration-stroke-width-default, 2)" stroke-linecap="square"/><circle cx="75" cy="70" r="6" fill="var(--gl-illustration-fill-color-default, #ffffff)" stroke="var(--gl-illustration-stroke-color-default, #171321ff)" stroke-width="var(--gl-illustration-stroke-width-default, 2)" stroke-linecap="square"/></svg>