<svg width="144" height="144" fill="none" viewBox="0 0 144 144" xmlns="http://www.w3.org/2000/svg"><rect width="144" height="144" rx="72" fill="var(--gl-illustration-base-fill-color, #e7e4f2ff)"/><path d="M89 31.65 55 48v36l34 16.35v-68.7Z" fill="var(--gl-illustration-fill-color-default, #ffffff)"/><path d="M89 39h14v46a8 8 0 0 1-8 8h-6V39Z" fill="var(--gl-illustration-accent-fill-color-subtle, #d0c5e2ff)"/><path d="M89 93h6a8 8 0 0 0 8-8V39H89M55 53v-5l34-16.35v68.7L55 84V61" stroke="var(--gl-illustration-stroke-color-default, #171321ff)" stroke-width="var(--gl-illustration-stroke-width-default, 2)" stroke-linecap="square"/><circle cx="47" cy="89" r="23" fill="var(--gl-illustration-fill-color-default, #ffffff)"/><path d="M67.717 98.99a23 23 0 1 0-4.1 5.913" stroke="var(--gl-illustration-stroke-color-default, #171321ff)" stroke-width="var(--gl-illustration-stroke-width-default, 2)" stroke-linecap="square"/><circle cx="47" cy="89" r="15" fill="var(--gl-illustration-accent-fill-color-orange, #ff9d73ff)"/><path d="M40 85h2m12 0h-2m0 0-1 11h-4m5-11h-2m-8 0 1 11h4m-5-11h2m3 11V85m0 0h-3m3 0h3m-6 0v-3h6v3M93 108a21.992 21.992 0 0 0 15.556-6.444A21.992 21.992 0 0 0 115 86" stroke="var(--gl-illustration-stroke-color-default, #171321ff)" stroke-width="var(--gl-illustration-stroke-width-default, 2)" stroke-linecap="square"/></svg>