<svg width="144" height="144" fill="none" viewBox="0 0 144 144" xmlns="http://www.w3.org/2000/svg"><rect width="144" height="144" rx="72" fill="var(--gl-illustration-base-fill-color, #e7e4f2ff)"/><circle cx="71" cy="72" r="35" fill="var(--gl-illustration-fill-color-default, #ffffff)"/><path d="M93.397 98.897A34.86 34.86 0 0 1 71 107a34.86 34.86 0 0 1-22.397-8.103l9.054-9.054a8 8 0 0 1 5.657-2.343h15.372a8 8 0 0 1 5.657 2.343l9.054 9.054Z" fill="var(--gl-illustration-accent-fill-color-strong, #aea5d6ff)"/><path d="M100.067 91.497a35.002 35.002 0 0 0-32.258-54.351 35 35 0 1 0 25.861 61.52l-6.984-6.98A16 16 0 0 0 75.373 87h-8.746a16 16 0 0 0-11.313 4.686L49 98" stroke="var(--gl-illustration-stroke-color-default, #171321ff)" stroke-width="var(--gl-illustration-stroke-width-default, 2)" stroke-linecap="square"/><circle cx="71" cy="68" r="12" fill="var(--gl-illustration-accent-fill-color-subtle, #d0c5e2ff)" stroke="var(--gl-illustration-stroke-color-default, #171321ff)" stroke-width="var(--gl-illustration-stroke-width-default, 2)" stroke-linecap="square"/></svg>