<svg xmlns="http://www.w3.org/2000/svg" width="144" height="144" fill="none" viewBox="0 0 144 144"><rect width="144" height="144" fill="#E7E4F2" rx="72"/><path stroke="#171321" stroke-linecap="square" stroke-width="2" d="M72 31.722a40.277 40.277 0 0 1 36.661 23.596"/><path stroke="#171321" stroke-linecap="square" stroke-width="2" d="m76.167 38.667-6.945-6.945 6.945-6.944M31.722 72A40.278 40.278 0 0 1 54.17 35.884"/><path stroke="#171321" stroke-linecap="square" stroke-width="2" d="m38.667 67.833-6.945 6.945-6.944-6.945M72 112.278a40.274 40.274 0 0 1-36.667-23.61"/><path stroke="#171321" stroke-linecap="square" stroke-width="2" d="m67.833 105.333 6.945 6.945-6.945 6.944M112.278 72a40.277 40.277 0 0 1-23.585 36.656"/><path stroke="#171321" stroke-linecap="square" stroke-width="2" d="m105.333 76.167 6.945-6.945 6.944 6.945"/><path fill="#FF9D73" fill-rule="evenodd" stroke="#171321" stroke-linecap="square" stroke-width="2" d="M76.63 47h-9.26l-.627 6.275a19.323 19.323 0 0 0-4.265 1.768l-4.882-3.994-6.547 6.547 3.994 4.882a19.327 19.327 0 0 0-1.768 4.265L47 67.37v9.26l6.275.627a19.323 19.323 0 0 0 1.768 4.265l-3.994 4.882 6.547 6.547 4.882-3.994a19.323 19.323 0 0 0 4.265 1.768L67.37 97h9.26l.627-6.275a19.323 19.323 0 0 0 4.265-1.768l4.882 3.994 6.547-6.547-3.994-4.882a19.327 19.327 0 0 0 1.769-4.265L97 76.63v-9.26l-6.275-.627a19.32 19.32 0 0 0-1.768-4.265l3.994-4.882-6.547-6.547-4.882 3.994a19.323 19.323 0 0 0-4.265-1.768L76.63 47ZM72 84.037c6.648 0 12.037-5.39 12.037-12.037 0-6.648-5.39-12.037-12.037-12.037-6.648 0-12.037 5.39-12.037 12.037 0 6.648 5.39 12.037 12.037 12.037Z" clip-rule="evenodd"/></svg>