<svg width="144" height="144" fill="none" viewBox="0 0 144 144" xmlns="http://www.w3.org/2000/svg"><rect width="144" height="144" rx="72" fill="var(--gl-illustration-base-fill-color, #e7e4f2ff)"/><path d="M107 92V56H37v44h62a8 8 0 0 0 8-8Z" fill="var(--gl-illustration-fill-color-default, #ffffff)"/><path d="M37 44h70v12H37V44Z" fill="var(--gl-illustration-accent-fill-color-strong, #aea5d6ff)"/><path d="M59 50h41M44.101 44H37v12m15.217-12H107v12m-70 0v44h62a8 8 0 0 0 8-8V56m-70 0h70M44 50h.01M52 50h.01M48 50h.01" stroke="var(--gl-illustration-stroke-color-default, #171321ff)" stroke-width="var(--gl-illustration-stroke-width-default, 2)" stroke-linecap="square"/><path d="M44 76V63h26v13H44ZM44 94V81h26v13H44ZM75 94V63h26v28a3 3 0 0 1-3 3H75Z" fill="var(--gl-illustration-accent-fill-color-subtle, #d0c5e2ff)" stroke="var(--gl-illustration-stroke-color-default, #171321ff)" stroke-width="var(--gl-illustration-stroke-width-default, 2)"/></svg>