<svg xmlns="http://www.w3.org/2000/svg" width="144" height="144" fill="none" viewBox="0 0 144 144"><rect width="144" height="144" fill="#E7E4F2" rx="72"/><path fill="#fff" stroke="#171321" stroke-linecap="square" stroke-width="2" d="M106 66V39c-11.2 0-20.16-2-28-9-7.84 7-16.8 9-28 9v27c0 21 28 32 28 32s28-11 28-32Z"/><path fill="#D0C5E2" d="M96 65.294v-17.47c-7.2 0-12.96-1.295-18-5.824-5.04 4.53-10.8 5.824-18 5.824v17.47C60 78.882 78 86 78 86s18-7.118 18-20.706Z"/><path fill="#fff" stroke="#171321" stroke-linecap="square" stroke-width="2" d="M51.5 70C39.074 70 29 80.074 29 92.5S39.074 115 51.5 115 74 104.926 74 92.5V70H51.5Z"/><circle cx="51.5" cy="92.5" r="15" fill="#6FDAC9" transform="rotate(180 51.5 92.5)"/><path fill="#171321" fill-rule="evenodd" d="M50.5 98.5v1h2v-6h6v-2h-6v-6h-2v6h-6v2h6v5Z" clip-rule="evenodd"/><path stroke="#171321" stroke-linecap="square" stroke-width="2" d="M22 92.5a29.497 29.497 0 0 0 18.21 27.254A29.491 29.491 0 0 0 51.5 122"/><circle cx="74" cy="70" r="6" fill="#fff" stroke="#171321" stroke-linecap="square" stroke-width="2"/></svg>