<svg xmlns="http://www.w3.org/2000/svg" width="144" height="144" fill="none" viewBox="0 0 144 144"><rect width="144" height="144" fill="#E7E4F2" rx="72" transform="matrix(-1 0 0 1 144 0)"/><path fill="#AEA5D6" d="m93 86-8 8 9.843 9.843a8 8 0 0 0 11.314 0l2.343-2.343L93 86Z"/><path stroke="#171321" stroke-linecap="square" stroke-width="2" d="m93 86-8 8 9.843 9.843a8 8 0 0 0 11.314 0l2.343-2.343L97 90M85 86l3 3"/><circle cx="66" cy="67" r="27" fill="#fff" stroke="#171321" stroke-linecap="square" stroke-width="2"/><path stroke="#171321" stroke-linecap="square" stroke-width="2" d="m66 78 10-10M52 73l21-21M103 67a37.008 37.008 0 0 0-10.837-26.163A37.001 37.001 0 0 0 66 30"/></svg>