<svg width="144" height="144" fill="none" viewBox="0 0 144 144" xmlns="http://www.w3.org/2000/svg"><rect width="144" height="144" rx="72" fill="var(--gl-illustration-base-fill-color, #e7e4f2ff)"/><path fill-rule="evenodd" clip-rule="evenodd" d="M72 101c16.016 0 29-12.984 29-29S88.016 43 72 43 43 55.984 43 72s12.984 29 29 29Zm0-13c8.837 0 16-7.163 16-16s-7.163-16-16-16-16 7.163-16 16 7.163 16 16 16Z" fill="var(--gl-illustration-fill-color-default, #ffffff)"/><path d="M99.788 80.296A29 29 0 1 1 72.022 43" stroke="var(--gl-illustration-stroke-color-default, #171321ff)" stroke-width="var(--gl-illustration-stroke-width-default, 2)" stroke-linecap="square"/><path d="M88 72a16 16 0 1 1-23.992-13.86" stroke="var(--gl-illustration-stroke-color-default, #171321ff)" stroke-width="var(--gl-illustration-stroke-width-default, 2)" stroke-linecap="square"/><path d="M103 72a30.996 30.996 0 0 0-4.153-15.5L84.51 64.777A14.446 14.446 0 0 1 86.446 72H103Z" fill="var(--gl-illustration-accent-fill-color-orange, #ff9d73ff)" stroke="var(--gl-illustration-stroke-color-default, #171321ff)" stroke-width="var(--gl-illustration-stroke-width-default, 2)" stroke-linecap="square"/><path d="M102.311 54.5A35 35 0 0 0 72 37v23.315a11.684 11.684 0 0 1 10.12 5.843L102.31 54.5Z" fill="var(--gl-illustration-accent-fill-color-strong, #aea5d6ff)" stroke="var(--gl-illustration-stroke-color-default, #171321ff)" stroke-width="var(--gl-illustration-stroke-width-default, 2)" stroke-linecap="square"/></svg>