<svg xmlns="http://www.w3.org/2000/svg" width="144" height="144" fill="none" viewBox="0 0 144 144"><rect width="144" height="144" rx="72" fill="#E7E4F2"/><path fill-rule="evenodd" clip-rule="evenodd" d="M87 62c0 3.802-.849 7.406-2.367 10.633L107 95v12h-5a8 8 0 0 1-8-8h-7v-4l-2-2h-6l-3-3-2 2-5.78-5.78c-1.989.51-4.073.78-6.22.78-13.807 0-25-11.193-25-25s11.193-25 25-25 25 11.193 25 25Zm-40.894 8L70 46.106A17.556 17.556 0 0 0 61.635 44C51.895 44 44 51.896 44 61.635c0 3.027.763 5.876 2.106 8.365Z" fill="#fff"/><path d="m84.633 72.633-.905-.426-.3.636.498.497.707-.707ZM107 95h1v-.414l-.293-.293L107 95Zm0 12v1h1v-1h-1Zm-13-8h1v-1h-1v1Zm-7 0h-1v1h1v-1Zm0-4h1v-.414l-.293-.293L87 95Zm-2-2 .707-.707-.293-.293H85v1Zm-6 0-.707.707.293.293H79v-1Zm-3-3 .707-.707-.707-.707-.707.707L76 90Zm-2 2-.707.707.707.707.707-.707L74 92Zm-5.78-5.78.707-.707-.403-.403-.552.141.248.97ZM70 46.106l.707.707.95-.95-1.182-.637-.475.88ZM46.106 70l-.88.475.638 1.181.95-.949-.708-.707Zm39.431 3.058A25.903 25.903 0 0 0 88 62h-2c0 3.652-.815 7.11-2.272 10.207l1.81.852Zm22.17 21.235L85.34 71.926l-1.414 1.414 22.367 22.367 1.414-1.414ZM108 107V95h-2v12h2Zm-6 1h5v-2h-5v2Zm-9-9a9 9 0 0 0 9 9v-2a7 7 0 0 1-7-7h-2Zm-6 1h7v-2h-7v2Zm-1-5v4h2v-4h-2Zm-1.707-1.293 2 2 1.414-1.414-2-2-1.414 1.414ZM79 94h6v-2h-6v2Zm-3.707-3.293 3 3 1.414-1.414-3-3-1.414 1.414Zm-.586 2 2-2-1.414-1.414-2 2 1.414 1.414Zm-7.194-5.78 5.78 5.78 1.414-1.414-5.78-5.78-1.414 1.414ZM62 88c2.232 0 4.4-.281 6.468-.811l-.496-1.938A24.047 24.047 0 0 1 62 86v2ZM36 62c0 14.36 11.64 26 26 26v-2c-13.255 0-24-10.745-24-24h-2Zm26-26c-14.36 0-26 11.64-26 26h2c0-13.255 10.745-24 24-24v-2Zm26 26c0-14.36-11.64-26-26-26v2c13.255 0 24 10.745 24 24h2ZM69.293 45.399 45.399 69.293l1.414 1.414 23.894-23.894-1.414-1.414ZM61.635 45c2.857 0 5.543.72 7.89 1.986l.95-1.76A18.557 18.557 0 0 0 61.635 43v2ZM45 61.635C45 52.448 52.448 45 61.635 45v-2C51.343 43 43 51.343 43 61.635h2Zm1.986 7.89A16.557 16.557 0 0 1 45 61.635h-2c0 3.197.806 6.209 2.226 8.84l1.76-.95Z" fill="#171321"/><path d="m81 76 25.5 25.5" stroke="#171321" stroke-width="2" stroke-linecap="square"/><path d="M76 51 51 76l4 4 25-25-4-4Z" fill="#FF9D73" stroke="#171321" stroke-width="2" stroke-linecap="square"/></svg>