<svg xmlns="http://www.w3.org/2000/svg" width="144" height="144" fill="none" viewBox="0 0 144 144"><rect width="144" height="144" rx="72" transform="matrix(-1 0 0 1 144 0)" fill="#E7E4F2"/><path d="M111.843 77.657 86 103.5v-57a4.243 4.243 0 0 1 6 0l19.843 19.843a8 8 0 0 1 0 11.314Z" fill="#fff"/><rect x="45" y="37" width="43" height="70" rx="8" fill="#fff"/><path d="M88.25 45.314a8.602 8.602 0 0 1 4.886 2.444l18.329 18.328a8.64 8.64 0 0 1 0 12.22L95 94.77M45 47v-2a8 8 0 0 1 8-8h27a8 8 0 0 1 8 8v54a8 8 0 0 1-8 8H53a8 8 0 0 1-8-8V55" stroke="#171321" stroke-width="2" stroke-linecap="square"/></svg>