<svg width="144" height="144" fill="none" viewBox="0 0 144 144" xmlns="http://www.w3.org/2000/svg"><rect width="144" height="144" rx="72" fill="var(--gl-illustration-base-fill-color, #e7e4f2ff)"/><path d="M46 77.5h-9V115h42l9-9H46V77.5Z" fill="var(--gl-illustration-accent-fill-color-subtle, #d0c5e2ff)"/><path d="M46 77.5h-9V115h39.486a6 6 0 0 0 4.277-1.793L82 111.95" stroke="var(--gl-illustration-stroke-color-default, #171321ff)" stroke-width="var(--gl-illustration-stroke-width-default, 2)" stroke-linecap="square"/><g stroke="var(--gl-illustration-stroke-color-default, #171321ff)" stroke-width="var(--gl-illustration-stroke-width-default, 2)" stroke-linecap="square"><path d="M44 67h56v32a8 8 0 0 1-8 8H44V67Z" fill="var(--gl-illustration-fill-color-default, #ffffff)"/><path d="M53 67V56c0-10.493 8.507-19 19-19v0c10.493 0 19 8.507 19 19v11"/></g><path d="m54.366 84.375 4.114 2.375M62.593 89l-4.113-2.25m0 0L58.5 82m-.02 4.75.02 4.75m-.02-4.75 4.113-2.375M58.48 86.75 54.37 89M68.248 84.375l4.114 2.375M76.475 89l-4.113-2.25m0 0 .02-4.75m-.02 4.75.02 4.75m-.02-4.75 4.113-2.375m-4.113 2.375L68.252 89M82.348 84.375l4.114 2.375M90.575 89l-4.113-2.25m0 0 .02-4.75m-.02 4.75.02 4.75m-.02-4.75 4.113-2.375m-4.113 2.375L82.352 89" stroke="var(--gl-illustration-stroke-color-default, #171321ff)" stroke-width="var(--gl-illustration-stroke-width-default, 2)" stroke-linecap="square"/><g stroke="var(--gl-illustration-stroke-color-default, #171321ff)" stroke-width="var(--gl-illustration-stroke-width-default, 2)" stroke-linecap="square"><circle cx="94" cy="45" r="14" fill="var(--gl-illustration-status-fill-color-success, #6fdac9ff)"/><path d="M88 45h6m6 0h-6m0 0v-6m0 6v6"/></g><path d="M116 45a21.992 21.992 0 0 0-6.444-15.556A22.005 22.005 0 0 0 94 23" stroke="var(--gl-illustration-stroke-color-default, #171321ff)" stroke-width="var(--gl-illustration-stroke-width-default, 2)" stroke-linecap="square"/></svg>