<svg xmlns="http://www.w3.org/2000/svg" width="144" height="144" fill="none" viewBox="0 0 144 144"><rect width="144" height="144" fill="#E7E4F2" rx="72"/><path stroke="#171321" stroke-linecap="square" stroke-width="2" d="M101 114h15M70 32h2c22.091 0 40 17.909 40 40s-17.909 40-40 40H33M57 34.908C42.34 40.842 32 55.213 32 72c0 7.914 2.298 15.29 6.264 21.5M110 106l8 8-8 8"/><path stroke="#171321" stroke-linecap="square" stroke-width="2" d="m76 40-8-8 8-8"/><circle cx="72" cy="72" r="26.25" fill="#FCA326" stroke="#171321" stroke-linecap="square" stroke-width="2"/><path fill="#171321" fill-rule="evenodd" d="M73 60v-1h-2v18.5h2V60Zm-1 24.75a1.5 1.5 0 1 0 0-3 1.5 1.5 0 0 0 0 3Z" clip-rule="evenodd"/></svg>