<svg xmlns="http://www.w3.org/2000/svg" width="144" height="144" fill="none" viewBox="0 0 144 144"><rect width="144" height="144" fill="#E7E4F2" rx="72"/><path fill="#fff" stroke="#171321" stroke-linecap="square" stroke-width="2" d="M96 70.5c12.426 0 22.5-10.074 22.5-22.5S108.426 25.5 96 25.5 73.5 35.574 73.5 48v22.5H96Z"/><circle cx="96" cy="48" r="15" fill="#6FDAC9"/><path fill="#171321" fill-rule="evenodd" d="M97 42v-1h-2v6h-6v2h6v6h2v-6h6v-2h-6v-5Z" clip-rule="evenodd"/><path stroke="#171321" stroke-linecap="square" stroke-width="2" d="M125 48a29.007 29.007 0 0 0-8.494-20.506A29.005 29.005 0 0 0 96 19"/><path fill="#fff" d="M72 73v.082c.492-.054.993-.082 1.5-.082C80.956 73 87 79.044 87 86.5c0 7.288-5.776 13.228-13 13.49v.01H33c-8.837 0-16-7.163-16-16s7.163-16 16-16c1.235 0 2.437.14 3.592.405C38.623 60.69 45.647 55 54 55c9.941 0 18 8.059 18 18Z"/><path stroke="#171321" stroke-linecap="square" stroke-width="2" d="M41 100h33v-.01c7.224-.262 13-6.202 13-13.49C87 79.044 80.956 73 73.5 73c-.507 0-1.008.028-1.5.082V73c0-9.941-8.059-18-18-18-8.353 0-15.377 5.69-17.408 13.405A16.047 16.047 0 0 0 33 68c-8.837 0-16 7.163-16 16 0 7.811 5.598 14.315 13 15.72"/><circle cx="52" cy="99" r="14" fill="#6FDAC9" stroke="#171321" stroke-linecap="square" stroke-width="2"/><path stroke="#171321" stroke-linecap="square" stroke-width="2" d="m47.2 99.367 2.823 2.833 6.777-6.8"/><circle cx="75" cy="70" r="6" fill="#fff" stroke="#171321" stroke-linecap="square" stroke-width="2"/></svg>