<svg width="144" height="144" fill="none" viewBox="0 0 144 144" xmlns="http://www.w3.org/2000/svg"><rect width="144" height="144" rx="72" fill="var(--gl-illustration-base-fill-color, #e7e4f2ff)"/><path d="M107 93V57H37v44h62a8 8 0 0 0 8-8Z" fill="var(--gl-illustration-fill-color-default, #ffffff)"/><path d="M47 74v-4a2 2 0 0 1 2-2h4a2 2 0 0 1 2 2v4a2 2 0 0 1-2 2h-4a2 2 0 0 1-2-2ZM47 88v-4a2 2 0 0 1 2-2h4a2 2 0 0 1 2 2v4a2 2 0 0 1-2 2h-4a2 2 0 0 1-2-2ZM61 88v-4a2 2 0 0 1 2-2h4a2 2 0 0 1 2 2v4a2 2 0 0 1-2 2h-4a2 2 0 0 1-2-2ZM75 88v-4a2 2 0 0 1 2-2h4a2 2 0 0 1 2 2v4a2 2 0 0 1-2 2h-4a2 2 0 0 1-2-2ZM61 74v-4a2 2 0 0 1 2-2h4a2 2 0 0 1 2 2v4a2 2 0 0 1-2 2h-4a2 2 0 0 1-2-2ZM75 74v-4a2 2 0 0 1 2-2h4a2 2 0 0 1 2 2v4a2 2 0 0 1-2 2h-4a2 2 0 0 1-2-2ZM89 74v-4a2 2 0 0 1 2-2h4a2 2 0 0 1 2 2v4a2 2 0 0 1-2 2h-4a2 2 0 0 1-2-2Z" stroke="var(--gl-illustration-stroke-color-default, #171321ff)" stroke-width="var(--gl-illustration-stroke-width-default, 2)"/><path d="M37 45h70v12H37V45Z" fill="var(--gl-illustration-accent-fill-color-strong, #aea5d6ff)"/><path d="M107 83v10a8 8 0 0 1-8 8H37V57m70 17V57m0 0V45H37v12m70 0H37" stroke="var(--gl-illustration-stroke-color-default, #171321ff)" stroke-width="var(--gl-illustration-stroke-width-default, 2)" stroke-linecap="square"/><path d="M55 50V40h5v10h-5ZM84 50V40h5v10h-5Z" fill="var(--gl-illustration-fill-color-default, #ffffff)" stroke="var(--gl-illustration-stroke-color-default, #171321ff)" stroke-width="var(--gl-illustration-stroke-width-default, 2)"/><g stroke="var(--gl-illustration-stroke-color-default, #171321ff)" stroke-width="var(--gl-illustration-stroke-width-default, 2)" stroke-linecap="square"><circle cx="101" cy="95" r="14" fill="var(--gl-illustration-status-fill-color-success, #6fdac9ff)"/><path d="M95 95h6m6 0h-6m0 0v-6m0 6v6"/></g><path d="M101 117a21.992 21.992 0 0 0 15.556-6.444A21.99 21.99 0 0 0 123 95" stroke="var(--gl-illustration-stroke-color-default, #171321ff)" stroke-width="var(--gl-illustration-stroke-width-default, 2)" stroke-linecap="square"/></svg>