<svg xmlns="http://www.w3.org/2000/svg" width="144" height="144" fill="none" viewBox="0 0 144 144"><rect width="144" height="144" fill="#E7E4F2" rx="72"/><path stroke="#171321" stroke-linecap="square" stroke-width="2" d="M57 47h37.5c6.904 0 12.5 5.596 12.5 12.5v0c0 6.904-5.596 12.5-12.5 12.5h-45C42.596 72 37 77.596 37 84.5v0C37 91.404 42.596 97 49.5 97H87"/><path stroke="#171321" stroke-linecap="square" stroke-width="2" d="m90 51 4-4-4-4M51 101l4-4-4-4"/><circle cx="47" cy="47" r="10" fill="#fff" stroke="#171321" stroke-linecap="square" stroke-width="2"/><circle cx="72" cy="72" r="10" fill="#fff" stroke="#171321" stroke-linecap="square" stroke-width="2"/><circle cx="97" cy="97" r="10" fill="#6FDAC9" stroke="#171321" stroke-linecap="square" stroke-width="2"/><path stroke="#171321" stroke-linecap="square" stroke-width="2" d="m93 97.5 2.353 2.5L101 94"/></svg>