<svg xmlns="http://www.w3.org/2000/svg" width="144" height="144" fill="none" viewBox="0 0 144 144"><rect width="144" height="144" fill="#E7E4F2" rx="72" transform="matrix(-1 0 0 1 144 0)"/><path fill="#fff" d="M119.843 73.657 94 99.5v-57a4.243 4.243 0 0 1 6 0l19.843 19.843a8 8 0 0 1 0 11.314Z"/><rect width="43" height="70" x="53" y="33" fill="#fff" rx="8"/><path stroke="#171321" stroke-linecap="square" stroke-width="2" d="M96.25 41.314a8.599 8.599 0 0 1 4.886 2.444l18.329 18.328a8.64 8.64 0 0 1 0 12.22L103 90.77M53 43v-2a8 8 0 0 1 8-8h27a8 8 0 0 1 8 8v54a8 8 0 0 1-8 8H61a8 8 0 0 1-8-8V51"/><path fill="#fff" stroke="#171321" stroke-linecap="square" stroke-width="2" d="M51.5 70C39.074 70 29 80.074 29 92.5S39.074 115 51.5 115 74 104.926 74 92.5V70H51.5Z"/><circle cx="51.5" cy="92.5" r="15" fill="#6FDAC9" transform="rotate(180 51.5 92.5)"/><path fill="#171321" fill-rule="evenodd" d="M50.5 98.5v1h2v-6h6v-2h-6v-6h-2v6h-6v2h6v5Z" clip-rule="evenodd"/><path stroke="#171321" stroke-linecap="square" stroke-width="2" d="M22 92.5a29.497 29.497 0 0 0 18.21 27.254A29.491 29.491 0 0 0 51.5 122"/><circle cx="74" cy="70" r="6" fill="#fff" stroke="#171321" stroke-linecap="square" stroke-width="2"/></svg>