<svg width="144" height="144" viewBox="0 0 144 144" fill="none" xmlns="http://www.w3.org/2000/svg"><g clip-path="url(#empty-embed-panel-md__a)"><rect width="144" height="144" rx="72" fill="#E7E4F2"/><path d="M134 113V25H10v96h116a8 8 0 0 0 8-8Z" fill="#fff"/><path d="M10 62.818V121h116a8 8 0 0 0 8-8V25H10v28" stroke="#171321" stroke-width="2" stroke-linecap="square"/><path d="M10 33h124" stroke="#171321" stroke-width="2" stroke-linecap="square" stroke-linejoin="round"/><path d="m72 103 33-15" stroke="#171321" stroke-width="2" stroke-linecap="square"/><circle cx="104" cy="89" r="3" fill="#FF9D73" stroke="#171321" stroke-width="2" stroke-linecap="square"/><path d="m72 103-33 5" stroke="#171321" stroke-width="2" stroke-linecap="square"/><circle cx="72" cy="103" r="3" fill="#FF9D73" stroke="#171321" stroke-width="2" stroke-linecap="square"/><circle cx="40" cy="108" r="3" fill="#FF9D73" stroke="#171321" stroke-width="2" stroke-linecap="square"/><path d="M105 65 72 92" stroke="#171321" stroke-width="2" stroke-linecap="square"/><circle cx="104" cy="66" r="3" fill="#fff" stroke="#171321" stroke-width="2" stroke-linecap="square"/><path d="m39 94 33-2" stroke="#171321" stroke-width="2" stroke-linecap="square"/><circle cx="72" cy="92" r="3" fill="#fff" stroke="#171321" stroke-width="2" stroke-linecap="square"/><circle cx="40" cy="94" r="3" fill="#fff" stroke="#171321" stroke-width="2" stroke-linecap="square"/><path d="M105 46 72 58" stroke="#171321" stroke-width="2" stroke-linecap="square"/><circle cx="104" cy="46" r="3" fill="#AEA5D6" stroke="#171321" stroke-width="2" stroke-linecap="square"/><path d="M72 58 39 83" stroke="#171321" stroke-width="2" stroke-linecap="square"/><circle cx="72" cy="58" r="3" fill="#AEA5D6" stroke="#171321" stroke-width="2" stroke-linecap="square"/><circle cx="40" cy="82" r="3" fill="#AEA5D6" stroke="#171321" stroke-width="2" stroke-linecap="square"/><circle cx="40" cy="42" r="13" fill="#FCA326" stroke="#171321" stroke-width="2" stroke-linecap="square"/><path fill-rule="evenodd" clip-rule="evenodd" d="M41 35v-1h-2v9h2v-8Zm-1 15a2 2 0 1 0 0-4 2 2 0 0 0 0 4Z" fill="#171321"/></g><defs><clipPath id="empty-embed-panel-md__a"><path fill="#fff" d="M0 0h144v144H0z"/></clipPath></defs></svg>