<svg xmlns="http://www.w3.org/2000/svg" width="144" height="144" fill="none" viewBox="0 0 144 144"><rect width="144" height="144" rx="72" transform="matrix(-1 0 0 1 144 0)" fill="#E7E4F2"/><circle cx="72" cy="72" r="35" fill="#fff"/><path d="M94.397 98.897A34.86 34.86 0 0 1 72 107a34.86 34.86 0 0 1-22.397-8.103l9.054-9.054a8 8 0 0 1 5.657-2.343h15.372a8 8 0 0 1 5.657 2.343l9.054 9.054Z" fill="#AEA5D6"/><path d="M101.067 91.497a35.002 35.002 0 0 0-32.258-54.351 35 35 0 1 0 25.861 61.52l-6.984-6.98A16 16 0 0 0 76.373 87h-8.746a16 16 0 0 0-11.313 4.686L50 98" stroke="#171321" stroke-width="2" stroke-linecap="square"/><circle cx="72" cy="68" r="12" fill="#D0C5E2" stroke="#171321" stroke-width="2" stroke-linecap="square"/></svg>