<svg xmlns="http://www.w3.org/2000/svg" width="144" height="144" fill="none" viewBox="0 0 144 144"><rect width="144" height="144" fill="#E7E4F2" rx="72"/><path fill="#AEA5D6" d="M53 44h38l16 14H37l16-14Z"/><path fill="#fff" d="M107 59v33a8 8 0 0 1-8 8H37V59h70Z"/><path stroke="#171321" stroke-width="2" d="M107 60v-2L91 44H53L37 58v42h62a8 8 0 0 0 8-8V66"/><path fill="#171321" fill-rule="evenodd" d="m75.639 70.518-.259.966-4.286 15.995-.259.966-1.932-.517.26-.966 4.285-15.996.26-.966 1.931.518Zm-8.81 13.707-.708-.707-4.293-4.293 4.293-4.293.707-.707-1.414-1.414-.707.707-5 5-.707.707.707.707 5 5 .707.707 1.414-1.414Zm11.878-.707-.707.707 1.414 1.414.707-.707 5-5 .707-.707-.707-.707-5-5-.707-.707L78 74.225l.707.707L83 79.225l-4.293 4.293Z" clip-rule="evenodd"/><path stroke="#171321" stroke-width="2" d="M37 59h70M72 44v16"/></svg>