<svg xmlns="http://www.w3.org/2000/svg" width="144" height="144" fill="none" viewBox="0 0 144 144"><rect width="144" height="144" fill="#E7E4F2" rx="72" transform="matrix(-1 0 0 1 144 0)"/><path fill="#fff" d="M51 56h58v33a8 8 0 0 1-8 8H45c4 0 6-3 6-6V56Z"/><path fill="#171321" fill-rule="evenodd" d="m83.639 68.293-.259.966-4.286 15.996-.259.966-1.932-.518.26-.966 4.285-15.996.26-.966 1.931.518ZM74.829 82l-.708-.707L69.828 77l4.293-4.293.707-.707-1.414-1.414-.707.707-5 5L67 77l.707.707 5 5 .707.707L74.828 82Zm11.878-.707L86 82l1.414 1.414.707-.707 5-5 .707-.707-.707-.707-5-5-.707-.707L86 72l.707.707L91 77l-4.293 4.293Z" clip-rule="evenodd"/><path fill="#AEA5D6" d="M98.92 49v7.04H51V91a6 6 0 0 1-12 0V41h23l7 8h29.92Z"/><path stroke="#171321" stroke-linecap="square" stroke-width="2" d="M99 49H69l-7-8H39v50a6 6 0 0 0 6 6v0a6 6 0 0 0 6-6V56.04h58V89a8 8 0 0 1-8 8H57"/></svg>