<svg width="144" height="144" fill="none" viewBox="0 0 144 144" xmlns="http://www.w3.org/2000/svg"><rect width="144" height="144" rx="72" fill="var(--gl-illustration-base-fill-color, #e7e4f2ff)"/><path d="m32.308 104.301 36.59 13.318a8 8 0 0 0 10.254-4.782L84.5 98.144 19.142 84l8.846 16.554a8.001 8.001 0 0 0 4.32 3.747Z" fill="var(--gl-illustration-fill-color-default, #ffffff)" stroke="var(--gl-illustration-stroke-color-default, #171321ff)" stroke-width="var(--gl-illustration-stroke-width-default, 2)" stroke-linecap="square"/><path fill-rule="evenodd" clip-rule="evenodd" d="M87 65v27a8 8 0 0 1-8 8H40.061a8 8 0 0 1-5.34-2.043l-15.057-13.5c-3.547-3.18-3.547-8.734 0-11.913l15.057-13.5A8 8 0 0 1 40.06 57H79a8 8 0 0 1 8 8ZM34 82a4 4 0 1 0 0-8 4 4 0 0 0 0 8Z" fill="var(--gl-illustration-fill-color-default, #ffffff)"/><circle cx="34" cy="78" r="4" stroke="var(--gl-illustration-stroke-color-default, #171321ff)" stroke-width="var(--gl-illustration-stroke-width-default, 2)"/><path d="M77 57h2a8 8 0 0 1 8 8v27a8 8 0 0 1-8 8H40.061a8 8 0 0 1-5.34-2.043l-15.057-13.5c-3.547-3.18-3.547-8.734 0-11.913l15.057-13.5A8 8 0 0 1 40.06 57H69" stroke="var(--gl-illustration-stroke-color-default, #171321ff)" stroke-width="var(--gl-illustration-stroke-width-default, 2)" stroke-linecap="square"/><path d="M96.5 71c12.426 0 22.5-10.074 22.5-22.5S108.926 26 96.5 26 74 36.074 74 48.5V71h22.5Z" fill="var(--gl-illustration-fill-color-default, #ffffff)" stroke="var(--gl-illustration-stroke-color-default, #171321ff)" stroke-width="var(--gl-illustration-stroke-width-default, 2)" stroke-linecap="square"/><circle cx="96.5" cy="48.5" r="15" fill="var(--gl-illustration-status-fill-color-success, #6fdac9ff)"/><path d="M102.5 48.5h-6m-6 0h6m0 0v-6m0 6v6M126 48a29.007 29.007 0 0 0-8.494-20.506A29.005 29.005 0 0 0 97 19" stroke="var(--gl-illustration-stroke-color-default, #171321ff)" stroke-width="var(--gl-illustration-stroke-width-default, 2)" stroke-linecap="square"/><circle cx="75" cy="70" r="6" fill="var(--gl-illustration-fill-color-default, #ffffff)" stroke="var(--gl-illustration-stroke-color-default, #171321ff)" stroke-width="var(--gl-illustration-stroke-width-default, 2)" stroke-linecap="square"/></svg>