<svg xmlns="http://www.w3.org/2000/svg" width="144" height="144" fill="none" viewBox="0 0 144 144"><path d="M136 8H48C25.909 8 8 25.909 8 48v88h88c22.091 0 40-17.909 40-40V8Z" fill="#E7E4F2"/><circle cx="22" cy="72" r="8" stroke="#171321" stroke-width="2" stroke-linecap="square"/><circle cx="47" cy="47" r="12" fill="#D0C5E2" stroke="#171321" stroke-width="2" stroke-linecap="square"/><circle cx="109" cy="35" r="8" stroke="#171321" stroke-width="2" stroke-linecap="square"/><circle cx="42" cy="102" r="12" fill="#D0C5E2"/><path d="M41.038 113.961a12 12 0 1 0-8.176-4.184" stroke="#171321" stroke-width="2" stroke-linecap="square"/><circle cx="110" cy="72" r="12" fill="#D0C5E2"/><path d="M122 72a12.001 12.001 0 0 0-23.087-4.592 12 12 0 0 0 19.572 13.077" stroke="#171321" stroke-width="2" stroke-linecap="square"/><circle cx="72" cy="72" r="35" fill="#fff"/><path d="M94.397 98.897A34.86 34.86 0 0 1 72 107a34.86 34.86 0 0 1-22.397-8.103l9.054-9.054a8 8 0 0 1 5.657-2.343h15.372a8 8 0 0 1 5.657 2.343l9.054 9.054Z" fill="#AEA5D6"/><circle cx="72" cy="68" r="12" fill="#D0C5E2" stroke="#171321" stroke-width="2" stroke-linecap="square"/><path d="m50 98 6.314-6.314A16 16 0 0 1 67.627 87h8.746a16 16 0 0 1 11.313 4.686l6.984 6.98a34.997 34.997 0 0 1-47.713-2.215A35 35 0 1 1 106.64 77" stroke="#171321" stroke-width="2" stroke-linecap="square"/><circle cx="96" cy="96" r="13.929" fill="#FCA326" stroke="#171321" stroke-width="2" stroke-linecap="square"/><path fill-rule="evenodd" clip-rule="evenodd" d="M97 88.5v-1h-2V97h2v-8.5Zm-1 16.071a2.142 2.142 0 1 0 0-4.285 2.142 2.142 0 0 0 0 4.285Z" fill="#171321"/></svg>