<svg width="144" height="144" fill="none" viewBox="0 0 144 144" xmlns="http://www.w3.org/2000/svg"><rect width="144" height="144" rx="72" fill="#E7E4F2"/><path fill="#D0C5E2" stroke="#171321" stroke-width="2" d="M51 35h52v8H51zm-4 8h60v8H47z"/><path d="M42 51h70v40a6 6 0 01-6 6H42V51z" fill="#fff"/><path d="M112 52v-1H42v46h62a8 8 0 008-8V60" stroke="#171321" stroke-width="2"/><path fill-rule="evenodd" clip-rule="evenodd" d="M80.639 65.518l-.259.966-4.286 15.995-.259.966-1.932-.517.26-.966 4.285-15.996.26-.966 1.931.518zm-8.81 13.707l-.708-.707-4.293-4.293 4.293-4.293.707-.707-1.414-1.414-.707.707-5 5-.707.707.707.707 5 5 .707.707 1.414-1.414zm11.878-.707l-.707.707 1.414 1.414.707-.707 5-5 .707-.707-.707-.707-5-5-.707-.707L83 69.225l.707.707L88 74.225l-4.293 4.293z" fill="#171321"/><circle cx="44" cy="95" r="23" fill="#fff"/><path d="M23.155 85.28a23 23 0 104.024-5.966" stroke="#171321" stroke-width="2" stroke-linecap="square"/><circle cx="44" cy="95" r="15" fill="#6FDAC9"/><path d="M39 95.407l3.137 3.149L49.667 91" stroke="#171321" stroke-width="2" stroke-linecap="square"/></svg>