<svg xmlns="http://www.w3.org/2000/svg" width="144" height="144" fill="none" viewBox="0 0 144 144"><rect width="144" height="144" fill="#E7E4F2" rx="72"/><path fill="#fff" d="M107 92V56H37v44h62a8 8 0 0 0 8-8Z"/><path fill="#AEA5D6" d="M37 44h70v12H37V44Z"/><path stroke="#171321" stroke-linecap="square" stroke-linejoin="round" stroke-width="2" d="M38 56h68"/><path stroke="#171321" stroke-linecap="square" stroke-width="2" d="M59 50h41M44.101 44H37v56h62a8 8 0 0 0 8-8V44H52.217"/><path fill="#171321" d="M51 49h2v2h-2zM47 49h2v2h-2zM43 49h2v2h-2z"/><path fill="#E7E4F2" stroke="#171321" stroke-width="2" d="M44 63h26v13H44zM75 63h26v28a3 3 0 0 1-3 3H75V63ZM44 81h26v13H44z"/></svg>