<svg xmlns="http://www.w3.org/2000/svg" width="144" height="144" fill="none" viewBox="0 0 144 144"><rect width="144" height="144" fill="#E7E4F2" rx="72"/><rect width="58" height="61" x="42" y="39" fill="#fff" rx="8"/><path stroke="#171321" stroke-width="2" d="M100 84V47a8 8 0 0 0-8-8H50a8 8 0 0 0-8 8v45a8 8 0 0 0 8 8h42a8 8 0 0 0 8-8v-2"/><rect width="44" height="23" x="49" y="46" fill="#D0C5E2" stroke="#171321" stroke-width="2" rx="3"/><path stroke="#171321" stroke-width="2" d="M91 34a4 4 0 0 0-4-4H55a4 4 0 0 0-4 4"/><circle cx="59.5" cy="85.5" r="6.5" fill="#FF9D73" stroke="#171321" stroke-width="2"/><circle cx="82.5" cy="85.5" r="6.5" fill="#FF9D73" stroke="#171321" stroke-width="2"/><path stroke="#171321" stroke-width="2" d="M71 29v10"/><path fill="#171321" fill-rule="evenodd" d="M26.012 127.402a72 72 0 0 1-1.525-1.303l26.806-26.806 1.414 1.414zM118.439 127.024a73 73 0 0 1-1.553 1.276l-27.593-27.593 1.414-1.414z" clip-rule="evenodd"/><path stroke="#171321" stroke-width="2" d="M43 109h56M33 119h76"/></svg>