<svg width="144" height="144" fill="none" viewBox="0 0 144 144" xmlns="http://www.w3.org/2000/svg"><rect width="144" height="144" rx="72" fill="var(--gl-illustration-base-fill-color, #e7e4f2ff)"/><path d="M42 47a8 8 0 0 1 8-8h42a8 8 0 0 1 8 8v45a8 8 0 0 1-8 8H50a8 8 0 0 1-8-8V47Z" fill="var(--gl-illustration-fill-color-default, #ffffff)"/><path d="M100 84V47a8 8 0 0 0-8-8H50a8 8 0 0 0-8 8v45a8 8 0 0 0 8 8h42a8 8 0 0 0 8-8v-2" stroke="var(--gl-illustration-stroke-color-default, #171321ff)" stroke-width="var(--gl-illustration-stroke-width-default, 2)"/><path d="M49 65V50a4 4 0 0 1 4-4h36a4 4 0 0 1 4 4v15a4 4 0 0 1-4 4H53a4 4 0 0 1-4-4Z" fill="var(--gl-illustration-accent-fill-color-subtle, #d0c5e2ff)" stroke="var(--gl-illustration-stroke-color-default, #171321ff)" stroke-width="var(--gl-illustration-stroke-width-default, 2)"/><path d="M91 34a4 4 0 0 0-4-4H55a4 4 0 0 0-4 4" stroke="var(--gl-illustration-stroke-color-default, #171321ff)" stroke-width="var(--gl-illustration-stroke-width-default, 2)"/><circle cx="59.5" cy="85.5" r="6.5" fill="var(--gl-illustration-accent-fill-color-orange, #ff9d73ff)" stroke="var(--gl-illustration-stroke-color-default, #171321ff)" stroke-width="var(--gl-illustration-stroke-width-default, 2)"/><circle cx="82.5" cy="85.5" r="6.5" fill="var(--gl-illustration-accent-fill-color-orange, #ff9d73ff)" stroke="var(--gl-illustration-stroke-color-default, #171321ff)" stroke-width="var(--gl-illustration-stroke-width-default, 2)"/><path d="M71 29v10M52 100l-26.755 26.755M90 100l27.667 27.667M43 109h56M33 119h76" stroke="var(--gl-illustration-stroke-color-default, #171321ff)" stroke-width="var(--gl-illustration-stroke-width-default, 2)"/></svg>