<svg width="194" height="186" viewBox="0 0 194 186" fill="none" xmlns="http://www.w3.org/2000/svg">
<g clip-path="url(#clip0_1_2)">
<path d="M189.83 73.73L189.56 73.04L163.42 4.82C162.888 3.48292 161.946 2.34868 160.73 1.58C159.513 0.824386 158.093 0.460457 156.662 0.537353C155.232 0.614248 153.859 1.12827 152.73 2.01C151.613 2.91705 150.803 4.14614 150.41 5.53L132.76 59.53H61.29L43.64 5.53C43.2572 4.1386 42.4454 2.90335 41.32 2C40.1908 1.11826 38.8182 0.604246 37.3876 0.527351C35.957 0.450455 34.5372 0.814384 33.32 1.57C32.1063 2.34178 31.1654 3.47503 30.63 4.81L4.44 73L4.18 73.69C0.417025 83.5221 -0.0474529 94.311 2.8566 104.43C5.76064 114.549 11.8758 123.45 20.28 129.79L20.37 129.86L20.61 130.03L60.43 159.85L80.13 174.76L92.13 183.82C93.5337 184.886 95.2476 185.463 97.01 185.463C98.7724 185.463 100.486 184.886 101.89 183.82L113.89 174.76L133.59 159.85L173.65 129.85L173.75 129.77C182.135 123.429 188.236 114.537 191.136 104.432C194.036 94.3263 193.577 83.5527 189.83 73.73Z" fill="#E24329"/>
<path d="M189.83 73.73L189.56 73.04C176.823 75.6544 164.82 81.0496 154.41 88.84L97 132.25C116.55 147.04 133.57 159.89 133.57 159.89L173.63 129.89L173.73 129.81C182.127 123.469 188.238 114.572 191.141 104.458C194.045 94.3435 193.585 83.5599 189.83 73.73Z" fill="#FC6D26"/>
<path d="M60.43 159.89L80.13 174.8L92.13 183.86C93.5337 184.926 95.2476 185.503 97.01 185.503C98.7724 185.503 100.486 184.926 101.89 183.86L113.89 174.8L133.59 159.89C133.59 159.89 116.55 147 97 132.25C77.45 147 60.43 159.89 60.43 159.89Z" fill="#FCA326"/>
<path d="M39.58 88.84C29.1779 81.0335 17.178 75.6243 4.44 73L4.18 73.69C0.417025 83.5221 -0.0474529 94.311 2.8566 104.43C5.76064 114.549 11.8758 123.45 20.28 129.79L20.37 129.86L20.61 130.03L60.43 159.85C60.43 159.85 77.43 147 97 132.21L39.58 88.84Z" fill="#FC6D26"/>
</g>
<defs>
<clipPath id="clip0_1_2">
<rect width="194" height="186" fill="white"/>
</clipPath>
</defs>
</svg>
