<svg fill="none" height="240" viewBox="0 0 640 240" width="640" xmlns="http://www.w3.org/2000/svg" xmlns:xlink="http://www.w3.org/1999/xlink"><clipPath id="a"><path d="m40 40h560v160h-560z"/></clipPath><mask id="b" fill="#fff"><path d="m40 40h268v48h-268z" fill="#fff"/></mask><mask id="c" fill="#fff"><path d="m40 88h268v48h-268z" fill="#fff"/></mask><mask id="d" fill="#fff"><path d="m40 136h268v64h-268z" fill="#fff"/></mask><mask id="e" fill="#fff"><path d="m332 40h268v48h-268z" fill="#fff"/></mask><mask id="f" fill="#fff"><path d="m332 88h268v48h-268z" fill="#fff"/></mask><rect height="239" rx="15.5" stroke="#dcdcde" width="639" x=".5" y=".5"/><g clip-path="url(#a)"><path d="m308 88v-1h-268v1 1h268z" fill="#dcdcde" mask="url(#b)"/><rect fill="#535158" height="8" rx="2" width="74" x="40" y="60"/><rect fill="#89888d" height="8" rx="2" width="178" x="130" y="60"/><path d="m308 136v-1h-268v1 1h268z" fill="#dcdcde" mask="url(#c)"/><rect fill="#535158" height="8" rx="2" width="74" x="40" y="108"/><rect fill="#89888d" height="8" rx="2" width="85" x="130" y="108"/><rect fill="#89888d" height="8" rx="2" width="85" x="223" y="108"/><path d="m308 200v-1h-268v1 1h268z" fill="#dcdcde" mask="url(#d)"/><rect fill="#535158" height="8" rx="2" width="74" x="40" y="156"/><rect fill="#89888d" height="8" rx="2" width="178" x="130" y="156"/><rect fill="#89888d" height="8" rx="2" width="178" x="130" y="172"/><path d="m600 88v-1h-268v1 1h268z" fill="#dcdcde" mask="url(#e)"/><rect fill="#535158" height="8" rx="2" width="74" x="332" y="60"/><rect fill="#89888d" height="8" rx="2" width="178" x="422" y="60"/><path d="m600 136v-1h-268v1 1h268z" fill="#dcdcde" mask="url(#f)"/><rect fill="#535158" height="8" rx="2" width="74" x="332" y="108"/><rect fill="#89888d" height="8" rx="2" width="178" x="422" y="108"/><path d="m465.293 148.207c.39.391 1.024.391 1.414 0l6.364-6.364c.391-.39.391-1.023 0-1.414-.39-.391-1.024-.391-1.414 0l-5.657 5.657-5.657-5.657c-.39-.391-1.024-.391-1.414 0-.391.391-.391 1.024 0 1.414zm-290.293-102.2074c0-.5523-.448-1-1-1s-1 .4477-1 1h1zm-1 145.5004h-1c0 .346.179.668.474.85.294.183.662.2.972.045zm292-145.5003h1c0-.3464-.179-.6681-.474-.8503-.294-.1823-.662-.1992-.972-.0448zm-292 145.5003h1v-145.5004h-1-1v145.5004zm292-44h1v-101.5003h-1-1v101.5003zm0-101.5003-.446-.8951-292 145.5004.446.895.446.895 292-145.5003z" fill="#fc6d26"/></g></svg>