<svg fill="none" height="312" viewBox="0 0 640 312" width="640" xmlns="http://www.w3.org/2000/svg" xmlns:xlink="http://www.w3.org/1999/xlink"><mask id="a" fill="#fff"><path d="m40 40h268v72h-268z" fill="#fff"/></mask><mask id="b" fill="#fff"><path d="m40 112h268v72h-268z" fill="#fff"/></mask><mask id="c" fill="#fff"><path d="m40 184h268v88h-268z" fill="#fff"/></mask><mask id="d" fill="#fff"><path d="m332 40h268v72h-268z" fill="#fff"/></mask><mask id="e" fill="#fff"><path d="m332 112h268v72h-268z" fill="#fff"/></mask><rect height="311" rx="15.5" stroke="#dcdcde" width="639" x=".5" y=".5"/><path d="m308 112v-1h-268v1 1h268z" fill="#dcdcde" mask="url(#a)"/><circle cx="48" cy="64" fill="#626168" r="8"/><rect fill="#535158" height="8" rx="2" width="74" x="64" y="60"/><rect fill="#89888d" height="8" rx="2" width="268" x="40" y="84"/><path d="m308 184v-1h-268v1 1h268z" fill="#dcdcde" mask="url(#b)"/><circle cx="48" cy="136" fill="#626168" r="8"/><rect fill="#535158" height="8" rx="2" width="74" x="64" y="132"/><rect fill="#89888d" height="8" rx="2" width="130" x="40" y="156"/><rect fill="#89888d" height="8" rx="2" width="130" x="178" y="156"/><path d="m308 272v-1h-268v1 1h268z" fill="#dcdcde" mask="url(#c)"/><circle cx="48" cy="208" fill="#626168" r="8"/><rect fill="#535158" height="8" rx="2" width="74" x="64" y="204"/><rect fill="#89888d" height="8" rx="2" width="268" x="40" y="228"/><rect fill="#89888d" height="8" rx="2" width="268" x="40" y="244"/><path d="m600 112v-1h-268v1 1h268z" fill="#dcdcde" mask="url(#d)"/><circle cx="340" cy="64" fill="#626168" r="8"/><rect fill="#535158" height="8" rx="2" width="74" x="356" y="60"/><rect fill="#89888d" height="8" rx="2" width="268" x="332" y="84"/><path d="m600 184v-1h-268v1 1h268z" fill="#dcdcde" mask="url(#e)"/><circle cx="340" cy="136" fill="#626168" r="8"/><rect fill="#535158" height="8" rx="2" width="74" x="356" y="132"/><rect fill="#89888d" height="8" rx="2" width="268" x="332" y="156"/></svg>