<svg fill="none" height="456" viewBox="0 0 640 456" width="640" xmlns="http://www.w3.org/2000/svg" xmlns:xlink="http://www.w3.org/1999/xlink"><clipPath id="a"><path d="m186 40h268v376h-268z"/></clipPath><mask id="b" fill="#fff"><path d="m186 40h268v72h-268z" fill="#fff"/></mask><mask id="c" fill="#fff"><path d="m186 112h268v72h-268z" fill="#fff"/></mask><mask id="d" fill="#fff"><path d="m186 184h268v88h-268z" fill="#fff"/></mask><mask id="e" fill="#fff"><path d="m186 272h268v72h-268z" fill="#fff"/></mask><mask id="f" fill="#fff"><path d="m186 344h268v72h-268z" fill="#fff"/></mask><rect height="455" rx="15.5" stroke="#dcdcde" width="639" x=".5" y=".5"/><g clip-path="url(#a)"><path d="m454 112v-1h-268v1 1h268z" fill="#dcdcde" mask="url(#b)"/><rect fill="#535158" height="8" rx="2" width="74" x="186" y="60"/><rect fill="#89888d" height="8" rx="2" width="268" x="186" y="84"/><path d="m454 184v-1h-268v1 1h268z" fill="#dcdcde" mask="url(#c)"/><rect fill="#535158" height="8" rx="2" width="74" x="186" y="132"/><rect fill="#89888d" height="8" rx="2" width="130" x="186" y="156"/><rect fill="#89888d" height="8" rx="2" width="130" x="324" y="156"/><path d="m454 272v-1h-268v1 1h268z" fill="#dcdcde" mask="url(#d)"/><rect fill="#535158" height="8" rx="2" width="74" x="186" y="204"/><rect fill="#89888d" height="8" rx="2" width="268" x="186" y="228"/><rect fill="#89888d" height="8" rx="2" width="268" x="186" y="244"/><path d="m454 344v-1h-268v1 1h268z" fill="#dcdcde" mask="url(#e)"/><rect fill="#535158" height="8" rx="2" width="74" x="186" y="292"/><rect fill="#89888d" height="8" rx="2" width="268" x="186" y="316"/><path d="m454 416v-1h-268v1 1h268z" fill="#dcdcde" mask="url(#f)"/><rect fill="#535158" height="8" rx="2" width="74" x="186" y="364"/><rect fill="#89888d" height="8" rx="2" width="268" x="186" y="388"/><path d="m319.293 410.707c.39.391 1.024.391 1.414 0l6.364-6.364c.391-.39.391-1.024 0-1.414-.39-.391-1.024-.391-1.414 0l-5.657 5.657-5.657-5.657c-.39-.391-1.024-.391-1.414 0-.391.39-.391 1.024 0 1.414zm1.707-364.707c0-.5523-.448-1-1-1s-1 .4477-1 1h1zm-1 364h1v-364h-1-1v364z" fill="#fc6d26"/></g></svg>