<svg fill="none" height="240" viewBox="0 0 640 240" width="640" xmlns="http://www.w3.org/2000/svg" xmlns:xlink="http://www.w3.org/1999/xlink"><mask id="a" fill="#fff"><path d="m40 40h268v48h-268z" fill="#fff"/></mask><mask id="b" fill="#fff"><path d="m40 88h268v48h-268z" fill="#fff"/></mask><mask id="c" fill="#fff"><path d="m40 136h268v64h-268z" fill="#fff"/></mask><mask id="d" fill="#fff"><path d="m332 40h268v48h-268z" fill="#fff"/></mask><mask id="e" fill="#fff"><path d="m332 88h268v48h-268z" fill="#fff"/></mask><rect height="239" rx="15.5" stroke="#dcdcde" width="639" x=".5" y=".5"/><path d="m308 88v-1h-268v1 1h268z" fill="#dcdcde" mask="url(#a)"/><circle cx="48" cy="64" fill="#626168" r="8"/><rect fill="#535158" height="8" rx="2" width="74" x="64" y="60"/><rect fill="#89888d" height="8" rx="2" width="154" x="154" y="60"/><path d="m308 136v-1h-268v1 1h268z" fill="#dcdcde" mask="url(#b)"/><circle cx="48" cy="112" fill="#626168" r="8"/><rect fill="#535158" height="8" rx="2" width="74" x="64" y="108"/><rect fill="#89888d" height="8" rx="2" width="73" x="154" y="108"/><rect fill="#89888d" height="8" rx="2" width="73" x="235" y="108"/><path d="m308 200v-1h-268v1 1h268z" fill="#dcdcde" mask="url(#c)"/><circle cx="48" cy="160" fill="#626168" r="8"/><rect fill="#535158" height="8" rx="2" width="74" x="64" y="156"/><rect fill="#89888d" height="8" rx="2" width="154" x="154" y="156"/><rect fill="#89888d" height="8" rx="2" width="154" x="154" y="172"/><path d="m600 88v-1h-268v1 1h268z" fill="#dcdcde" mask="url(#d)"/><circle cx="340" cy="64" fill="#626168" r="8"/><rect fill="#535158" height="8" rx="2" width="74" x="356" y="60"/><rect fill="#89888d" height="8" rx="2" width="154" x="446" y="60"/><path d="m600 136v-1h-268v1 1h268z" fill="#dcdcde" mask="url(#e)"/><circle cx="340" cy="112" fill="#626168" r="8"/><rect fill="#535158" height="8" rx="2" width="74" x="356" y="108"/><rect fill="#89888d" height="8" rx="2" width="154" x="446" y="108"/></svg>