<svg fill="none" height="180" viewBox="0 0 572 180" width="572" xmlns="http://www.w3.org/2000/svg" xmlns:xlink="http://www.w3.org/1999/xlink"><clipPath id="a"><path d="m0 0h572v180h-572z"/></clipPath><mask id="b" fill="#fff"><path d="m12 20h268v48h-268z" fill="#fff"/></mask><mask id="c" fill="#fff"><path d="m12 68h268v48h-268z" fill="#fff"/></mask><mask id="d" fill="#fff"><path d="m12 116h268v64h-268z" fill="#fff"/></mask><mask id="e" fill="#fff"><path d="m304 20h268v48h-268z" fill="#fff"/></mask><mask id="f" fill="#fff"><path d="m304 68h268v48h-268z" fill="#fff"/></mask><g clip-path="url(#a)"><circle cx="203" cy="24" fill="#7b58cf" r="16"/><circle cx="203" cy="24" r="18" stroke="#7b58cf" stroke-opacity=".3" stroke-width="4"/><path d="m202.806 30.18c-1.212 0-2.172-.336-2.88-1.008-.708-.684-1.062-1.608-1.062-2.772h1.62c0 .72.21 1.29.63 1.71s.99.63 1.71.63 1.29-.21 1.71-.63.63-.99.63-1.71v-.9c0-.72-.21-1.29-.63-1.71s-.99-.63-1.71-.63h-1.422v-1.404l3.222-3.42h-5.4v-1.476h7.236v1.512l-3.6 3.834v-.486c1.212 0 2.166.342 2.862 1.026.708.672 1.062 1.59 1.062 2.754v.9c0 1.164-.36 2.088-1.08 2.772-.708.672-1.674 1.008-2.898 1.008z" fill="#fff"/><circle cx="73" cy="24" fill="#7b58cf" r="16"/><circle cx="73" cy="24" r="18" stroke="#7b58cf" stroke-opacity=".3" stroke-width="4"/><path d="m69.1515 30v-1.494l4.374-4.68c.636-.672 1.086-1.272 1.35-1.8s.396-1.044.396-1.548c0-.72-.21-1.29-.63-1.71-.408-.432-.966-.648-1.674-.648-.732 0-1.314.222-1.746.666-.42.432-.63 1.02-.63 1.764h-1.62c.024-.792.204-1.476.54-2.052.336-.588.798-1.038 1.386-1.35s1.278-.468 2.07-.468c.816 0 1.518.156 2.106.468s1.044.756 1.368 1.332c.324.564.486 1.236.486 2.016 0 .624-.174 1.284-.522 1.98-.336.696-.918 1.476-1.746 2.34l-3.546 3.708h5.976v1.476z" fill="#fff"/><circle cx="20" cy="20" fill="#7b58cf" r="16"/><circle cx="20" cy="20" r="18" stroke="#7b58cf" stroke-opacity=".3" stroke-width="4"/><path d="m16.2235 26v-1.476h3.564v-10.26l-3.564 2.664v-1.854l2.97-2.214h2.214v11.664h2.916v1.476z" fill="#fff"/><path d="m280 68v-1h-268v1 1h268z" fill="#dcdcde" mask="url(#b)"/><circle cx="20" cy="44" fill="#626168" r="8"/><rect fill="#535158" height="8" rx="2" width="74" x="36" y="40"/><rect fill="#89888d" height="8" rx="2" width="154" x="126" y="40"/><path d="m280 116v-1h-268v1 1h268z" fill="#dcdcde" mask="url(#c)"/><circle cx="20" cy="92" fill="#626168" r="8"/><rect fill="#535158" height="8" rx="2" width="74" x="36" y="88"/><rect fill="#89888d" height="8" rx="2" width="73" x="126" y="88"/><rect fill="#89888d" height="8" rx="2" width="73" x="207" y="88"/><path d="m280 180v-1h-268v1 1h268z" fill="#dcdcde" mask="url(#d)"/><circle cx="20" cy="140" fill="#626168" r="8"/><rect fill="#535158" height="8" rx="2" width="74" x="36" y="136"/><rect fill="#89888d" height="8" rx="2" width="154" x="126" y="136"/><rect fill="#89888d" height="8" rx="2" width="154" x="126" y="152"/><path d="m572 68v-1h-268v1 1h268z" fill="#dcdcde" mask="url(#e)"/><circle cx="312" cy="44" fill="#626168" r="8"/><rect fill="#535158" height="8" rx="2" width="74" x="328" y="40"/><rect fill="#89888d" height="8" rx="2" width="154" x="418" y="40"/><path d="m572 116v-1h-268v1 1h268z" fill="#dcdcde" mask="url(#f)"/><circle cx="312" cy="92" fill="#626168" r="8"/><rect fill="#535158" height="8" rx="2" width="74" x="328" y="88"/><rect fill="#89888d" height="8" rx="2" width="154" x="418" y="88"/></g></svg>