<svg xmlns="http://www.w3.org/2000/svg" width="392" height="111" fill="none"><g clip-path="url(#a)"><rect width="31" height="31" x="180.5" y="25.5" fill="#E9F3FC" rx="15.5"/><rect width="31" height="31" x="180.5" y="25.5" stroke="#BFBFC3" rx="15.5"/><rect width="31" height="31" x="216.5" y="25.5" fill="#E9F3FC" rx="15.5"/><rect width="31" height="31" x="216.5" y="25.5" stroke="#BFBFC3" rx="15.5"/><rect width="31" height="31" x="252.5" y="25.5" fill="#E9F3FC" rx="15.5"/><rect width="31" height="31" x="252.5" y="25.5" stroke="#BFBFC3" rx="15.5"/><rect width="31" height="31" x="288.5" y="25.5" fill="#E9F3FC" rx="15.5"/><rect width="31" height="31" x="288.5" y="25.5" stroke="#BFBFC3" rx="15.5"/><rect width="31" height="31" x="324.5" y="25.5" fill="#E9F3FC" rx="15.5"/><rect width="31" height="31" x="324.5" y="25.5" stroke="#BFBFC3" rx="15.5"/><rect width="31" height="31" x="360.5" y="25.5" fill="#E9F3FC" rx="15.5"/><rect width="31" height="31" x="360.5" y="25.5" stroke="#BFBFC3" rx="15.5"/><path fill="#737278" d="M184.004 70.524v-3.066h-.952v3.066H180v.952h3.052v3.066h.952v-3.066h3.052v-.952h-3.052Z"/><rect width="40" height="8" x="189.056" y="67" fill="#89888D" rx="2"/><rect width="32" height="32" x="100" y="25" fill="#BFBFC3" rx="16"/><path fill="#535158" d="M112.976 40.524v-3.066h-.952v3.066h-3.052v.952h3.052v3.066h.952v-3.066h3.052v-.952h-3.052Z"/><rect width="9" height="8" x="118.028" y="37" fill="#535158" rx="2"/><rect width="31" height="31" x="76.5" y="25.5" fill="#E9F3FC" rx="15.5"/><rect width="31" height="31" x="76.5" y="25.5" stroke="#BFBFC3" rx="15.5"/><rect width="31" height="31" x="52.5" y="25.5" fill="#E9F3FC" rx="15.5"/><rect width="31" height="31" x="52.5" y="25.5" stroke="#BFBFC3" rx="15.5"/><rect width="31" height="31" x="28.5" y="25.5" fill="#E9F3FC" rx="15.5"/><rect width="31" height="31" x="28.5" y="25.5" stroke="#BFBFC3" rx="15.5"/><circle cx="116" cy="73" r="16" fill="#7B58CF"/><circle cx="116" cy="73" r="18" stroke="#7B58CF" stroke-opacity=".3" stroke-width="4"/><path fill="#fff" d="M112.152 79v-1.494l4.374-4.68c.636-.672 1.086-1.272 1.35-1.8s.396-1.044.396-1.548c0-.72-.21-1.29-.63-1.71-.408-.432-.966-.648-1.674-.648-.732 0-1.314.222-1.746.666-.42.432-.63 1.02-.63 1.764h-1.62c.024-.792.204-1.476.54-2.052a3.41 3.41 0 0 1 1.386-1.35c.588-.312 1.278-.468 2.07-.468.816 0 1.518.156 2.106.468a3.325 3.325 0 0 1 1.368 1.332c.324.564.486 1.236.486 2.016 0 .624-.174 1.284-.522 1.98-.336.696-.918 1.476-1.746 2.34l-3.546 3.708h5.976V79h-7.938Z"/><circle cx="206" cy="91" r="16" fill="#7B58CF"/><circle cx="206" cy="91" r="18" stroke="#7B58CF" stroke-opacity=".3" stroke-width="4"/><path fill="#fff" d="M205.806 97.18c-1.212 0-2.172-.336-2.88-1.008-.708-.684-1.062-1.608-1.062-2.772h1.62c0 .72.21 1.29.63 1.71.42.42.99.63 1.71.63s1.29-.21 1.71-.63c.42-.42.63-.99.63-1.71v-.9c0-.72-.21-1.29-.63-1.71-.42-.42-.99-.63-1.71-.63h-1.422v-1.404l3.222-3.42h-5.4V83.86h7.236v1.512l-3.6 3.834v-.486c1.212 0 2.166.342 2.862 1.026.708.672 1.062 1.59 1.062 2.754v.9c0 1.164-.36 2.088-1.08 2.772-.708.672-1.674 1.008-2.898 1.008Z"/><circle cx="20" cy="20" r="16" fill="#7B58CF"/><circle cx="20" cy="20" r="18" stroke="#7B58CF" stroke-opacity=".3" stroke-width="4"/><path fill="#fff" d="M16.224 26v-1.476h3.564v-10.26l-3.564 2.664v-1.854l2.97-2.214h2.213v11.664h2.916V26h-8.1Z"/></g><defs><clipPath id="a"><path fill="#fff" d="M0 0h392v111H0z"/></clipPath></defs></svg>