<svg xmlns="http://www.w3.org/2000/svg" width="380" height="296" fill="none"><g clip-path="url(#a)"><path fill="#fff" d="M0 0h380v296H0z"/><path fill="#18171D" d="M4.512 13h-2.66v-1.866H4.41c1.9 0 2.912-.964 2.912-3.227 0-2.262-1.011-3.22-2.912-3.22H1.805V2.814h2.734c3.07 0 4.95 1.915 4.95 5.093 0 3.179-1.88 5.093-4.977 5.093ZM3.062 2.814V13H.882V2.814h2.18ZM13.098 13.15c-1.456 0-2.53-.765-2.53-2.283 0-1.702 1.354-2.215 2.872-2.358 1.305-.123 1.838-.185 1.838-.677v-.034c0-.615-.417-.97-1.155-.97-.752 0-1.23.368-1.38.86l-1.956-.307c.356-1.32 1.586-2.12 3.35-2.12 1.709 0 3.281.787 3.281 2.585V13h-2.023v-1.06h-.069c-.383.732-1.114 1.21-2.228 1.21Zm.622-1.476c.916 0 1.572-.609 1.572-1.401v-.8c-.253.164-1.012.273-1.456.341-.745.103-1.224.404-1.224.985 0 .574.458.875 1.108.875Zm9.29-6.317v1.62h-4.594v-1.62h4.594ZM19.455 3.54h2.14v7.198c0 .465.198.684.677.684.157 0 .505-.055.649-.089l.3 1.593c-.478.136-.95.184-1.373.184-1.559 0-2.393-.765-2.393-2.18V3.54Zm8.245 9.61c-2.358 0-3.8-1.504-3.8-3.93 0-2.359 1.449-3.958 3.698-3.958 2.037 0 3.616 1.299 3.616 3.883v.587h-6.467V8.413h5.428l-1.005.342c0-1.155-.526-1.894-1.552-1.894-1.032 0-1.6.76-1.6 1.812v.936c0 1.286.684 1.949 1.716 1.949.698 0 1.224-.301 1.436-.868l1.928.341c-.376 1.285-1.607 2.12-3.398 2.12Zm8.135-.15V5.357h2.078v1.354h.082c.274-.957.97-1.45 1.825-1.45.212 0 .479.028.663.07v1.9c-.191-.062-.601-.11-.902-.11-.923 0-1.606.643-1.606 1.58V13h-2.14Zm7.67.15c-1.456 0-2.53-.765-2.53-2.283 0-1.702 1.354-2.215 2.872-2.358 1.305-.123 1.839-.185 1.839-.677v-.034c0-.615-.417-.97-1.156-.97-.752 0-1.23.368-1.38.86l-1.956-.307c.356-1.32 1.586-2.12 3.35-2.12 1.709 0 3.281.787 3.281 2.585V13h-2.023v-1.06h-.069c-.382.732-1.114 1.21-2.228 1.21Zm.622-1.476c.916 0 1.572-.609 1.572-1.401v-.8c-.253.164-1.011.273-1.456.341-.745.103-1.223.404-1.223.985 0 .574.458.875 1.107.875Zm7.547-3.076V13h-2.14V5.357h2.017l.04 1.914h-.122c.396-1.25 1.19-2.01 2.495-2.01 1.593 0 2.639 1.108 2.639 2.879V13h-2.147V8.53c0-.93-.506-1.484-1.347-1.484-.847 0-1.435.574-1.435 1.552Zm10.055 7.423c-1.934 0-3.15-.786-3.465-1.907l1.845-.471c.178.423.65.847 1.607.847 1.025 0 1.634-.458 1.634-1.442v-1.395h-.164c-.28.643-.896 1.245-2.106 1.245-1.709 0-3.097-1.183-3.097-3.726 0-2.605 1.43-3.91 3.104-3.91 1.265 0 1.907.759 2.194 1.394h.075V5.357h2.113v7.554c0 2.078-1.552 3.11-3.74 3.11Zm.041-4.737c1.012 0 1.587-.793 1.587-2.126 0-1.326-.568-2.187-1.587-2.187-1.032 0-1.585.902-1.585 2.187 0 1.306.56 2.126 1.586 2.126Zm8.887 1.866c-2.358 0-3.8-1.504-3.8-3.93 0-2.359 1.449-3.958 3.698-3.958 2.037 0 3.616 1.299 3.616 3.883v.587h-6.467V8.413h5.428l-1.005.342c0-1.155-.526-1.894-1.552-1.894-1.032 0-1.6.76-1.6 1.812v.936c0 1.286.684 1.949 1.716 1.949.698 0 1.224-.301 1.436-.868l1.928.341c-.376 1.285-1.607 2.12-3.398 2.12Z"/><rect width="124" height="31" x=".5" y="24.5" fill="#fff" rx="3.5"/><rect width="124" height="31" x=".5" y="24.5" stroke="#BFBFC3" rx="3.5"/><path fill="#3A383F" d="M13.23 45V34.815h1.3v9.037h4.716V45h-6.015Zm9.906.178c-1.45 0-2.605-.848-2.605-2.352 0-1.75 1.559-2.071 2.974-2.249 1.36-.17 1.962-.13 1.962-.697v-.041c0-.95-.54-1.497-1.6-1.497-1.1 0-1.695.588-1.934 1.12l-1.183-.389c.588-1.388 1.9-1.811 3.083-1.811 1.025 0 2.864.314 2.864 2.7V45h-1.21v-1.04h-.082c-.26.541-.977 1.218-2.27 1.218Zm.212-1.087c1.36 0 2.119-.916 2.119-1.853v-1.06c-.205.24-1.545.377-2.017.438-.895.116-1.681.404-1.681 1.272 0 .793.663 1.203 1.579 1.203Zm8.107 1.073c-1.572 0-2.666-.697-2.94-2.017l1.17-.28c.218.841.84 1.217 1.756 1.217 1.067 0 1.75-.526 1.75-1.155 0-.527-.369-.875-1.12-1.053l-1.272-.3c-1.388-.329-2.051-1.013-2.051-2.086 0-1.312 1.203-2.228 2.83-2.228 1.572 0 2.4.765 2.748 1.839l-1.114.287c-.212-.547-.643-1.08-1.627-1.08-.91 0-1.593.471-1.593 1.107 0 .567.39.882 1.285 1.094l1.156.273c1.387.328 2.037 1.019 2.037 2.065 0 1.34-1.224 2.317-3.015 2.317Zm7.807-7.807v1.053H35.31v-1.053h3.952Zm-2.803-1.818h1.23v7.479c0 .683.253.984.903.984.157 0 .424-.041.629-.082l.253 1.039a2.96 2.96 0 0 1-.916.137c-1.32 0-2.099-.732-2.099-1.983V35.54Zm11.354 9.598c-1.729 0-2.966-1.1-3.206-2.728h1.286c.212.903.847 1.58 1.92 1.58 1.552 0 2.51-1.416 2.51-3.883h-.083a2.951 2.951 0 0 1-2.509 1.36c-1.756 0-3.206-1.408-3.206-3.37 0-1.9 1.368-3.452 3.46-3.418 1.674.027 3.554 1.08 3.554 4.826 0 3.602-1.422 5.633-3.726 5.633Zm.11-4.806c1.237 0 2.215-1.073 2.215-2.27 0-1.168-.923-2.242-2.174-2.242-1.23 0-2.167 1.012-2.167 2.27 0 1.25.895 2.242 2.126 2.242Zm8.866 4.806c-2.27 0-3.582-1.9-3.582-5.223 0-3.302 1.326-5.236 3.582-5.236s3.582 1.934 3.582 5.236c0 3.316-1.306 5.223-3.582 5.223Zm0-1.135c1.49 0 2.331-1.504 2.331-4.088 0-2.598-.84-4.108-2.33-4.108-1.491 0-2.332 1.517-2.332 4.108 0 2.584.84 4.088 2.331 4.088Zm12.298 1.162c-1.907 0-3.234-1.531-3.234-3.965 0-2.42 1.334-3.937 3.24-3.937 1.491 0 1.963.916 2.216 1.32h.095v-3.767h1.23V45h-1.189v-1.183h-.136c-.253.424-.766 1.347-2.222 1.347Zm.184-1.1c1.388 0 2.147-1.176 2.147-2.879 0-1.688-.738-2.823-2.147-2.823-1.449 0-2.166 1.238-2.166 2.823 0 1.607.738 2.878 2.166 2.878Zm7.664 1.114c-1.45 0-2.605-.848-2.605-2.352 0-1.75 1.559-2.071 2.974-2.249 1.36-.17 1.962-.13 1.962-.697v-.041c0-.95-.54-1.497-1.6-1.497-1.1 0-1.695.588-1.935 1.12l-1.182-.389c.588-1.388 1.9-1.811 3.083-1.811 1.025 0 2.864.314 2.864 2.7V45h-1.21v-1.04h-.082c-.26.541-.977 1.218-2.27 1.218Zm.212-1.087c1.36 0 2.119-.916 2.119-1.853v-1.06c-.206.24-1.545.377-2.017.438-.895.116-1.682.404-1.682 1.272 0 .793.664 1.203 1.58 1.203Zm5.181 3.678.315-1.067.13.034c.751.199 1.291.035 1.667-1.06l.22-.635-2.92-7.684h1.347l1.627 4.533c.342.95.547 1.886.813 2.761h-.45c.259-.875.47-1.818.813-2.761l1.64-4.533h1.34l-3.356 8.785c-.465 1.216-1.203 1.77-2.283 1.77-.438 0-.773-.082-.903-.143Zm10.596-2.605c-1.572 0-2.666-.697-2.94-2.017l1.17-.28c.218.841.84 1.217 1.756 1.217 1.067 0 1.75-.526 1.75-1.155 0-.527-.369-.875-1.12-1.053l-1.272-.3c-1.388-.329-2.051-1.013-2.051-2.086 0-1.312 1.203-2.228 2.83-2.228 1.572 0 2.4.765 2.748 1.839l-1.114.287c-.212-.547-.643-1.08-1.627-1.08-.91 0-1.593.471-1.593 1.107 0 .567.39.882 1.285 1.094l1.155.273c1.388.328 2.038 1.019 2.038 2.065 0 1.34-1.224 2.317-3.015 2.317Zm18.796-6.944a.75.75 0 1 1 1.06 1.06l-3.25 3.25a.75.75 0 0 1-1.06 0l-3.25-3.25a.75.75 0 1 1 1.06-1.06l2.72 2.72 2.72-2.72Z"/><rect width="379" height="223" x=".5" y="72.5" fill="#fff" rx="7.5"/><rect width="379" height="223" x=".5" y="72.5" stroke="#DCDCDE" rx="7.5"/><path fill="#28272D" d="M21.4 105.137c-2.713 0-4.785-1.901-4.785-5.223 0-3.336 2.072-5.236 4.785-5.236 2.7 0 4.772 1.9 4.772 5.236 0 3.329-2.071 5.223-4.772 5.223Zm0-1.921c1.552 0 2.557-1.162 2.557-3.302s-1.005-3.308-2.557-3.308c-1.558 0-2.57 1.168-2.57 3.308 0 2.14 1.012 3.302 2.57 3.302Zm6.248 4.641v-10.5h2.106v1.3h.096c.28-.63.902-1.395 2.173-1.395 1.675 0 3.09 1.305 3.09 3.93 0 2.557-1.36 3.931-3.103 3.931-1.224 0-1.866-.711-2.16-1.347h-.062v4.081h-2.14Zm3.685-4.436c1.025 0 1.58-.916 1.58-2.235 0-1.313-.548-2.215-1.58-2.215-1.018 0-1.593.861-1.593 2.215 0 1.346.588 2.235 1.593 2.235Zm8.661 1.729c-2.358 0-3.8-1.504-3.8-3.93 0-2.359 1.449-3.958 3.698-3.958 2.037 0 3.616 1.299 3.616 3.883v.587H37.04v-1.319h5.428l-1.005.342c0-1.155-.526-1.894-1.552-1.894-1.032 0-1.6.76-1.6 1.812v.936c0 1.286.684 1.949 1.716 1.949.698 0 1.224-.301 1.436-.869l1.928.342c-.376 1.285-1.607 2.119-3.398 2.119Zm7.02-4.552V105h-2.139v-7.643h2.017l.04 1.915h-.122c.396-1.252 1.189-2.01 2.495-2.01 1.593 0 2.638 1.107 2.638 2.878V105h-2.146v-4.471c0-.93-.506-1.483-1.347-1.483-.848 0-1.435.574-1.435 1.552Zm12.962 4.552c-1.873 0-3.159-.834-3.425-2.262l1.996-.335c.191.697.663 1.052 1.497 1.052.752 0 1.217-.314 1.217-.751 0-.39-.315-.623-.978-.759l-1.32-.267c-1.483-.301-2.214-1.025-2.214-2.18 0-1.477 1.285-2.386 3.247-2.386 1.846 0 2.96.8 3.24 2.064l-1.893.322c-.158-.52-.595-.862-1.306-.862-.65 0-1.148.294-1.148.732 0 .362.246.622.95.765l1.394.274c1.49.3 2.208.97 2.208 2.064 0 1.525-1.435 2.529-3.465 2.529Zm8.305 0c-2.358 0-3.8-1.504-3.8-3.93 0-2.359 1.449-3.958 3.698-3.958 2.037 0 3.616 1.299 3.616 3.883v.587h-6.467v-1.319h5.428l-1.005.342c0-1.155-.526-1.894-1.552-1.894-1.032 0-1.6.76-1.6 1.812v.936c0 1.286.684 1.949 1.716 1.949.698 0 1.224-.301 1.436-.869l1.928.342c-.376 1.285-1.607 2.119-3.398 2.119Zm6.781-.15-2.802-7.643h2.27l1.25 3.911c.308.991.52 1.996.76 3.103h-.438c.239-1.107.437-2.105.745-3.103l1.23-3.91h2.25L77.516 105h-2.454Zm9.557.15c-2.358 0-3.8-1.504-3.8-3.93 0-2.359 1.449-3.958 3.698-3.958 2.037 0 3.616 1.299 3.616 3.883v.587h-6.467v-1.319h5.428l-1.005.342c0-1.155-.526-1.894-1.552-1.894-1.032 0-1.6.76-1.6 1.812v.936c0 1.286.684 1.949 1.716 1.949.698 0 1.224-.301 1.436-.869l1.928.342c-.376 1.285-1.607 2.119-3.398 2.119ZM89.5 105v-7.643h2.078v1.354h.082c.274-.957.97-1.45 1.825-1.45.212 0 .479.028.663.07v1.9c-.191-.062-.601-.11-.902-.11-.923 0-1.606.643-1.606 1.579v4.3H89.5Zm5.838 0v-7.643h2.14V105h-2.14Zm1.066-8.606c-.629 0-1.148-.486-1.148-1.08 0-.602.52-1.08 1.148-1.08.636 0 1.162.478 1.162 1.08 0 .594-.526 1.08-1.162 1.08Zm6.658.963v1.62h-4.593v-1.62h4.593Zm-3.554-1.818h2.139v7.198c0 .465.199.684.677.684.157 0 .506-.055.65-.089l.3 1.593c-.478.137-.95.184-1.374.184-1.558 0-2.392-.765-2.392-2.18v-7.39Zm5.134 12.161.492-1.599.26.075c.84.219 1.415-.041 1.462-.766l.048-.389-2.871-7.664h2.27l1.251 3.911c.307 1.004.451 1.989.704 3.103h-.479c.24-1.114.465-2.112.793-3.103l1.313-3.91h2.242l-3.233 8.517c-.465 1.237-1.279 2.037-2.865 2.037-.553 0-1.073-.089-1.387-.212Zm15.674-10.343v1.62h-4.593v-1.62h4.593Zm-3.554-1.818h2.139v7.198c0 .465.199.684.677.684.157 0 .506-.055.65-.089l.3 1.593c-.478.137-.95.184-1.374.184-1.558 0-2.392-.765-2.392-2.18v-7.39Zm4.867 9.461v-7.643h2.078v1.354h.082c.273-.957.971-1.45 1.825-1.45.212 0 .479.028.663.07v1.9c-.191-.062-.601-.11-.902-.11-.923 0-1.606.643-1.606 1.579v4.3h-2.14Zm8.887.15c-2.359 0-3.801-1.504-3.801-3.93 0-2.359 1.449-3.958 3.698-3.958 2.037 0 3.616 1.299 3.616 3.883v.587h-6.467v-1.319h5.428l-1.005.342c0-1.155-.526-1.894-1.551-1.894-1.033 0-1.6.76-1.6 1.812v.936c0 1.286.684 1.949 1.716 1.949.697 0 1.223-.301 1.435-.869l1.928.342c-.376 1.285-1.606 2.119-3.397 2.119Zm7.02-4.552V105h-2.14v-7.643h2.017l.041 1.915h-.123c.397-1.252 1.19-2.01 2.495-2.01 1.593 0 2.639 1.107 2.639 2.878V105h-2.147v-4.471c0-.93-.506-1.483-1.346-1.483-.848 0-1.436.574-1.436 1.552Zm9.413 4.525c-1.743 0-3.103-1.374-3.103-3.931 0-2.625 1.415-3.93 3.09-3.93 1.271 0 1.893.765 2.167 1.394h.068v-3.842h2.14V105h-2.113v-1.224h-.095c-.288.636-.93 1.347-2.154 1.347Zm.677-1.702c1.005 0 1.586-.889 1.586-2.235 0-1.354-.567-2.215-1.586-2.215-1.032 0-1.579.902-1.579 2.215 0 1.319.554 2.235 1.579 2.235Zm8.477 1.729c-1.874 0-3.159-.834-3.425-2.262l1.996-.335c.191.697.663 1.052 1.497 1.052.752 0 1.217-.314 1.217-.751 0-.39-.315-.623-.978-.759l-1.319-.267c-1.484-.301-2.215-1.025-2.215-2.18 0-1.477 1.285-2.386 3.247-2.386 1.846 0 2.96.8 3.24 2.064l-1.893.322c-.158-.52-.595-.862-1.306-.862-.649 0-1.148.294-1.148.732 0 .362.246.622.95.765l1.394.274c1.491.3 2.208.97 2.208 2.064 0 1.525-1.435 2.529-3.465 2.529Z"/><path fill="#ECECEF" d="M190 121h58v22h-58a3 3 0 0 1-3-3v-16l.004-.154A3 3 0 0 1 190 121Z"/><path stroke="#A4A3A8" stroke-width="2" d="M190 121h58v22h-58a3 3 0 0 1-3-3v-16l.004-.154A3 3 0 0 1 190 121Z"/><path fill="#3A383F" d="M199.353 137.137c-2.612 0-4.519-1.996-4.519-5.223 0-3.233 1.907-5.236 4.519-5.236 2.064 0 3.746 1.244 4.108 3.343h-1.299c-.287-1.395-1.483-2.14-2.809-2.14-1.832 0-3.254 1.422-3.254 4.033 0 2.605 1.428 4.02 3.254 4.02 1.333 0 2.522-.752 2.809-2.14h1.299c-.356 2.071-2.023 3.343-4.108 3.343Zm5.954-.137v-7.643h1.189v1.176h.082c.28-.772 1.073-1.285 1.983-1.285.177 0 .478.014.622.021v1.237a4.65 4.65 0 0 0-.739-.068c-1.1 0-1.907.745-1.907 1.777V137h-1.23Zm5.496 0v-7.643h1.23V137h-1.23Zm.622-8.894c-.465 0-.855-.362-.855-.813 0-.451.39-.814.855-.814.471 0 .861.363.861.814 0 .451-.39.813-.861.813Zm5.776 1.251v1.053h-3.951v-1.053h3.951Zm-2.803-1.818h1.231v7.479c0 .683.253.984.902.984.157 0 .424-.041.629-.082l.253 1.039a2.956 2.956 0 0 1-.916.137c-1.319 0-2.099-.732-2.099-1.983v-7.574Zm4.375 9.461v-7.643h1.231V137h-1.231Zm.623-8.894c-.465 0-.855-.362-.855-.813 0-.451.39-.814.855-.814.471 0 .861.363.861.814 0 .451-.39.813-.861.813Zm5.878 9.058c-2.078 0-3.479-1.579-3.479-3.937 0-2.393 1.401-3.965 3.479-3.965 1.477 0 2.68.779 3.097 2.112l-1.183.335c-.225-.786-.909-1.347-1.914-1.347-1.524 0-2.228 1.34-2.228 2.865 0 1.503.704 2.836 2.228 2.836 1.026 0 1.723-.581 1.949-1.408l1.175.335c-.41 1.361-1.627 2.174-3.124 2.174Zm7.164.014c-1.449 0-2.604-.848-2.604-2.352 0-1.75 1.559-2.071 2.974-2.249 1.36-.171 1.962-.13 1.962-.697v-.041c0-.95-.541-1.497-1.6-1.497-1.101 0-1.695.588-1.935 1.121l-1.182-.39c.588-1.387 1.9-1.811 3.083-1.811 1.025 0 2.864.314 2.864 2.7V137h-1.21v-1.039h-.082c-.26.54-.978 1.217-2.27 1.217Zm.212-1.087c1.361 0 2.12-.916 2.12-1.853v-1.059c-.206.239-1.545.376-2.017.437-.896.116-1.682.404-1.682 1.272 0 .793.663 1.203 1.579 1.203Zm7.226.964c-1.148 0-1.716-.643-1.716-1.75v-8.491h1.231v8.183c0 .704.123.957.635.957.267 0 .376-.02.493-.055l.246 1.039a3.53 3.53 0 0 1-.889.117Z"/><path fill="#fff" d="M248.5 120.5h46v23h-46z"/><path stroke="#BFBFC3" d="M248.5 120.5h46v23h-46z"/><path fill="#3A383F" d="M257.23 137v-10.186h1.299v4.403h5.346v-4.403h1.299V137h-1.299v-4.635h-5.346V137h-1.299Zm10.254 0v-7.643h1.231V137h-1.231Zm.622-8.894c-.464 0-.854-.362-.854-.813 0-.451.39-.814.854-.814.472 0 .862.363.862.814 0 .451-.39.813-.862.813Zm5.866 11.915c-1.696 0-2.673-.717-3.145-1.558l.998-.643c.321.445.8 1.128 2.147 1.128 1.216 0 2.098-.56 2.098-1.818v-1.531h-.116c-.26.437-.745 1.278-2.222 1.278-1.832 0-3.226-1.333-3.226-3.732 0-2.366 1.347-3.883 3.254-3.883 1.476 0 1.969.909 2.228 1.319h.116v-1.224h1.197v7.841c0 1.976-1.47 2.823-3.329 2.823Zm-.034-4.238c1.387 0 2.146-.998 2.146-2.666 0-1.62-.738-2.755-2.146-2.755-1.457 0-2.181 1.231-2.181 2.755 0 1.572.745 2.666 2.181 2.666Zm6.753-3.363V137h-1.23v-10.186h1.23v4.396h-.212c.465-1.408 1.354-1.948 2.509-1.948 1.545 0 2.591.95 2.591 2.884V137h-1.237v-4.751c0-1.176-.656-1.88-1.723-1.88-1.1 0-1.928.745-1.928 2.051Z"/><path fill="#fff" d="M360 120.5a3.5 3.5 0 0 1 3.5 3.5v16a3.5 3.5 0 0 1-3.5 3.5h-65.5v-23H360Z"/><path stroke="#BFBFC3" d="M360 120.5a3.5 3.5 0 0 1 3.5 3.5v16a3.5 3.5 0 0 1-3.5 3.5h-65.5v-23H360Z"/><path fill="#3A383F" d="M303.23 137v-10.186h1.846l2.509 6.426c.232.595.649 1.928.889 2.817h-.287c.246-.834.663-2.195.902-2.817l2.474-6.426h1.853V137h-1.278v-5.817c0-.841.027-2.215.054-3.357h.11c-.39 1.265-.882 2.694-1.142 3.357L308.884 137h-1.128l-2.311-5.817c-.253-.636-.711-2.031-1.162-3.357h.123c.028 1.019.062 2.461.062 3.357V137h-1.238Zm15.709.164c-2.214 0-3.582-1.572-3.582-3.924 0-2.344 1.354-3.978 3.439-3.978 1.62 0 3.329.998 3.329 3.821v.513h-5.934v-1.039h5.271l-.574.382c0-1.503-.711-2.584-2.092-2.584-1.381 0-2.194 1.142-2.194 2.386v.691c0 1.702.943 2.638 2.344 2.638.903 0 1.579-.396 1.866-1.175l1.19.328c-.356 1.155-1.497 1.941-3.063 1.941Zm7.814 0c-1.907 0-3.233-1.531-3.233-3.965 0-2.42 1.333-3.937 3.24-3.937 1.49 0 1.962.916 2.215 1.319h.095v-3.767h1.231V137h-1.19v-1.183h-.136c-.253.424-.766 1.347-2.222 1.347Zm.185-1.101c1.387 0 2.146-1.175 2.146-2.877 0-1.689-.738-2.824-2.146-2.824-1.45 0-2.167 1.238-2.167 2.824 0 1.606.738 2.877 2.167 2.877Zm5.523.937v-7.643h1.23V137h-1.23Zm.622-8.894c-.465 0-.854-.362-.854-.813 0-.451.389-.814.854-.814.472 0 .861.363.861.814 0 .451-.389.813-.861.813Zm5.359 8.99c-1.545 0-2.59-.95-2.59-2.885v-4.854h1.23v4.751c0 1.176.663 1.88 1.73 1.88 1.093 0 1.92-.745 1.92-2.05v-4.581h1.238V137h-1.19v-1.853h.164c-.471 1.436-1.381 1.949-2.502 1.949Zm5.695-.096v-7.643h1.196l.007 1.709h-.096c.308-1.237 1.244-1.845 2.235-1.845 1.108 0 1.812.752 2.017 1.859h-.164c.273-1.142 1.285-1.859 2.502-1.859 1.326 0 2.406.854 2.406 2.625V137h-1.237v-5.12c0-1.101-.718-1.538-1.538-1.538-1.032 0-1.661.704-1.661 1.668V137h-1.231v-5.243c0-.848-.635-1.415-1.497-1.415-.895 0-1.709.629-1.709 1.846V137h-1.23Z"/><g clip-path="url(#b)"><path fill="#F4F0FF" d="M16.5 152.5h347v127h-347z"/><path stroke="#AC93E6" stroke-dasharray="4 4" d="M16.5 152.5h347v127h-347z"/><path stroke="#E1D8F9" d="M0-.5h360.555" transform="matrix(.94299 .33282 -.6362 .77153 20 156)"/><path stroke="#E1D8F9" d="M0-.5h360.555" transform="matrix(-.94299 .33282 .6362 .77153 360 156)"/><path fill="#7B58CF" d="M186.72 203.841a.749.749 0 1 0 1.06-1.061L184 199l-3.78 3.78a.75.75 0 0 0 1.06 1.061l1.97-1.97v8.19a3 3 0 0 0 3 3h4a.75.75 0 0 0 0-1.5h-4a1.5 1.5 0 0 1-1.5-1.5v-8.19l1.97 1.97Zm2.28-4.03a.75.75 0 0 1 .75-.75h4a3 3 0 0 1 3 3v8.189l1.97-1.97a.749.749 0 1 1 1.06 1.061l-3.78 3.78-.528-.528-.005-.004-3.247-3.248a.75.75 0 0 1 1.06-1.061l1.97 1.97v-8.189a1.5 1.5 0 0 0-1.5-1.5h-4a.75.75 0 0 1-.75-.75Z"/><path fill="#28272D" d="m157.475 230-3.211-8.73h1.172l1.845 5.179c.211.592.528 1.571.949 3.024h-.216a53.29 53.29 0 0 1 .937-3.024l1.799-5.179h1.184l-3.176 8.73h-1.283Zm5.695 0v-6.551h1.055V230h-1.055Zm.533-7.623c-.398 0-.732-.311-.732-.697 0-.387.334-.698.732-.698.404 0 .738.311.738.698 0 .386-.334.697-.738.697Zm4.6 7.764c-1.348 0-2.285-.598-2.52-1.729l1.002-.24c.188.721.721 1.043 1.506 1.043.914 0 1.5-.451 1.5-.99 0-.452-.316-.75-.961-.903l-1.09-.258c-1.189-.281-1.758-.867-1.758-1.787 0-1.125 1.032-1.91 2.426-1.91 1.348 0 2.057.656 2.356 1.576l-.955.246c-.182-.468-.551-.925-1.395-.925-.779 0-1.365.404-1.365.949 0 .486.334.756 1.101.937l.991.235c1.189.281 1.746.873 1.746 1.769 0 1.149-1.049 1.987-2.584 1.987Zm6.334-.059c-1.325 0-2.221-.814-2.221-2.473v-4.16h1.055v4.072c0 1.008.568 1.612 1.482 1.612.938 0 1.647-.639 1.647-1.758v-3.926h1.06V230h-1.019v-1.588h.14c-.404 1.231-1.183 1.67-2.144 1.67Zm6.715.07c-1.243 0-2.233-.726-2.233-2.015 0-1.5 1.336-1.776 2.549-1.928 1.166-.147 1.682-.111 1.682-.598v-.035c0-.814-.463-1.283-1.371-1.283-.944 0-1.454.504-1.659.961l-1.013-.334c.504-1.19 1.629-1.553 2.642-1.553.879 0 2.455.27 2.455 2.315V230h-1.037v-.891h-.07c-.223.463-.838 1.043-1.945 1.043Zm.181-.931c1.166 0 1.817-.785 1.817-1.588v-.908c-.176.205-1.325.322-1.729.375-.767.099-1.441.345-1.441 1.089 0 .68.568 1.032 1.353 1.032Zm6.194.826c-.985 0-1.471-.551-1.471-1.5v-7.277h1.055v7.013c0 .604.105.821.544.821.229 0 .323-.018.422-.047l.211.89c-.187.053-.48.1-.761.1Zm1.834-.047v-6.551h1.054V230h-1.054Zm.533-7.623c-.399 0-.733-.311-.733-.697 0-.387.334-.698.733-.698.404 0 .738.311.738.698 0 .386-.334.697-.738.697Zm2.185 7.623v-.785l3.674-4.723v-.064h-3.557v-.979h4.916v.838l-3.568 4.67v.064h3.686V230h-5.151Zm8.655.152c-1.243 0-2.233-.726-2.233-2.015 0-1.5 1.336-1.776 2.549-1.928 1.166-.147 1.682-.111 1.682-.598v-.035c0-.814-.463-1.283-1.371-1.283-.944 0-1.454.504-1.659.961l-1.013-.334c.504-1.19 1.629-1.553 2.642-1.553.879 0 2.455.27 2.455 2.315V230h-1.037v-.891h-.07c-.223.463-.838 1.043-1.945 1.043Zm.181-.931c1.166 0 1.817-.785 1.817-1.588v-.908c-.176.205-1.325.322-1.729.375-.767.099-1.441.345-1.441 1.089 0 .68.568 1.032 1.353 1.032Zm7.301-5.772v.903h-3.387v-.903h3.387Zm-2.402-1.558h1.054v6.41c0 .586.217.844.774.844.135 0 .363-.036.539-.071l.217.891a2.549 2.549 0 0 1-.786.117c-1.13 0-1.798-.627-1.798-1.699v-6.492Zm3.75 8.109v-6.551h1.054V230h-1.054Zm.533-7.623c-.399 0-.733-.311-.733-.697 0-.387.334-.698.733-.698.404 0 .738.311.738.698 0 .386-.334.697-.738.697Zm5.039 7.764c-1.781 0-2.982-1.354-2.982-3.375 0-2.051 1.201-3.399 2.982-3.399 1.787 0 2.994 1.348 2.994 3.399 0 2.021-1.207 3.375-2.994 3.375Zm0-.944c1.324 0 1.928-1.142 1.928-2.431 0-1.301-.604-2.455-1.928-2.455-1.307 0-1.91 1.148-1.91 2.455 0 1.289.603 2.431 1.91 2.431Zm5.584-3.123V230h-1.055v-6.551h1.014l.006 1.588h-.147c.399-1.207 1.16-1.67 2.151-1.67 1.324 0 2.22.815 2.22 2.473V230h-1.06v-4.072c0-1.008-.563-1.612-1.477-1.612-.943 0-1.652.639-1.652 1.758Z"/></g><path fill="#89888D" d="M132.293 39.293a1 1 0 0 0 0 1.414l6.364 6.364a1 1 0 1 0 1.414-1.414L134.414 40l5.657-5.657a1 1 0 1 0-1.414-1.414l-6.364 6.364ZM288 40h1v-1h-1v1Zm-.707 74.707a.999.999 0 0 0 1.414 0l6.364-6.364a.999.999 0 1 0-1.414-1.414L288 112.586l-5.657-5.657a.999.999 0 1 0-1.414 1.414l6.364 6.364ZM133 40v1h2.039v-2H133v1Zm6.118 0v1h4.079v-2h-4.079v1Zm8.158 0v1h4.079v-2h-4.079v1Zm8.158 0v1h4.079v-2h-4.079v1Zm8.158 0v1h4.079v-2h-4.079v1Zm8.158 0v1h4.079v-2h-4.079v1Zm8.158 0v1h4.079v-2h-4.079v1Zm8.158 0v1h4.079v-2h-4.079v1Zm8.158 0v1h4.079v-2h-4.079v1Zm8.158 0v1h4.079v-2h-4.079v1Zm8.157 0v1h4.079v-2h-4.079v1Zm8.158 0v1h4.079v-2h-4.079v1Zm8.158 0v1h4.079v-2h-4.079v1Zm8.158 0v1h4.079v-2h-4.079v1Zm8.158 0v1h4.079v-2h-4.079v1Zm8.158 0v1h4.079v-2h-4.079v1Zm8.158 0v1h4.079v-2h-4.079v1Zm8.158 0v1h4.079v-2h-4.079v1Zm8.158 0v1h4.079v-2h-4.079v1Zm8.158 0v1H288v-2h-2.039v1ZM288 40h-1v2.056h2V40h-1Zm0 6.167h-1v4.11h2v-4.11h-1Zm0 8.222h-1V58.5h2v-4.111h-1Zm0 8.222h-1v4.111h2v-4.11h-1Zm0 8.222h-1v4.111h2v-4.11h-1Zm0 8.223h-1v4.11h2v-4.11h-1Zm0 8.222h-1v4.11h2v-4.11h-1Zm0 8.222h-1v4.111h2V95.5h-1Zm0 8.222h-1v4.111h2v-4.111h-1Zm0 8.222h-1V114h2v-2.056h-1Z"/><g clip-path="url(#c)"><path fill="#fff" d="M274 28h24v24h-24z"/><path fill="#2F7549" d="M286 28c6.627 0 12 5.373 12 12s-5.373 12-12 12-12-5.373-12-12 5.373-12 12-12Zm5.405 8.095a.75.75 0 0 0-1.06 0l-6.22 6.22-2.095-2.095a.75.75 0 1 0-1.06 1.06l2.625 2.625a.748.748 0 0 0 1.06 0l6.75-6.75a.75.75 0 0 0 0-1.06Z"/></g></g><defs><clipPath id="a"><path fill="#fff" d="M0 0h380v296H0z"/></clipPath><clipPath id="b"><path fill="#fff" d="M16 152h348v128H16z"/></clipPath><clipPath id="c"><path fill="#fff" d="M274 28h24v24h-24z"/></clipPath></defs></svg>