<svg width="860" height="556" fill="none" xmlns="http://www.w3.org/2000/svg"><path fill="#fff" d="M0 0h860v556H0z"/><rect x="34" y="115" width="61.25" height="400" rx="6" fill="#DBDBF8"/><rect x="103.25" y="115" width="61.25" height="400" rx="6" fill="#DBDBF8"/><rect x="172.5" y="115" width="61.25" height="400" rx="6" fill="#DBDBF8"/><rect x="241.75" y="115" width="61.25" height="400" rx="6" fill="#DBDBF8"/><rect x="311" y="115" width="61.25" height="400" rx="6" fill="#DBDBF8"/><rect x="380.25" y="115" width="61.25" height="400" rx="6" fill="#DBDBF8"/><rect x="449.5" y="115" width="61.25" height="400" rx="6" fill="#DBDBF8"/><rect x="518.75" y="115" width="61.25" height="400" rx="6" fill="#DBDBF8"/><rect x="588" y="115" width="61.25" height="400" rx="6" fill="#DBDBF8"/><rect x="657.25" y="115" width="61.25" height="400" rx="6" fill="#DBDBF8"/><rect x="726.5" y="115" width="61.25" height="400" rx="6" fill="#DBDBF8"/><rect x="795.75" y="115" width="61.25" height="400" rx="6" fill="#DBDBF8"/><rect x="34" y="522" width="67" height="28" rx="3" fill="#1F75CB"/><rect x="36" y="20" width="115" height="8" rx="2" fill="#535158"/><rect x="36" y="40" width="314" height="8" rx="2" fill="#89888D"/><rect x="108" y="523" width="65" height="26" rx="2" fill="#fff"/><rect x="108" y="523" width="65" height="26" rx="2" stroke="#A4A3A8" stroke-width="2"/><rect x="829" y="21" width="26" height="26" rx="2" fill="#fff"/><rect x="829" y="21" width="26" height="26" rx="2" stroke="#A4A3A8" stroke-width="2"/><path d="M843.078 26a1.25 1.25 0 0 1 1.208.93l.025.112.11.656a6.739 6.739 0 0 1 1.825 1.055l.625-.233.109-.035a1.25 1.25 0 0 1 1.349.487l.061.095 1.078 1.866c.305.528.184 1.2-.286 1.589l-.515.424a6.786 6.786 0 0 1 0 2.108l.515.424c.469.39.59 1.061.285 1.59l-1.077 1.865a1.25 1.25 0 0 1-1.519.547l-.625-.234a6.739 6.739 0 0 1-1.825 1.055l-.11.657A1.251 1.251 0 0 1 843.078 42h-2.155a1.25 1.25 0 0 1-1.233-1.042l-.111-.657a6.739 6.739 0 0 1-1.825-1.055l-.625.233a1.25 1.25 0 0 1-1.518-.546l-1.078-1.866a1.25 1.25 0 0 1 .286-1.589l.513-.424a6.786 6.786 0 0 1 0-2.109l-.513-.423a1.25 1.25 0 0 1-.286-1.59l1.078-1.865.061-.095a1.25 1.25 0 0 1 1.35-.487l.108.035.624.233a6.739 6.739 0 0 1 1.825-1.055l.111-.656.024-.111a1.25 1.25 0 0 1 1.209-.931h2.155Zm-2.067 2.233a1.008 1.008 0 0 1-.675.787 5.244 5.244 0 0 0-1.815 1.048c-.271.24-.66.325-1.018.192l-.699-.26-.866 1.5.574.475c.294.243.415.622.344.975a5.253 5.253 0 0 0 0 2.1c.071.353-.05.732-.344.975l-.574.474.866 1.5.699-.259.136-.04c.272-.06.552-.001.775.149l.107.083.201.169a5.24 5.24 0 0 0 1.614.88c.299.1.543.337.642.648l.033.138.124.733h1.731l.124-.733c.064-.378.333-.672.675-.787l.251-.09a5.254 5.254 0 0 0 1.564-.958l.106-.083c.223-.15.504-.209.776-.149l.136.04.697.26.868-1.501-.574-.474a1.005 1.005 0 0 1-.343-.975l.044-.257a5.327 5.327 0 0 0-.044-1.843 1.005 1.005 0 0 1 .343-.975l.574-.475-.868-1.501-.697.26a1.007 1.007 0 0 1-1.018-.19 5.247 5.247 0 0 0-1.815-1.05 1.008 1.008 0 0 1-.675-.786l-.124-.733h-1.731l-.124.733ZM842 30.25a3.75 3.75 0 1 1 0 7.5 3.75 3.75 0 0 1 0-7.5Zm0 1.5a2.25 2.25 0 1 0 0 4.5 2.25 2.25 0 0 0 0-4.5Z" fill="#A4A3A8"/><rect x="36" y="68" width="118" height="26" rx="2" fill="#fff"/><rect x="36" y="68" width="118" height="26" rx="2" stroke="#A4A3A8" stroke-width="2"/><path d="M135.22 79.22a.75.75 0 0 1 1.06 0l2.72 2.72 2.72-2.72.056-.052a.75.75 0 0 1 1.056 1.056l-.052.056-3.25 3.25a.75.75 0 0 1-1.06 0l-3.25-3.25a.75.75 0 0 1 0-1.06Z" fill="#000"/><rect x="164" y="68" width="118" height="26" rx="2" fill="#fff"/><rect x="164" y="68" width="118" height="26" rx="2" stroke="#A4A3A8" stroke-width="2"/><path d="M263.22 79.22a.75.75 0 0 1 1.06 0l2.72 2.72 2.72-2.72.056-.052a.75.75 0 0 1 1.056 1.056l-.052.056-3.25 3.25a.75.75 0 0 1-1.06 0l-3.25-3.25a.75.75 0 0 1 0-1.06Z" fill="#000"/><circle cx="20" cy="536" r="16" fill="#7B58CF"/><circle cx="20" cy="536" r="18" stroke="#7B58CF" stroke-opacity=".3" stroke-width="4"/><path d="M20.021 542.18c-.84 0-1.584-.174-2.232-.522a3.922 3.922 0 0 1-1.494-1.476c-.36-.636-.54-1.368-.54-2.196 0-.576.108-1.164.324-1.764.216-.612.51-1.248.883-1.908l3.041-5.454h1.8l-3.24 5.634.055.036c.155-.204.39-.36.702-.468a3.118 3.118 0 0 1 1.026-.162c.78 0 1.457.174 2.034.522a3.501 3.501 0 0 1 1.367 1.404c.337.6.505 1.296.505 2.088 0 .84-.18 1.584-.54 2.232a3.885 3.885 0 0 1-1.494 1.494c-.625.36-1.357.54-2.197.54Zm-.018-1.44c.529 0 .985-.114 1.369-.342.395-.24.701-.57.918-.99.227-.42.341-.906.341-1.458 0-.552-.114-1.038-.341-1.458a2.317 2.317 0 0 0-.918-.972c-.384-.24-.84-.36-1.369-.36-.515 0-.971.12-1.367.36a2.435 2.435 0 0 0-.936.972c-.216.42-.325.906-.325 1.458 0 .552.108 1.038.325 1.458.227.42.54.75.936.99.396.228.852.342 1.367.342Z" fill="#fff"/><circle cx="40" cy="123" r="16" fill="#7B58CF"/><circle cx="40" cy="123" r="18" stroke="#7B58CF" stroke-opacity=".3" stroke-width="4"/><path d="M39.895 129.18c-1.212 0-2.172-.336-2.88-1.008-.708-.684-1.062-1.608-1.062-2.772h1.62c0 .72.21 1.29.63 1.71.42.42.99.63 1.71.63s1.29-.21 1.71-.63c.42-.42.63-.99.63-1.71v-.81c0-.72-.203-1.29-.611-1.71-.409-.42-.96-.63-1.657-.63h-3.581v-6.39h7.002v1.476h-5.49l.036 3.438h2.123c1.212 0 2.148.336 2.808 1.008.66.66.99 1.596.99 2.808v.81c0 1.164-.36 2.088-1.08 2.772-.707.672-1.673 1.008-2.898 1.008Z" fill="#fff"/><circle cx="25" cy="70" r="16" fill="#7B58CF"/><circle cx="25" cy="70" r="18" stroke="#7B58CF" stroke-opacity=".3" stroke-width="4"/><path d="M26.803 76v-2.88h-5.94v-2.538l4.788-7.722h1.837l-5.005 8.082v.702h4.32V68.44h1.62V76h-1.62Z" fill="#fff"/><circle cx="813" cy="34" r="16" fill="#7B58CF"/><circle cx="813" cy="34" r="18" stroke="#7B58CF" stroke-opacity=".3" stroke-width="4"/><path d="M812.806 40.18c-1.212 0-2.172-.336-2.88-1.008-.708-.684-1.062-1.608-1.062-2.772h1.62c0 .72.21 1.29.63 1.71.42.42.99.63 1.71.63s1.29-.21 1.71-.63c.42-.42.63-.99.63-1.71v-.9c0-.72-.21-1.29-.63-1.71-.42-.42-.99-.63-1.71-.63h-1.422v-1.404l3.222-3.42h-5.4V26.86h7.236v1.512l-3.6 3.834v-.486c1.212 0 2.166.342 2.862 1.026.708.672 1.062 1.59 1.062 2.754v.9c0 1.164-.36 2.088-1.08 2.772-.708.672-1.674 1.008-2.898 1.008Z" fill="#fff"/><circle cx="315" cy="44" r="16" fill="#7B58CF"/><circle cx="315" cy="44" r="18" stroke="#7B58CF" stroke-opacity=".3" stroke-width="4"/><path d="M311.152 50v-1.494l4.374-4.68c.636-.672 1.086-1.272 1.35-1.8s.396-1.044.396-1.548c0-.72-.21-1.29-.63-1.71-.408-.432-.966-.648-1.674-.648-.732 0-1.314.222-1.746.666-.42.432-.63 1.02-.63 1.764h-1.62c.024-.792.204-1.476.54-2.052a3.41 3.41 0 0 1 1.386-1.35c.588-.312 1.278-.468 2.07-.468.816 0 1.518.156 2.106.468a3.325 3.325 0 0 1 1.368 1.332c.324.564.486 1.236.486 2.016 0 .624-.174 1.284-.522 1.98-.336.696-.918 1.476-1.746 2.34l-3.546 3.708h5.976V50h-7.938Z" fill="#fff"/><circle cx="20" cy="20" r="16" fill="#7B58CF"/><circle cx="20" cy="20" r="18" stroke="#7B58CF" stroke-opacity=".3" stroke-width="4"/><path d="M16.224 26v-1.476h3.564v-10.26l-3.564 2.664v-1.854l2.97-2.214h2.213v11.664h2.916V26h-8.1Z" fill="#fff"/></svg>