<svg width="575" height="371" fill="none" xmlns="http://www.w3.org/2000/svg"><g clip-path="url(#dashboard-panel-structure__a)"><path fill="#fff" d="M0 0h575v371H0z"/><rect x="32" y="32" width="511" height="332" rx="7" fill="#fff" stroke="#BFBFC3" stroke-width="2"/><path d="M533.716 346.224a.749.749 0 1 1 1.06 1.06L524.28 357.78a.749.749 0 1 1-1.06-1.06l10.496-10.496Zm0 5a.749.749 0 1 1 1.06 1.06l-5.496 5.496a.749.749 0 1 1-1.06-1.06l5.496-5.496Z" fill="#000"/><rect x="54" y="124" width="468" height="225" rx="4" fill="#E1D8F9" stroke="#C7C7F2" stroke-width="2"/><path d="M330 86a4 4 0 0 1 4-4h60v30h-60a4 4 0 0 1-4-4V86Z" fill="#fff" stroke="#BFBFC3" stroke-width="2"/><path fill="#fff" stroke="#BFBFC3" stroke-width="2" d="M393 82h64v30h-64z"/><path d="M456 82h60a4 4 0 0 1 4 4v22a4 4 0 0 1-4 4h-60V82Z" fill="#fff" stroke="#BFBFC3" stroke-width="2"/><rect x="56" y="67" width="130" height="8" rx="2" fill="#89888D"/><path d="M515 59a2 2 0 1 1 0 4 2 2 0 0 1 0-4Zm0-6a2 2 0 1 1 0 4 2 2 0 0 1 0-4Zm2-4a2 2 0 1 0-4 0 2 2 0 0 0 4 0Z" fill="#18171D"/><rect x="415" y="42" width="83" height="24" rx="4" fill="#E1D8F9" stroke="#C7C7F2" stroke-width="2" stroke-dasharray="4 4"/><g clip-path="url(#dashboard-panel-structure__b)"><path d="M247 45a8 8 0 1 1 0 16 8 8 0 0 1 0-16Zm0 1.5a6.5 6.5 0 1 0 0 13 6.5 6.5 0 0 0 0-13Zm.75 9h1a.75.75 0 0 1 0 1.5h-3.5a.75.75 0 0 1 0-1.5h1v-2H246a.75.75 0 0 1 0-1.5h1.75v3.5ZM247 49a1 1 0 1 1 0 2 1 1 0 0 1 0-2Z" fill="#1F75CB"/></g><rect x="81" y="49" width="150" height="8" rx="2" fill="#535158"/><rect x="57" y="45" width="16" height="16" rx="4" fill="#E1D8F9" stroke="#C7C7F2" stroke-width="2" stroke-dasharray="4 4"/><circle cx="555" cy="351" r="16" fill="#7B58CF"/><circle cx="555" cy="351" r="18" stroke="#7B58CF" stroke-opacity=".3" stroke-width="4"/><path d="M545.827 357v-1.476h3.564v-10.26l-3.564 2.664v-1.854l2.97-2.214h2.214v11.664h2.916V357h-8.1Zm14.573.18c-.804 0-1.506-.156-2.106-.468a3.444 3.444 0 0 1-1.368-1.35c-.324-.588-.486-1.272-.486-2.052v-5.76c0-.792.162-1.476.486-2.052.324-.576.78-1.02 1.368-1.332.6-.324 1.302-.486 2.106-.486.816 0 1.518.162 2.106.486a3.325 3.325 0 0 1 1.368 1.332c.324.576.486 1.26.486 2.052v5.76c0 .78-.162 1.464-.486 2.052a3.414 3.414 0 0 1-1.386 1.35c-.588.312-1.284.468-2.088.468Zm0-1.386c.72 0 1.296-.228 1.728-.684.444-.468.666-1.068.666-1.8v-5.76c0-.732-.222-1.326-.666-1.782-.432-.468-1.008-.702-1.728-.702s-1.302.234-1.746.702c-.432.456-.648 1.05-.648 1.782v5.76c0 .732.216 1.332.648 1.8.444.456 1.026.684 1.746.684Zm0-4.374c-.324 0-.588-.09-.792-.27-.192-.18-.288-.438-.288-.774 0-.324.096-.57.288-.738.204-.18.468-.27.792-.27s.582.09.774.27c.204.168.306.414.306.738 0 .336-.102.594-.306.774-.192.18-.45.27-.774.27Z" fill="#fff"/><circle cx="121" cy="237" r="16" fill="#7B58CF"/><circle cx="121" cy="237" r="18" stroke="#7B58CF" stroke-opacity=".3" stroke-width="4"/><path d="m119.114 243 3.24-5.634-.054-.036c-.084.12-.216.228-.396.324a2.453 2.453 0 0 1-.594.234 3.58 3.58 0 0 1-.738.072c-.756 0-1.422-.168-1.998-.504a3.707 3.707 0 0 1-1.332-1.422c-.324-.6-.486-1.296-.486-2.088 0-.852.18-1.596.54-2.232a3.885 3.885 0 0 1 1.494-1.494c.636-.36 1.368-.54 2.196-.54.852 0 1.596.18 2.232.54a3.76 3.76 0 0 1 1.494 1.476c.36.624.54 1.35.54 2.178a5.34 5.34 0 0 1-.324 1.782 12.5 12.5 0 0 1-.882 1.89L121.004 243h-1.89Zm1.89-6.3c.78 0 1.41-.258 1.89-.774.492-.516.738-1.188.738-2.016 0-.552-.114-1.038-.342-1.458a2.317 2.317 0 0 0-.918-.972c-.384-.24-.84-.36-1.368-.36-.516 0-.972.12-1.368.36a2.435 2.435 0 0 0-.936.972c-.216.42-.324.906-.324 1.458 0 .552.108 1.038.324 1.458.228.42.54.75.936.99.396.228.852.342 1.368.342Z" fill="#fff"/><circle cx="309" cy="97" r="16" fill="#7B58CF"/><circle cx="309" cy="97" r="18" stroke="#7B58CF" stroke-opacity=".3" stroke-width="4"/><path d="M309.004 103.18c-.828 0-1.56-.162-2.196-.486a3.702 3.702 0 0 1-1.494-1.35c-.348-.588-.522-1.26-.522-2.016 0-.552.108-1.056.324-1.512a3.1 3.1 0 0 1 .9-1.134c.396-.312.858-.51 1.386-.594v-.054c-.684-.156-1.23-.498-1.638-1.026a2.994 2.994 0 0 1-.612-1.854c0-.684.162-1.284.486-1.8a3.254 3.254 0 0 1 1.35-1.224c.588-.3 1.26-.45 2.016-.45.768 0 1.44.15 2.016.45a3.254 3.254 0 0 1 1.35 1.224c.324.516.486 1.116.486 1.8 0 .696-.204 1.314-.612 1.854-.408.528-.954.87-1.638 1.026v.054c.528.084.984.282 1.368.594.396.3.702.678.918 1.134.216.456.324.96.324 1.512 0 .756-.18 1.428-.54 2.016a3.577 3.577 0 0 1-1.476 1.35c-.624.324-1.356.486-2.196.486Zm0-1.458c.768 0 1.392-.222 1.872-.666.48-.456.72-1.044.72-1.764 0-.732-.24-1.32-.72-1.764-.48-.456-1.104-.684-1.872-.684s-1.392.228-1.872.684c-.48.444-.72 1.032-.72 1.764 0 .72.24 1.308.72 1.764.48.444 1.104.666 1.872.666Zm0-6.318c.672 0 1.212-.198 1.62-.594.408-.396.612-.912.612-1.548s-.204-1.152-.612-1.548c-.408-.396-.948-.594-1.62-.594-.66 0-1.2.198-1.62.594-.408.396-.612.912-.612 1.548s.204 1.152.612 1.548c.42.396.96.594 1.62.594Z" fill="#fff"/><circle cx="121" cy="95" r="16" fill="#7B58CF"/><circle cx="121" cy="95" r="18" stroke="#7B58CF" stroke-opacity=".3" stroke-width="4"/><path d="m119.024 101 4.68-11.664H118.7v2.124h-1.62v-3.6h8.352v1.512L120.788 101h-1.764Z" fill="#fff"/><circle cx="539" cy="55" r="16" fill="#7B58CF"/><circle cx="539" cy="55" r="18" stroke="#7B58CF" stroke-opacity=".3" stroke-width="4"/><path d="M539.022 61.18c-.84 0-1.584-.174-2.232-.522a3.922 3.922 0 0 1-1.494-1.476c-.36-.636-.54-1.368-.54-2.196 0-.576.108-1.164.324-1.764.216-.612.51-1.248.882-1.908l3.042-5.454h1.8l-3.24 5.634.054.036c.156-.204.39-.36.702-.468a3.118 3.118 0 0 1 1.026-.162c.78 0 1.458.174 2.034.522a3.501 3.501 0 0 1 1.368 1.404c.336.6.504 1.296.504 2.088 0 .84-.18 1.584-.54 2.232a3.885 3.885 0 0 1-1.494 1.494c-.624.36-1.356.54-2.196.54Zm-.018-1.44c.528 0 .984-.114 1.368-.342.396-.24.702-.57.918-.99.228-.42.342-.906.342-1.458 0-.552-.114-1.038-.342-1.458a2.317 2.317 0 0 0-.918-.972c-.384-.24-.84-.36-1.368-.36-.516 0-.972.12-1.368.36a2.435 2.435 0 0 0-.936.972c-.216.42-.324.906-.324 1.458 0 .552.108 1.038.324 1.458.228.42.54.75.936.99.396.228.852.342 1.368.342Z" fill="#fff"/><circle cx="395" cy="54" r="16" fill="#7B58CF"/><circle cx="395" cy="54" r="18" stroke="#7B58CF" stroke-opacity=".3" stroke-width="4"/><path d="M394.896 60.18c-1.212 0-2.172-.336-2.88-1.008-.708-.684-1.062-1.608-1.062-2.772h1.62c0 .72.21 1.29.63 1.71.42.42.99.63 1.71.63s1.29-.21 1.71-.63c.42-.42.63-.99.63-1.71v-.81c0-.72-.204-1.29-.612-1.71-.408-.42-.96-.63-1.656-.63h-3.582v-6.39h7.002v1.476h-5.49l.036 3.438h2.124c1.212 0 2.148.336 2.808 1.008.66.66.99 1.596.99 2.808v.81c0 1.164-.36 2.088-1.08 2.772-.708.672-1.674 1.008-2.898 1.008Z" fill="#fff"/><circle cx="275" cy="53" r="16" fill="#7B58CF"/><circle cx="275" cy="53" r="18" stroke="#7B58CF" stroke-opacity=".3" stroke-width="4"/><path d="M276.804 59v-2.88h-5.94v-2.538l4.788-7.722h1.836l-5.004 8.082v.702h4.32V51.44h1.62V59h-1.62Z" fill="#fff"/><circle cx="156" cy="29" r="16" fill="#7B58CF"/><circle cx="156" cy="29" r="18" stroke="#7B58CF" stroke-opacity=".3" stroke-width="4"/><path d="M155.806 35.18c-1.212 0-2.172-.336-2.88-1.008-.708-.684-1.062-1.608-1.062-2.772h1.62c0 .72.21 1.29.63 1.71.42.42.99.63 1.71.63s1.29-.21 1.71-.63c.42-.42.63-.99.63-1.71v-.9c0-.72-.21-1.29-.63-1.71-.42-.42-.99-.63-1.71-.63h-1.422v-1.404l3.222-3.42h-5.4V21.86h7.236v1.512l-3.6 3.834v-.486c1.212 0 2.166.342 2.862 1.026.708.672 1.062 1.59 1.062 2.754v.9c0 1.164-.36 2.088-1.08 2.772-.708.672-1.674 1.008-2.898 1.008Z" fill="#fff"/><circle cx="65" cy="25" r="16" fill="#7B58CF"/><circle cx="65" cy="25" r="18" stroke="#7B58CF" stroke-opacity=".3" stroke-width="4"/><path d="M61.151 31v-1.494l4.374-4.68c.636-.672 1.087-1.272 1.35-1.8.264-.528.397-1.044.397-1.548 0-.72-.21-1.29-.63-1.71-.408-.432-.966-.648-1.674-.648-.733 0-1.315.222-1.747.666-.42.432-.63 1.02-.63 1.764h-1.62c.025-.792.205-1.476.54-2.052a3.41 3.41 0 0 1 1.386-1.35c.589-.312 1.279-.468 2.07-.468.817 0 1.519.156 2.106.468a3.325 3.325 0 0 1 1.369 1.332c.324.564.486 1.236.486 2.016 0 .624-.174 1.284-.522 1.98-.337.696-.919 1.476-1.747 2.34l-3.546 3.708h5.977V31h-7.94Z" fill="#fff"/><circle cx="20" cy="20" r="16" fill="#7B58CF"/><circle cx="20" cy="20" r="18" stroke="#7B58CF" stroke-opacity=".3" stroke-width="4"/><path d="M16.224 26v-1.476h3.564v-10.26l-3.564 2.664v-1.854l2.97-2.214h2.213v11.664h2.916V26h-8.1Z" fill="#fff"/></g><defs><clipPath id="dashboard-panel-structure__a"><path fill="#fff" d="M0 0h575v371H0z"/></clipPath><clipPath id="dashboard-panel-structure__b"><path fill="#fff" transform="translate(239 45)" d="M0 0h16v16H0z"/></clipPath></defs></svg>