<svg xmlns="http://www.w3.org/2000/svg" width="380" height="200" fill="none"><g clip-path="url(#a)"><path fill="#fff" d="M0 0h380v200H0z"/><rect width="379" height="127" x=".5" y="72.5" fill="#fff" rx="7.5"/><rect width="379" height="127" x=".5" y="72.5" stroke="#DCDCDE" rx="7.5"/><path fill="#28272D" d="M21.4 105.137c-2.713 0-4.785-1.901-4.785-5.223 0-3.336 2.072-5.236 4.785-5.236 2.7 0 4.772 1.9 4.772 5.236 0 3.329-2.071 5.223-4.772 5.223Zm0-1.921c1.552 0 2.557-1.162 2.557-3.302s-1.005-3.308-2.557-3.308c-1.558 0-2.57 1.168-2.57 3.308 0 2.14 1.012 3.302 2.57 3.302Zm6.248 4.641v-10.5h2.106v1.3h.096c.28-.63.902-1.395 2.173-1.395 1.675 0 3.09 1.305 3.09 3.93 0 2.557-1.36 3.931-3.103 3.931-1.224 0-1.866-.711-2.16-1.347h-.062v4.081h-2.14Zm3.685-4.436c1.025 0 1.58-.916 1.58-2.235 0-1.313-.548-2.215-1.58-2.215-1.018 0-1.593.861-1.593 2.215 0 1.346.588 2.235 1.593 2.235Zm8.661 1.729c-2.358 0-3.8-1.504-3.8-3.93 0-2.359 1.449-3.958 3.698-3.958 2.037 0 3.616 1.299 3.616 3.883v.587H37.04v-1.319h5.428l-1.005.342c0-1.155-.526-1.894-1.552-1.894-1.032 0-1.6.76-1.6 1.812v.936c0 1.286.684 1.949 1.716 1.949.698 0 1.224-.301 1.436-.869l1.928.342c-.376 1.285-1.607 2.119-3.398 2.119Zm7.02-4.552V105h-2.139v-7.643h2.017l.04 1.915h-.122c.396-1.252 1.189-2.01 2.495-2.01 1.593 0 2.638 1.107 2.638 2.878V105h-2.146v-4.471c0-.93-.506-1.483-1.347-1.483-.848 0-1.435.574-1.435 1.552Zm12.962 4.552c-1.873 0-3.159-.834-3.425-2.262l1.996-.335c.191.697.663 1.052 1.497 1.052.752 0 1.217-.314 1.217-.751 0-.39-.315-.623-.978-.759l-1.32-.267c-1.483-.301-2.214-1.025-2.214-2.18 0-1.477 1.285-2.386 3.247-2.386 1.846 0 2.96.8 3.24 2.064l-1.893.322c-.158-.52-.595-.862-1.306-.862-.65 0-1.148.294-1.148.732 0 .362.246.622.95.765l1.394.274c1.49.3 2.208.97 2.208 2.064 0 1.525-1.435 2.529-3.465 2.529Zm8.305 0c-2.358 0-3.8-1.504-3.8-3.93 0-2.359 1.449-3.958 3.698-3.958 2.037 0 3.616 1.299 3.616 3.883v.587h-6.467v-1.319h5.428l-1.005.342c0-1.155-.526-1.894-1.552-1.894-1.032 0-1.6.76-1.6 1.812v.936c0 1.286.684 1.949 1.716 1.949.698 0 1.224-.301 1.436-.869l1.928.342c-.376 1.285-1.607 2.119-3.398 2.119Zm6.781-.15-2.802-7.643h2.27l1.25 3.911c.308.991.52 1.996.76 3.103h-.438c.239-1.107.437-2.105.745-3.103l1.23-3.91h2.25L77.516 105h-2.454Zm9.557.15c-2.358 0-3.8-1.504-3.8-3.93 0-2.359 1.449-3.958 3.698-3.958 2.037 0 3.616 1.299 3.616 3.883v.587h-6.467v-1.319h5.428l-1.005.342c0-1.155-.526-1.894-1.552-1.894-1.032 0-1.6.76-1.6 1.812v.936c0 1.286.684 1.949 1.716 1.949.698 0 1.224-.301 1.436-.869l1.928.342c-.376 1.285-1.607 2.119-3.398 2.119ZM89.5 105v-7.643h2.078v1.354h.082c.274-.957.97-1.45 1.825-1.45.212 0 .479.028.663.07v1.9c-.191-.062-.601-.11-.902-.11-.923 0-1.606.643-1.606 1.579v4.3H89.5Zm5.838 0v-7.643h2.14V105h-2.14Zm1.066-8.606c-.629 0-1.148-.486-1.148-1.08 0-.602.52-1.08 1.148-1.08.636 0 1.162.478 1.162 1.08 0 .594-.526 1.08-1.162 1.08Zm6.658.963v1.62h-4.593v-1.62h4.593Zm-3.554-1.818h2.139v7.198c0 .465.199.684.677.684.157 0 .506-.055.65-.089l.3 1.593c-.478.137-.95.184-1.374.184-1.558 0-2.392-.765-2.392-2.18v-7.39Zm4.867 9.461v-7.643h2.14V105h-2.14Zm1.066-8.606c-.629 0-1.148-.486-1.148-1.08 0-.602.519-1.08 1.148-1.08.636 0 1.163.478 1.163 1.08 0 .594-.527 1.08-1.163 1.08Zm6.262 8.756c-2.358 0-3.801-1.504-3.801-3.93 0-2.359 1.45-3.958 3.699-3.958 2.037 0 3.616 1.299 3.616 3.883v.587h-6.467v-1.319h5.428l-1.005.342c0-1.155-.527-1.894-1.552-1.894-1.032 0-1.6.76-1.6 1.812v.936c0 1.286.684 1.949 1.716 1.949.698 0 1.224-.301 1.436-.869l1.928.342c-.376 1.285-1.607 2.119-3.398 2.119Zm7.964 0c-1.873 0-3.158-.834-3.425-2.262l1.996-.335c.192.697.663 1.052 1.497 1.052.752 0 1.217-.314 1.217-.751 0-.39-.314-.623-.977-.759l-1.32-.267c-1.483-.301-2.215-1.025-2.215-2.18 0-1.477 1.286-2.386 3.248-2.386 1.845 0 2.959.8 3.24 2.064l-1.894.322c-.157-.52-.595-.862-1.305-.862-.65 0-1.149.294-1.149.732 0 .362.246.622.95.765l1.395.274c1.49.3 2.208.97 2.208 2.064 0 1.525-1.436 2.529-3.466 2.529Z"/><path fill="#4C4B51" d="M17.055 124v-8.73h1.113v7.746h4.043V124h-5.156Zm8.49.152c-1.242 0-2.233-.726-2.233-2.015 0-1.5 1.336-1.776 2.55-1.928 1.165-.147 1.681-.111 1.681-.598v-.035c0-.814-.463-1.283-1.371-1.283-.944 0-1.453.504-1.658.961l-1.014-.334c.504-1.19 1.629-1.553 2.643-1.553.878 0 2.455.27 2.455 2.315V124H27.56v-.891h-.07c-.223.463-.839 1.043-1.946 1.043Zm.182-.931c1.166 0 1.816-.785 1.816-1.588v-.908c-.176.205-1.324.322-1.729.375-.767.099-1.441.345-1.441 1.089 0 .68.568 1.032 1.354 1.032Zm6.949.92c-1.348 0-2.285-.598-2.52-1.729l1.002-.24c.188.721.72 1.043 1.506 1.043.914 0 1.5-.451 1.5-.99 0-.452-.316-.75-.96-.903l-1.09-.258c-1.19-.281-1.758-.867-1.758-1.787 0-1.125 1.03-1.91 2.425-1.91 1.348 0 2.057.656 2.356 1.576l-.955.246c-.182-.468-.551-.925-1.395-.925-.78 0-1.365.404-1.365.949 0 .486.334.756 1.101.937l.99.235c1.19.281 1.747.873 1.747 1.769 0 1.149-1.05 1.987-2.584 1.987Zm6.691-6.692v.903h-3.386v-.903h3.386Zm-2.402-1.558h1.054v6.41c0 .586.217.844.774.844.135 0 .363-.036.539-.071l.217.891a2.544 2.544 0 0 1-.785.117c-1.131 0-1.8-.627-1.8-1.699v-6.492Zm9.732 8.226c-1.482 0-2.543-.943-2.748-2.338h1.102c.181.774.726 1.354 1.646 1.354 1.33 0 2.15-1.213 2.15-3.328h-.07a2.53 2.53 0 0 1-2.15 1.166c-1.506 0-2.748-1.207-2.748-2.889 0-1.629 1.172-2.959 2.965-2.93 1.435.024 3.047.926 3.047 4.137 0 3.088-1.22 4.828-3.194 4.828Zm.094-4.119c1.06 0 1.899-.92 1.899-1.945 0-1.002-.792-1.922-1.864-1.922-1.054 0-1.857.867-1.857 1.945 0 1.072.767 1.922 1.822 1.922Zm7.6 4.119c-1.946 0-3.07-1.629-3.07-4.476 0-2.83 1.136-4.489 3.07-4.489 1.933 0 3.07 1.659 3.07 4.489 0 2.841-1.12 4.476-3.07 4.476Zm0-.972c1.277 0 1.998-1.29 1.998-3.504 0-2.227-.721-3.522-1.998-3.522-1.278 0-1.998 1.301-1.998 3.522 0 2.214.72 3.504 1.998 3.504Zm10.54.996c-1.634 0-2.77-1.313-2.77-3.399 0-2.074 1.142-3.375 2.776-3.375 1.278 0 1.682.785 1.899 1.131h.082v-3.228h1.055V124h-1.02v-1.014h-.117c-.217.364-.656 1.155-1.904 1.155Zm.159-.944c1.19 0 1.84-1.008 1.84-2.467 0-1.447-.633-2.419-1.84-2.419-1.242 0-1.858 1.06-1.858 2.419 0 1.377.633 2.467 1.858 2.467Zm6.568.955c-1.242 0-2.232-.726-2.232-2.015 0-1.5 1.336-1.776 2.549-1.928 1.166-.147 1.681-.111 1.681-.598v-.035c0-.814-.463-1.283-1.37-1.283-.944 0-1.454.504-1.659.961l-1.014-.334c.504-1.19 1.63-1.553 2.643-1.553.879 0 2.455.27 2.455 2.315V124h-1.037v-.891h-.07c-.223.463-.838 1.043-1.946 1.043Zm.182-.931c1.166 0 1.816-.785 1.816-1.588v-.908c-.175.205-1.324.322-1.728.375-.768.099-1.442.345-1.442 1.089 0 .68.569 1.032 1.354 1.032Zm4.441 3.152.27-.914.111.029c.645.17 1.107.03 1.43-.908l.187-.545-2.502-6.586h1.155l1.394 3.885c.293.814.469 1.617.697 2.367h-.386c.222-.75.404-1.558.697-2.367l1.406-3.885h1.149l-2.877 7.53c-.399 1.042-1.031 1.517-1.957 1.517-.375 0-.662-.07-.774-.123Zm9.082-2.232c-1.347 0-2.285-.598-2.52-1.729l1.003-.24c.187.721.72 1.043 1.506 1.043.914 0 1.5-.451 1.5-.99 0-.452-.317-.75-.961-.903l-1.09-.258c-1.19-.281-1.758-.867-1.758-1.787 0-1.125 1.031-1.91 2.426-1.91 1.347 0 2.056.656 2.355 1.576l-.955.246c-.181-.468-.55-.925-1.394-.925-.78 0-1.366.404-1.366.949 0 .486.334.756 1.102.937l.99.235c1.19.281 1.746.873 1.746 1.769 0 1.149-1.049 1.987-2.584 1.987Z"/><path fill="#626168" d="M132.455 155v-10.186h2.42l3.11 5.011a16.79 16.79 0 0 1 1.559 3.227h-.219c-.089-1.135-.184-2.653-.184-3.493v-4.745h2.228V155h-2.427l-2.83-4.546c-.67-1.08-1.073-1.914-1.873-3.582h.267c.089 1.477.178 2.864.178 3.575V155h-2.229Zm14.109.15c-2.324 0-3.766-1.586-3.766-3.937 0-2.365 1.442-3.951 3.766-3.951 2.325 0 3.767 1.586 3.767 3.951 0 2.351-1.442 3.937-3.767 3.937Zm0-1.668c1.046 0 1.586-.957 1.586-2.276 0-1.333-.54-2.269-1.586-2.269-1.039 0-1.579.936-1.579 2.269 0 1.319.54 2.276 1.579 2.276Zm8.415 1.518v-7.643h2.079v1.354h.082c.273-.957.97-1.449 1.825-1.449.212 0 .478.027.663.068v1.9c-.191-.061-.602-.109-.902-.109-.923 0-1.607.643-1.607 1.579v4.3h-2.14Zm8.887.15c-2.358 0-3.801-1.504-3.801-3.93 0-2.359 1.45-3.958 3.699-3.958 2.037 0 3.616 1.299 3.616 3.883v.587h-6.467v-1.319h5.428l-1.005.342c0-1.155-.526-1.894-1.552-1.894-1.032 0-1.599.759-1.599 1.812v.936c0 1.286.683 1.949 1.715 1.949.698 0 1.224-.301 1.436-.869l1.928.342c-.376 1.285-1.607 2.119-3.398 2.119Zm7.964 0c-1.873 0-3.158-.834-3.425-2.262l1.996-.335c.192.697.663 1.052 1.497 1.052.752 0 1.217-.314 1.217-.751 0-.39-.314-.623-.977-.759l-1.32-.267c-1.483-.301-2.214-1.025-2.214-2.181 0-1.476 1.285-2.385 3.247-2.385 1.845 0 2.96.8 3.24 2.064l-1.894.321c-.157-.519-.594-.861-1.305-.861-.65 0-1.149.294-1.149.732 0 .362.246.622.95.765l1.395.274c1.49.3 2.208.97 2.208 2.064 0 1.525-1.436 2.529-3.466 2.529Zm7.458-.054c-1.593 0-2.639-1.101-2.639-2.871v-4.868h2.14v4.478c0 .93.506 1.483 1.347 1.483.847 0 1.435-.574 1.435-1.551v-4.41h2.147V155h-2.024l-.034-1.914h.116c-.396 1.271-1.203 2.01-2.488 2.01Zm8.463-.048c-1.613 0-2.338-.67-2.338-2.058v-8.176h2.14v7.896c0 .472.157.67.56.67.212 0 .315-.021.404-.048l.335 1.545a3.52 3.52 0 0 1-1.101.171Zm5.455-7.691v1.621h-4.594v-1.621h4.594Zm-3.555-1.818h2.14v7.198c0 .465.198.684.677.684.157 0 .506-.055.649-.089l.301 1.593c-.479.137-.95.184-1.374.184-1.559 0-2.393-.765-2.393-2.18v-7.39Zm7.855 9.611c-1.873 0-3.158-.834-3.425-2.262l1.996-.335c.192.697.663 1.052 1.497 1.052.752 0 1.217-.314 1.217-.751 0-.39-.314-.623-.978-.759l-1.319-.267c-1.483-.301-2.215-1.025-2.215-2.181 0-1.476 1.285-2.385 3.247-2.385 1.846 0 2.96.8 3.241 2.064l-1.894.321c-.157-.519-.595-.861-1.306-.861-.649 0-1.148.294-1.148.732 0 .362.246.622.95.765l1.395.274c1.49.3 2.208.97 2.208 2.064 0 1.525-1.436 2.529-3.466 2.529Zm12.4-7.793v1.621h-5.038v-1.621h5.038ZM206.194 155v-8.176c0-1.661 1.067-2.488 2.516-2.488a5.45 5.45 0 0 1 1.504.219l-.369 1.599a2.622 2.622 0 0 0-.684-.102c-.615 0-.834.301-.834.813V155h-2.133Zm8.279.15c-2.325 0-3.767-1.586-3.767-3.937 0-2.365 1.442-3.951 3.767-3.951 2.324 0 3.766 1.586 3.766 3.951 0 2.351-1.442 3.937-3.766 3.937Zm0-1.668c1.046 0 1.586-.957 1.586-2.276 0-1.333-.54-2.269-1.586-2.269-1.039 0-1.579.936-1.579 2.269 0 1.319.54 2.276 1.579 2.276Zm7.799 1.614c-1.592 0-2.638-1.101-2.638-2.871v-4.868h2.139v4.478c0 .93.506 1.483 1.347 1.483.848 0 1.436-.574 1.436-1.551v-4.41h2.146V155h-2.023l-.034-1.914h.116c-.397 1.271-1.203 2.01-2.489 2.01Zm8.265-4.498V155h-2.14v-7.643h2.017l.041 1.914h-.123c.397-1.25 1.189-2.009 2.495-2.009 1.593 0 2.639 1.107 2.639 2.878V155h-2.147v-4.471c0-.929-.506-1.483-1.346-1.483-.848 0-1.436.574-1.436 1.552Zm9.413 4.525c-1.743 0-3.103-1.374-3.103-3.931 0-2.625 1.415-3.93 3.09-3.93 1.271 0 1.893.765 2.167 1.394h.068v-3.842h2.14V155h-2.113v-1.224h-.095c-.288.636-.93 1.347-2.154 1.347Zm.677-1.702c1.005 0 1.586-.889 1.586-2.235 0-1.354-.567-2.215-1.586-2.215-1.032 0-1.579.902-1.579 2.215 0 1.319.554 2.235 1.579 2.235ZM90.332 175v-10.186h6.207v1.149h-4.908v3.322h4.573v1.149h-4.573v3.418h4.97V175h-6.269Zm11.136.164c-1.907 0-3.234-1.531-3.234-3.965 0-2.42 1.333-3.937 3.241-3.937 1.49 0 1.962.916 2.214 1.319h.096v-3.767h1.231V175h-1.19v-1.183h-.137c-.252.424-.765 1.347-2.221 1.347Zm.184-1.101c1.388 0 2.147-1.175 2.147-2.877 0-1.689-.738-2.824-2.147-2.824-1.449 0-2.167 1.238-2.167 2.824 0 1.606.739 2.877 2.167 2.877Zm5.524.937v-7.643h1.23V175h-1.23Zm.622-8.894c-.465 0-.855-.362-.855-.813 0-.451.39-.814.855-.814.472 0 .861.363.861.814 0 .451-.389.813-.861.813Zm5.776 1.251v1.053h-3.951v-1.053h3.951Zm-2.803-1.818h1.231v7.479c0 .683.253.984.902.984.158 0 .424-.041.629-.082l.253 1.039a2.956 2.956 0 0 1-.916.137c-1.319 0-2.099-.732-2.099-1.983v-7.574Zm8.19 12.23.314-1.067.13.034c.752.199 1.292.035 1.668-1.059l.219-.636-2.919-7.684h1.347l1.627 4.533c.341.95.547 1.886.813 2.761h-.451c.26-.875.472-1.818.813-2.761l1.641-4.533h1.34l-3.357 8.785c-.464 1.216-1.203 1.77-2.283 1.77-.437 0-.772-.082-.902-.143Zm10.835-2.605c-2.078 0-3.48-1.579-3.48-3.937 0-2.393 1.402-3.965 3.48-3.965 2.085 0 3.493 1.572 3.493 3.965 0 2.358-1.408 3.937-3.493 3.937Zm0-1.101c1.545 0 2.249-1.333 2.249-2.836 0-1.518-.704-2.865-2.249-2.865-1.525 0-2.229 1.34-2.229 2.865 0 1.503.704 2.836 2.229 2.836Zm7.875 1.033c-1.545 0-2.591-.95-2.591-2.885v-4.854h1.231v4.751c0 1.176.663 1.88 1.729 1.88 1.094 0 1.921-.745 1.921-2.05v-4.581h1.237V175h-1.189v-1.853h.164c-.472 1.436-1.381 1.949-2.502 1.949Zm5.694-.096v-7.643h1.19v1.176h.082c.28-.772 1.073-1.285 1.982-1.285.178 0 .479.014.622.021v1.237a4.619 4.619 0 0 0-.738-.068c-1.101 0-1.907.745-1.907 1.777V175h-1.231Zm11.813.164c-1.573 0-2.666-.697-2.94-2.017l1.169-.28c.219.841.841 1.217 1.757 1.217 1.066 0 1.75-.526 1.75-1.155 0-.527-.369-.875-1.121-1.053l-1.272-.301c-1.387-.328-2.05-1.012-2.05-2.085 0-1.312 1.203-2.228 2.83-2.228 1.572 0 2.399.765 2.748 1.839l-1.114.287c-.212-.547-.643-1.08-1.627-1.08-.91 0-1.593.471-1.593 1.107 0 .567.389.882 1.285 1.094l1.155.273c1.388.328 2.037 1.019 2.037 2.065 0 1.34-1.223 2.317-3.014 2.317Zm8.011 0c-2.214 0-3.582-1.572-3.582-3.924 0-2.344 1.354-3.978 3.439-3.978 1.62 0 3.329.998 3.329 3.821v.513h-5.934v-1.039h5.271l-.574.382c0-1.503-.711-2.584-2.092-2.584-1.381 0-2.194 1.142-2.194 2.386v.691c0 1.702.943 2.638 2.344 2.638.903 0 1.579-.396 1.866-1.175l1.19.328c-.356 1.155-1.497 1.941-3.063 1.941Zm7.226.014c-1.449 0-2.604-.848-2.604-2.352 0-1.75 1.558-2.071 2.973-2.249 1.361-.171 1.962-.13 1.962-.697v-.041c0-.95-.54-1.497-1.6-1.497-1.1 0-1.695.588-1.934 1.121l-1.183-.39c.588-1.387 1.901-1.811 3.083-1.811 1.026 0 2.865.314 2.865 2.7V175h-1.21v-1.039h-.082c-.26.54-.978 1.217-2.27 1.217Zm.212-1.087c1.36 0 2.119-.916 2.119-1.853v-1.059c-.205.239-1.545.376-2.017.437-.895.116-1.681.404-1.681 1.272 0 .793.663 1.203 1.579 1.203Zm5.51.909v-7.643h1.189v1.176h.082c.28-.772 1.073-1.285 1.983-1.285.177 0 .478.014.622.021v1.237a4.622 4.622 0 0 0-.739-.068c-1.1 0-1.907.745-1.907 1.777V175h-1.23Zm8.155.164c-2.078 0-3.48-1.579-3.48-3.937 0-2.393 1.402-3.965 3.48-3.965 1.477 0 2.68.779 3.097 2.112l-1.183.335c-.226-.786-.909-1.347-1.914-1.347-1.524 0-2.229 1.34-2.229 2.865 0 1.503.705 2.836 2.229 2.836 1.025 0 1.723-.581 1.948-1.408l1.176.335c-.41 1.361-1.627 2.174-3.124 2.174Zm6.118-4.744V175h-1.23v-10.186h1.23v4.396h-.212c.465-1.408 1.354-1.948 2.509-1.948 1.545 0 2.591.95 2.591 2.884V175h-1.237v-4.751c0-1.176-.657-1.88-1.723-1.88-1.101 0-1.928.745-1.928 2.051Zm13.132 4.758c-1.449 0-2.604-.848-2.604-2.352 0-1.75 1.558-2.071 2.973-2.249 1.36-.171 1.962-.13 1.962-.697v-.041c0-.95-.54-1.497-1.6-1.497-1.1 0-1.695.588-1.934 1.121l-1.183-.39c.588-1.387 1.901-1.811 3.083-1.811 1.026 0 2.865.314 2.865 2.7V175h-1.21v-1.039h-.082c-.26.54-.978 1.217-2.27 1.217Zm.212-1.087c1.36 0 2.119-.916 2.119-1.853v-1.059c-.205.239-1.545.376-2.017.437-.895.116-1.681.404-1.681 1.272 0 .793.663 1.203 1.579 1.203Zm6.74-3.671V175h-1.23v-7.643h1.182l.007 1.853h-.171c.465-1.408 1.354-1.948 2.509-1.948 1.545 0 2.591.95 2.591 2.884V175h-1.237v-4.751c0-1.176-.657-1.88-1.723-1.88-1.101 0-1.928.745-1.928 2.051Zm9.919 4.744c-1.907 0-3.233-1.531-3.233-3.965 0-2.42 1.333-3.937 3.24-3.937 1.49 0 1.962.916 2.215 1.319h.095v-3.767h1.231V175h-1.19v-1.183h-.136c-.253.424-.766 1.347-2.222 1.347Zm.185-1.101c1.387 0 2.146-1.175 2.146-2.877 0-1.689-.738-2.824-2.146-2.824-1.45 0-2.167 1.238-2.167 2.824 0 1.606.738 2.877 2.167 2.877Zm12.468-6.706v1.053h-3.951v-1.053h3.951Zm-2.802-1.818h1.23v7.479c0 .683.253.984.902.984.158 0 .424-.041.629-.082l.253 1.039a2.956 2.956 0 0 1-.916.137c-1.319 0-2.098-.732-2.098-1.983v-7.574Zm4.375 9.461v-7.643h1.189v1.176h.082c.28-.772 1.073-1.285 1.983-1.285.177 0 .478.014.622.021v1.237a4.65 4.65 0 0 0-.739-.068c-1.1 0-1.907.745-1.907 1.777V175h-1.23Zm5.386 2.769.315-1.067.13.034c.752.199 1.292.035 1.668-1.059l.218-.636-2.918-7.684h1.346l1.627 4.533c.342.95.547 1.886.814 2.761h-.452c.26-.875.472-1.818.814-2.761l1.641-4.533h1.339l-3.356 8.785c-.465 1.216-1.203 1.77-2.283 1.77-.438 0-.773-.082-.903-.143Zm14.076-2.591c-1.45 0-2.605-.848-2.605-2.352 0-1.75 1.559-2.071 2.974-2.249 1.36-.171 1.962-.13 1.962-.697v-.041c0-.95-.54-1.497-1.6-1.497-1.101 0-1.695.588-1.935 1.121l-1.182-.39c.588-1.387 1.9-1.811 3.083-1.811 1.025 0 2.864.314 2.864 2.7V175h-1.21v-1.039h-.082c-.26.54-.977 1.217-2.269 1.217Zm.211-1.087c1.361 0 2.12-.916 2.12-1.853v-1.059c-.205.239-1.545.376-2.017.437-.895.116-1.682.404-1.682 1.272 0 .793.663 1.203 1.579 1.203Zm8.607 3.93c-1.695 0-2.673-.717-3.145-1.558l.998-.643c.322.445.8 1.128 2.147 1.128 1.217 0 2.099-.56 2.099-1.818v-1.531h-.117c-.259.437-.745 1.278-2.221 1.278-1.832 0-3.227-1.333-3.227-3.732 0-2.366 1.347-3.883 3.254-3.883 1.477 0 1.969.909 2.229 1.319h.116v-1.224h1.196v7.841c0 1.976-1.47 2.823-3.329 2.823Zm-.034-4.238c1.387 0 2.146-.998 2.146-2.666 0-1.62-.738-2.755-2.146-2.755-1.456 0-2.181 1.231-2.181 2.755 0 1.572.745 2.666 2.181 2.666Zm7.663 1.395c-1.449 0-2.605-.848-2.605-2.352 0-1.75 1.559-2.071 2.974-2.249 1.36-.171 1.962-.13 1.962-.697v-.041c0-.95-.54-1.497-1.6-1.497-1.1 0-1.695.588-1.934 1.121l-1.183-.39c.588-1.387 1.9-1.811 3.083-1.811 1.026 0 2.864.314 2.864 2.7V175h-1.21v-1.039h-.082c-.259.54-.977 1.217-2.269 1.217Zm.212-1.087c1.36 0 2.119-.916 2.119-1.853v-1.059c-.205.239-1.545.376-2.017.437-.895.116-1.681.404-1.681 1.272 0 .793.663 1.203 1.579 1.203Zm5.51.909v-7.643h1.23V175h-1.23Zm.622-8.894c-.465 0-.855-.362-.855-.813 0-.451.39-.814.855-.814.471 0 .861.363.861.814 0 .451-.39.813-.861.813Zm3.999 4.314V175h-1.231v-7.643h1.183l.007 1.853h-.171c.465-1.408 1.353-1.948 2.509-1.948 1.544 0 2.59.95 2.59 2.884V175h-1.237v-4.751c0-1.176-.656-1.88-1.723-1.88-1.1 0-1.927.745-1.927 2.051Zm7.984 4.669a.92.92 0 1 1 .923-.923.923.923 0 0 1-.923.923Z"/><path fill="#18171D" d="M4.512 13h-2.66v-1.866H4.41c1.9 0 2.912-.964 2.912-3.227 0-2.262-1.011-3.22-2.912-3.22H1.805V2.814h2.734c3.07 0 4.95 1.915 4.95 5.093 0 3.179-1.88 5.093-4.977 5.093ZM3.062 2.814V13H.882V2.814h2.18ZM13.098 13.15c-1.456 0-2.53-.765-2.53-2.283 0-1.702 1.354-2.215 2.872-2.358 1.305-.123 1.838-.185 1.838-.677v-.034c0-.615-.417-.97-1.155-.97-.752 0-1.23.368-1.38.86l-1.956-.307c.356-1.32 1.586-2.12 3.35-2.12 1.709 0 3.281.787 3.281 2.585V13h-2.023v-1.06h-.069c-.383.732-1.114 1.21-2.228 1.21Zm.622-1.476c.916 0 1.572-.609 1.572-1.401v-.8c-.253.164-1.012.273-1.456.341-.745.103-1.224.404-1.224.985 0 .574.458.875 1.108.875Zm9.29-6.317v1.62h-4.594v-1.62h4.594ZM19.455 3.54h2.14v7.198c0 .465.198.684.677.684.157 0 .505-.055.649-.089l.3 1.593c-.478.136-.95.184-1.373.184-1.559 0-2.393-.765-2.393-2.18V3.54Zm8.245 9.61c-2.358 0-3.8-1.504-3.8-3.93 0-2.359 1.449-3.958 3.698-3.958 2.037 0 3.616 1.299 3.616 3.883v.587h-6.467V8.413h5.428l-1.005.342c0-1.155-.526-1.894-1.552-1.894-1.032 0-1.6.76-1.6 1.812v.936c0 1.286.684 1.949 1.716 1.949.698 0 1.224-.301 1.436-.868l1.928.341c-.376 1.285-1.607 2.12-3.398 2.12Zm8.135-.15V5.357h2.078v1.354h.082c.274-.957.97-1.45 1.825-1.45.212 0 .479.028.663.07v1.9c-.191-.062-.601-.11-.902-.11-.923 0-1.606.643-1.606 1.58V13h-2.14Zm7.67.15c-1.456 0-2.53-.765-2.53-2.283 0-1.702 1.354-2.215 2.872-2.358 1.305-.123 1.839-.185 1.839-.677v-.034c0-.615-.417-.97-1.156-.97-.752 0-1.23.368-1.38.86l-1.956-.307c.356-1.32 1.586-2.12 3.35-2.12 1.709 0 3.281.787 3.281 2.585V13h-2.023v-1.06h-.069c-.382.732-1.114 1.21-2.228 1.21Zm.622-1.476c.916 0 1.572-.609 1.572-1.401v-.8c-.253.164-1.011.273-1.456.341-.745.103-1.223.404-1.223.985 0 .574.458.875 1.107.875Zm7.547-3.076V13h-2.14V5.357h2.017l.04 1.914h-.122c.396-1.25 1.19-2.01 2.495-2.01 1.593 0 2.639 1.108 2.639 2.879V13h-2.147V8.53c0-.93-.506-1.484-1.347-1.484-.847 0-1.435.574-1.435 1.552Zm10.055 7.423c-1.934 0-3.15-.786-3.465-1.907l1.845-.471c.178.423.65.847 1.607.847 1.025 0 1.634-.458 1.634-1.442v-1.395h-.164c-.28.643-.896 1.245-2.106 1.245-1.709 0-3.097-1.183-3.097-3.726 0-2.605 1.43-3.91 3.104-3.91 1.265 0 1.907.759 2.194 1.394h.075V5.357h2.113v7.554c0 2.078-1.552 3.11-3.74 3.11Zm.041-4.737c1.012 0 1.587-.793 1.587-2.126 0-1.326-.568-2.187-1.587-2.187-1.032 0-1.585.902-1.585 2.187 0 1.306.56 2.126 1.586 2.126Zm8.887 1.866c-2.358 0-3.8-1.504-3.8-3.93 0-2.359 1.449-3.958 3.698-3.958 2.037 0 3.616 1.299 3.616 3.883v.587h-6.467V8.413h5.428l-1.005.342c0-1.155-.526-1.894-1.552-1.894-1.032 0-1.6.76-1.6 1.812v.936c0 1.286.684 1.949 1.716 1.949.698 0 1.224-.301 1.436-.868l1.928.341c-.376 1.285-1.607 2.12-3.398 2.12Z"/><rect width="124" height="31" x=".5" y="24.5" fill="#fff" rx="3.5"/><rect width="124" height="31" x=".5" y="24.5" stroke="#BFBFC3" rx="3.5"/><path fill="#3A383F" d="M13.23 45V34.815h1.3v9.037h4.716V45h-6.015Zm9.906.178c-1.45 0-2.605-.848-2.605-2.352 0-1.75 1.559-2.071 2.974-2.249 1.36-.17 1.962-.13 1.962-.697v-.041c0-.95-.54-1.497-1.6-1.497-1.1 0-1.695.588-1.934 1.12l-1.183-.389c.588-1.388 1.9-1.811 3.083-1.811 1.025 0 2.864.314 2.864 2.7V45h-1.21v-1.04h-.082c-.26.541-.977 1.218-2.27 1.218Zm.212-1.087c1.36 0 2.119-.916 2.119-1.853v-1.06c-.205.24-1.545.377-2.017.438-.895.116-1.681.404-1.681 1.272 0 .793.663 1.203 1.579 1.203Zm8.107 1.073c-1.572 0-2.666-.697-2.94-2.017l1.17-.28c.218.841.84 1.217 1.756 1.217 1.067 0 1.75-.526 1.75-1.155 0-.527-.369-.875-1.12-1.053l-1.272-.3c-1.388-.329-2.051-1.013-2.051-2.086 0-1.312 1.203-2.228 2.83-2.228 1.572 0 2.4.765 2.748 1.839l-1.114.287c-.212-.547-.643-1.08-1.627-1.08-.91 0-1.593.471-1.593 1.107 0 .567.39.882 1.285 1.094l1.156.273c1.387.328 2.037 1.019 2.037 2.065 0 1.34-1.224 2.317-3.015 2.317Zm7.807-7.807v1.053H35.31v-1.053h3.952Zm-2.803-1.818h1.23v7.479c0 .683.253.984.903.984.157 0 .424-.041.629-.082l.253 1.039a2.96 2.96 0 0 1-.916.137c-1.32 0-2.099-.732-2.099-1.983V35.54Zm11.354 9.598c-1.729 0-2.966-1.1-3.206-2.728h1.286c.212.903.847 1.58 1.92 1.58 1.552 0 2.51-1.416 2.51-3.883h-.083a2.951 2.951 0 0 1-2.509 1.36c-1.756 0-3.206-1.408-3.206-3.37 0-1.9 1.368-3.452 3.46-3.418 1.674.027 3.554 1.08 3.554 4.826 0 3.602-1.422 5.633-3.726 5.633Zm.11-4.806c1.237 0 2.215-1.073 2.215-2.27 0-1.168-.923-2.242-2.174-2.242-1.23 0-2.167 1.012-2.167 2.27 0 1.25.895 2.242 2.126 2.242Zm8.866 4.806c-2.27 0-3.582-1.9-3.582-5.223 0-3.302 1.326-5.236 3.582-5.236s3.582 1.934 3.582 5.236c0 3.316-1.306 5.223-3.582 5.223Zm0-1.135c1.49 0 2.331-1.504 2.331-4.088 0-2.598-.84-4.108-2.33-4.108-1.491 0-2.332 1.517-2.332 4.108 0 2.584.84 4.088 2.331 4.088Zm12.298 1.162c-1.907 0-3.234-1.531-3.234-3.965 0-2.42 1.334-3.937 3.24-3.937 1.491 0 1.963.916 2.216 1.32h.095v-3.767h1.23V45h-1.189v-1.183h-.136c-.253.424-.766 1.347-2.222 1.347Zm.184-1.1c1.388 0 2.147-1.176 2.147-2.879 0-1.688-.738-2.823-2.147-2.823-1.449 0-2.166 1.238-2.166 2.823 0 1.607.738 2.878 2.166 2.878Zm7.664 1.114c-1.45 0-2.605-.848-2.605-2.352 0-1.75 1.559-2.071 2.974-2.249 1.36-.17 1.962-.13 1.962-.697v-.041c0-.95-.54-1.497-1.6-1.497-1.1 0-1.695.588-1.935 1.12l-1.182-.389c.588-1.388 1.9-1.811 3.083-1.811 1.025 0 2.864.314 2.864 2.7V45h-1.21v-1.04h-.082c-.26.541-.977 1.218-2.27 1.218Zm.212-1.087c1.36 0 2.119-.916 2.119-1.853v-1.06c-.206.24-1.545.377-2.017.438-.895.116-1.682.404-1.682 1.272 0 .793.664 1.203 1.58 1.203Zm5.181 3.678.315-1.067.13.034c.751.199 1.291.035 1.667-1.06l.22-.635-2.92-7.684h1.347l1.627 4.533c.342.95.547 1.886.813 2.761h-.45c.259-.875.47-1.818.813-2.761l1.64-4.533h1.34l-3.356 8.785c-.465 1.216-1.203 1.77-2.283 1.77-.438 0-.773-.082-.903-.143Zm10.596-2.605c-1.572 0-2.666-.697-2.94-2.017l1.17-.28c.218.841.84 1.217 1.756 1.217 1.067 0 1.75-.526 1.75-1.155 0-.527-.369-.875-1.12-1.053l-1.272-.3c-1.388-.329-2.051-1.013-2.051-2.086 0-1.312 1.203-2.228 2.83-2.228 1.572 0 2.4.765 2.748 1.839l-1.114.287c-.212-.547-.643-1.08-1.627-1.08-.91 0-1.593.471-1.593 1.107 0 .567.39.882 1.285 1.094l1.155.273c1.388.328 2.038 1.019 2.038 2.065 0 1.34-1.224 2.317-3.015 2.317Zm12.296-5.884a.75.75 0 1 1 1.06-1.06l2.72 2.72 2.72-2.72a.75.75 0 1 1 1.06 1.06l-3.25 3.25a.75.75 0 0 1-1.06 0l-3.25-3.25Z"/></g><defs><clipPath id="a"><path fill="#fff" d="M0 0h380v200H0z"/></clipPath></defs></svg>