<svg xmlns="http://www.w3.org/2000/svg" width="380" height="200" fill="none"><g clip-path="url(#a)"><path fill="#fff" d="M0 0h380v200H0z"/><path fill="#18171D" d="M4.512 13h-2.66v-1.866H4.41c1.9 0 2.912-.964 2.912-3.227 0-2.262-1.011-3.22-2.912-3.22H1.805V2.814h2.734c3.07 0 4.95 1.915 4.95 5.093 0 3.179-1.88 5.093-4.977 5.093ZM3.062 2.814V13H.882V2.814h2.18ZM13.098 13.15c-1.456 0-2.53-.765-2.53-2.283 0-1.702 1.354-2.215 2.872-2.358 1.305-.123 1.838-.185 1.838-.677v-.034c0-.615-.417-.97-1.155-.97-.752 0-1.23.368-1.38.86l-1.956-.307c.356-1.32 1.586-2.12 3.35-2.12 1.709 0 3.281.787 3.281 2.585V13h-2.023v-1.06h-.069c-.383.732-1.114 1.21-2.228 1.21Zm.622-1.476c.916 0 1.572-.609 1.572-1.401v-.8c-.253.164-1.012.273-1.456.341-.745.103-1.224.404-1.224.985 0 .574.458.875 1.108.875Zm9.29-6.317v1.62h-4.594v-1.62h4.594ZM19.455 3.54h2.14v7.198c0 .465.198.684.677.684.157 0 .505-.055.649-.089l.3 1.593c-.478.136-.95.184-1.373.184-1.559 0-2.393-.765-2.393-2.18V3.54Zm8.245 9.61c-2.358 0-3.8-1.504-3.8-3.93 0-2.359 1.449-3.958 3.698-3.958 2.037 0 3.616 1.299 3.616 3.883v.587h-6.467V8.413h5.428l-1.005.342c0-1.155-.526-1.894-1.552-1.894-1.032 0-1.6.76-1.6 1.812v.936c0 1.286.684 1.949 1.716 1.949.698 0 1.224-.301 1.436-.868l1.928.341c-.376 1.285-1.607 2.12-3.398 2.12Zm8.135-.15V5.357h2.078v1.354h.082c.274-.957.97-1.45 1.825-1.45.212 0 .479.028.663.07v1.9c-.191-.062-.601-.11-.902-.11-.923 0-1.606.643-1.606 1.58V13h-2.14Zm7.67.15c-1.456 0-2.53-.765-2.53-2.283 0-1.702 1.354-2.215 2.872-2.358 1.305-.123 1.839-.185 1.839-.677v-.034c0-.615-.417-.97-1.156-.97-.752 0-1.23.368-1.38.86l-1.956-.307c.356-1.32 1.586-2.12 3.35-2.12 1.709 0 3.281.787 3.281 2.585V13h-2.023v-1.06h-.069c-.382.732-1.114 1.21-2.228 1.21Zm.622-1.476c.916 0 1.572-.609 1.572-1.401v-.8c-.253.164-1.011.273-1.456.341-.745.103-1.223.404-1.223.985 0 .574.458.875 1.107.875Zm7.547-3.076V13h-2.14V5.357h2.017l.04 1.914h-.122c.396-1.25 1.19-2.01 2.495-2.01 1.593 0 2.639 1.108 2.639 2.879V13h-2.147V8.53c0-.93-.506-1.484-1.347-1.484-.847 0-1.435.574-1.435 1.552Zm10.055 7.423c-1.934 0-3.15-.786-3.465-1.907l1.845-.471c.178.423.65.847 1.607.847 1.025 0 1.634-.458 1.634-1.442v-1.395h-.164c-.28.643-.896 1.245-2.106 1.245-1.709 0-3.097-1.183-3.097-3.726 0-2.605 1.43-3.91 3.104-3.91 1.265 0 1.907.759 2.194 1.394h.075V5.357h2.113v7.554c0 2.078-1.552 3.11-3.74 3.11Zm.041-4.737c1.012 0 1.587-.793 1.587-2.126 0-1.326-.568-2.187-1.587-2.187-1.032 0-1.585.902-1.585 2.187 0 1.306.56 2.126 1.586 2.126Zm8.887 1.866c-2.358 0-3.8-1.504-3.8-3.93 0-2.359 1.449-3.958 3.698-3.958 2.037 0 3.616 1.299 3.616 3.883v.587h-6.467V8.413h5.428l-1.005.342c0-1.155-.526-1.894-1.552-1.894-1.032 0-1.6.76-1.6 1.812v.936c0 1.286.684 1.949 1.716 1.949.698 0 1.224-.301 1.436-.868l1.928.341c-.376 1.285-1.607 2.12-3.398 2.12Z"/><rect width="124" height="31" x=".5" y="24.5" fill="#fff" rx="3.5"/><rect width="124" height="31" x=".5" y="24.5" stroke="#BFBFC3" rx="3.5"/><path fill="#3A383F" d="M13.23 45V34.815h1.3v9.037h4.716V45h-6.015Zm9.906.178c-1.45 0-2.605-.848-2.605-2.352 0-1.75 1.559-2.071 2.974-2.249 1.36-.17 1.962-.13 1.962-.697v-.041c0-.95-.54-1.497-1.6-1.497-1.1 0-1.695.588-1.934 1.12l-1.183-.389c.588-1.388 1.9-1.811 3.083-1.811 1.025 0 2.864.314 2.864 2.7V45h-1.21v-1.04h-.082c-.26.541-.977 1.218-2.27 1.218Zm.212-1.087c1.36 0 2.119-.916 2.119-1.853v-1.06c-.205.24-1.545.377-2.017.438-.895.116-1.681.404-1.681 1.272 0 .793.663 1.203 1.579 1.203Zm8.107 1.073c-1.572 0-2.666-.697-2.94-2.017l1.17-.28c.218.841.84 1.217 1.756 1.217 1.067 0 1.75-.526 1.75-1.155 0-.527-.369-.875-1.12-1.053l-1.272-.3c-1.388-.329-2.051-1.013-2.051-2.086 0-1.312 1.203-2.228 2.83-2.228 1.572 0 2.4.765 2.748 1.839l-1.114.287c-.212-.547-.643-1.08-1.627-1.08-.91 0-1.593.471-1.593 1.107 0 .567.39.882 1.285 1.094l1.156.273c1.387.328 2.037 1.019 2.037 2.065 0 1.34-1.224 2.317-3.015 2.317Zm7.807-7.807v1.053H35.31v-1.053h3.952Zm-2.803-1.818h1.23v7.479c0 .683.253.984.903.984.157 0 .424-.041.629-.082l.253 1.039a2.96 2.96 0 0 1-.916.137c-1.32 0-2.099-.732-2.099-1.983V35.54Zm11.354 9.598c-1.729 0-2.966-1.1-3.206-2.728h1.286c.212.903.847 1.58 1.92 1.58 1.552 0 2.51-1.416 2.51-3.883h-.083a2.951 2.951 0 0 1-2.509 1.36c-1.756 0-3.206-1.408-3.206-3.37 0-1.9 1.368-3.452 3.46-3.418 1.674.027 3.554 1.08 3.554 4.826 0 3.602-1.422 5.633-3.726 5.633Zm.11-4.806c1.237 0 2.215-1.073 2.215-2.27 0-1.168-.923-2.242-2.174-2.242-1.23 0-2.167 1.012-2.167 2.27 0 1.25.895 2.242 2.126 2.242Zm8.866 4.806c-2.27 0-3.582-1.9-3.582-5.223 0-3.302 1.326-5.236 3.582-5.236s3.582 1.934 3.582 5.236c0 3.316-1.306 5.223-3.582 5.223Zm0-1.135c1.49 0 2.331-1.504 2.331-4.088 0-2.598-.84-4.108-2.33-4.108-1.491 0-2.332 1.517-2.332 4.108 0 2.584.84 4.088 2.331 4.088Zm12.298 1.162c-1.907 0-3.234-1.531-3.234-3.965 0-2.42 1.334-3.937 3.24-3.937 1.491 0 1.963.916 2.216 1.32h.095v-3.767h1.23V45h-1.189v-1.183h-.136c-.253.424-.766 1.347-2.222 1.347Zm.184-1.1c1.388 0 2.147-1.176 2.147-2.879 0-1.688-.738-2.823-2.147-2.823-1.449 0-2.166 1.238-2.166 2.823 0 1.607.738 2.878 2.166 2.878Zm7.664 1.114c-1.45 0-2.605-.848-2.605-2.352 0-1.75 1.559-2.071 2.974-2.249 1.36-.17 1.962-.13 1.962-.697v-.041c0-.95-.54-1.497-1.6-1.497-1.1 0-1.695.588-1.935 1.12l-1.182-.389c.588-1.388 1.9-1.811 3.083-1.811 1.025 0 2.864.314 2.864 2.7V45h-1.21v-1.04h-.082c-.26.541-.977 1.218-2.27 1.218Zm.212-1.087c1.36 0 2.119-.916 2.119-1.853v-1.06c-.206.24-1.545.377-2.017.438-.895.116-1.682.404-1.682 1.272 0 .793.664 1.203 1.58 1.203Zm5.181 3.678.315-1.067.13.034c.751.199 1.291.035 1.667-1.06l.22-.635-2.92-7.684h1.347l1.627 4.533c.342.95.547 1.886.813 2.761h-.45c.259-.875.47-1.818.813-2.761l1.64-4.533h1.34l-3.356 8.785c-.465 1.216-1.203 1.77-2.283 1.77-.438 0-.773-.082-.903-.143Zm10.596-2.605c-1.572 0-2.666-.697-2.94-2.017l1.17-.28c.218.841.84 1.217 1.756 1.217 1.067 0 1.75-.526 1.75-1.155 0-.527-.369-.875-1.12-1.053l-1.272-.3c-1.388-.329-2.051-1.013-2.051-2.086 0-1.312 1.203-2.228 2.83-2.228 1.572 0 2.4.765 2.748 1.839l-1.114.287c-.212-.547-.643-1.08-1.627-1.08-.91 0-1.593.471-1.593 1.107 0 .567.39.882 1.285 1.094l1.155.273c1.388.328 2.038 1.019 2.038 2.065 0 1.34-1.224 2.317-3.015 2.317Zm18.796-6.944a.75.75 0 1 1 1.06 1.06l-3.25 3.25a.75.75 0 0 1-1.06 0l-3.25-3.25a.75.75 0 1 1 1.06-1.06l2.72 2.72 2.72-2.72Z"/><g clip-path="url(#b)"><rect width="380" height="128" y="72" fill="#fff" rx="8"/><path fill="#28272D" d="M21.4 105.137c-2.713 0-4.785-1.901-4.785-5.223 0-3.336 2.072-5.236 4.785-5.236 2.7 0 4.772 1.9 4.772 5.236 0 3.329-2.071 5.223-4.772 5.223Zm0-1.921c1.552 0 2.557-1.162 2.557-3.302s-1.005-3.308-2.557-3.308c-1.558 0-2.57 1.168-2.57 3.308 0 2.14 1.012 3.302 2.57 3.302Zm6.248 4.641v-10.5h2.106v1.3h.096c.28-.63.902-1.395 2.173-1.395 1.675 0 3.09 1.305 3.09 3.93 0 2.557-1.36 3.931-3.103 3.931-1.224 0-1.866-.711-2.16-1.347h-.062v4.081h-2.14Zm3.685-4.436c1.025 0 1.58-.916 1.58-2.235 0-1.313-.548-2.215-1.58-2.215-1.018 0-1.593.861-1.593 2.215 0 1.346.588 2.235 1.593 2.235Zm8.661 1.729c-2.358 0-3.8-1.504-3.8-3.93 0-2.359 1.449-3.958 3.698-3.958 2.037 0 3.616 1.299 3.616 3.883v.587H37.04v-1.319h5.428l-1.005.342c0-1.155-.526-1.894-1.552-1.894-1.032 0-1.6.76-1.6 1.812v.936c0 1.286.684 1.949 1.716 1.949.698 0 1.224-.301 1.436-.869l1.928.342c-.376 1.285-1.607 2.119-3.398 2.119Zm7.02-4.552V105h-2.139v-7.643h2.017l.04 1.915h-.122c.396-1.252 1.189-2.01 2.495-2.01 1.593 0 2.638 1.107 2.638 2.878V105h-2.146v-4.471c0-.93-.506-1.483-1.347-1.483-.848 0-1.435.574-1.435 1.552Zm12.962 4.552c-1.873 0-3.159-.834-3.425-2.262l1.996-.335c.191.697.663 1.052 1.497 1.052.752 0 1.217-.314 1.217-.751 0-.39-.315-.623-.978-.759l-1.32-.267c-1.483-.301-2.214-1.025-2.214-2.18 0-1.477 1.285-2.386 3.247-2.386 1.846 0 2.96.8 3.24 2.064l-1.893.322c-.158-.52-.595-.862-1.306-.862-.65 0-1.148.294-1.148.732 0 .362.246.622.95.765l1.394.274c1.49.3 2.208.97 2.208 2.064 0 1.525-1.435 2.529-3.465 2.529Zm8.305 0c-2.358 0-3.8-1.504-3.8-3.93 0-2.359 1.449-3.958 3.698-3.958 2.037 0 3.616 1.299 3.616 3.883v.587h-6.467v-1.319h5.428l-1.005.342c0-1.155-.526-1.894-1.552-1.894-1.032 0-1.6.76-1.6 1.812v.936c0 1.286.684 1.949 1.716 1.949.698 0 1.224-.301 1.436-.869l1.928.342c-.376 1.285-1.607 2.119-3.398 2.119Zm6.781-.15-2.802-7.643h2.27l1.25 3.911c.308.991.52 1.996.76 3.103h-.438c.239-1.107.437-2.105.745-3.103l1.23-3.91h2.25L77.516 105h-2.454Zm9.557.15c-2.358 0-3.8-1.504-3.8-3.93 0-2.359 1.449-3.958 3.698-3.958 2.037 0 3.616 1.299 3.616 3.883v.587h-6.467v-1.319h5.428l-1.005.342c0-1.155-.526-1.894-1.552-1.894-1.032 0-1.6.76-1.6 1.812v.936c0 1.286.684 1.949 1.716 1.949.698 0 1.224-.301 1.436-.869l1.928.342c-.376 1.285-1.607 2.119-3.398 2.119ZM89.5 105v-7.643h2.078v1.354h.082c.274-.957.97-1.45 1.825-1.45.212 0 .479.028.663.07v1.9c-.191-.062-.601-.11-.902-.11-.923 0-1.606.643-1.606 1.579v4.3H89.5Zm5.838 0v-7.643h2.14V105h-2.14Zm1.066-8.606c-.629 0-1.148-.486-1.148-1.08 0-.602.52-1.08 1.148-1.08.636 0 1.162.478 1.162 1.08 0 .594-.526 1.08-1.162 1.08Zm6.658.963v1.62h-4.593v-1.62h4.593Zm-3.554-1.818h2.139v7.198c0 .465.199.684.677.684.157 0 .506-.055.65-.089l.3 1.593c-.478.137-.95.184-1.374.184-1.558 0-2.392-.765-2.392-2.18v-7.39Zm4.867 9.461v-7.643h2.14V105h-2.14Zm1.066-8.606c-.629 0-1.148-.486-1.148-1.08 0-.602.519-1.08 1.148-1.08.636 0 1.163.478 1.163 1.08 0 .594-.527 1.08-1.163 1.08Zm6.262 8.756c-2.358 0-3.801-1.504-3.801-3.93 0-2.359 1.45-3.958 3.699-3.958 2.037 0 3.616 1.299 3.616 3.883v.587h-6.467v-1.319h5.428l-1.005.342c0-1.155-.527-1.894-1.552-1.894-1.032 0-1.6.76-1.6 1.812v.936c0 1.286.684 1.949 1.716 1.949.698 0 1.224-.301 1.436-.869l1.928.342c-.376 1.285-1.607 2.119-3.398 2.119Zm7.964 0c-1.873 0-3.158-.834-3.425-2.262l1.996-.335c.192.697.663 1.052 1.497 1.052.752 0 1.217-.314 1.217-.751 0-.39-.314-.623-.977-.759l-1.32-.267c-1.483-.301-2.215-1.025-2.215-2.18 0-1.477 1.286-2.386 3.248-2.386 1.845 0 2.959.8 3.24 2.064l-1.894.322c-.157-.52-.595-.862-1.305-.862-.65 0-1.149.294-1.149.732 0 .362.246.622.95.765l1.395.274c1.49.3 2.208.97 2.208 2.064 0 1.525-1.436 2.529-3.466 2.529Z"/><path fill="#4C4B51" d="M19.85 124.152c-1.893 0-3.07-.972-3.17-2.437h1.142c.088.99 1.002 1.441 2.028 1.441 1.183 0 2.085-.621 2.085-1.552 0-.844-.796-1.155-1.728-1.418l-1.055-.299c-1.406-.399-2.226-1.119-2.226-2.28 0-1.476 1.312-2.455 3-2.455 1.722 0 2.924 1.002 2.976 2.321h-1.09c-.1-.85-.884-1.336-1.921-1.336-1.131 0-1.881.597-1.881 1.418 0 .914 1.025 1.236 1.664 1.412l.873.24c.937.258 2.473.785 2.473 2.414 0 1.43-1.155 2.531-3.17 2.531Zm4.775-.152v-6.551h1.055V124h-1.055Zm.533-7.623c-.398 0-.732-.311-.732-.697 0-.387.334-.698.732-.698.404 0 .738.311.738.698 0 .386-.334.697-.738.697Zm3.428 3.697V124H27.53v-6.551h1.014l.006 1.588h-.147c.399-1.207 1.16-1.67 2.15-1.67 1.325 0 2.221.815 2.221 2.473V124h-1.06v-4.072c0-1.008-.563-1.612-1.477-1.612-.943 0-1.652.639-1.652 1.758Zm8.713 4.067c-1.781 0-2.983-1.354-2.983-3.375 0-2.051 1.202-3.399 2.983-3.399 1.266 0 2.297.668 2.654 1.811l-1.014.287c-.193-.674-.779-1.154-1.64-1.154-1.307 0-1.91 1.148-1.91 2.455 0 1.289.603 2.431 1.91 2.431.879 0 1.476-.498 1.67-1.207l1.008.287c-.352 1.166-1.395 1.864-2.678 1.864Zm6.943 0c-1.898 0-3.07-1.348-3.07-3.364 0-2.009 1.16-3.41 2.947-3.41 1.389 0 2.854.856 2.854 3.276v.439h-5.086v-.891h4.517l-.492.329c0-1.29-.61-2.215-1.793-2.215-1.184 0-1.88.978-1.88 2.045v.591c0 1.459.808 2.262 2.009 2.262.774 0 1.354-.34 1.6-1.008l1.02.282c-.306.99-1.284 1.664-2.626 1.664Zm7.594-.141v-.803l2.9-3.146c.967-1.049 1.46-1.647 1.46-2.449 0-.914-.71-1.483-1.641-1.483-.996 0-1.63.645-1.63 1.629H51.86c0-1.547 1.172-2.596 2.725-2.596 1.559 0 2.666 1.073 2.666 2.438 0 .943-.428 1.687-1.969 3.328l-1.91 2.033v.07h4.026V124h-5.561Zm11.777-3.926V124H62.56v-8.73h1.054v3.767h-.181c.398-1.207 1.16-1.67 2.15-1.67 1.324 0 2.22.815 2.22 2.473V124h-1.06v-4.072c0-1.008-.562-1.612-1.476-1.612-.944 0-1.653.639-1.653 1.758Zm8.713 4.067c-1.781 0-2.982-1.354-2.982-3.375 0-2.051 1.2-3.399 2.982-3.399 1.787 0 2.994 1.348 2.994 3.399 0 2.021-1.207 3.375-2.994 3.375Zm0-.944c1.324 0 1.928-1.142 1.928-2.431 0-1.301-.604-2.455-1.928-2.455-1.306 0-1.91 1.148-1.91 2.455 0 1.289.603 2.431 1.91 2.431Zm6.75.885c-1.324 0-2.22-.814-2.22-2.473v-4.16h1.054v4.072c0 1.008.569 1.612 1.483 1.612.937 0 1.646-.639 1.646-1.758v-3.926h1.06V124H81.08v-1.588h.14c-.404 1.231-1.183 1.67-2.144 1.67Zm4.881-.082v-6.551h1.02v1.008h.07c.24-.662.92-1.102 1.7-1.102.151 0 .41.012.532.018v1.061a3.936 3.936 0 0 0-.632-.059c-.944 0-1.635.639-1.635 1.523V124h-1.055Zm6.75.141c-1.348 0-2.285-.598-2.52-1.729l1.002-.24c.188.721.721 1.043 1.506 1.043.914 0 1.5-.451 1.5-.99 0-.452-.316-.75-.96-.903l-1.09-.258c-1.19-.281-1.758-.867-1.758-1.787 0-1.125 1.031-1.91 2.425-1.91 1.348 0 2.057.656 2.356 1.576l-.955.246c-.182-.468-.55-.925-1.395-.925-.779 0-1.365.404-1.365.949 0 .486.334.756 1.102.937l.99.235c1.19.281 1.746.873 1.746 1.769 0 1.149-1.049 1.987-2.584 1.987Zm9.322.011c-1.242 0-2.232-.726-2.232-2.015 0-1.5 1.336-1.776 2.549-1.928 1.166-.147 1.681-.111 1.681-.598v-.035c0-.814-.463-1.283-1.371-1.283-.943 0-1.453.504-1.658.961l-1.014-.334c.504-1.19 1.63-1.553 2.643-1.553.879 0 2.455.27 2.455 2.315V124h-1.037v-.891h-.07c-.223.463-.838 1.043-1.946 1.043Zm.182-.931c1.166 0 1.816-.785 1.816-1.588v-.908c-.175.205-1.324.322-1.728.375-.768.099-1.442.345-1.442 1.089 0 .68.569 1.032 1.354 1.032Zm7.377 3.369c-1.453 0-2.291-.615-2.695-1.336l.855-.551c.275.381.686.967 1.84.967 1.043 0 1.799-.481 1.799-1.559v-1.312h-.1c-.223.375-.639 1.096-1.904 1.096-1.571 0-2.766-1.143-2.766-3.2 0-2.027 1.154-3.328 2.789-3.328 1.266 0 1.688.779 1.91 1.131h.1v-1.049h1.025v6.721c0 1.693-1.259 2.42-2.853 2.42Zm-.029-3.633c1.189 0 1.839-.855 1.839-2.285 0-1.389-.632-2.361-1.839-2.361-1.248 0-1.87 1.054-1.87 2.361 0 1.348.639 2.285 1.87 2.285Zm7.4 1.184c-1.781 0-2.982-1.354-2.982-3.375 0-2.051 1.201-3.399 2.982-3.399 1.787 0 2.994 1.348 2.994 3.399 0 2.021-1.207 3.375-2.994 3.375Zm0-.944c1.324 0 1.928-1.142 1.928-2.431 0-1.301-.604-2.455-1.928-2.455-1.307 0-1.91 1.148-1.91 2.455 0 1.289.603 2.431 1.91 2.431Z"/><g clip-path="url(#c)"><path fill="#28272D" d="M24.955 141.629V162H21.47v-16.939h-.014l-4.88 3.144v-3.295l5.058-3.281h3.322Zm1.833 24.5 1.066-7.287h3.418l-2.05 7.287h-2.434Zm6.44-4.129v-2.748l7.396-6.453c2.037-1.832 3.309-3.063 3.309-4.99 0-2.215-1.367-3.528-3.65-3.528-2.27 0-3.733 1.6-3.733 4.225H33.2c0-4.307 2.844-7.205 7.055-7.205 4.21 0 7.068 2.488 7.068 6.33 0 2.734-1.613 4.689-4.47 7.191l-4.717 4.17v.028h9.283V162H33.228Zm23.461.328c-4.799 0-7.56-3.021-7.56-6.932h3.513c0 2.53 1.49 4.034 4.006 4.034 2.365 0 3.992-1.313 3.992-3.323 0-1.873-1.736-3.117-4.334-3.117h-1.763v-2.775h1.763c2.338 0 3.87-1.121 3.87-2.885 0-1.928-1.436-3.158-3.569-3.158-2.215 0-3.623 1.34-3.623 3.514h-3.432c0-3.706 2.803-6.385 7.055-6.385 4.02 0 6.973 2.379 6.973 5.701 0 2.215-1.518 3.869-3.801 4.416v.041c2.762.396 4.43 2.393 4.43 4.799 0 3.541-3.131 6.07-7.52 6.07Zm8.887-4.894v-2.83l9.229-12.975h2.256v3.609h-1.272l-6.59 9.27v.027h12.852v2.899H65.576ZM75.816 162v-20.371h3.419V162h-3.418Z"/></g></g><rect width="379" height="127" x=".5" y="72.5" stroke="#DCDCDE" rx="7.5"/></g><defs><clipPath id="a"><path fill="#fff" d="M0 0h380v200H0z"/></clipPath><clipPath id="b"><rect width="380" height="128" y="72" fill="#fff" rx="8"/></clipPath><clipPath id="c"><path fill="#fff" d="M16 136h348v144H16z"/></clipPath></defs></svg>