<svg width="220" height="56" viewBox="0 0 220 56" fill="none" xmlns="http://www.w3.org/2000/svg"><rect width="220" height="56" fill="white"/><rect x="20" y="24" width="180" height="32" rx="4" fill="white"/><path d="M42.7071 35.7071C43.0976 35.3166 43.0976 34.6834 42.7071 34.2929C42.3166 33.9024 41.6834 33.9024 41.2929 34.2929L36.2929 39.2929C35.9024 39.6834 35.9024 40.3166 36.2929 40.7071L41.2929 45.7071C41.6834 46.0976 42.3166 46.0976 42.7071 45.7071C43.0976 45.3166 43.0976 44.6834 42.7071 44.2929L38.4142 40L42.7071 35.7071Z" fill="#89888D"/><rect x="52" y="36" width="40" height="8" rx="2" fill="#89888D"/><rect x="128" y="36" width="40" height="8" rx="2" fill="#89888D"/><path d="M177.293 35.7071C176.902 35.3166 176.902 34.6834 177.293 34.2929C177.683 33.9024 178.317 33.9024 178.707 34.2929L183.707 39.2929C184.098 39.6834 184.098 40.3166 183.707 40.7071L178.707 45.7071C178.317 46.0976 177.683 46.0976 177.293 45.7071C176.902 45.3166 176.902 44.6834 177.293 44.2929L181.586 40L177.293 35.7071Z" fill="#89888D"/><circle cx="200" cy="20" r="16" fill="#7B58CF"/><circle cx="200" cy="20" r="18" stroke="#7B58CF" stroke-opacity="0.3" stroke-width="4"/><path d="M201.804 26V23.12H195.864V20.582L200.652 12.86H202.488L197.484 20.942V21.644H201.804V18.44H203.424V26H201.804Z" fill="white"/><circle cx="20" cy="20" r="16" fill="#7B58CF"/><circle cx="20" cy="20" r="18" stroke="#7B58CF" stroke-opacity="0.3" stroke-width="4"/><path d="M16.2235 26V24.524H19.7875V14.264L16.2235 16.928V15.074L19.1935 12.86H21.4075V24.524H24.3235V26H16.2235Z" fill="white"/><circle cx="148" cy="20" r="16" fill="#7B58CF"/><circle cx="148" cy="20" r="18" stroke="#7B58CF" stroke-opacity="0.3" stroke-width="4"/><path d="M147.806 26.18C146.594 26.18 145.634 25.844 144.926 25.172C144.218 24.488 143.864 23.564 143.864 22.4H145.484C145.484 23.12 145.694 23.69 146.114 24.11C146.534 24.53 147.104 24.74 147.824 24.74C148.544 24.74 149.114 24.53 149.534 24.11C149.954 23.69 150.164 23.12 150.164 22.4V21.5C150.164 20.78 149.954 20.21 149.534 19.79C149.114 19.37 148.544 19.16 147.824 19.16H146.402V17.756L149.624 14.336H144.224V12.86H151.46V14.372L147.86 18.206V17.72C149.072 17.72 150.026 18.062 150.722 18.746C151.43 19.418 151.784 20.336 151.784 21.5V22.4C151.784 23.564 151.424 24.488 150.704 25.172C149.996 25.844 149.03 26.18 147.806 26.18Z" fill="white"/><circle cx="72" cy="20" r="16" fill="#7B58CF"/><circle cx="72" cy="20" r="18" stroke="#7B58CF" stroke-opacity="0.3" stroke-width="4"/><path d="M68.1515 26V24.506L72.5255 19.826C73.1615 19.154 73.6115 18.554 73.8755 18.026C74.1395 17.498 74.2715 16.982 74.2715 16.478C74.2715 15.758 74.0615 15.188 73.6415 14.768C73.2335 14.336 72.6755 14.12 71.9675 14.12C71.2355 14.12 70.6535 14.342 70.2215 14.786C69.8015 15.218 69.5915 15.806 69.5915 16.55H67.9715C67.9955 15.758 68.1755 15.074 68.5115 14.498C68.8475 13.91 69.3095 13.46 69.8975 13.148C70.4855 12.836 71.1755 12.68 71.9675 12.68C72.7835 12.68 73.4855 12.836 74.0735 13.148C74.6615 13.46 75.1175 13.904 75.4415 14.48C75.7655 15.044 75.9275 15.716 75.9275 16.496C75.9275 17.12 75.7535 17.78 75.4055 18.476C75.0695 19.172 74.4875 19.952 73.6595 20.816L70.1135 24.524H76.0895V26H68.1515Z" fill="white"/></svg>
