<svg width="744" height="160" fill="none" xmlns="http://www.w3.org/2000/svg"><rect x="16.5" y="8.5" width="15" height="15" rx="3.5" fill="#fff"/><rect x="16.5" y="8.5" width="15" height="15" rx="3.5" stroke="#89888D"/><rect x="40.5" y=".5" width="31" height="31" rx="15.5" fill="#E9F3FC"/><rect x="40.5" y=".5" width="31" height="31" rx="15.5" stroke="#BFBFC3"/><rect x="80" y="12" width="102" height="8" rx="2" fill="#89888D"/><rect x="16.5" y="56.5" width="15" height="15" rx="3.5" fill="#fff"/><rect x="16.5" y="56.5" width="15" height="15" rx="3.5" stroke="#89888D"/><rect x="40.5" y="48.5" width="31" height="31" rx="15.5" fill="#E9F3FC"/><rect x="40.5" y="48.5" width="31" height="31" rx="15.5" stroke="#BFBFC3"/><rect x="80" y="54" width="102" height="8" rx="2" fill="#89888D"/><rect x="80" y="66" width="78" height="8" rx="2" fill="#BFBFC3"/><rect x="16.5" y="104.5" width="15" height="15" rx="3.5" fill="#fff"/><rect x="16.5" y="104.5" width="15" height="15" rx="3.5" stroke="#89888D"/><rect x="40.5" y="96.5" width="31" height="31" rx="15.5" fill="#E9F3FC"/><rect x="40.5" y="96.5" width="31" height="31" rx="15.5" stroke="#BFBFC3"/><rect x="80" y="96" width="102" height="8" rx="2" fill="#89888D"/><rect x="80" y="108" width="664" height="8" rx="2" fill="#BFBFC3"/><rect x="80" y="120" width="664" height="8" rx="2" fill="#BFBFC3"/><rect x="80" y="132" width="664" height="8" rx="2" fill="#BFBFC3"/><rect x="80" y="144" width="632" height="8" rx="2" fill="#BFBFC3"/><path d="M208.707 16.707a1 1 0 0 0 0-1.414l-6.364-6.364a1 1 0 1 0-1.414 1.414L206.586 16l-5.657 5.657a1 1 0 1 0 1.414 1.414l6.364-6.364ZM1 15a1 1 0 1 0 0 2v-2Zm207 1v-1H1v2h207v-1Zm.707 48.707a1 1 0 0 0 0-1.414l-6.364-6.364a1 1 0 1 0-1.414 1.414L206.586 64l-5.657 5.657a1 1 0 1 0 1.414 1.414l6.364-6.364ZM1 63a1 1 0 1 0 0 2v-2Zm207 1v-1H1v2h207v-1ZM58.707 112.707a1 1 0 0 0 0-1.414l-6.364-6.364a1 1 0 1 0-1.414 1.414L56.586 112l-5.657 5.657a1 1 0 1 0 1.414 1.414l6.364-6.364ZM1 111a1 1 0 0 0 0 2v-2Zm57 1v-1H1v2h57v-1Zm150.707-15.293a1 1 0 0 0 0-1.414l-6.364-6.364a1 1 0 1 0-1.414 1.414L206.586 96l-5.657 5.657a.999.999 0 1 0 1.414 1.414l6.364-6.364ZM56 95a1 1 0 1 0 0 2v-2Zm152 1v-1H56v2h152v-1Z" fill="#FC6D26"/></svg>