<svg width="816" height="384" fill="none" xmlns="http://www.w3.org/2000/svg"><g clip-path="url(#layout-app-chrome__a)"><path d="M36 44a8 8 0 0 1 8-8h728a8 8 0 0 1 8 8v332a8 8 0 0 1-8 8H44a8 8 0 0 1-8-8V44Z" fill="url(#layout-app-chrome__b)"/><rect x="144.5" y="70.5" width="274" height="309" rx="7.5" stroke="#DCDCDE"/><rect x="427.5" y="70.5" width="185" height="305" rx="7.5" stroke="#DCDCDE"/><rect x="44" y="78" width="52" height="8" rx="2" fill="#BFBFC3"/><rect x="44" y="94" width="44" height="8" rx="2" fill="#BFBFC3"/><rect x="44" y="110" width="52" height="8" rx="2" fill="#BFBFC3"/><rect x="44" y="126" width="44" height="8" rx="2" fill="#BFBFC3"/><rect x="44" y="142" width="52" height="8" rx="2" fill="#BFBFC3"/><rect x="44" y="158" width="44" height="8" rx="2" fill="#BFBFC3"/><rect x="44" y="174" width="52" height="8" rx="2" fill="#BFBFC3"/><rect x="44" y="190" width="44" height="8" rx="2" fill="#BFBFC3"/><rect x="44" y="322" width="52" height="8" rx="2" fill="#BFBFC3"/><rect x="44" y="338" width="44" height="8" rx="2" fill="#BFBFC3"/><rect x="45" y="355" width="16" height="16" rx="2" fill="#fff"/><rect x="45" y="355" width="16" height="16" rx="2" stroke="#A4A3A8" stroke-width="2"/><rect x="704" y="48" width="9.333" height="8" rx="2" fill="#BFBFC3"/><rect x="721.333" y="48" width="9.333" height="8" rx="2" fill="#BFBFC3"/><rect x="738.667" y="48" width="9.333" height="8" rx="2" fill="#BFBFC3"/><rect x="621.5" y="70.5" width="124" height="305" rx="7.5" stroke="#DCDCDE"/><rect x="756.5" y="44.5" width="15" height="15" rx="7.5" fill="#E9F3FC"/><rect x="756.5" y="44.5" width="15" height="15" rx="7.5" stroke="#BFBFC3"/><rect x="755" y="71" width="16" height="16" rx="2" fill="#fff"/><rect x="755" y="71" width="16" height="16" rx="2" stroke="#A4A3A8" stroke-width="2"/><rect x="71" y="45" width="56" height="16" rx="2" fill="#fff"/><rect x="71" y="45" width="56" height="16" rx="2" stroke="#A4A3A8" stroke-width="2"/><rect x="295" y="45" width="226" height="16" rx="3" fill="#fff"/><rect x="295" y="45" width="226" height="16" rx="3" stroke="#BFBFC3" stroke-width="2"/><rect x="44" y="44" width="18" height="18" rx="2" fill="#89888D"/><path stroke="#7B58CF" stroke-width="2" stroke-linecap="round" d="M45 19h475m185 0h66M21 80v295M797 80v295"/><circle cx="282.5" cy="20" r="16" fill="#7B58CF"/><circle cx="282.5" cy="20" r="18" stroke="#7B58CF" stroke-opacity=".3" stroke-width="4"/><path d="M278.724 26v-1.476h3.564v-10.26l-3.564 2.664v-1.854l2.97-2.214h2.214v11.664h2.916V26h-8.1Z" fill="#fff"/><circle cx="738" cy="20" r="16" fill="#7B58CF"/><circle cx="738" cy="20" r="18" stroke="#7B58CF" stroke-opacity=".3" stroke-width="4"/><path d="M734.152 26v-1.494l4.374-4.68c.636-.672 1.086-1.272 1.35-1.8s.396-1.044.396-1.548c0-.72-.21-1.29-.63-1.71-.408-.432-.966-.648-1.674-.648-.732 0-1.314.222-1.746.666-.42.432-.63 1.02-.63 1.764h-1.62c.024-.792.204-1.476.54-2.052a3.41 3.41 0 0 1 1.386-1.35c.588-.312 1.278-.468 2.07-.468.816 0 1.518.156 2.106.468a3.325 3.325 0 0 1 1.368 1.332c.324.564.486 1.236.486 2.016 0 .624-.174 1.284-.522 1.98-.336.696-.918 1.476-1.746 2.34l-3.546 3.708h5.976V26h-7.938Z" fill="#fff"/><circle cx="20" cy="225.5" r="16" fill="#7B58CF"/><circle cx="20" cy="225.5" r="18" stroke="#7B58CF" stroke-opacity=".3" stroke-width="4"/><path d="M19.805 231.68c-1.212 0-2.171-.336-2.88-1.008-.707-.684-1.062-1.608-1.062-2.772h1.62c0 .72.21 1.29.63 1.71.42.42.99.63 1.71.63s1.29-.21 1.71-.63c.42-.42.63-.99.63-1.71v-.9c0-.72-.21-1.29-.63-1.71-.42-.42-.99-.63-1.71-.63h-1.422v-1.404l3.223-3.42h-5.4v-1.476h7.235v1.512l-3.6 3.834v-.486c1.212 0 2.166.342 2.862 1.026.709.672 1.063 1.59 1.063 2.754v.9c0 1.164-.36 2.088-1.08 2.772-.709.672-1.675 1.008-2.899 1.008Z" fill="#fff"/><circle cx="796" cy="227.5" r="16" fill="#7B58CF"/><circle cx="796" cy="227.5" r="18" stroke="#7B58CF" stroke-opacity=".3" stroke-width="4"/><path d="M797.804 233.5v-2.88h-5.94v-2.538l4.788-7.722h1.836l-5.004 8.082v.702h4.32v-3.204h1.62v7.56h-1.62Z" fill="#fff"/></g><defs><radialGradient id="layout-app-chrome__b" cx="0" cy="0" r="1" gradientUnits="userSpaceOnUse" gradientTransform="matrix(0 348 -744 0 408 36)"><stop stop-color="#FBFAFD"/><stop offset="1" stop-color="#ECECEF"/></radialGradient><clipPath id="layout-app-chrome__a"><rect width="816" height="384" rx="8" fill="#fff"/></clipPath></defs></svg>