<svg width="745" height="160" fill="none" xmlns="http://www.w3.org/2000/svg"><g clip-path="url(#layout-alignment-2__a)"><rect y="8" width="24" height="24" rx="4" fill="#BFBFC3"/><rect x="40" y="8" width="102" height="8" rx="2" fill="#89888D"/><rect x="40" y="20" width="512" height="8" rx="2" fill="#BFBFC3"/><rect x="40" y="32" width="472" height="8" rx="2" fill="#BFBFC3"/><rect x="628" y="8" width="117" height="8" rx="2" fill="#89888D"/><rect x="652" y="20" width="93" height="8" rx="2" fill="#BFBFC3"/><rect y="64" width="24" height="24" rx="4" fill="#BFBFC3"/><rect x="40" y="64" width="86" height="8" rx="2" fill="#89888D"/><rect x="40" y="76" width="488" height="8" rx="2" fill="#BFBFC3"/><rect x="40" y="88" width="472" height="8" rx="2" fill="#BFBFC3"/><rect x="612" y="64" width="133" height="8" rx="2" fill="#89888D"/><rect x="652" y="76" width="93" height="8" rx="2" fill="#BFBFC3"/><rect y="120" width="24" height="24" rx="4" fill="#BFBFC3"/><rect x="40" y="120" width="102" height="8" rx="2" fill="#89888D"/><rect x="40" y="132" width="512" height="8" rx="2" fill="#BFBFC3"/><rect x="40" y="144" width="472" height="8" rx="2" fill="#BFBFC3"/><rect x="628" y="120" width="117" height="8" rx="2" fill="#89888D"/><rect x="652" y="132" width="93" height="8" rx="2" fill="#BFBFC3"/><path stroke="#FC6D26" stroke-width="2" stroke-linecap="round" d="M1 1v158M39 1v158M744 1v158"/></g><defs><clipPath id="layout-alignment-2__a"><path fill="#fff" d="M0 0h745v160H0z"/></clipPath></defs></svg>