<svg width="816" height="412" fill="none" xmlns="http://www.w3.org/2000/svg"><rect width="816" height="412" rx="8" fill="url(#layout-panels__a)"/><rect x="108.5" y="34.5" width="332" height="369" rx="7.5" fill="#fff"/><rect x="108.5" y="34.5" width="332" height="369" rx="7.5" stroke="#BFBFC3"/><circle cx="274.5" cy="219" r="16" fill="#7B58CF"/><circle cx="274.5" cy="219" r="18" stroke="#7B58CF" stroke-opacity=".3" stroke-width="4"/><path d="M270.724 225v-1.476h3.564v-10.26l-3.564 2.664v-1.854l2.97-2.214h2.214v11.664h2.916V225h-8.1Z" fill="#fff"/><rect x="449.5" y="34.5" width="199" height="369" rx="7.5" fill="#fff"/><rect x="449.5" y="34.5" width="199" height="369" rx="7.5" stroke="#BFBFC3"/><circle cx="549" cy="219" r="16" fill="#7B58CF"/><circle cx="549" cy="219" r="18" stroke="#7B58CF" stroke-opacity=".3" stroke-width="4"/><path d="M545.152 225v-1.494l4.374-4.68c.636-.672 1.086-1.272 1.35-1.8s.396-1.044.396-1.548c0-.72-.21-1.29-.63-1.71-.408-.432-.966-.648-1.674-.648-.732 0-1.314.222-1.746.666-.42.432-.63 1.02-.63 1.764h-1.62c.024-.792.204-1.476.54-2.052a3.41 3.41 0 0 1 1.386-1.35c.588-.312 1.278-.468 2.07-.468.816 0 1.518.156 2.106.468a3.325 3.325 0 0 1 1.368 1.332c.324.564.486 1.236.486 2.016 0 .624-.174 1.284-.522 1.98-.336.696-.918 1.476-1.746 2.34l-3.546 3.708h5.976V225h-7.938Z" fill="#fff"/><rect x="657.5" y="34.5" width="124" height="369" rx="7.5" fill="#fff"/><rect x="657.5" y="34.5" width="124" height="369" rx="7.5" stroke="#BFBFC3"/><circle cx="719.5" cy="219" r="16" fill="#7B58CF"/><circle cx="719.5" cy="219" r="18" stroke="#7B58CF" stroke-opacity=".3" stroke-width="4"/><path d="M719.306 225.18c-1.212 0-2.172-.336-2.88-1.008-.708-.684-1.062-1.608-1.062-2.772h1.62c0 .72.21 1.29.63 1.71.42.42.99.63 1.71.63s1.29-.21 1.71-.63c.42-.42.63-.99.63-1.71v-.9c0-.72-.21-1.29-.63-1.71-.42-.42-.99-.63-1.71-.63h-1.422v-1.404l3.222-3.42h-5.4v-1.476h7.236v1.512l-3.6 3.834v-.486c1.212 0 2.166.342 2.862 1.026.708.672 1.062 1.59 1.062 2.754v.9c0 1.164-.36 2.088-1.08 2.772-.708.672-1.674 1.008-2.898 1.008Z" fill="#fff"/><rect x="8" y="42" width="52" height="8" rx="2" fill="#DCDCDE"/><rect x="8" y="58" width="44" height="8" rx="2" fill="#DCDCDE"/><rect x="8" y="74" width="52" height="8" rx="2" fill="#DCDCDE"/><rect x="8" y="90" width="44" height="8" rx="2" fill="#DCDCDE"/><rect x="8" y="106" width="52" height="8" rx="2" fill="#DCDCDE"/><rect x="8" y="122" width="44" height="8" rx="2" fill="#DCDCDE"/><rect x="8" y="138" width="52" height="8" rx="2" fill="#DCDCDE"/><rect x="8" y="154" width="44" height="8" rx="2" fill="#DCDCDE"/><path d="M8 356a2 2 0 0 1 2-2h48a2 2 0 0 1 2 2v4a2 2 0 0 1-2 2H10a2 2 0 0 1-2-2v-4Zm0 16a2 2 0 0 1 2-2h40a2 2 0 0 1 2 2v4a2 2 0 0 1-2 2H10a2 2 0 0 1-2-2v-4Zm0 16a2 2 0 0 1 2-2h14a2 2 0 0 1 2 2v14a2 2 0 0 1-2 2H10a2 2 0 0 1-2-2v-14ZM738 14a2 2 0 0 1 2-2h5.333a2 2 0 0 1 2 2v4a2 2 0 0 1-2 2H740a2 2 0 0 1-2-2v-4Zm17.333 0a2 2 0 0 1 2-2h5.334a2 2 0 0 1 2 2v4a2 2 0 0 1-2 2h-5.334a2 2 0 0 1-2-2v-4Zm17.334 0a2 2 0 0 1 2-2H780a2 2 0 0 1 2 2v4a2 2 0 0 1-2 2h-5.333a2 2 0 0 1-2-2v-4Z" fill="#DCDCDE"/><rect x="790" y="8" width="16" height="16" rx="8" fill="#DCDCDE"/><path d="M788 36a2 2 0 0 1 2-2h14a2 2 0 0 1 2 2v14a2 2 0 0 1-2 2h-14a2 2 0 0 1-2-2V36ZM34 10a2 2 0 0 1 2-2h54a2 2 0 0 1 2 2v14a2 2 0 0 1-2 2H36a2 2 0 0 1-2-2V10Zm260 0a2 2 0 0 1 2-2h224a2 2 0 0 1 2 2v14a2 2 0 0 1-2 2H296a2 2 0 0 1-2-2V10Z" fill="#DCDCDE"/><rect x="8" y="8" width="18" height="18" rx="2" fill="#DCDCDE"/><defs><radialGradient id="layout-panels__a" cx="0" cy="0" r="1" gradientUnits="userSpaceOnUse" gradientTransform="matrix(0 412 -816 0 408 0)"><stop stop-color="#FBFAFD"/><stop offset="1" stop-color="#ECECEF"/></radialGradient></defs></svg>