<svg width="816" height="412" fill="none" xmlns="http://www.w3.org/2000/svg"><rect width="816" height="412" rx="8" fill="url(#layout-cover__a)"/><rect x="8" y="42" width="52" height="8" rx="2" fill="#BFBFC3"/><rect x="8" y="58" width="44" height="8" rx="2" fill="#BFBFC3"/><rect x="8" y="74" width="52" height="8" rx="2" fill="#BFBFC3"/><rect x="8" y="90" width="44" height="8" rx="2" fill="#BFBFC3"/><rect x="8" y="106" width="52" height="8" rx="2" fill="#BFBFC3"/><rect x="8" y="122" width="44" height="8" rx="2" fill="#BFBFC3"/><rect x="8" y="138" width="52" height="8" rx="2" fill="#BFBFC3"/><rect x="8" y="154" width="44" height="8" rx="2" fill="#BFBFC3"/><rect x="8" y="354" width="52" height="8" rx="2" fill="#BFBFC3"/><rect x="8" y="370" width="44" height="8" rx="2" fill="#BFBFC3"/><rect x="9" y="387" width="16" height="16" rx="2" fill="#fff"/><rect x="9" y="387" width="16" height="16" rx="2" stroke="#A4A3A8" stroke-width="2"/><rect x="738" y="12" width="9.333" height="8" rx="2" fill="#BFBFC3"/><rect x="755.333" y="12" width="9.333" height="8" rx="2" fill="#BFBFC3"/><rect x="772.667" y="12" width="9.333" height="8" rx="2" fill="#BFBFC3"/><rect x="790.5" y="8.5" width="15" height="15" rx="7.5" fill="#E9F3FC"/><rect x="790.5" y="8.5" width="15" height="15" rx="7.5" stroke="#BFBFC3"/><rect x="789" y="35" width="16" height="16" rx="2" fill="#fff"/><rect x="789" y="35" width="16" height="16" rx="2" stroke="#A4A3A8" stroke-width="2"/><rect x="35" y="9" width="56" height="16" rx="2" fill="#fff"/><rect x="35" y="9" width="56" height="16" rx="2" stroke="#A4A3A8" stroke-width="2"/><rect x="295" y="9" width="226" height="16" rx="3" fill="#fff"/><rect x="295" y="9" width="226" height="16" rx="3" stroke="#BFBFC3" stroke-width="2"/><rect x="8" y="8" width="18" height="18" rx="2" fill="#89888D"/><rect x="108.5" y="34.5" width="332" height="369" rx="7.5" fill="#fff"/><rect x="108.5" y="34.5" width="332" height="369" rx="7.5" stroke="#BFBFC3"/><rect x="449.5" y="34.5" width="199" height="369" rx="7.5" fill="#fff"/><rect x="449.5" y="34.5" width="199" height="369" rx="7.5" stroke="#BFBFC3"/><rect x="657.5" y="34.5" width="124" height="369" rx="7.5" fill="#fff"/><rect x="657.5" y="34.5" width="124" height="369" rx="7.5" stroke="#BFBFC3"/><defs><radialGradient id="layout-cover__a" cx="0" cy="0" r="1" gradientUnits="userSpaceOnUse" gradientTransform="matrix(0 412 -816 0 408 0)"><stop stop-color="#FBFAFD"/><stop offset="1" stop-color="#ECECEF"/></radialGradient></defs></svg>