<svg xmlns="http://www.w3.org/2000/svg" width="512" height="512" fill="none" viewBox="0 0 512 512"><rect width="174" height="40" x="80" y="392" fill="#7b7bf1" fill-opacity=".5" rx="6"/><rect width="171" height="40" x="261" y="392" fill="#7b7bf1" fill-opacity=".5" rx="6"/><circle cx="84" cy="400" r="16" fill="#7b58cf"/><circle cx="84" cy="400" r="18" stroke="#7b58cf" stroke-opacity=".3" stroke-width="4"/><path fill="#fff" d="M85.804 406v-2.88h-5.94v-2.538l4.787-7.722h1.837l-5.004 8.082v.702h4.32v-3.204h1.62V406z"/><circle cx="428" cy="425" r="16" fill="#7b58cf"/><circle cx="428" cy="425" r="18" stroke="#7b58cf" stroke-opacity=".3" stroke-width="4"/><path fill="#fff" d="M427.896 431.18q-1.818 0-2.88-1.008-1.062-1.026-1.062-2.772h1.62q0 1.08.63 1.71t1.71.63 1.71-.63.63-1.71v-.81q0-1.08-.612-1.71t-1.656-.63h-3.582v-6.39h7.002v1.476h-5.49l.036 3.438h2.124q1.818 0 2.808 1.008.99.99.99 2.808v.81q0 1.746-1.08 2.772-1.062 1.008-2.898 1.008"/><rect width="496" height="40" x="8" y="464" fill="#7b7bf1" fill-opacity=".5" rx="6"/><circle cx="492" cy="492" r="16" fill="#7b58cf"/><circle cx="492" cy="492" r="18" stroke="#7b58cf" stroke-opacity=".3" stroke-width="4"/><path fill="#fff" d="M492.022 498.18q-1.26 0-2.232-.522a3.9 3.9 0 0 1-1.494-1.476q-.54-.954-.54-2.196 0-.864.324-1.764.324-.918.882-1.908l3.042-5.454h1.8l-3.24 5.634.054.036q.234-.306.702-.468a3.1 3.1 0 0 1 1.026-.162q1.17 0 2.034.522a3.5 3.5 0 0 1 1.368 1.404q.504.9.504 2.088 0 1.26-.54 2.232a3.9 3.9 0 0 1-1.494 1.494q-.936.54-2.196.54m-.018-1.44q.792 0 1.368-.342.594-.36.918-.99.342-.63.342-1.458t-.342-1.458a2.3 2.3 0 0 0-.918-.972q-.576-.36-1.368-.36-.774 0-1.368.36a2.44 2.44 0 0 0-.936.972q-.324.63-.324 1.458t.324 1.458q.342.63.936.99.594.342 1.368.342"/><rect width="149" height="16" x="182" y="22" fill="#535158" rx="2"/><rect width="78" height="6" x="217" y="46" fill="#89888d" rx="2"/><circle cx="302" cy="59" r="16" fill="#7b58cf"/><circle cx="302" cy="59" r="18" stroke="#7b58cf" stroke-opacity=".3" stroke-width="4"/><path fill="#fff" d="M298.152 65v-1.494l4.374-4.68q.954-1.008 1.35-1.8t.396-1.548q0-1.08-.63-1.71-.612-.648-1.674-.648-1.098 0-1.746.666-.63.648-.63 1.764h-1.62q.036-1.188.54-2.052a3.4 3.4 0 0 1 1.386-1.35q.882-.468 2.07-.468 1.224 0 2.106.468a3.33 3.33 0 0 1 1.368 1.332q.486.846.486 2.016 0 .936-.522 1.98-.504 1.044-1.746 2.34l-3.546 3.708h5.976V65z"/><rect width="496" height="284" x="8" y="84" fill="#7b7bf1" fill-opacity=".5" rx="6"/><circle cx="20" cy="94" r="16" fill="#7b58cf"/><circle cx="20" cy="94" r="18" stroke="#7b58cf" stroke-opacity=".3" stroke-width="4"/><path fill="#fff" d="M19.806 100.18q-1.819 0-2.88-1.008-1.062-1.026-1.062-2.772h1.62q0 1.08.63 1.71t1.71.63 1.71-.63.63-1.71v-.9q0-1.08-.63-1.71t-1.71-.63H18.4v-1.404l3.223-3.42h-5.4V86.86h7.235v1.512l-3.6 3.834v-.486q1.818 0 2.862 1.026 1.063 1.008 1.063 2.754v.9q0 1.746-1.08 2.772-1.063 1.008-2.899 1.008"/><circle cx="175" cy="20" r="16" fill="#7b58cf"/><circle cx="175" cy="20" r="18" stroke="#7b58cf" stroke-opacity=".3" stroke-width="4"/><path fill="#fff" d="M171.224 26v-1.476h3.564v-10.26l-3.564 2.664v-1.854l2.97-2.214h2.214v11.664h2.916V26z"/></svg>