<svg width="325" height="104" viewBox="0 0 325 104" fill="none" xmlns="http://www.w3.org/2000/svg"><rect width="325" height="104" fill="white"/><path d="M22.7071 47.7071C23.0976 47.3166 23.0976 46.6834 22.7071 46.2929C22.3166 45.9024 21.6834 45.9024 21.2929 46.2929L16.2929 51.2929C15.9024 51.6834 15.9024 52.3166 16.2929 52.7071L21.2929 57.7071C21.6834 58.0976 22.3166 58.0976 22.7071 57.7071C23.0976 57.3166 23.0976 56.6834 22.7071 56.2929L18.4142 52L22.7071 47.7071Z" fill="#89888D"/><rect x="48" y="48" width="12" height="8" rx="2" fill="#89888D"/><rect x="84" y="48" width="12" height="8" rx="2" fill="#89888D"/><rect x="120" y="48" width="12" height="8" rx="2" fill="#89888D"/><rect x="144" y="36" width="36" height="32" rx="4" fill="#1F75CB"/><rect x="156" y="48" width="12" height="8" rx="2" fill="white"/><rect x="192" y="48" width="12" height="8" rx="2" fill="#89888D"/><path d="M230.467 57.0889C229.961 57.0889 229.551 56.6719 229.551 56.166C229.551 55.6602 229.968 55.25 230.467 55.25C230.973 55.25 231.39 55.6602 231.39 56.166C231.39 56.6787 230.973 57.0889 230.467 57.0889ZM234.493 57.0889C233.987 57.0889 233.577 56.6719 233.577 56.166C233.577 55.6602 233.994 55.25 234.493 55.25C234.999 55.25 235.416 55.6602 235.416 56.166C235.416 56.6787 234.999 57.0889 234.493 57.0889ZM238.52 57.0889C238.014 57.0889 237.604 56.6719 237.604 56.166C237.604 55.6602 238.021 55.25 238.52 55.25C239.025 55.25 239.442 55.6602 239.442 56.166C239.442 56.6787 239.025 57.0889 238.52 57.0889Z" fill="#89888D"/><rect x="265" y="48" width="12" height="8" rx="2" fill="#89888D"/><path d="M302.293 47.7071C301.902 47.3166 301.902 46.6834 302.293 46.2929C302.683 45.9024 303.317 45.9024 303.707 46.2929L308.707 51.2929C309.098 51.6834 309.098 52.3166 308.707 52.7071L303.707 57.7071C303.317 58.0976 302.683 58.0976 302.293 57.7071C301.902 57.3166 301.902 56.6834 302.293 56.2929L306.586 52L302.293 47.7071Z" fill="#89888D"/><circle cx="235" cy="84" r="16" fill="#7B58CF"/><circle cx="235" cy="84" r="18" stroke="#7B58CF" stroke-opacity="0.3" stroke-width="4"/><path d="M234.896 90.18C233.684 90.18 232.724 89.844 232.016 89.172C231.308 88.488 230.954 87.564 230.954 86.4H232.574C232.574 87.12 232.784 87.69 233.204 88.11C233.624 88.53 234.194 88.74 234.914 88.74C235.634 88.74 236.204 88.53 236.624 88.11C237.044 87.69 237.254 87.12 237.254 86.4V85.59C237.254 84.87 237.05 84.3 236.642 83.88C236.234 83.46 235.682 83.25 234.986 83.25H231.404V76.86H238.406V78.336H232.916L232.952 81.774H235.076C236.288 81.774 237.224 82.11 237.884 82.782C238.544 83.442 238.874 84.378 238.874 85.59V86.4C238.874 87.564 238.514 88.488 237.794 89.172C237.086 89.844 236.12 90.18 234.896 90.18Z" fill="white"/><circle cx="305" cy="20" r="16" fill="#7B58CF"/><circle cx="305" cy="20" r="18" stroke="#7B58CF" stroke-opacity="0.3" stroke-width="4"/><path d="M301.152 26V24.506L305.526 19.826C306.162 19.154 306.612 18.554 306.876 18.026C307.14 17.498 307.272 16.982 307.272 16.478C307.272 15.758 307.062 15.188 306.642 14.768C306.234 14.336 305.676 14.12 304.968 14.12C304.236 14.12 303.654 14.342 303.222 14.786C302.802 15.218 302.592 15.806 302.592 16.55H300.972C300.996 15.758 301.176 15.074 301.512 14.498C301.848 13.91 302.31 13.46 302.898 13.148C303.486 12.836 304.176 12.68 304.968 12.68C305.784 12.68 306.486 12.836 307.074 13.148C307.662 13.46 308.118 13.904 308.442 14.48C308.766 15.044 308.928 15.716 308.928 16.496C308.928 17.12 308.754 17.78 308.406 18.476C308.07 19.172 307.488 19.952 306.66 20.816L303.114 24.524H309.09V26H301.152Z" fill="white"/><circle cx="20" cy="20" r="16" fill="#7B58CF"/><circle cx="20" cy="20" r="18" stroke="#7B58CF" stroke-opacity="0.3" stroke-width="4"/><path d="M16.2235 26V24.524H19.7875V14.264L16.2235 16.928V15.074L19.1935 12.86H21.4075V24.524H24.3235V26H16.2235Z" fill="white"/><circle cx="90" cy="84" r="16" fill="#7B58CF"/><circle cx="90" cy="84" r="18" stroke="#7B58CF" stroke-opacity="0.3" stroke-width="4"/><path d="M89.8055 90.18C88.5935 90.18 87.6335 89.844 86.9255 89.172C86.2175 88.488 85.8635 87.564 85.8635 86.4H87.4835C87.4835 87.12 87.6935 87.69 88.1135 88.11C88.5335 88.53 89.1035 88.74 89.8235 88.74C90.5435 88.74 91.1135 88.53 91.5335 88.11C91.9535 87.69 92.1635 87.12 92.1635 86.4V85.5C92.1635 84.78 91.9535 84.21 91.5335 83.79C91.1135 83.37 90.5435 83.16 89.8235 83.16H88.4015V81.756L91.6235 78.336H86.2235V76.86H93.4595V78.372L89.8595 82.206V81.72C91.0715 81.72 92.0255 82.062 92.7215 82.746C93.4295 83.418 93.7835 84.336 93.7835 85.5V86.4C93.7835 87.564 93.4235 88.488 92.7035 89.172C91.9955 89.844 91.0295 90.18 89.8055 90.18Z" fill="white"/><circle cx="162" cy="84" r="16" fill="#7B58CF"/><circle cx="162" cy="84" r="18" stroke="#7B58CF" stroke-opacity="0.3" stroke-width="4"/><path d="M163.804 90V87.12H157.864V84.582L162.652 76.86H164.488L159.484 84.942V85.644H163.804V82.44H165.424V90H163.804Z" fill="white"/></svg>
