<svg width="16" height="16" viewBox="0 0 16 16" xmlns="http://www.w3.org/2000/svg"><path fill-rule="evenodd" clip-rule="evenodd" d="M4 0a4 4 0 0 0-4 4v8a4 4 0 0 0 4 4h8a4 4 0 0 0 4-4V4a4 4 0 0 0-4-4H4Zm-.707 11.293-.232-.232-.829-.829L2 10l1.06-1.06 5.88-5.88L10 2l.232.232.829.829.232.232a1 1 0 0 0 1.415 1.414l.231.232.829.829L14 6l-1.06 1.06-5.88 5.88L6 14l-.232-.232-.829-.829-.232-.232a1 1 0 1 0-1.414-1.414Zm3.144.148A2.504 2.504 0 0 0 4.56 9.563l3-3.003 1.878 1.878-3.002 3.002Z" fill="#000"/></svg>