<svg width="16" height="16" viewBox="0 0 16 16" xmlns="http://www.w3.org/2000/svg"><path fill-rule="evenodd" clip-rule="evenodd" d="M1.623.266a.4.4 0 0 1 .754 0l.291.823a.4.4 0 0 0 .243.243l.823.291a.4.4 0 0 1 0 .754l-.823.291a.4.4 0 0 0-.243.243l-.291.823a.4.4 0 0 1-.754 0l-.291-.823a.4.4 0 0 0-.243-.243l-.823-.291a.4.4 0 0 1 0-.754l.823-.291a.4.4 0 0 0 .243-.243l.291-.823Zm13.153.958a.75.75 0 0 1 0 1.06L2.28 14.78a.75.75 0 0 1-1.06-1.06l3.913-3.914A3.057 3.057 0 0 1 4.2 6.344l.017-.043 1.633-4.28a.425.425 0 0 1 .356-.268.43.43 0 0 1 .46.313l1.102 3.39h1.716l4.232-4.232a.75.75 0 0 1 1.06 0ZM7.984 6.955l-1.78 1.781-.065-.048-.014-.01-.01-.008-.003-.003h-.001a1.557 1.557 0 0 1-.512-1.78l.016-.041.555-1.455.508 1.564h1.306Zm6.444-2.105a.75.75 0 0 1 .968.434l.147.384.241.632.016.044a3.057 3.057 0 0 1-1.007 3.518l-.007.006-2.502 1.88-1.981 1.505a.505.505 0 0 1-.61 0l-1.355-1.028-.1-.076a.75.75 0 1 1 .906-1.196L10 11.6l1.384-1.05 2.491-1.873.005-.004.009-.006a1.558 1.558 0 0 0 .51-1.79l-.003-.009-.014-.038-.047-.122-.008-.019-.332-.871a.75.75 0 0 1 .434-.968Z" fill="#000"/></svg>