<svg width="16" height="16" viewBox="0 0 16 16" xmlns="http://www.w3.org/2000/svg"><path fill-rule="evenodd" clip-rule="evenodd" d="M9 1C10.1046 1 11 1.89543 11 3V5C11 6.03565 10.2128 6.887 9.2041 6.98926L9 7H8.75V8H12.25C12.8023 8 13.25 8.44771 13.25 9V10.0176C14.2365 10.1407 15 10.9802 15 12V13C15 14.1046 14.1046 15 13 15H12C10.8954 15 10 14.1046 10 13V12C10 10.9802 10.7635 10.1407 11.75 10.0176V9.5H4.25V10.0176C5.23645 10.1407 6 10.9802 6 12V13C6 14.0357 5.21278 14.887 4.2041 14.9893L4 15H3L2.7959 14.9893C1.85435 14.8938 1.1062 14.1457 1.01074 13.2041L1 13V12C1 10.9802 1.76355 10.1407 2.75 10.0176V9C2.75 8.44772 3.19772 8 3.75 8H7.25V7H7L6.7959 6.98926C5.85435 6.8938 5.1062 6.14565 5.01074 5.2041L5 5V3C5 1.89543 5.89543 1 7 1H9ZM3 11.5C2.72386 11.5 2.5 11.7239 2.5 12V13C2.5 13.2761 2.72386 13.5 3 13.5H4C4.27614 13.5 4.5 13.2761 4.5 13V12C4.5 11.7239 4.27614 11.5 4 11.5H3ZM7 2.5C6.72386 2.5 6.5 2.72386 6.5 3V5C6.5 5.27614 6.72386 5.5 7 5.5H9C9.27614 5.5 9.5 5.27614 9.5 5V3C9.5 2.72386 9.27614 2.5 9 2.5H7Z" fill="#000"/></svg>