<svg width="16" height="16" viewBox="0 0 16 16" xmlns="http://www.w3.org/2000/svg"><path d="M8 0a8 8 0 1 1 0 16A8 8 0 0 1 8 0Zm0 1.5a6.5 6.5 0 1 0 0 13 6.5 6.5 0 0 0 0-13Zm0 1.25a.75.75 0 0 1 .688.451l1.045 2.412 2.618.25a.75.75 0 0 1 .425 1.309l-1.971 1.74.572 2.565a.75.75 0 0 1-1.113.81L8 10.948l-2.264 1.337a.75.75 0 0 1-1.113-.809l.571-2.565-1.97-1.74a.75.75 0 0 1 .425-1.309l2.617-.25L7.312 3.2l.051-.097A.75.75 0 0 1 8 2.75Zm-.534 3.866a.75.75 0 0 1-.616.448l-1.336.127 1.006.89a.75.75 0 0 1 .235.725l-.292 1.31 1.156-.682.09-.046a.75.75 0 0 1 .672.046l1.155.681-.29-1.31a.75.75 0 0 1 .234-.725l1.005-.889-1.335-.127a.75.75 0 0 1-.616-.448L8 5.385l-.534 1.231Z" fill="#000"/></svg>