<svg width="16" height="16" viewBox="0 0 16 16" xmlns="http://www.w3.org/2000/svg"><path d="M13 1a2 2 0 0 1 2 2v6.25a.75.75 0 0 1-1.5 0V3a.5.5 0 0 0-.5-.5H3a.5.5 0 0 0-.5.5v10a.5.5 0 0 0 .5.5h5.25a.75.75 0 0 1 0 1.5H3a2 2 0 0 1-2-2V3a2 2 0 0 1 2-2h10Zm1.22 10.22a.75.75 0 1 1 1.06 1.06l-2.5 2.5a.75.75 0 0 1-.946.094l-.114-.094-1-1-.052-.056a.75.75 0 0 1 1.056-1.056l.056.052.47.47 1.97-1.97Zm-5.893-.716a.75.75 0 0 1 0 1.492L8.25 12h-3.5a.75.75 0 0 1 0-1.5h3.5l.077.004ZM11.25 7.25a.75.75 0 0 1 0 1.5h-6.5a.75.75 0 0 1 0-1.5h6.5Zm0-3.25a.75.75 0 0 1 0 1.5h-6.5a.75.75 0 0 1 0-1.5h6.5Z" fill="#000"/></svg>