<svg width="144" height="144" fill="none" viewBox="0 0 144 144" xmlns="http://www.w3.org/2000/svg"><circle cx="72" cy="72" r="72" fill="#E7E4F2"/><path d="M33.194 55.935a42 42 0 0 0 52.387 55.809" stroke="#171321" stroke-width="2" stroke-linecap="square"/><circle cx="72" cy="72" r="34.688" fill="#fff"/><path d="M103.245 87.066a34.689 34.689 0 1 0-6.185 8.918" stroke="#171321" stroke-width="2" stroke-linecap="square"/><circle cx="72" cy="72" r="23.125" fill="#AEA5D6"/><path d="M72 65.685c-.356 0-.705.03-1.045.086l.333-.093.102-1.019.116-1.159h.988l.116 1.16.102 1.018.333.093A6.362 6.362 0 0 0 72 65.685Zm5.141 2.647a6.35 6.35 0 0 0-1.473-1.473l.298.168.793-.649.902-.738.699.7-.738.901-.649.793.168.298ZM78.315 72c0-.356-.03-.705-.086-1.045l.093.333 1.019.102 1.159.116v.988l-1.16.116-1.018.102-.093.333c.056-.34.086-.689.086-1.045Zm-2.648 5.141a6.35 6.35 0 0 0 1.474-1.474l-.168.299.649.793.738.902-.7.699-.901-.738-.793-.649-.299.168ZM72 78.315c.356 0 .705-.03 1.045-.086l-.333.093-.102 1.019-.116 1.159h-.988l-.116-1.16-.102-1.018-.333-.093c.34.056.689.086 1.045.086Zm-5.141-2.647a6.352 6.352 0 0 0 1.474 1.473l-.299-.168-.793.649-.902.738-.699-.7.738-.901.649-.793-.168-.298ZM65.685 72c0 .356.03.705.086 1.045l-.093-.333-1.019-.102-1.159-.116v-.988l1.16-.116 1.018-.102.093-.333c-.056.34-.086.689-.086 1.045Zm2.647-5.141a6.352 6.352 0 0 0-1.473 1.474l.168-.299-.649-.793-.738-.902.7-.699.901.738.793.649.298-.168Z" fill="#FF9D73" stroke="#171321" stroke-width="3" stroke-linecap="square"/></svg>