<svg width="144" height="144" fill="none" viewBox="0 0 144 144" xmlns="http://www.w3.org/2000/svg"><circle cx="72" cy="72" r="72" fill="#E7E4F2"/><circle cx="72" cy="72" r="34.688" fill="#fff"/><circle cx="72" cy="72" r="24.306" fill="#D0C5E2"/><path fill-rule="evenodd" clip-rule="evenodd" d="M72 60a6.5 6.5 0 0 0-6.5 6.5v1h2v-1A4.5 4.5 0 1 1 72 71h-1v6.167h2v-4.243A6.502 6.502 0 0 0 72 60Zm0 23.806a1.389 1.389 0 1 0 0-2.778 1.389 1.389 0 0 0 0 2.778Z" fill="#171321"/><path d="M106.688 72A34.692 34.692 0 0 1 72 106.687a34.69 34.69 0 0 1-32.047-21.413A34.688 34.688 0 1 1 106.687 72h.001Z" stroke="#171321" stroke-width="2" stroke-linecap="square" stroke-dasharray="6 6"/></svg>