<svg xmlns="http://www.w3.org/2000/svg" width="72" height="72" fill="none" viewBox="0 0 72 72"><rect x="1" y="1" width="70" height="70" rx="35" fill="#fff"/><rect x="1" y="1" width="70" height="70" rx="35" stroke="#171321" stroke-width="2"/><circle cx="36" cy="36" r="25" fill="#AEA5D6"/><path d="M36 28.704c-.134 0-.267.003-.398.01l.075-.754.096-.96h.454l.096.96.075.754a7.414 7.414 0 0 0-.398-.01Zm5.433 2.426a7.346 7.346 0 0 0-.563-.563l.586-.48.747-.611.322.32-.612.748-.48.586ZM43.296 36c0-.134-.003-.267-.01-.398l.754.075.96.096v.454l-.96.096-.754.075c.007-.131.01-.264.01-.398Zm-2.426 5.433c.198-.177.386-.365.563-.563l.48.586.612.747-.322.322-.747-.612-.586-.48ZM36 43.296c.134 0 .267-.003.398-.01l-.075.754-.096.96h-.454l-.096-.96-.075-.754c.131.007.264.01.398.01Zm-5.433-2.426c.177.198.365.386.563.563l-.586.48-.747.612-.322-.322.612-.747.48-.586ZM28.704 36c0 .134.003.267.01.398l-.754-.075-.96-.096v-.454l.96-.096.754-.075c-.007.131-.01.264-.01.398Zm2.426-5.433a7.328 7.328 0 0 0-.563.563l-.48-.586-.611-.747.32-.322.748.612.586.48Z" fill="#FF9D73" stroke="#171321" stroke-width="4" stroke-linecap="square"/></svg>