<svg xmlns="http://www.w3.org/2000/svg" width="72" height="72" fill="none" viewBox="0 0 72 72"><rect x="1" y="1" width="70" height="70" rx="35" fill="#fff"/><rect x="1" y="1" width="70" height="70" rx="35" stroke="#171321" stroke-width="2" stroke-dasharray="8 8"/><circle cx="36" cy="36" r="25" fill="#D0C5E2"/><path fill-rule="evenodd" clip-rule="evenodd" d="M36.5 24a6.5 6.5 0 0 0-6.5 6.5v1h2v-1a4.5 4.5 0 1 1 4.5 4.5h-1v6.167h2v-4.243A6.502 6.502 0 0 0 36.5 24Zm0 23.806a1.389 1.389 0 1 0 0-2.778 1.389 1.389 0 0 0 0 2.778Z" fill="#171321"/></svg>