<svg width="100" height="20" fill="none" xmlns="http://www.w3.org/2000/svg"><path d="M46.093 7.275c0-3.38-2.217-5.948-6.785-5.948h-9.192V19.09h4.326V5.166h4.893c1.811 0 2.46 1.028 2.46 2.217 0 1.217-.676 2.217-2.488 2.217h-4.19l5.948 9.489h4.92s-4.055-6.38-4.028-6.38c2.514-.595 4.136-2.352 4.136-5.434zM22.871 1.327h4.326V19.09H22.87V1.327zM11.814 12.384h-3.64l2.694-5.46h.054l6.055 12.165h4.975L12.895 1.327H9.057L0 19.09h4.866l1.467-2.974h7.292l-1.811-3.73zM61.882 9.87c1.38-.757 2.11-1.973 2.11-3.758 0-2.865-2.137-4.785-5.732-4.785H48.148V19.09h10.517c3.677 0 6.083-1.974 6.083-4.974 0-2.082-1.162-3.65-2.866-4.245zm-9.407-4.785h5.785c.865 0 1.54.676 1.54 1.568s-.675 1.568-1.567 1.568h-5.759V5.085zm5.893 10.273h-5.894v-3.623h5.894c1.054 0 1.865.758 1.865 1.785 0 1.054-.81 1.838-1.865 1.838zm20.032-4.11c0 2.697-1.244 4.191-3.703 4.191-2.433 0-3.677-1.494-3.677-4.19V1.327h-4.433v9.598c0 5.488 2.892 8.543 8.11 8.543 5.217 0 8.137-3.055 8.137-8.543V1.326H78.4v9.922zm15.977-2.865c-4.106-1-5-1.095-5-2.27 0-.91 1.026-1.353 2.757-1.353 2.297 0 4.745.577 6.136 1.433l1.38-3.622C97.864 1.625 95.242.949 92.187.949c-4.57 0-7.138 2.27-7.138 5.325 0 3.287 1.919 4.623 6.326 5.57 3.432.756 4.163 1.228 4.163 2.189 0 1.044-.946 1.514-2.811 1.514-2.703 0-5.15-.657-7.11-1.73l-1.325 3.785c2.136 1.135 5.326 1.865 8.543 1.865 4.488 0 7.164-2.082 7.164-5.57.001-2.797-1.81-4.594-5.623-5.514z" fill="#000"/></svg>