<svg xmlns="http://www.w3.org/2000/svg" width="289.333" height="341.333"><path d="M708.906 2130.69c-8.496 288.93 104.133 416.54 337.904 420.79 233.77 4.25 380.4-119.01 410.15-280.53 29.76-161.51 12.76-374.02 72.26-484.53 59.51-110.51 97.76-195.52 199.77-323.03 102.01-127.51 165.76-257.14 195.51-414.41 29.75-157.261 46.76-231.64-29.75-312.398-76.5-80.754-212.52-212.516-314.52-63.754-51.07 74.473-56.61 167.086 29.75 187.016 55.25 12.75 94.92 8.5 136.01-12.75 41.08-21.254 51-11.336 1.42 25.5-49.59 36.836-59.51 2.832-42.51 62.34 17 59.504 39.54 166.086-7.22 283.676-21.53 54.16-94.56 202.61-163.33 239.16-6.36 3.39-24.48 10.81-12.21-4.3 18.67-22.99 117.45-168.68 145.54-255.7 30.03-93.01 34.39-182.08 18.8-238.754-15.58-56.668-42.5-79.336-75.09-79.336-32.58 0-62.33-15.586-62.33 59.504 0 75.086 7.79 188.426-32.59 284.066-40.38 95.63-89.26 161.51-99.88 201.89-10.63 40.38-34 148.76-82.88 210.39-48.88 61.63-70.14 102.01-44.63 172.14 25.5 70.13 6.37 89.26-44.63 104.13-51 14.88-119.01 36.13-136.01 70.13-17 34-6.38 102.01 31.88 119.01 38.25 17 102-6.37 104.13-55.25 2.12-48.88-21.25-74.39-14.88-85.01 6.38-10.63 40.38-27.63 57.38-8.5 17 19.12 21.25 78.63 4.25 133.88-17 55.26-25.5 93.51-87.13 106.26-61.63 12.75-89.26 8.5-119.01-29.75s-42.5-99.88-34-144.51c8.5-44.63-8.5-19.13-38.26-17-29.745 2.12-21.245 4.25-50.999 2.12-29.75-2.12-19.125 17-21.25 48.88-2.125 31.88-6.375 97.76-51.004 123.26s-121.137-4.25-119.012-110.51 38.254-157.26 59.508-119.01c21.25 38.25 10.625 19.13-10.629 36.13-21.25 17-36.125 87.13-12.75 108.39 23.379 21.25 51.004 21.25 65.883 8.5 14.875-12.76 38.25-55.26 34-82.89-4.25-27.62-6.375-29.75-34-48.88-27.629-19.12-38.254-36.12-70.133-57.37-31.879-21.25-44.629-70.13-19.125-82.89 25.5-12.75 27.625-10.62 48.879-42.5 21.25-31.88 57.379-46.75 146.637-31.88 89.255 14.88 125.915 36.04 193.395 59.51 48.87 17 31.87 14.87 48.87 34 17 19.13 44.63-8.5 19.13-25.5-25.5-17-82.88-34-125.39-48.88-42.5-14.88-91.38-57.38-180.634-53.13-89.258 4.25-27.629 2.13-55.254 4.25-27.629 2.13-40.379-2.12-10.625-23.37 29.75-21.26 27.625-27.63 53.129-36.13 25.5-8.5 59.504-8.5 99.884 6.37 40.37 14.88 142.38 59.51 174.26 80.76 31.88 21.25 57.38-6.38 25.5-27.63-31.87-21.25-40.37-14.87-70.13-34-29.75-19.13-85.01-51.01-121.13-85.01-36.13-34-44.63-36.13-89.259-38.25-44.629-2.13-72.254 44.63-91.383 65.88-19.125 21.25-17 34-40.379 59.5-23.375 25.51-25.5 19.13-29.75-8.5-4.254-27.62-36.129-97.76-63.758-144.51-27.625-46.75-29.75-104.13-25.5-144.51 4.25-40.38-6.375-44.63-38.254-91.38-31.879-46.75-85.007-184.89-93.507-229.52-8.5-44.63-19.125-136.012-14.875-189.141 4.25-53.129-10.625-63.754-48.879-27.625-38.254 36.125-51.004 76.504-48.879 129.633 1.816 45.453 8.129 77.543 13.961 94.213 5.836 16.67.211 28.54-11.836 7.79-26.188-45.1-27.629-123.253-21.25-150.882 6.375-27.625 8.5-76.504 78.629-142.387 70.132-65.879 172.14-157.262 257.144-218.891 85.008-61.629 114.762-138.136-10.625-193.39 78.633-106.258 121.137-161.512 87.133-231.645 70.129 40.379 43.141 135.57 9.141 161.074-34.004 25.5-13.391 45.071 16.359 25.942 29.754-19.125 40.379-57.379 157.267-55.254 116.88 2.125 242.91 13.969 313.04 115.976 70.13 102.008 83.67 16.172 66.67-43.332-17-59.503-58.81-193.781 7.07-181.027 8.5 78.633 27.62 146.637 27.62 231.645 0 85.004 8.64 126.05 1.97 249.382-6.42 118.836 44.79 126.77 97.92 126.77s36.13-34 2.12-31.875c-34 2.125-70.13-10.629-72.25-97.762-2.13-87.129 0-78.629 14.87-157.261 14.88-78.629 17-102.008 4.25-189.137-12.75-87.133-23.37-133.887 34.01-187.016 57.38-53.129 144.51-38.254 189.13-4.25 44.63 34 129.64 112.633 206.15 138.137 76.5 25.5 157.26 44.625 199.76 87.129 42.51 42.504 31.88 72.258-12.75 95.633-44.62 23.379-87.13 12.75-121.13 51.004-34.01 38.253-51.01 123.261-38.26 167.886 12.75 44.629 27.63 25.504 27.63-6.375 0-31.875 2.13-61.629 34-102.008 31.88-40.375 61.64-59.503 112.64-91.378 51-31.879 82.88-82.883 19.12-127.512-63.75-44.629-99.88-70.129-153.01-91.383-53.13-21.25-140.26-72.254-193.39-125.387-53.13-53.129-82.88-99.879-187.01-99.879-104.14 0-151.69 24.98-182.77 87.13-21.25 42.503-31.87 36.128-80.75 38.253-48.88 2.125-212.52 4.25-340.03 2.125-127.508-2.125-170.012-23.375-227.395-70.129-57.379-46.754-78.629-82.883-187.012-46.754-108.382 36.125-165.765 76.504-327.277 108.383-161.512 31.875-74.383 17-172.137 38.254-97.757 21.25-91.382 68.004-78.632 106.258 12.75 38.254 44.628 97.758 17 176.387-27.625 78.632-17 159.39 57.378 159.39 74.383 0 144.512-14.879 174.266 82.879 29.754 97.758 38.254 21.254 29.754-4.25-8.504-25.5-12.754-95.633-78.633-106.258-65.879-10.625-80.758 4.25-121.133 4.25-40.378 0-57.382-27.625-36.128-74.379 21.25-46.753 44.628-95.632 40.378-136.011-4.25-40.379-8.503-55.254-38.253-93.508-29.754-38.254-25.504-57.379 27.625-70.133 53.128-12.75 148.761-38.25 238.019-59.504 89.258-21.25 95.633-21.25 250.77-61.629C721.656 50.152 764.16 122.41 776.91 209.54c12.754 87.133-46.75 170.016-102.008 252.899-55.254 82.878-114.757 178.511-187.011 265.644-72.258 87.133-114.758 93.508-150.887 74.383-36.129-19.129-42.504-14.879-44.629 34S286 917.223 326.379 989.477c40.375 72.253 76.504 150.883 119.008 272.023 42.504 121.13 80.758 144.51 153.011 248.64 72.254 104.14 40.379 63.76 91.383 133.89s36.125 57.38 31.875 167.89c-4.25 110.51-8.5 174.26-12.75 318.77zm-202.933-863.9c10.988-13.41 26.457 18.02 42.738 29.76 14.652 13.41 20.758 32.27 17.504 50.71-1.629 10.06-17.91 6.7-21.168 3.35-9.77-10.06-7.785-26.09-14.652-40.23-8.141-16.77-35.415-30.18-24.422-43.59zm913.537 443.92c23.2-19.34 37.19-36.13 49.94-7.44s12.75 40.38-18.06 52.07c-30.82 11.68-44.63 24.43-58.44 40.37-13.82 15.94-18.73-11.34-7.44-38.25 13.81-32.94 21.87-36.64 34-46.75zm-478.635 263.52c-15.941 3.19-35.066 2.13-45.691-10.62-4.25-4.25-2.125-15.94 5.312-19.13 9.563-4.25 15.938 5.31 18.063 12.75 1.062 3.19 2.125 7.44 5.312 8.5 4.25 2.13 10.465.36 14.879 2.13 5.313 2.12 3.188 6.37 2.125 6.37zm75.115-2.93c6.38-9.56 18.07-9.56 27.63-13.81 5.31-2.12 15.94-5.31 19.13 2.13 7.44 23.37-24.4 15.93-39.32 15.93-3.19 0-10.63 1.07-7.44-4.25zm155.03 103.14c14.25-.75 34.16-26.67 36.11-56.4.3-4.7 12.36-4.41 14.89.34 6.94 11.74 2.17 25.03-1.03 39.29-2.55 11.4-16.44 23.42-28.2 28.64-7.84 3.92-15.67 5.23-26.13 3.92-2.61-1.31-11.48-14.96 4.36-15.79zm-316.641 7.24c-13.324-1.01-8.555-11.23-7.938-19.41 18.414-10.36 20.18-33.73 23.93-52.25.531-7.02 10.871-3.88 11.863-1.46 8.289 14.73-1.8 31.6-5.461 48.96-3.046 9.17-9.097 19.29-17.808 25.68-1.258 1.08-3.418-1.43-4.586-1.52zm405.801 325.68c-13.16 10.77-33.75 15-40-2.5-6.25-15-3.75-30-7.5-46.25 0-5-6.25-6.25-10-11.25-5-6.25-3.75-13.75-1.25-16.25 12.5-12.5 35 12.5 51.25 21.25 12.5 7.5 30-2.5 43.75 6.25 3.75 2.5 5 8.75 1.25 13.75-8.75 15-23.75 23.75-37.5 35" style="fill:#000;fill-opacity:1;fill-rule:nonzero;stroke:none" transform="matrix(.13333 0 0 -.13333 0 341.333)"/><path d="M1642.85 717.742c2.17 8.789 6.55 25.668 14.83 28.367 3.09 1.004 5.62-.148 6.62-3.234 1.8-5.52-3.82-36.812-1.54-43.797 2.49-7.633 11.13-6.613 17.47-4.551 14.45 4.711 22.73 21.778 22.2 23.399-.21.648-.48.922-.97.765-2.27-.742-4.21-8.562-10.87-10.73-4.07-1.324-7.19-.543-8.57 3.68-1.43 4.382 4.2 36.754 1.77 44.226-2.44 7.473-9.99 9.145-16.81 6.922-15.92-5.184-22.84-29.176-26.77-43.57l-.38.058 2.12 33.203-19.49-6.343-1.01-68.598 18.35 5.977c.41 11.992.83 25.597 3.05 34.226M1728.28 710.18c15.76 5.129 22.85 24.148 22.17 26.261-.22.649-.7 1.032-1.19.872-1.3-.422-4.4-11.313-13.33-14.223-3.9-1.27-7.45-.274-8.3 2.328-1.27 3.895-.47 10.805-.32 16.422l.48 31.055 21.6 7.035-.1 7.508-21.77-7.086 1.01 29.429-19.52-11.207-.83-65.301c-.16-7.238-.52-13.285.53-16.531 2.75-8.445 11.45-9.207 19.57-6.562" style="fill:#000;fill-opacity:1;fill-rule:nonzero;stroke:none" transform="matrix(.13333 0 0 -.13333 0 341.333)"/></svg>