<svg width="160" height="25" fill="none" xmlns="http://www.w3.org/2000/svg"><g clip-path="url(#clip0_367_36583)" fill="#000"><path d="M2.493 12.096h2.564l-1.555 7.328h4.094l-.38 1.793H.56l1.934-9.121zM10.59 13.106c1.402-1.162 3.171-1.263 3.841-1.263 3.64 0 4.069 2.615 3.589 4.839-.77 3.639-3.588 4.75-5.762 4.75-2.425 0-4.397-1.338-3.677-4.737.127-.607.62-2.426 2.01-3.589zm2.098 6.469c1.806 0 2.463-1.668 2.729-2.931.265-1.277.101-1.908-.089-2.312-.265-.505-.821-.657-1.377-.657-1.668 0-2.426 1.44-2.767 3.006-.304 1.453-.177 2.894 1.504 2.894zM25.611 14.963c.088-.922-.493-1.263-1.213-1.263-1.53 0-2.288 1.403-2.642 3.07-.126.556-.593 2.856 1.365 2.856 1.34 0 1.68-.974 1.807-1.327h2.628c-.62 2.856-3.576 3.096-4.764 3.096-.884 0-2.413-.151-3.209-1.213-.77-1.062-.632-2.514-.429-3.462.265-1.251.821-2.502 1.883-3.474 1.162-1.062 2.425-1.339 3.752-1.339 1.478 0 2.527.354 3.083 1.112.569.783.405 1.604.341 1.945h-2.602zM30.36 12.096h2.565l-.847 4.005 3.765-4.005h2.995l-3.993 4.017 2.313 5.104h-3.133l-1.997-4.851-1.036 4.851h-2.565l1.933-9.121zM40.05 12.096h2.552l-.745 3.563H44.9l.746-3.563h2.564l-1.933 9.121h-2.565l.783-3.689H41.44l-.784 3.69h-2.539l1.933-9.122zM49.928 12.12h6.849l-.366 1.745h-4.347l-.404 1.895h4.093l-.379 1.744H51.28l-.404 1.946h4.447l-.379 1.768h-6.949l1.934-9.096v-.001zM58.354 12.12h6.848l-.366 1.745H60.49l-.404 1.895h4.093l-.38 1.744h-4.093l-.405 1.946h4.448l-.38 1.768h-6.948l1.933-9.096v-.001zM66.83 12.096h3.854c1.087 0 2.514.114 3.323.758 1.15.922 1.2 2.425.91 3.777-.43 2.022-1.39 3.513-3.386 4.233-1.01.354-2.123.354-2.754.354h-3.879l1.934-9.122h-.001zm1.037 7.365h1.086c1.68-.013 2.906-.733 3.361-2.855.582-2.767-1.49-2.767-2.26-2.767l-1-.013-1.187 5.635zM81.434 12.096h3.98l.215 6.178 2.742-6.178 3.98-.013-1.934 9.135H88.03l1.744-7.656-3.79 7.656h-2.275l-.442-7.72-1.579 7.72h-2.186l1.934-9.122h-.001zM96.973 12.096h3.083l1.668 9.121h-2.855l-.24-1.831h-3.652l-1.01 1.831H91.44l5.534-9.121zm1.428 5.61l-.367-3.83h-.038l-2.072 3.83h2.477zM104.615 12.096h4.219c1.643 0 2.25.1 2.666.657.227.278.467.783.266 1.768-.215.998-.708 1.428-1.2 1.694-.658.366-1.226.429-1.491.467l-.013.05c1.769.051 1.694.835 1.605 2.237-.051.62-.127 1.604-.051 2.25h-2.741c-.038-.557.05-1.252.139-2.06.113-1.1.164-1.504-.973-1.504h-1.062l-.758 3.563h-2.539l1.934-9.122h-.001zm1.718 3.917h.948c.556 0 .834 0 1.062-.076.593-.177.821-.746.884-1.036.24-1.125-.746-1.125-1.478-1.125h-.948l-.468 2.236zM115.441 13.902h-2.78l.38-1.806h8.174l-.38 1.806h-2.842l-1.555 7.315h-2.552l1.554-7.315h.001zM122.098 12.096h2.603l-1.933 9.121h-2.603l1.933-9.121zM126.393 12.096h3.487l1.643 6.797 1.415-6.797h2.211l-1.933 9.121h-3.411l-1.643-7.087-1.477 7.087h-2.224l1.933-9.121h-.001z"/><path d="M149.148 9.641l2.73-9.24c.033-.118-.116-.2-.2-.11L143 9.64h-37.91c-.153 0-.16.233-.007.235l37.063.812 2.336.051 2.239.05.139-1.148h-2.78l4.681-4.264-.814 4.264-1.191 6.24-1.569 8.232c-.028.147.188.198.229.053l2.134-8.674 11.826-5.628c.112-.055.073-.223-.052-.223h-10.176zm-.326 1.194l4.401.096-5.285 3.139.884-3.235z"/><path d="M142.418 11.266l-.746-.025-4.369 4.46c-.103.109.051.268.163.168l4.952-4.604v.001zM146.09 16.182l.133-1.17-10.195 5.98c-.129.078-.023.273.112.207l9.95-5.018z"/></g><defs><clipPath id="clip0_367_36583"><path fill="#fff" transform="translate(.56 .253)" d="M0 0h158.881v24H0z"/></clipPath></defs></svg>