<svg width="100" height="23" fill="none" xmlns="http://www.w3.org/2000/svg"><path fill-rule="evenodd" clip-rule="evenodd" d="M12.67 6.02c.094-.024.137.012.193.078.322.383 1.36 1.717 1.643 2.083a.12.12 0 01-.025.175c-2.093 1.724-4.421 4.162-5.719 5.909-.028.037-.005.04.014.031 2.26-1.027 7.57-2.666 9.964-3.126V7.973L9.38.163 0 7.973v3.495C2.907 9.644 9.625 6.82 12.67 6.02zm43.515-4.77h4.119v20.555h-4.119V1.25zm-3.051 0h-4.119v20.555h4.119V1.25zM80.48 8.356h-4.069l4.12 13.451h3.79l1.035-3.4c.41-1.352 1.095-3.874 1.095-3.874a.03.03 0 01.03-.024c.014 0 .026.009.03.024 0 0 .686 2.571 1.076 3.897l1.015 3.375h3.722l4.091-13.45h-3.782l-1.18 4.069c-.36 1.29-.71 2.582-1.05 3.878a.032.032 0 01-.03.024.032.032 0 01-.02-.007.03.03 0 01-.01-.017s-.636-2.484-1.047-3.878l-1.215-4.068h-3.006l-1.237 4.068a178.399 178.399 0 00-1.068 3.88.031.031 0 01-.03.02.032.032 0 01-.03-.021s-.657-2.53-1.05-3.88l-1.18-4.067zm-18.139 6.77c0-4.086 3.123-7.114 6.944-7.114 3.783 0 6.906 3.028 6.906 7.114 0 4.099-3.122 7.127-6.906 7.127-3.82 0-6.944-3.028-6.944-7.124v-.003zm9.898 0c0-2-1.353-3.363-2.954-3.363-1.64 0-2.992 1.362-2.992 3.363 0 2.015 1.353 3.363 2.992 3.363 1.601 0 2.954-1.348 2.954-3.363zM25.19 3.152v3.963h7.28c.029 0 .04.03.025.055L25.187 20.28l-.013.023c-.165.32-.205.398-.205.73v.773h14.18V17.85h-7.877a.032.032 0 01-.03-.02.036.036 0 01.004-.036l7.393-13.28.02-.043c.052-.11.101-.214.101-.49l.002-.828-13.572-.001zm18.64-1.534c1.285 0 2.346 1.094 2.346 2.44 0 1.348-1.061 2.443-2.345 2.443-1.284 0-2.345-1.093-2.345-2.44 0-1.348 1.06-2.442 2.345-2.442zm-2.058 6.738h4.117v13.45h-4.117V8.355zM4.852 19.42a.15.15 0 00.202.031c3.477-1.89 11.126-4.29 13.686-4.75v7.186H0v-7.465c1.927-1.15 7.131-3.51 8.963-4.142.037-.013.045.01.014.034-1.758 1.378-4.514 4.63-5.864 6.72-.062.098-.058.129-.01.189l1.748 2.197zm93.7-13.639c.355 0 .61.271.61.658 0 .292-.15.523-.379.614l.35.608h-.332l-.326-.565h-.287v.563h-.293V5.781h.656zm-.364 1.039h.345c.194 0 .337-.159.337-.379s-.143-.382-.336-.382h-.346v.76zm.275-1.69c-.622 0-1.183.396-1.42 1.001a1.687 1.687 0 00.333 1.768 1.478 1.478 0 001.675.352c.574-.251.949-.843.949-1.5 0-.895-.689-1.62-1.537-1.621zm0 2.932c-.503 0-.955-.32-1.148-.809a1.364 1.364 0 01.269-1.428c.355-.376.89-.488 1.354-.285.464.203.766.681.766 1.211 0 .724-.555 1.31-1.241 1.311z" fill="#000"/></svg>