<?xml version="1.0" encoding="UTF-8" standalone="no"?>
<svg width="131px" height="172px" viewBox="0 0 131 172" version="1.1" xmlns="http://www.w3.org/2000/svg" xmlns:xlink="http://www.w3.org/1999/xlink">
    <!-- Generator: Sketch 3.8.3 (29802) - http://www.bohemiancoding.com/sketch -->
    <title>Artboard</title>
    <desc>Created with Sketch.</desc>
    <defs></defs>
    <g id="Page-1" stroke="none" stroke-width="1" fill="none" fill-rule="evenodd">
        <g id="Artboard">
            <g id="Tracker_Stacked">
                <path d="M51.944,23.448 L62.985,42.572 C64.739,42.103 66.653,42.24 68.393,43.054 L74.198,33 L64.495,16.199 L51.83,23.513 L51.831,23.513 L51.944,23.448" id="Fill-1" fill="#DE752C"></path>
                <path d="M35.298,48.187 L57.387,48.187 C57.562,47.53 57.816,46.883 58.173,46.267 C58.773,45.226 59.578,44.382 60.502,43.736 L54.698,33.685 L35.292,33.685 L35.292,48.312 L35.298,48.312 L35.298,48.187" id="Fill-2" fill="#DE752C"></path>
                <path d="M71.907,54.197 C71.305,55.238 70.504,56.08 69.582,56.724 L75.391,66.783 L94.791,66.783 L94.791,52.283 L72.694,52.283 C72.516,52.94 72.26,53.582 71.907,54.197" id="Fill-3" fill="#DE752C"></path>
                <path d="M70.639,44.629 C71.979,45.963 72.776,47.715 72.936,49.551 L84.542,49.551 L94.245,32.749 L81.688,25.497 L70.639,44.629" id="Fill-4" fill="#DE752C"></path>
                <path d="M48.394,74.973 L59.442,55.834 C58.108,54.498 57.312,52.752 57.147,50.921 L45.536,50.921 L35.833,67.715 L48.495,75.033 L48.394,74.973" id="Fill-5" fill="#DE752C"></path>
                <path d="M78.141,77.017 L67.101,57.892 C65.349,58.365 63.433,58.232 61.69,57.413 L55.884,67.47 L65.581,84.267 L78.247,76.956 L78.141,77.017" id="Fill-6" fill="#DE752C"></path>
                <path d="M65.045,0.781 C37.775,0.781 15.588,22.963 15.588,50.228 C15.588,77.502 37.775,99.691 65.045,99.691 C92.313,99.691 114.495,77.502 114.495,50.228 C114.495,22.963 92.313,0.781 65.045,0.781 L65.045,0.781 Z M65.045,10.793 C86.825,10.793 104.481,28.447 104.481,50.228 C104.481,72.015 86.825,89.678 65.045,89.678 C43.262,89.678 25.603,72.015 25.603,50.228 C25.603,28.447 43.262,10.793 65.045,10.793 L65.045,10.793 Z" id="Fill-7" fill="#517A9E"></path>
                <path d="M16.874,126.288 C18.057,126.288 19.137,126.254 20.078,125.453 C20.983,124.687 21.437,123.571 21.437,122.422 C21.437,121.201 20.844,120.052 19.869,119.391 C18.859,118.658 17.813,118.625 16.664,118.625 L14.05,118.625 L14.05,126.288 L16.874,126.288 L16.874,126.288 Z M16.525,114.304 C18.752,114.304 21.297,114.584 23.143,115.941 C25.233,117.474 26.209,119.843 26.209,122.422 C26.209,124.617 25.374,126.742 23.804,128.273 C21.995,130.121 19.973,130.574 17.464,130.574 L14.05,130.574 L14.05,135.208 L16.767,135.208 L16.767,139.179 L6.63,139.179 L6.63,135.208 L9.314,135.208 L9.314,118.275 L6.63,118.275 L6.63,114.304 L16.525,114.304 L16.525,114.304 Z" id="Fill-8" fill="#DE752C"></path>
                <path d="M30.395,118.799 L34.645,118.799 L34.645,114.304 L30.395,114.304 L30.395,118.799 Z M34.645,135.208 L37.048,135.208 L37.048,139.179 L27.957,139.179 L27.957,135.208 L30.395,135.208 L30.395,124.547 L27.991,124.547 L27.991,120.576 L34.645,120.576 L34.645,135.208 L34.645,135.208 Z" id="Fill-9" fill="#DE752C"></path>
                <polyline id="Fill-10" fill="#DE752C" points="49.827 139.179 45.367 139.179 39.655 124.547 37.39 124.547 37.39 120.576 46.065 120.576 46.065 124.547 44.183 124.547 47.597 133.952 47.632 133.952 51.29 124.547 49.304 124.547 49.304 120.576 57.875 120.576 57.875 124.547 55.68 124.547 49.827 139.179"></polyline>
                <polyline id="Fill-11" fill="#DE752C" points="85.051 135.208 88.43 135.208 88.43 139.179 80.801 139.179 80.801 124.547 77.876 124.547 77.876 120.576 80.801 120.576 80.801 114.304 85.051 114.304 85.051 120.576 88.221 120.576 88.221 124.547 85.051 124.547 85.051 135.208"></polyline>
                <path d="M105.229,129.772 C105.229,126.707 102.685,124.234 99.62,124.234 C96.45,124.234 94.011,126.845 94.011,129.98 C94.011,133.011 96.554,135.52 99.549,135.52 C102.754,135.52 105.229,132.941 105.229,129.772 L105.229,129.772 Z M105.159,136.67 C103.8,138.724 101.605,139.666 99.168,139.666 C93.836,139.666 89.622,135.242 89.622,129.98 C89.622,124.581 93.941,120.088 99.377,120.088 C101.779,120.088 103.871,121.201 105.159,123.222 L105.159,120.576 L111.813,120.576 L111.813,124.547 L109.479,124.547 L109.479,135.208 L111.813,135.208 L111.813,139.179 L105.159,139.179 L105.159,136.67 L105.159,136.67 Z" id="Fill-12" fill="#DE752C"></path>
                <polyline id="Fill-13" fill="#DE752C" points="121.048 135.208 123.453 135.208 123.453 139.179 114.22 139.179 114.22 135.208 116.799 135.208 116.799 118.275 114.395 118.275 114.395 114.304 121.048 114.304 121.048 135.208"></polyline>
                <path d="M67.809,120.054 C62.395,120.054 58.007,124.443 58.007,129.855 C58.007,135.269 62.395,139.657 67.809,139.657 C73.223,139.657 77.611,135.269 77.611,129.855 C77.611,124.443 73.223,120.054 67.809,120.054 L67.809,120.054 Z M67.809,124.23 C70.912,124.23 73.435,126.754 73.435,129.855 C73.435,132.958 70.912,135.48 67.809,135.48 C64.706,135.48 62.182,132.958 62.182,129.855 C62.182,126.754 64.706,124.23 67.809,124.23 L67.809,124.23 Z" id="Fill-14" fill="#DE752C"></path>
                <polyline id="Fill-15" fill="#517A9E" points="12.157 167.542 14.874 167.542 14.874 171.513 4.702 171.513 4.702 167.542 7.419 167.542 7.419 150.854 3.762 150.854 3.762 154.476 0 154.476 0 146.638 19.577 146.638 19.577 154.476 15.816 154.476 15.816 150.854 12.157 150.854 12.157 167.542"></polyline>
                <path d="M27.725,156.08 C28.804,153.885 30.894,152.805 33.298,152.699 L33.298,157.054 C31.937,157.125 30.685,157.472 29.64,158.414 C28.245,159.597 28.036,161.096 28.036,162.838 L28.036,167.542 L30.44,167.542 L30.44,171.513 L21.395,171.513 L21.395,167.542 L23.798,167.542 L23.798,156.881 L21.395,156.881 L21.395,152.91 L27.725,152.91 L27.725,156.08" id="Fill-16" fill="#517A9E"></path>
                <path d="M49.78,162.106 C49.78,159.041 47.238,156.568 44.173,156.568 C41.003,156.568 38.563,159.179 38.563,162.314 C38.563,165.345 41.105,167.854 44.103,167.854 C47.307,167.854 49.78,165.275 49.78,162.106 L49.78,162.106 Z M49.712,169.004 C48.354,171.058 46.158,172 43.72,172 C38.389,172 34.175,167.576 34.175,162.314 C34.175,156.915 38.494,152.422 43.928,152.422 C46.332,152.422 48.422,153.535 49.712,155.556 L49.712,152.91 L56.366,152.91 L56.366,156.881 L54.032,156.881 L54.032,167.542 L56.366,167.542 L56.366,171.513 L49.712,171.513 L49.712,169.004 L49.712,169.004 Z" id="Fill-17" fill="#517A9E"></path>
                <path d="M76.596,165.242 C75.45,169.178 71.442,172 67.364,172 C61.965,172 57.541,167.644 57.541,162.211 C57.541,157.054 61.618,152.353 66.912,152.353 C69.004,152.353 70.848,153.188 72.243,154.685 L72.243,152.91 L75.901,152.91 L75.901,159.111 L71.928,159.111 C71.407,158.344 70.711,157.717 69.944,157.263 C69.141,156.81 68.236,156.568 67.297,156.568 C64.127,156.568 61.791,159.111 61.791,162.211 C61.791,165.381 64.299,167.82 67.4,167.82 C69.211,167.82 71.057,166.879 71.858,165.242 L76.596,165.242" id="Fill-18" fill="#517A9E"></path>
                <path d="M112.965,160.539 C112.235,157.857 109.866,156.15 107.114,156.15 C104.604,156.15 102.202,158.101 101.678,160.539 L112.965,160.539 L112.965,160.539 Z M116.206,166.043 C114.743,169.595 111.295,172 107.428,172 C101.993,172 97.637,167.75 97.637,162.281 C97.637,156.777 101.784,152.353 107.323,152.353 C109.901,152.353 112.479,153.501 114.29,155.347 C116.137,157.3 116.903,159.668 116.903,162.314 L116.762,163.813 L101.713,163.813 C102.27,166.392 104.639,168.271 107.288,168.271 C109.133,168.271 110.737,167.576 111.782,166.043 L116.206,166.043 L116.206,166.043 Z" id="Fill-19" fill="#517A9E"></path>
                <path d="M124.51,156.08 C125.588,153.885 127.68,152.805 130.083,152.699 L130.083,157.054 C128.725,157.125 127.469,157.472 126.426,158.414 C125.032,159.597 124.823,161.096 124.823,162.838 L124.823,167.542 L127.225,167.542 L127.225,171.513 L118.168,171.513 L118.168,167.542 L120.575,167.542 L120.575,156.881 L118.168,156.881 L118.168,152.91 L124.51,152.91 L124.51,156.08" id="Fill-20" fill="#517A9E"></path>
                <polyline id="Fill-21" fill="#517A9E" points="94.454 167.542 89.018 161.828 94.139 156.881 96.405 156.881 96.405 152.91 87.243 152.91 87.243 156.463 89.159 156.463 84.387 161.234 84.387 146.638 77.696 146.638 77.696 150.609 80.135 150.609 80.135 167.542 77.696 167.542 77.696 171.513 84.387 171.513 84.387 162.664 88.811 167.542 87.243 167.542 87.243 171.513 97.381 171.513 97.381 167.542 94.454 167.542"></polyline>
            </g>
        </g>
    </g>
</svg>