<svg fill="none" height="300" viewBox="0 0 1137 300" width="1137" xmlns="http://www.w3.org/2000/svg"><path d="m235 0h-170c-35.8985 0-65 29.1015-65 65v170c0 35.899 29.1015 65 65 65h170c35.899 0 65-29.101 65-65v-170c0-35.8985-29.101-65-65-65z" fill="#673ab7"/><g fill="#fff"><path d="m63 227c0-6.075 4.9249-11 11-11h66c6.075 0 11 4.925 11 11s-4.925 11-11 11h-66c-6.0751 0-11-4.925-11-11z"/><path clip-rule="evenodd" d="m117.738 63c-30.2312 0-54.738 24.4005-54.738 54.5v32.7c0 12.04 9.8028 21.8 21.8951 21.8h98.3669c30.231 0 54.738-24.4 54.738-54.5 0-30.0995-24.507-54.5-54.738-54.5zm-.081 21.7757c-18.1389 0-32.843 14.6403-32.843 32.7003v21.8c0 6.02 4.9014 10.9 10.9475 10.9h87.4595c18.139 0 32.843-14.641 32.843-32.7 0-18.06-14.704-32.7003-32.843-32.7003z" fill-rule="evenodd"/><path d="m379.439 94.7597v14.2633c8.599-9.9618 21.95-16.3009 37.563-16.3009 29.644 0 54.988 23.5449 54.988 58.6359 0 35.318-25.571 58.863-54.988 58.863-13.803 0-26.249-5.433-34.848-14.036v59.315h-27.154v-160.7403zm0 62.0323c2.036 18.564 17.198 30.337 34.395 30.337 18.103 0 33.491-14.942 33.491-35.544 0-21.055-15.388-35.997-33.491-35.997-17.197 0-32.359 12.225-34.395 30.563z"/><path d="m531.172 210.447c-23.307 0-41.41-11.546-41.41-42.562v-73.1253h27.154v67.6923c0 19.922 8.373 25.809 21.724 25.809 16.066 0 29.417-9.735 29.417-32.601v-60.9003h27.154v113.1973h-25.344l-.226-14.942c-7.015 12.225-19.687 17.432-38.469 17.432z"/><path d="m764.743 92.4957c21.95 0 41.41 13.3573 41.184 41.6563l-.226 73.805h-26.928v-68.824c0-17.885-9.278-24.677-21.724-24.677-14.934 0-27.38 11.093-27.38 32.148v61.353h-27.154v-68.824c0-17.885-9.278-24.677-21.724-24.677-12.898 0-27.38 9.509-27.38 33.28v60.221h-27.155v-113.1973h23.987l1.131 19.4703c7.92-14.7161 21.724-21.7343 37.111-21.7343 16.292 0 31.001 7.2446 37.563 22.6393 7.468-15.1683 23.308-22.6393 38.695-22.6393z"/><path d="m833.205 44.5h27.154v61.806c8.599-8.3768 20.819-13.5839 34.396-13.5839 29.417 0 54.987 23.5449 54.987 58.8629 0 35.091-25.344 58.636-54.987 58.636-15.84 0-29.191-6.339-37.79-16.527v14.263h-23.76zm23.76 107.99c0 20.829 16.066 34.865 34.622 34.865 18.103 0 33.49-14.942 33.49-35.997 0-20.602-15.387-35.544-33.49-35.544-18.556 0-34.622 13.584-34.622 34.639z"/><path d="m972.019 44.5h27.154v163.457h-27.154z"/><path d="m1082.67 210.221c-37.33 0-59.96-23.545-59.96-58.863 0-32.374 21.04-58.8623 58.38-58.8623 34.62 0 55.67 22.6393 55.67 56.8253 0 3.849-.46 9.282-.91 12.225h-85.99c3.62 18.338 17.2 27.847 32.81 27.847 13.58 0 26.03-5.434 29.42-14.942l22.18 8.829c-7.7 17.432-26.93 26.941-51.6 26.941zm-32.81-68.371h61.55c-2.71-17.659-14.71-28.526-30.55-28.526-16.52 0-28.06 10.641-31 28.526z"/></g></svg>