<svg width="384" height="384" viewBox="0 0 384 384" fill="none" xmlns="http://www.w3.org/2000/svg">
<path d="M300.8 0H83.2C37.2499 0 0 37.2498 0 83.1999V300.799C0 346.75 37.2499 383.999 83.2 383.999H300.8C346.75 383.999 384 346.75 384 300.799V83.1999C384 37.2498 346.75 0 300.8 0Z" fill="#673AB7"/>
<path d="M80 290C80 282.268 86.268 276 94 276H178C185.732 276 192 282.268 192 290C192 297.732 185.732 304 178 304H94C86.268 304 80 297.732 80 290Z" fill="white"/>
<path fill-rule="evenodd" clip-rule="evenodd" d="M150.064 80C111.369 80 80 111.34 80 150V192C80 207.464 92.5476 220 108.026 220H233.936C272.631 220 304 188.66 304 150C304 111.34 272.631 80 233.936 80H150.064ZM149.96 107.969C126.743 107.969 107.922 126.773 107.922 149.969V177.969C107.922 185.701 114.196 191.969 121.935 191.969H233.883C257.101 191.969 275.922 173.165 275.922 149.969C275.922 126.773 257.101 107.969 233.883 107.969H149.96Z" fill="white"/>
</svg>
