<svg width="144" height="144" fill="none" viewBox="0 0 144 144" xmlns="http://www.w3.org/2000/svg"><rect x="6" y="6" width="132" height="132" rx="66" fill="var(--gl-illustration-base-fill-color, #e7e4f2ff)"/><path d="M96 46.08h-9V107h42l9-9H96V46.08Z" fill="var(--gl-illustration-accent-fill-color-subtle, #d0c5e2ff)"/><path d="M96 46h-9v61h39.486a5.999 5.999 0 0 0 4.277-1.793L132 103.95" stroke="var(--gl-illustration-stroke-color-default, #171321ff)" stroke-width="var(--gl-illustration-stroke-width-default, 2)" stroke-linecap="square"/><path d="M96 37h35l12 11v42a8 8 0 0 1-8 8H96V37Z" fill="var(--gl-illustration-fill-color-default, #ffffff)"/><path d="M131 48h12v-.5L131.5 37h-.5v11Z" fill="var(--gl-illustration-fill-color-default, #ffffff)"/><path d="M131 37H96v61h39a8 8 0 0 0 8-8V55.5M131 37v11h12v-.5L131.5 37h-.5ZM108 82h14M108 74h23M108 66h23M108 58h23" stroke="var(--gl-illustration-stroke-color-default, #171321ff)" stroke-width="var(--gl-illustration-stroke-width-default, 2)" stroke-linecap="square"/><path d="M24 72h66" stroke="var(--gl-illustration-stroke-color-default, #171321ff)" stroke-width="var(--gl-illustration-stroke-width-default, 2)" stroke-linecap="square" stroke-linejoin="round"/><g stroke="var(--gl-illustration-stroke-color-default, #171321ff)" stroke-width="var(--gl-illustration-stroke-width-default, 2)" stroke-linecap="square"><circle cx="15" cy="72" fill="var(--gl-illustration-status-fill-color-neutral, #aea5d6ff)" r="14"/><path d="M20 72h2m-2 0c0-1.38-.56-2.63-1.464-3.535M20 72c0 1.38-.56 2.63-1.465 3.535M15 77v2m0-2c1.38 0 2.63-.56 3.535-1.465M15 77c-1.38 0-2.63-.56-3.536-1.464M10 72H8m2 0c0-1.38.56-2.63 1.464-3.535M10 72c0 1.38.56 2.63 1.464 3.536M15 67v-2m0 2c-1.38 0-2.63.56-3.536 1.465M15 67c1.38 0 2.63.56 3.536 1.465m-7.072 0L10.05 67.05m8.486 1.415 1.414-1.415m-1.415 8.486 1.415 1.414m-8.486-1.414L10.05 76.95"/></g><g stroke="var(--gl-illustration-stroke-color-default, #171321ff)" stroke-width="var(--gl-illustration-stroke-width-default, 2)"><circle cx="55" cy="72" fill="var(--gl-illustration-fill-color-default, #ffffff)" stroke-linecap="square" stroke-dasharray="6 6" r="14"/><path d="M62.5 73H55V63"/></g><circle cx="87" cy="72" r="6" fill="var(--gl-illustration-fill-color-default, #ffffff)" stroke="var(--gl-illustration-stroke-color-default, #171321ff)" stroke-width="var(--gl-illustration-stroke-width-default, 2)" stroke-linecap="square"/></svg>