<svg width="144" height="144" fill="none" viewBox="0 0 144 144" xmlns="http://www.w3.org/2000/svg"><rect width="144" height="144" rx="72" fill="var(--gl-illustration-base-fill-color, #e7e4f2ff)"/><path d="M92 65v.082c.492-.054.993-.082 1.5-.082 7.456 0 13.5 6.044 13.5 13.5 0 7.288-5.776 13.228-13 13.49V92H53c-8.837 0-16-7.163-16-16s7.163-16 16-16c1.235 0 2.437.14 3.592.405C58.623 52.69 65.647 47 74 47c9.941 0 18 8.059 18 18Z" fill="var(--gl-illustration-fill-color-default, #ffffff)"/><path d="M53 92c-8.837 0-16-7.163-16-16s7.163-16 16-16c1.235 0 2.437.14 3.592.405C58.623 52.69 65.647 47 74 47c9.941 0 18 8.059 18 18v.082c.492-.054.993-.082 1.5-.082 7.456 0 13.5 6.044 13.5 13.5 0 7.288-5.776 13.228-13 13.49V92H61" stroke="var(--gl-illustration-stroke-color-default, #171321ff)" stroke-width="var(--gl-illustration-stroke-width-default, 2)" stroke-linecap="square"/></svg>