<svg width="144" height="144" fill="none" viewBox="0 0 144 144" xmlns="http://www.w3.org/2000/svg"><rect width="144" height="144" rx="72" fill="var(--gl-illustration-base-fill-color, #e7e4f2ff)"/><path d="M52 93h40a8 8 0 0 1-8 8H52v-8ZM45 85h54v8H45v-8Z" fill="var(--gl-illustration-accent-fill-color-subtle, #d0c5e2ff)"/><path d="M45 85v8h54M52 93v8h32a8 8 0 0 0 8-8v0" stroke="var(--gl-illustration-stroke-color-default, #171321ff)" stroke-width="var(--gl-illustration-stroke-width-default, 2)" stroke-linecap="square"/><path d="M91.333 49H52.675a4 4 0 0 0-3.693 2.462l-11.666 28C36.218 82.096 38.153 85 41.008 85H103c2.854 0 4.79-2.904 3.692-5.538l-11.666-28A4 4 0 0 0 91.333 49Z" fill="var(--gl-illustration-fill-color-default, #ffffff)"/><path d="m48.34 53.003.642-1.541A4 4 0 0 1 52.675 49h38.658a4 4 0 0 1 3.693 2.462l11.666 28C107.79 82.096 105.854 85 103 85H41.008c-2.855 0-4.79-2.904-3.693-5.538l7.692-18.46" stroke="var(--gl-illustration-stroke-color-default, #171321ff)" stroke-width="var(--gl-illustration-stroke-width-default, 2)" stroke-linecap="square"/></svg>