<svg width="144" height="144" fill="none" viewBox="0 0 144 144" xmlns="http://www.w3.org/2000/svg"><rect width="144" height="144" rx="72" fill="var(--gl-illustration-base-fill-color, #e7e4f2ff)"/><path d="M46 45a6 6 0 0 1 6-6h46v53H50l-4 3V45Z" fill="var(--gl-illustration-accent-fill-color-strong, #aea5d6ff)"/><path d="M98 92H51.962A5.962 5.962 0 0 0 46 97.962V98a6 6 0 0 0 6 6h46V92Z" fill="var(--gl-illustration-fill-color-default, #ffffff)"/><path d="M46 97.962v0A5.962 5.962 0 0 1 51.962 92H98v12H52a6 6 0 0 1-6-6V47a8 8 0 0 1 8-8h44v45" stroke="var(--gl-illustration-stroke-color-default, #171321ff)" stroke-width="var(--gl-illustration-stroke-width-default, 2)" stroke-linecap="square"/><path d="M79 98v10l6-3 6 3V98H79Z" fill="var(--gl-illustration-accent-fill-color-orange, #ff9d73ff)" stroke="var(--gl-illustration-stroke-color-default, #171321ff)" stroke-width="var(--gl-illustration-stroke-width-default, 2)" stroke-linecap="square"/></svg>