<svg width="144" height="144" fill="none" viewBox="0 0 144 144" xmlns="http://www.w3.org/2000/svg"><rect width="144" height="144" rx="72" fill="var(--gl-illustration-base-fill-color, #e7e4f2ff)"/><path d="M51 56h58v33a8 8 0 0 1-8 8H45c4 0 6-3 6-6V56Z" fill="var(--gl-illustration-fill-color-default, #ffffff)"/><g stroke="var(--gl-illustration-stroke-color-default, #171321ff)" stroke-width="var(--gl-illustration-stroke-width-default, 2)" stroke-linecap="square"><path d="m73.414 82-5-5 5-5M78.128 84.996 82.414 69M87.414 82l5-5-5-5"/></g><path d="M98.92 49v7.04H51V91a6 6 0 0 1-12 0V41h23l7 8h29.92Z" fill="var(--gl-illustration-accent-fill-color-subtle, #d0c5e2ff)"/><path d="M99 49H69l-7-8H39v50a6 6 0 0 0 6 6v0a6 6 0 0 0 6-6V56.04h58V89a8 8 0 0 1-8 8H57" stroke="var(--gl-illustration-stroke-color-default, #171321ff)" stroke-width="var(--gl-illustration-stroke-width-default, 2)" stroke-linecap="square"/></svg>