<svg width="144" height="144" fill="none" viewBox="0 0 144 144" xmlns="http://www.w3.org/2000/svg"><rect width="144" height="144" rx="72" fill="var(--gl-illustration-base-fill-color, #e7e4f2ff)"/><path d="M45.071 40.929 48 38l46 46-10 10-38.929-38.929c-3.905-3.905-3.905-10.237 0-14.142Z" fill="var(--gl-illustration-fill-color-default, #ffffff)"/><path d="M45 55c-3.866-3.866-3.866-10.134 0-14l3-3 46 46-10 10-33-33" stroke="var(--gl-illustration-stroke-color-default, #171321ff)" stroke-width="var(--gl-illustration-stroke-width-default, 2)"/><path fill-rule="evenodd" clip-rule="evenodd" d="M84.808 84.808c-5.077 5.076-5.077 13.308 0 18.384 5.076 5.077 13.308 5.077 18.384 0 5.077-5.076 5.077-13.308 0-18.384-5.076-5.077-13.308-5.077-18.384 0Zm4.95 4.95a6 6 0 1 0 8.484 8.485 6 6 0 0 0-8.485-8.486Z" fill="var(--gl-illustration-accent-fill-color-strong, #aea5d6ff)" stroke="var(--gl-illustration-stroke-color-default, #171321ff)" stroke-width="var(--gl-illustration-stroke-width-default, 2)" stroke-linecap="square"/><path d="M96 38 50 84l10 10 38.929-38.929c3.905-3.905 3.905-10.237 0-14.142L96 38Z" fill="var(--gl-illustration-fill-color-default, #ffffff)" stroke="var(--gl-illustration-stroke-color-default, #171321ff)" stroke-width="var(--gl-illustration-stroke-width-default, 2)"/><path fill-rule="evenodd" clip-rule="evenodd" d="M59.192 84.808c5.077 5.076 5.077 13.308 0 18.384-5.076 5.077-13.308 5.077-18.384 0-5.077-5.076-5.077-13.308 0-18.384 5.076-5.077 13.308-5.077 18.384 0Zm-4.95 4.95a6 6 0 1 1-8.484 8.485 6 6 0 0 1 8.485-8.486Z" fill="var(--gl-illustration-accent-fill-color-strong, #aea5d6ff)" stroke="var(--gl-illustration-stroke-color-default, #171321ff)" stroke-width="var(--gl-illustration-stroke-width-default, 2)" stroke-linecap="square"/><path d="M72 71a1 1 0 1 1 0 2 1 1 0 0 1 0-2Z" stroke="var(--gl-illustration-stroke-color-default, #171321ff)" stroke-width="2"/></svg>