<svg width="144" height="144" fill="none" viewBox="0 0 144 144" xmlns="http://www.w3.org/2000/svg"><rect width="144" height="144" rx="72" fill="var(--gl-illustration-base-fill-color, #e7e4f2ff)"/><path d="M89 31.65 55 48v36l34 16.35v-68.7Z" fill="var(--gl-illustration-fill-color-default, #ffffff)"/><path d="M89 39h14v46a8 8 0 0 1-8 8h-6V39Z" fill="var(--gl-illustration-accent-fill-color-subtle, #d0c5e2ff)"/><path d="M89 93h6a8 8 0 0 0 8-8V39H89M55 53v-5l34-16.35v68.7L55 84V61" stroke="var(--gl-illustration-stroke-color-default, #171321ff)" stroke-width="var(--gl-illustration-stroke-width-default, 2)" stroke-linecap="square"/><circle cx="47.5" cy="89.5" r="22.5" fill="var(--gl-illustration-fill-color-default, #ffffff)"/><path d="M67.767 99.272a22.5 22.5 0 1 0-4.012 5.785" stroke="var(--gl-illustration-stroke-color-default, #171321ff)" stroke-width="var(--gl-illustration-stroke-width-default, 2)" stroke-linecap="square"/><circle cx="47.5" cy="89.5" r="15.5" fill="var(--gl-illustration-accent-fill-color-strong, #aea5d6ff)"/><g stroke="var(--gl-illustration-stroke-color-default, #171321ff)" stroke-width="var(--gl-illustration-stroke-width-default, 2)" stroke-linecap="square"><path d="m42.211 92.058-2.797-2.797 2.797-2.797M45.926 93.775l2.42-9.03M52.292 92.058l2.796-2.797-2.796-2.797"/></g><path d="M93 108a21.992 21.992 0 0 0 15.556-6.444A21.992 21.992 0 0 0 115 86" stroke="var(--gl-illustration-stroke-color-default, #171321ff)" stroke-width="var(--gl-illustration-stroke-width-default, 2)" stroke-linecap="square"/></svg>