<svg width="144" height="144" fill="none" viewBox="0 0 144 144" xmlns="http://www.w3.org/2000/svg"><rect width="144" height="144" rx="72" fill="var(--gl-illustration-base-fill-color, #e7e4f2ff)"/><path d="M119.843 73.657 94 99.5v-57a4.243 4.243 0 0 1 6 0l19.843 19.843a8 8 0 0 1 0 11.314Z" fill="var(--gl-illustration-fill-color-default, #ffffff)"/><rect x="53" y="33" width="43" height="70" rx="8" fill="var(--gl-illustration-fill-color-default, #ffffff)"/><path d="M96.25 41.314a8.599 8.599 0 0 1 4.886 2.444l18.329 18.328a8.64 8.64 0 0 1 0 12.22L103 90.77M53 43v-2a8 8 0 0 1 8-8h27a8 8 0 0 1 8 8v54a8 8 0 0 1-8 8H61a8 8 0 0 1-8-8V51" stroke="var(--gl-illustration-stroke-color-default, #171321ff)" stroke-width="var(--gl-illustration-stroke-width-default, 2)" stroke-linecap="square"/><path d="M51.5 70C39.074 70 29 80.074 29 92.5S39.074 115 51.5 115 74 104.926 74 92.5V70H51.5Z" fill="var(--gl-illustration-fill-color-default, #ffffff)" stroke="var(--gl-illustration-stroke-color-default, #171321ff)" stroke-width="var(--gl-illustration-stroke-width-default, 2)" stroke-linecap="square"/><g stroke="var(--gl-illustration-stroke-color-default, #171321ff)" stroke-width="var(--gl-illustration-stroke-width-default, 2)" stroke-linecap="square"><circle cx="51" cy="93" r="14" fill="var(--gl-illustration-base-fill-color, #e7e4f2ff)"/><path d="M43.657 101.343 42 103l-.373.399A13.944 13.944 0 0 0 51 107a13.95 13.95 0 0 0 9.358-3.587L60 103l-1.657-1.657A8 8 0 0 0 52.686 99h-3.372a8 8 0 0 0-5.657 2.343Z" fill="var(--gl-illustration-accent-fill-color-strong, #aea5d6ff)"/><path d="m42 103 1.657-1.657A8 8 0 0 1 49.314 99h3.372a8 8 0 0 1 5.657 2.343L60 103"/><circle cx="51" cy="91" r="4" fill="var(--gl-illustration-accent-fill-color-strong, #aea5d6ff)"/></g><path d="M22 92.5a29.497 29.497 0 0 0 18.21 27.254A29.491 29.491 0 0 0 51.5 122" stroke="var(--gl-illustration-stroke-color-default, #171321ff)" stroke-width="var(--gl-illustration-stroke-width-default, 2)" stroke-linecap="square"/><circle cx="74" cy="70" r="6" fill="var(--gl-illustration-fill-color-default, #ffffff)" stroke="var(--gl-illustration-stroke-color-default, #171321ff)" stroke-width="var(--gl-illustration-stroke-width-default, 2)" stroke-linecap="square"/></svg>