<svg width="144" height="144" fill="none" viewBox="0 0 144 144" xmlns="http://www.w3.org/2000/svg"><rect x="6" y="6" width="132" height="132" rx="66" fill="var(--gl-illustration-base-fill-color, #e7e4f2ff)"/><path d="M24 72h66" stroke="var(--gl-illustration-stroke-color-default, #171321ff)" stroke-width="var(--gl-illustration-stroke-width-default, 2)" stroke-linecap="square" stroke-linejoin="round"/><g stroke="var(--gl-illustration-stroke-color-default, #171321ff)" stroke-width="var(--gl-illustration-stroke-width-default, 2)" stroke-linecap="square"><circle cx="15" cy="72" fill="var(--gl-illustration-status-fill-color-success, #6fdac9ff)" r="14"/><path d="m10.2 72.367 2.824 2.833 6.776-6.8"/></g><g stroke="var(--gl-illustration-stroke-color-default, #171321ff)" stroke-width="var(--gl-illustration-stroke-width-default, 2)" stroke-linecap="square"><circle cx="55" cy="72" fill="var(--gl-illustration-fill-color-default, #ffffff)" stroke-dasharray="6 6" r="14"/><path d="m55 66-3 6h6l-3 6"/></g><path d="M143 52H97v55h29c9.389 0 17-7.611 17-17V52Z" fill="var(--gl-illustration-accent-fill-color-subtle, #d0c5e2ff)"/><path d="M97 98V52h46v38c0 9.389-7.611 17-17 17H97v-2" stroke="var(--gl-illustration-stroke-color-default, #171321ff)" stroke-width="var(--gl-illustration-stroke-width-default, 2)" stroke-linecap="square"/><path d="M87 37h35l12 11v42a8 8 0 0 1-8 8H87V37Z" fill="var(--gl-illustration-fill-color-default, #ffffff)"/><path d="M122 48h12v-.5L122.5 37h-.5v11Z" fill="var(--gl-illustration-fill-color-default, #ffffff)"/><path d="M134 48h-12V37h.5L134 47.5v.5Zm0 0v42a8 8 0 0 1-8 8H87V37h27" stroke="var(--gl-illustration-stroke-color-default, #171321ff)" stroke-width="var(--gl-illustration-stroke-width-default, 2)" stroke-linecap="square"/><g stroke-width="var(--gl-illustration-stroke-width-default, 2)" stroke-linecap="square"><path d="M99 58h13" stroke="var(--gl-illustration-stroke-color-default, #171321ff)"/><path d="M116 58h6" stroke="var(--gl-illustration-accent-stroke-color-orange, #ff9d73ff)"/></g><g stroke-width="var(--gl-illustration-stroke-width-default, 2)" stroke-linecap="square"><path d="M99 66h7" stroke="var(--gl-illustration-accent-stroke-color-strong, #aea5d6ff)"/><path d="M110 66h12" stroke="var(--gl-illustration-stroke-color-default, #171321ff)"/></g><g stroke-width="var(--gl-illustration-stroke-width-default, 2)" stroke-linecap="square"><path d="M99 74h2" stroke="var(--gl-illustration-stroke-color-default, #171321ff)"/><path d="M105 74h7" stroke="var(--gl-illustration-accent-stroke-color-orange, #ff9d73ff)"/><path d="M116 74h6" stroke="var(--gl-illustration-accent-stroke-color-strong, #aea5d6ff)"/></g><g stroke="var(--gl-illustration-stroke-color-default, #171321ff)" stroke-width="var(--gl-illustration-stroke-width-default, 2)" stroke-linecap="square"><path d="M99 82h11M114 82h2"/></g><circle cx="87" cy="72" r="6" fill="var(--gl-illustration-fill-color-default, #ffffff)" stroke="var(--gl-illustration-stroke-color-default, #171321ff)" stroke-width="var(--gl-illustration-stroke-width-default, 2)" stroke-linecap="square"/></svg>