<svg width="144" height="144" fill="none" viewBox="0 0 144 144" xmlns="http://www.w3.org/2000/svg"><rect width="144" height="144" rx="72" fill="var(--gl-illustration-base-fill-color, #e7e4f2ff)"/><path d="M48 100h40a8 8 0 0 1-8 8H48v-8ZM41 92h54v8H41v-8Z" fill="var(--gl-illustration-accent-fill-color-subtle, #d0c5e2ff)"/><path d="M41 92v8h54M48 100v8h32a8 8 0 0 0 8-8v0" stroke="var(--gl-illustration-stroke-color-default, #171321ff)" stroke-width="var(--gl-illustration-stroke-width-default, 2)" stroke-linecap="square"/><path d="M87.333 56H48.675a4 4 0 0 0-3.693 2.462l-11.666 28C32.218 89.096 34.153 92 37.008 92H99c2.854 0 4.79-2.904 3.692-5.538l-11.666-28A4 4 0 0 0 87.333 56Z" fill="var(--gl-illustration-fill-color-default, #ffffff)"/><path d="m44.34 60.003.642-1.541A4 4 0 0 1 48.675 56h38.658a4 4 0 0 1 3.693 2.462l11.666 28C103.79 89.096 101.854 92 99 92H37.008c-2.855 0-4.79-2.904-3.693-5.538l7.692-18.46" stroke="var(--gl-illustration-stroke-color-default, #171321ff)" stroke-width="var(--gl-illustration-stroke-width-default, 2)" stroke-linecap="square"/><path d="M96 70.5c12.426 0 22.5-10.074 22.5-22.5S108.426 25.5 96 25.5 73.5 35.574 73.5 48v22.5H96Z" fill="var(--gl-illustration-fill-color-default, #ffffff)" stroke="var(--gl-illustration-stroke-color-default, #171321ff)" stroke-width="var(--gl-illustration-stroke-width-default, 2)" stroke-linecap="square"/><circle cx="96" cy="48" r="15" fill="var(--gl-illustration-status-fill-color-success, #6fdac9ff)"/><path d="M102 48h-6m-6 0h6m0 0v-6m0 6v6M125 48a29.007 29.007 0 0 0-8.494-20.506A29.005 29.005 0 0 0 96 19" stroke="var(--gl-illustration-stroke-color-default, #171321ff)" stroke-width="var(--gl-illustration-stroke-width-default, 2)" stroke-linecap="square"/><circle cx="75" cy="70" r="6" fill="var(--gl-illustration-fill-color-default, #ffffff)" stroke="var(--gl-illustration-stroke-color-default, #171321ff)" stroke-width="var(--gl-illustration-stroke-width-default, 2)" stroke-linecap="square"/></svg>