<svg width="144" height="144" fill="none" xmlns="http://www.w3.org/2000/svg"><rect width="144" height="144" rx="72" fill="var(--gl-illustration-base-fill-color, #e7e4f2ff)"/><path d="M54 54h58v33a8 8 0 0 1-8 8H48c4 0 6-3 6-6V54Z" fill="var(--gl-illustration-fill-color-default, #ffffff)"/><path d="M101.92 47v7.04H54V89a6 6 0 0 1-12 0V39h23l7 8h29.92Z" fill="var(--gl-illustration-accent-fill-color-subtle, #d0c5e2ff)"/><path d="M102 47H72l-7-8H42v50a6 6 0 0 0 12 0V54.04h58V87a8 8 0 0 1-8 8H60" stroke="var(--gl-illustration-stroke-color-default, #171321ff)" stroke-width="var(--gl-illustration-stroke-width-default, 2)" stroke-linecap="square"/><g stroke="var(--gl-illustration-stroke-color-default, #171321ff)" stroke-width="var(--gl-illustration-stroke-width-default, 2)"><path d="M83 67.172v9M87 74.172l-4 4-4-4" stroke-linecap="square"/><path d="M73 78v5h20v-5"/></g><circle cx="44" cy="95" r="23" fill="var(--gl-illustration-fill-color-default, #ffffff)"/><path d="M23.155 85.28a23 23 0 1 0 4.024-5.966" stroke="var(--gl-illustration-stroke-color-default, #171321ff)" stroke-width="var(--gl-illustration-stroke-width-default, 2)" stroke-linecap="square"/><circle cx="44" cy="95" r="15" fill="var(--gl-illustration-status-fill-color-warning, #fca326ff)"/><path d="M44.333 99.028a2.143 2.143 0 1 1 0 4.287 2.143 2.143 0 0 1 0-4.287Zm1-3.286h-2v-9.5h2v9.5Z" fill="var(--gl-illustration-stroke-color-default, #171321ff)"/></svg>
