<svg width="144" height="144" fill="none" viewBox="0 0 144 144" xmlns="http://www.w3.org/2000/svg"><rect width="144" height="144" rx="72" fill="var(--gl-illustration-base-fill-color, #e7e4f2ff)"/><path d="M134 113V25H10v96h116a8 8 0 0 0 8-8Z" fill="var(--gl-illustration-fill-color-default, #ffffff)"/><path d="M10 62.818V121h116a8 8 0 0 0 8-8V25H10v28" stroke="var(--gl-illustration-stroke-color-default, #171321ff)" stroke-width="var(--gl-illustration-stroke-width-default, 2)" stroke-linecap="square"/><path d="M10 33h124" stroke="var(--gl-illustration-stroke-color-default, #171321ff)" stroke-width="var(--gl-illustration-stroke-width-default, 2)" stroke-linecap="square" stroke-linejoin="round"/><g stroke="var(--gl-illustration-stroke-color-default, #171321ff)" stroke-width="var(--gl-illustration-stroke-width-default, 2)" stroke-linecap="square"><path d="m72 103 33-15"/><circle cx="104" cy="89" r="3" fill="var(--gl-illustration-accent-fill-color-orange, #ff9d73ff)"/><path d="m72 103-33 5"/><circle cx="72" cy="103" r="3" fill="var(--gl-illustration-accent-fill-color-orange, #ff9d73ff)"/><circle cx="40" cy="108" r="3" fill="var(--gl-illustration-accent-fill-color-orange, #ff9d73ff)"/><path d="M105 65 72 92"/><circle cx="104" cy="66" r="3" fill="var(--gl-illustration-fill-color-default, #ffffff)"/><path d="m39 94 33-2"/><circle cx="72" cy="92" r="3" fill="var(--gl-illustration-fill-color-default, #ffffff)"/><circle cx="40" cy="94" r="3" fill="var(--gl-illustration-fill-color-default, #ffffff)"/><path d="M105 46 72 58"/><circle cx="104" cy="46" r="3" fill="var(--gl-illustration-accent-fill-color-strong, #aea5d6ff)"/><path d="M72 58 39 83"/><circle cx="72" cy="58" r="3" fill="var(--gl-illustration-accent-fill-color-strong, #aea5d6ff)"/><circle cx="40" cy="82" r="3" fill="var(--gl-illustration-accent-fill-color-strong, #aea5d6ff)"/></g><g stroke="var(--gl-illustration-stroke-color-default, #171321ff)"><circle cx="40" cy="42" r="13.929" fill="var(--gl-illustration-status-fill-color-warning, #fca326ff)" stroke-width="var(--gl-illustration-stroke-width-default, 2)" stroke-linecap="square"/><circle cx="40.05" cy="48" r=".75" stroke-width="1.5"/><path d="M40.05 35.5v7" stroke-width="var(--gl-illustration-stroke-width-default, 2)" stroke-linecap="square"/></g></svg>