<svg width="144" height="144" fill="none" viewBox="0 0 144 144" xmlns="http://www.w3.org/2000/svg"><rect width="144" height="144" rx="72" fill="var(--gl-illustration-base-fill-color, #e7e4f2ff)"/><path d="m93 86-8 8 9.843 9.843a8 8 0 0 0 11.314 0l2.343-2.343L93 86Z" fill="var(--gl-illustration-accent-fill-color-strong, #aea5d6ff)"/><path d="m93 86-8 8 9.843 9.843a8 8 0 0 0 11.314 0l2.343-2.343L97 90M85 86l3 3" stroke="var(--gl-illustration-stroke-color-default, #171321ff)" stroke-width="var(--gl-illustration-stroke-width-default, 2)" stroke-linecap="square"/><circle cx="66" cy="67" r="27" fill="var(--gl-illustration-fill-color-default, #ffffff)" stroke="var(--gl-illustration-stroke-color-default, #171321ff)" stroke-width="var(--gl-illustration-stroke-width-default, 2)" stroke-linecap="square"/><path d="m66 78 10-10M52 73l21-21M103 67a37.008 37.008 0 0 0-10.837-26.163A37.001 37.001 0 0 0 66 30" stroke="var(--gl-illustration-stroke-color-default, #171321ff)" stroke-width="var(--gl-illustration-stroke-width-default, 2)" stroke-linecap="square"/></svg>