<svg width="144" height="144" fill="none" xmlns="http://www.w3.org/2000/svg"><rect width="144" height="144" rx="72" transform="matrix(-1 0 0 1 144 0)" fill="var(--gl-illustration-base-fill-color, #e7e4f2ff)"/><path d="M46 40h52v8H46v-8Z" fill="var(--gl-illustration-accent-fill-color-subtle, #d0c5e2ff)"/><path d="M46 40v-1h-1v1h1Zm52 0h1v-1h-1v1Zm0 8v1h1v-1h-1Zm-52 0h-1v1h1v-1Zm0-8v1h52v-2H46v1Zm52 0h-1v8h2v-8h-1Zm0 8v-1H46v2h52v-1Zm-52 0h1v-8h-2v8h1Z" fill="var(--gl-illustration-stroke-color-default, #171321ff)"/><path d="M42 48h60v8H42v-8Z" fill="var(--gl-illustration-accent-fill-color-subtle, #d0c5e2ff)"/><path d="M42 48v-1h-1v1h1Zm60 0h1v-1h-1v1Zm0 8v1h1v-1h-1Zm-60 0h-1v1h1v-1Zm0-8v1h60v-2H42v1Zm60 0h-1v8h2v-8h-1Zm0 8v-1H42v2h60v-1Zm-60 0h1v-8h-2v8h1Z" fill="var(--gl-illustration-stroke-color-default, #171321ff)"/><path d="M37 56h70v40a6 6 0 0 1-6 6H37V56Z" fill="var(--gl-illustration-fill-color-default, #ffffff)"/><path d="M107 57v-1H37v46h62a8 8 0 0 0 8-8V65" stroke="var(--gl-illustration-stroke-color-default, #171321ff)" stroke-width="var(--gl-illustration-stroke-width-default, 2)"/><path d="M78.64 70c.296 0 .56.106.7.17l.096.048h.002c.19.093.317.22.381.289a1.838 1.838 0 0 1 .267.368 2.51 2.51 0 0 1 .037.067l.004.007v.003l.002.001v.001l-.722.37.723-.37.022.046.019.047 2.46 6.321.002.004c.883 2.298.137 4.814-1.83 6.306l-.007.006-.009.005-3.78 2.751-.001.001-1.86 1.346-.002.003-1.14.82-.001-.002c-.278.2-.578.245-.74.26a2.549 2.549 0 0 1-.495-.012 3.761 3.761 0 0 1-.454-.08l-.033-.007-.015-.004-.002-.001h-.001l-.178-.048-.15-.108-1.138-.819h-.003l-1.86-1.348-.01-.005v-.001l-3.71-2.744-.183-.14c-1.863-1.47-2.508-3.971-1.668-6.228l.003-.008.004-.008 2.46-6.263.018-.044.021-.043c.025-.049.153-.34.44-.573.226-.234.5-.317.637-.347.19-.041.373-.037.414-.037.395 0 .735.188.797.218l.147.07.116.113c.153.15.264.326.317.413a3.408 3.408 0 0 1 .102.176l.008.015.002.005v.002h.002l.033.066.023.07 1.451 4.295h5.284l1.45-4.295c.057-.165.196-.577.6-.843.402-.32.83-.305.948-.305Z" fill="var(--gl-illustration-accent-fill-color-orange, #ff9d73ff)" stroke="var(--gl-illustration-stroke-color-default, #171321ff)" stroke-width="var(--gl-illustration-stroke-width-default, 2)"/><path d="M59.68 71.325a.2.2 0 0 1 0 .35l-1.891 1.034a.201.201 0 0 0-.08.08l-1.034 1.89a.2.2 0 0 1-.35 0l-1.034-1.89a.201.201 0 0 0-.08-.08l-1.89-1.034a.2.2 0 0 1 0-.35l1.89-1.034a.201.201 0 0 0 .08-.08l1.034-1.89a.2.2 0 0 1 .35 0l1.034 1.89a.201.201 0 0 0 .08.08l1.89 1.034ZM64.68 88.825a.2.2 0 0 1 0 .35l-2.86 1.565a.199.199 0 0 0-.08.08l-1.565 2.86a.2.2 0 0 1-.35 0l-1.565-2.86a.199.199 0 0 0-.08-.08l-2.86-1.564a.2.2 0 0 1 0-.352l2.86-1.564a.199.199 0 0 0 .08-.08l1.565-2.86a.2.2 0 0 1 .35 0l1.565 2.86a.199.199 0 0 0 .08.08l2.86 1.564Z" stroke="var(--gl-illustration-stroke-color-default, #171321ff)" stroke-width="var(--gl-illustration-stroke-width-default, 2)"/></svg>
