<svg width="72" height="72" fill="none" xmlns="http://www.w3.org/2000/svg"><rect width="72" height="72" rx="36" fill="var(--gl-illustration-base-fill-color, #e7e4f2ff)"/><path d="M25 28h34v20a8 8 0 0 1-8 8H22c2.222 0 3-1.683 3-3.366V28Z" fill="var(--gl-illustration-fill-color-default, #ffffff)"/><path d="M53.115 23 53 29H26v17.5a3.5 3.5 0 1 1-7 0V18h12.795L36 23h17.115Z" fill="var(--gl-illustration-accent-fill-color-subtle, #d0c5e2ff)"/><path d="M53 23H36l-4.222-5H19v28.111a3 3 0 1 0 6 0V28h34v20a8 8 0 0 1-8 8H29.372" stroke="var(--gl-illustration-stroke-color-default, #171321ff)" stroke-width="var(--gl-illustration-stroke-width-default, 2)" stroke-linecap="square"/><g stroke="var(--gl-illustration-stroke-color-default, #171321ff)" stroke-width="var(--gl-illustration-stroke-width-default, 2)"><path d="M36 43v5h12v-5"/><path d="M42 35.514v6M46 39.514l-4 4-4-4" stroke-linecap="square"/></g><circle cx="22" cy="49" r="10" fill="var(--gl-illustration-status-fill-color-warning, #fca326ff)" stroke="var(--gl-illustration-stroke-color-default, #171321ff)" stroke-width="var(--gl-illustration-stroke-width-default, 2)" stroke-linecap="square"/><path d="M22 52a2 2 0 1 1 0 4 2 2 0 0 1 0-4Zm1-2h-2v-7h2v7Z" fill="var(--gl-illustration-stroke-color-default, #171321ff)"/></svg>
