<svg width="144" height="144" fill="none" viewBox="0 0 144 144" xmlns="http://www.w3.org/2000/svg"><rect width="144" height="144" rx="72" fill="var(--gl-illustration-base-fill-color, #e7e4f2ff)"/><path d="M72 73v.082c.492-.054.993-.082 1.5-.082C80.956 73 87 79.044 87 86.5c0 7.288-5.776 13.228-13 13.49v.01H33c-8.837 0-16-7.163-16-16s7.163-16 16-16c1.235 0 2.437.14 3.592.405C38.623 60.69 45.647 55 54 55c9.941 0 18 8.059 18 18Z" fill="var(--gl-illustration-fill-color-default, #ffffff)"/><path d="M41 100h33v-.01c7.224-.262 13-6.202 13-13.49C87 79.044 80.956 73 73.5 73c-.507 0-1.008.028-1.5.082V73c0-9.941-8.059-18-18-18-8.353 0-15.377 5.69-17.408 13.405A16.047 16.047 0 0 0 33 68c-8.837 0-16 7.163-16 16 0 7.81 5.597 14.314 12.998 15.719" stroke="var(--gl-illustration-stroke-color-default, #171321ff)" stroke-width="var(--gl-illustration-stroke-width-default, 2)" stroke-linecap="square"/><circle cx="52" cy="99" r="14" fill="var(--gl-illustration-accent-fill-color-strong, #aea5d6ff)" stroke="var(--gl-illustration-stroke-color-default, #171321ff)" stroke-width="var(--gl-illustration-stroke-width-default, 2)" stroke-linecap="square"/><g stroke="var(--gl-illustration-stroke-color-default, #171321ff)" stroke-width="var(--gl-illustration-stroke-width-default, 2)" stroke-linecap="square"><path d="M47.097 102.112 44.3 99.316l2.797-2.797M50.812 103.83l2.42-9.03M57.177 102.112l2.797-2.796-2.797-2.797"/></g><path d="M96 70.5c12.426 0 22.5-10.074 22.5-22.5S108.426 25.5 96 25.5 73.5 35.574 73.5 48v22.5H96Z" fill="var(--gl-illustration-fill-color-default, #ffffff)" stroke="var(--gl-illustration-stroke-color-default, #171321ff)" stroke-width="var(--gl-illustration-stroke-width-default, 2)" stroke-linecap="square"/><circle cx="96" cy="48" r="15" fill="var(--gl-illustration-status-fill-color-success, #6fdac9ff)"/><path d="M102 48h-6m-6 0h6m0 0v-6m0 6v6M125 48a29.007 29.007 0 0 0-8.494-20.506A29.005 29.005 0 0 0 96 19" stroke="var(--gl-illustration-stroke-color-default, #171321ff)" stroke-width="var(--gl-illustration-stroke-width-default, 2)" stroke-linecap="square"/><circle cx="75" cy="70" r="6" fill="var(--gl-illustration-fill-color-default, #ffffff)" stroke="var(--gl-illustration-stroke-color-default, #171321ff)" stroke-width="var(--gl-illustration-stroke-width-default, 2)" stroke-linecap="square"/></svg>