<svg width="144" height="144" fill="none" viewBox="0 0 144 144" xmlns="http://www.w3.org/2000/svg"><rect width="144" height="144" rx="72" fill="var(--gl-illustration-base-fill-color, #e7e4f2ff)"/><path d="M89 31.65 55 48v36l34 16.35v-68.7Z" fill="var(--gl-illustration-fill-color-default, #ffffff)"/><path d="M89 39h14v46a8 8 0 0 1-8 8h-6V39Z" fill="var(--gl-illustration-accent-fill-color-subtle, #d0c5e2ff)"/><path d="M89 93h6a8 8 0 0 0 8-8V39H89M55 53v-5l34-16.35v68.7L55 84V61" stroke="var(--gl-illustration-stroke-color-default, #171321ff)" stroke-width="var(--gl-illustration-stroke-width-default, 2)" stroke-linecap="square"/><circle cx="47" cy="89" r="23" fill="var(--gl-illustration-fill-color-default, #ffffff)"/><path d="M67.717 98.99a23 23 0 1 0-4.1 5.913" stroke="var(--gl-illustration-stroke-color-default, #171321ff)" stroke-width="var(--gl-illustration-stroke-width-default, 2)" stroke-linecap="square"/><circle cx="47" cy="89" r="15" fill="var(--gl-illustration-accent-fill-color-teal, #6fdac9ff)"/><path d="M46.103 80.817a1 1 0 0 1 1.794 0l1.81 3.667a1 1 0 0 0 .752.547l4.046.587a1 1 0 0 1 .555 1.706l-2.928 2.854a1 1 0 0 0-.288.885l.691 4.03a1 1 0 0 1-1.45 1.054l-3.62-1.902a1 1 0 0 0-.93 0l-3.62 1.902a1 1 0 0 1-1.45-1.054l.69-4.03a1 1 0 0 0-.287-.885l-2.928-2.854a1 1 0 0 1 .555-1.706l4.046-.587a1 1 0 0 0 .753-.547l1.81-3.667ZM93 108a21.992 21.992 0 0 0 15.556-6.444A21.992 21.992 0 0 0 115 86" stroke="var(--gl-illustration-stroke-color-default, #171321ff)" stroke-width="var(--gl-illustration-stroke-width-default, 2)" stroke-linecap="square"/></svg>