<svg width="144" height="144" fill="none" viewBox="0 0 144 144" xmlns="http://www.w3.org/2000/svg"><rect width="144" height="144" rx="72" fill="var(--gl-illustration-base-fill-color, #e7e4f2ff)"/><circle cx="72" cy="72" r="35" fill="var(--gl-illustration-fill-color-default, #ffffff)"/><path d="M94.397 98.897A34.86 34.86 0 0 1 72 107a34.86 34.86 0 0 1-22.397-8.103l9.054-9.054a8 8 0 0 1 5.657-2.343h15.372a8 8 0 0 1 5.657 2.343l9.054 9.054Z" fill="var(--gl-illustration-accent-fill-color-strong, #aea5d6ff)"/><circle cx="72" cy="68" r="12" fill="var(--gl-illustration-accent-fill-color-subtle, #d0c5e2ff)" stroke="var(--gl-illustration-stroke-color-default, #171321ff)" stroke-width="var(--gl-illustration-stroke-width-default, 2)" stroke-linecap="square"/><path d="m50 98 6.314-6.314A16 16 0 0 1 67.627 87h8.746a16 16 0 0 1 11.313 4.686l6.984 6.98a34.997 34.997 0 0 1-47.713-2.215A35 35 0 1 1 106.64 77" stroke="var(--gl-illustration-stroke-color-default, #171321ff)" stroke-width="var(--gl-illustration-stroke-width-default, 2)" stroke-linecap="square"/><g stroke="var(--gl-illustration-stroke-color-default, #171321ff)" stroke-width="var(--gl-illustration-stroke-width-default, 2)" stroke-linecap="square"><circle cx="96" cy="96" r="14" fill="var(--gl-illustration-accent-fill-color-orange, #ff9d73ff)"/><path d="M96 101.5c11.819-6.849 3.056-13.418 0-7.997-3.056-5.395-11.819 1.148 0 7.997Z"/></g></svg>