<svg width="144" height="144" fill="none" viewBox="0 0 144 144" xmlns="http://www.w3.org/2000/svg"><rect width="144" height="144" rx="72" fill="var(--gl-illustration-base-fill-color, #e7e4f2ff)"/><path d="M60 43.08h-9V104h42l9-9H60V43.08Z" fill="var(--gl-illustration-accent-fill-color-subtle, #d0c5e2ff)"/><path d="M60 43h-9v61h39.486a6 6 0 0 0 4.277-1.793L96 100.95" stroke="var(--gl-illustration-stroke-color-default, #171321ff)" stroke-width="var(--gl-illustration-stroke-width-default, 2)" stroke-linecap="square"/><path d="M60 34h35l12 11v42a8 8 0 0 1-8 8H60V34Z" fill="var(--gl-illustration-fill-color-default, #ffffff)"/><path d="M95 45h12v-.5L95 34v11Z" fill="var(--gl-illustration-fill-color-default, #ffffff)"/><path d="M95 34H60v61h39a8 8 0 0 0 8-8V52.5M95 34v11h12v-.5L95 34Z" stroke="var(--gl-illustration-stroke-color-default, #171321ff)" stroke-width="var(--gl-illustration-stroke-width-default, 2)" stroke-linecap="square"/><g stroke-width="var(--gl-illustration-stroke-width-default, 2)" stroke-linecap="square"><path d="M72 55h13" stroke="var(--gl-illustration-stroke-color-default, #171321ff)"/><path d="M89 55h6" stroke="var(--gl-illustration-accent-stroke-color-orange, #ff9d73ff)"/></g><g stroke-width="var(--gl-illustration-stroke-width-default, 2)" stroke-linecap="square"><path d="M72 63h7" stroke="var(--gl-illustration-stroke-color-default, #171321ff)"/><path d="M83 63h12" stroke="var(--gl-illustration-stroke-color-default, #171321ff)"/></g><g stroke-width="var(--gl-illustration-stroke-width-default, 2)" stroke-linecap="square"><path d="M72 71h2" stroke="var(--gl-illustration-stroke-color-default, #171321ff)"/><path d="M78 71h7" stroke="var(--gl-illustration-accent-stroke-color-orange, #ff9d73ff)"/><path d="M89 71h6" stroke="var(--gl-illustration-stroke-color-default, #171321ff)"/></g><g stroke="var(--gl-illustration-stroke-color-default, #171321ff)" stroke-width="var(--gl-illustration-stroke-width-default, 2)" stroke-linecap="square"><path d="M72 79h11M87 79h2"/></g><circle cx="45.5" cy="85.5" r="22.5" fill="var(--gl-illustration-fill-color-default, #ffffff)"/><path d="M25.233 75.728a22.5 22.5 0 1 0 4.012-5.785" stroke="var(--gl-illustration-stroke-color-default, #171321ff)" stroke-width="var(--gl-illustration-stroke-width-default, 2)" stroke-linecap="square"/><circle cx="45.5" cy="85.5" r="15.5" fill="var(--gl-illustration-status-fill-color-neutral, #aea5d6ff)"/><g stroke="var(--gl-illustration-stroke-color-default, #171321ff)" stroke-width="var(--gl-illustration-stroke-width-default, 2)" stroke-linecap="square"><path d="m40.211 88.058-2.797-2.797 2.797-2.797M43.926 89.775l2.42-9.03M50.292 88.058l2.796-2.797-2.796-2.797"/></g></svg>