<svg width="144" height="144" fill="none" viewBox="0 0 144 144" xmlns="http://www.w3.org/2000/svg"><rect x="6" y="6" width="132" height="132" rx="66" fill="var(--gl-illustration-base-fill-color, #e7e4f2ff)"/><path d="M61 72h66" stroke="var(--gl-illustration-stroke-color-default, #171321ff)" stroke-width="var(--gl-illustration-stroke-width-default, 2)" stroke-linecap="square" stroke-linejoin="round"/><path d="M10 46.08H1V107h42l9-9H10V46.08Z" fill="var(--gl-illustration-accent-fill-color-subtle, #d0c5e2ff)"/><path d="M10 46H1v61h39.486a6 6 0 0 0 4.277-1.793L46 103.95" stroke="var(--gl-illustration-stroke-color-default, #171321ff)" stroke-width="var(--gl-illustration-stroke-width-default, 2)" stroke-linecap="square"/><path d="M10 37h35l12 11v42a8 8 0 0 1-8 8H10V37Z" fill="var(--gl-illustration-fill-color-default, #ffffff)"/><path d="M45 48h12v-.5L45.5 37H45v11Z" fill="var(--gl-illustration-fill-color-default, #ffffff)"/><path d="M45 37H10v61h39a8 8 0 0 0 8-8V55.5M45 37v11h12v-.5L45.5 37H45Z" stroke="var(--gl-illustration-stroke-color-default, #171321ff)" stroke-width="var(--gl-illustration-stroke-width-default, 2)" stroke-linecap="square"/><g stroke-width="var(--gl-illustration-stroke-width-default, 2)" stroke-linecap="square"><path d="M22 58h13" stroke="var(--gl-illustration-stroke-color-default, #171321ff)"/><path d="M39 58h6" stroke="var(--gl-illustration-accent-stroke-color-orange, #ff9d73ff)"/></g><g stroke-width="var(--gl-illustration-stroke-width-default, 2)" stroke-linecap="square"><path d="M22 66h7" stroke="var(--gl-illustration-accent-stroke-color-strong, #aea5d6ff)"/><path d="M33 66h12" stroke="var(--gl-illustration-stroke-color-default, #171321ff)"/></g><g stroke-width="var(--gl-illustration-stroke-width-default, 2)" stroke-linecap="square"><path d="M22 74h2" stroke="var(--gl-illustration-stroke-color-default, #171321ff)"/><path d="M28 74h7" stroke="var(--gl-illustration-accent-stroke-color-orange, #ff9d73ff)"/><path d="M39 74h6" stroke="var(--gl-illustration-accent-stroke-color-strong, #aea5d6ff)"/></g><g stroke="var(--gl-illustration-stroke-color-default, #171321ff)" stroke-width="var(--gl-illustration-stroke-width-default, 2)" stroke-linecap="square"><path d="M22 82h11M37 82h2"/></g><g stroke="var(--gl-illustration-stroke-color-default, #171321ff)" stroke-width="var(--gl-illustration-stroke-width-default, 2)" stroke-linecap="square"><circle cx="129" cy="72" fill="var(--gl-illustration-status-fill-color-danger, #ff9d73ff)" r="14"/><path d="M133.587 67.414 129 72m-4.586 4.587L129 72m0 0-4.586-4.586M129 72l4.587 4.587"/></g><g stroke="var(--gl-illustration-stroke-color-default, #171321ff)" stroke-width="var(--gl-illustration-stroke-width-default, 2)"><circle cx="89" cy="72" fill="var(--gl-illustration-fill-color-default, #ffffff)" stroke-linecap="square" stroke-dasharray="6 6" r="14"/><path d="M96.5 73H89V63"/></g><circle cx="57" cy="72" r="6" fill="var(--gl-illustration-fill-color-default, #ffffff)" stroke="var(--gl-illustration-stroke-color-default, #171321ff)" stroke-width="var(--gl-illustration-stroke-width-default, 2)" stroke-linecap="square"/></svg>