<svg width="144" height="144" fill="none" viewBox="0 0 144 144" xmlns="http://www.w3.org/2000/svg"><rect width="144" height="144" rx="72" fill="var(--gl-illustration-base-fill-color, #e7e4f2ff)"/><path d="M53 44h38l16 14H37l16-14Z" fill="var(--gl-illustration-accent-fill-color-subtle, #d0c5e2ff)"/><path d="M107 59v33a8 8 0 0 1-8 8H37V59h70Z" fill="var(--gl-illustration-fill-color-default, #ffffff)"/><path d="M107 60v-2L91 44H53L37 58v42h62a8 8 0 0 0 8-8V66" stroke="var(--gl-illustration-stroke-color-default, #171321ff)" stroke-width="var(--gl-illustration-stroke-width-default, 2)"/><g stroke="var(--gl-illustration-stroke-color-default, #171321ff)" stroke-width="var(--gl-illustration-stroke-width-default, 2)" stroke-linecap="square"><path d="m65.414 84.225-5-5 5-5M70.128 87.22l4.286-15.995M79.414 84.225l5-5-5-5"/></g><path stroke="var(--gl-illustration-stroke-color-default, #171321ff)" stroke-width="var(--gl-illustration-stroke-width-default, 2)" d="M37 59h70M72 44v16"/></svg>