<svg width="144" height="144" fill="none" viewBox="0 0 144 144" xmlns="http://www.w3.org/2000/svg"><rect width="144" height="144" rx="72" fill="var(--gl-illustration-base-fill-color, #e7e4f2ff)"/><path d="M47 51v-8h60v8H47ZM51 43v-8h52v8H51Z" fill="var(--gl-illustration-accent-fill-color-subtle, #d0c5e2ff)" stroke="var(--gl-illustration-stroke-color-default, #171321ff)" stroke-width="var(--gl-illustration-stroke-width-default, 2)"/><path d="M42 51h70v40a6 6 0 0 1-6 6H42V51Z" fill="var(--gl-illustration-fill-color-default, #ffffff)"/><path d="M112 52v-1H42v46h62a8 8 0 0 0 8-8V60" stroke="var(--gl-illustration-stroke-color-default, #171321ff)" stroke-width="var(--gl-illustration-stroke-width-default, 2)"/><g stroke="var(--gl-illustration-stroke-color-default, #171321ff)" stroke-width="var(--gl-illustration-stroke-width-default, 2)" stroke-linecap="square"><path d="m70.414 79.225-5-5 5-5M75.128 82.22l4.286-15.995M84.414 79.225l5-5-5-5"/></g><circle cx="44" cy="95" r="23" fill="var(--gl-illustration-fill-color-default, #ffffff)"/><path d="M23.155 85.28a23 23 0 1 0 4.024-5.966" stroke="var(--gl-illustration-stroke-color-default, #171321ff)" stroke-width="var(--gl-illustration-stroke-width-default, 2)" stroke-linecap="square"/><circle cx="44" cy="95" r="15" fill="var(--gl-illustration-status-fill-color-success, #6fdac9ff)"/><path d="m39 95.407 3.137 3.149L49.667 91" stroke="var(--gl-illustration-stroke-color-default, #171321ff)" stroke-width="var(--gl-illustration-stroke-width-default, 2)" stroke-linecap="square"/></svg>