<svg width="144" height="144" fill="none" viewBox="0 0 144 144" xmlns="http://www.w3.org/2000/svg"><rect width="144" height="144" rx="72" fill="var(--gl-illustration-base-fill-color, #e7e4f2ff)"/><g stroke="var(--gl-illustration-stroke-color-default, #171321ff)" stroke-width="var(--gl-illustration-stroke-width-default, 2)" stroke-linecap="square"><path fill-rule="evenodd" clip-rule="evenodd" d="M71 78c0 3.802-.849 7.406-2.367 10.633L91 111v12h-5a8 8 0 0 1-8-8h-7v-4l-2-2h-6l-3-3-2 2-5.78-5.78c-1.989.509-4.073.78-6.22.78-13.807 0-25-11.193-25-25s11.193-25 25-25 25 11.193 25 25Zm-40.894 8L54 62.106A17.556 17.556 0 0 0 45.635 60C35.895 60 28 67.896 28 77.635c0 3.027.763 5.876 2.106 8.365Z" fill="var(--gl-illustration-fill-color-default, #ffffff)"/><path d="m65 92 25.5 25.5"/><path d="M60 67 35 92l4 4 25-25-4-4Z" fill="var(--gl-illustration-accent-fill-color-orange, #ff9d73ff)"/></g><path d="M96 70.5c12.426 0 22.5-10.074 22.5-22.5S108.426 25.5 96 25.5 73.5 35.574 73.5 48v22.5H96Z" fill="var(--gl-illustration-fill-color-default, #ffffff)" stroke="var(--gl-illustration-stroke-color-default, #171321ff)" stroke-width="var(--gl-illustration-stroke-width-default, 2)" stroke-linecap="square"/><circle cx="96" cy="48" r="15" fill="var(--gl-illustration-status-fill-color-success, #6fdac9ff)"/><path d="M102 48h-6m-6 0h6m0 0v-6m0 6v6" stroke="var(--gl-illustration-stroke-color-default, #171321ff)" stroke-width="var(--gl-illustration-stroke-width-default, 2)" stroke-linecap="square"/><circle cx="73" cy="72" r="6" fill="var(--gl-illustration-fill-color-default, #ffffff)" stroke="var(--gl-illustration-stroke-color-default, #171321ff)" stroke-width="var(--gl-illustration-stroke-width-default, 2)" stroke-linecap="square"/><path d="M125 48a29.007 29.007 0 0 0-8.494-20.506A29.005 29.005 0 0 0 96 19" stroke="var(--gl-illustration-stroke-color-default, #171321ff)" stroke-width="var(--gl-illustration-stroke-width-default, 2)" stroke-linecap="square"/></svg>