<svg width="144" height="144" fill="none" viewBox="0 0 144 144" xmlns="http://www.w3.org/2000/svg"><rect width="144" height="144" rx="72" fill="var(--gl-illustration-base-fill-color, #e7e4f2ff)"/><path d="M119.843 73.657 94 99.5v-57a4.243 4.243 0 0 1 6 0l19.843 19.843a8 8 0 0 1 0 11.314Z" fill="var(--gl-illustration-fill-color-default, #ffffff)"/><rect x="53" y="33" width="43" height="70" rx="8" fill="var(--gl-illustration-fill-color-default, #ffffff)"/><path d="M96.25 41.314a8.599 8.599 0 0 1 4.886 2.444l18.329 18.328a8.64 8.64 0 0 1 0 12.22L103 90.77M53 43v-2a8 8 0 0 1 8-8h27a8 8 0 0 1 8 8v54a8 8 0 0 1-8 8H61a8 8 0 0 1-8-8V51" stroke="var(--gl-illustration-stroke-color-default, #171321ff)" stroke-width="var(--gl-illustration-stroke-width-default, 2)" stroke-linecap="square"/><path d="M51.5 70C39.074 70 29 80.074 29 92.5S39.074 115 51.5 115 74 104.926 74 92.5V70H51.5Z" fill="var(--gl-illustration-fill-color-default, #ffffff)" stroke="var(--gl-illustration-stroke-color-default, #171321ff)" stroke-width="var(--gl-illustration-stroke-width-default, 2)" stroke-linecap="square"/><circle cx="51.5" cy="92.5" r="15" fill="var(--gl-illustration-status-fill-color-success, #6fdac9ff)"/><path d="M45.5 92.5h6m6 0h-6m0 0v6m0-6v-6M22 92.5a29.497 29.497 0 0 0 18.21 27.254A29.491 29.491 0 0 0 51.5 122" stroke="var(--gl-illustration-stroke-color-default, #171321ff)" stroke-width="var(--gl-illustration-stroke-width-default, 2)" stroke-linecap="square"/><circle cx="74" cy="70" r="6" fill="var(--gl-illustration-fill-color-default, #ffffff)" stroke="var(--gl-illustration-stroke-color-default, #171321ff)" stroke-width="var(--gl-illustration-stroke-width-default, 2)" stroke-linecap="square"/></svg>