<svg width="144" height="144" fill="none" viewBox="0 0 144 144" xmlns="http://www.w3.org/2000/svg"><rect width="144" height="144" rx="72" fill="var(--gl-illustration-base-fill-color, #e7e4f2ff)"/><path d="M89.222 51.528v.07c.424-.046.855-.07 1.292-.07 6.42 0 11.625 5.205 11.625 11.625 0 6.276-4.974 11.39-11.195 11.617v.008H55.64c-7.61 0-13.778-6.169-13.778-13.778 0-7.61 6.169-13.778 13.778-13.778 1.063 0 2.099.12 3.093.349 1.749-6.644 7.797-11.543 14.99-11.543 8.56 0 15.5 6.94 15.5 15.5ZM36 88h70v10a8 8 0 0 1-8 8H36V88Z" fill="var(--gl-illustration-fill-color-default, #ffffff)"/><path d="M63 88H36v18h62a8 8 0 0 0 8-8V88H71V75h20c6.22-.227 11-5.724 11-12 0-6.42-5.066-11.472-11.486-11.472-.437 0-.868.024-1.292.07v-.07C89.222 42.968 82.56 36 74 36c-7.193 0-13.52 4.927-15.268 11.57a13.82 13.82 0 0 0-3.093-.348C48.029 47.222 42 53.391 42 61c0 6.726 4.68 12.326 11.054 13.536 0 0 1.946.464 9.946.464M74 97h22" stroke="var(--gl-illustration-stroke-color-default, #171321ff)" stroke-width="var(--gl-illustration-stroke-width-default, 2)" stroke-linecap="square"/><circle cx="58" cy="97" r="3" fill="var(--gl-illustration-accent-fill-color-strong, #aea5d6ff)" stroke="var(--gl-illustration-stroke-color-default, #171321ff)" stroke-width="var(--gl-illustration-stroke-width-default, 2)" stroke-linecap="square"/><circle cx="47" cy="97" r="3" fill="var(--gl-illustration-accent-fill-color-orange, #ff9d73ff)" stroke="var(--gl-illustration-stroke-color-default, #171321ff)" stroke-width="var(--gl-illustration-stroke-width-default, 2)" stroke-linecap="square"/><g stroke="var(--gl-illustration-stroke-color-default, #171321ff)" stroke-width="var(--gl-illustration-stroke-width-default, 2)" stroke-linecap="square"><circle cx="94" cy="45" r="14" fill="var(--gl-illustration-status-fill-color-success, #6fdac9ff)"/><path d="M88 45h6m6 0h-6m0 0v-6m0 6v6"/></g><path d="M116 45a21.992 21.992 0 0 0-6.444-15.556A22.005 22.005 0 0 0 94 23" stroke="var(--gl-illustration-stroke-color-default, #171321ff)" stroke-width="var(--gl-illustration-stroke-width-default, 2)" stroke-linecap="square"/></svg>