<svg width="144" height="144" fill="none" viewBox="0 0 144 144" xmlns="http://www.w3.org/2000/svg"><rect width="144" height="144" rx="72" fill="var(--gl-illustration-base-fill-color, #e7e4f2ff)"/><g stroke="var(--gl-illustration-stroke-color-default, #171321ff)" stroke-width="var(--gl-illustration-stroke-width-default, 2)" stroke-linecap="square"><path fill-rule="evenodd" clip-rule="evenodd" d="M87 62c0 3.802-.849 7.406-2.367 10.633L107 95v12h-5a8 8 0 0 1-8-8h-7v-4l-2-2h-6l-3-3-2 2-5.78-5.78c-1.989.51-4.073.78-6.22.78-13.807 0-25-11.193-25-25s11.193-25 25-25 25 11.193 25 25Zm-40.894 8L70 46.106A17.556 17.556 0 0 0 61.635 44C51.895 44 44 51.896 44 61.635c0 3.027.763 5.876 2.106 8.365Z" fill="var(--gl-illustration-fill-color-default, #ffffff)"/><path d="m81 76 25.5 25.5"/><path d="M76 51 51 76l4 4 25-25-4-4Z" fill="var(--gl-illustration-accent-fill-color-orange, #ff9d73ff)"/></g></svg>