<svg width="288" height="288" fill="none" xmlns="http://www.w3.org/2000/svg"><path d="M287 163v18c0 22.41-15.768 42.89-41.676 57.823C219.443 253.741 183.621 263 144 263c-39.621 0-75.443-9.259-101.324-24.177C16.768 223.89 1 203.41 1 181v-18h286Z" fill="var(--gl-illustration-isometric-base-side-fill-color, #aea5d6ff)" stroke="var(--gl-illustration-isometric-stroke-color-default, #171321ff)" stroke-width="var(--gl-illustration-stroke-width-default, 2)"/><ellipse cx="144" cy="161" rx="144" ry="83" fill="var(--gl-illustration-isometric-base-top-fill-color, #e7e4f2ff)"/><path d="M53.632 225.442C21.51 210.314 1 187.289 1 161.5 1 115.937 65.023 79 144 79s143 36.937 143 82.5S222.977 244 144 244c-29.826 0-57.52-5.268-80.438-14.28" stroke="var(--gl-illustration-isometric-stroke-color-default, #171321ff)" stroke-width="var(--gl-illustration-stroke-width-default, 2)"/><path d="m219.014 125.313-19 11 17.5-44.5c-3.833 2.666-12.3 8-15.5 8-1.736 0-4.887-.189-7.855-1.835-3.869-2.144-7.428-6.763-7.145-16.665.244-8.53 2.37-16.049 5.61-22.5 8.156-16.239 23.371-25.711 33.39-27.5 4.29-.766 7.547-.077 10.002 1.521 5.555 3.617 6.998 11.89 6.998 18.479 0 7.6-4.666 22.166-7 28.5l-17 45.5Z" fill="var(--gl-illustration-isometric-glyph-front-fill-color, #ffffff)"/><g fill="var(--gl-illustration-isometric-glyph-top-fill-color, #c5f4ecff)"><path d="M210.014 81.313c-2 0-6.999-1.4-6.999-11 0-.675.037-1.342.11-2 0 0 5.891.5 10.891.5s10.962-.5 10.962-.5c-3.73 8.82-11.486 13-14.964 13ZM235.189 32.347c.285.151.561.314.827.487l-.827-.487c-2.346-1.243-5.35-1.717-9.175-1.034-10.019 1.789-25.234 11.261-33.39 27.5l-16.998-10c8.156-16.239 23.37-25.71 33.39-27.5 4.004-.715 7.108-.162 9.5 1.214l16.673 9.82Z"/></g><path d="M217.514 91.813c-3.833 2.666-12.3 8-15.5 8-1.737 0-4.887-.189-7.856-1.835l-11.142 28.335 16.998 10 17.5-44.5Z" fill="var(--gl-illustration-isometric-glyph-side-fill-color, #6fdac9ff)"/><g fill="var(--gl-illustration-isometric-glyph-shadow-fill-color, #10b1b1ff)"><path d="M221.014 48.813c5.5 0 6.278 5.5 6 10.5-.189 3.41-.938 6.406-2.036 9 0 0-5.962.5-10.962.5s-10.891-.5-10.891-.5c1.22-11.039 12.227-19.5 17.889-19.5ZM177.516 88.169c-4.003-2.057-7.792-6.651-7.5-16.856.243-8.53 2.37-16.049 5.61-22.5l16.998 10c-3.24 6.451-5.366 13.97-5.61 22.5-.268 9.412 2.934 14.051 6.573 16.329l.572.337a12.458 12.458 0 0 1-.572-.337l-16.071-9.473Z"/></g><path d="m200.014 136.313 19-11 1.238-3.313m-20.238 14.313 17.5-44.5c-3.833 2.666-12.3 8-15.5 8-1.736 0-4.887-.189-7.855-1.835m5.855 38.335-16.998-10 11.143-28.335m0 0c-3.869-2.144-7.427-6.763-7.145-16.665.244-8.53 2.37-16.049 5.61-22.5 8.156-16.239 23.371-25.711 33.39-27.5 4.29-.766 7.547-.077 10.002 1.521m-41.857 65.144-16.643-9.81c-4.003-2.056-7.792-6.65-7.5-16.855.244-8.53 2.37-16.049 5.61-22.5 8.156-16.239 23.37-25.71 33.39-27.5 4.004-.715 7.108-.162 9.5 1.214l17.5 10.307m0 0c5.555 3.617 6.998 11.89 6.998 18.479 0 7.6-4.666 22.166-7 28.5L223.241 114m3.773-54.687c.278-5-.5-10.5-6-10.5-5.662 0-16.669 8.461-17.889 19.5a18.12 18.12 0 0 0-.11 2c0 9.6 5 11 7 11 3.477 0 11.233-4.18 14.963-13 1.098-2.594 1.847-5.59 2.036-9Z" stroke="var(--gl-illustration-isometric-stroke-color-default, #171321ff)" stroke-width="var(--gl-illustration-stroke-width-default, 2)"/><path d="M200 153.5v-70l-60 35V189l60-35.5Z" fill="var(--gl-illustration-isometric-object-front-fill-color, #ffc2a8ff)"/><path d="M140 118.5V189l-51-30.5v-69l51 29Z" fill="var(--gl-illustration-isometric-object-side-fill-color, #ff7b42ff)"/><path d="m200 83.5-60 35-51-29L149.5 55 200 83.5Z" fill="var(--gl-illustration-isometric-object-shadow-fill-color, #e24329ff)"/><path d="M200 83.5v70L140 189m60-105.5-60 35m60-35L149.5 55 89 89.5m51 99.5v-70.5m0 70.5-51-30.5v-69m51 29-51-29" stroke="var(--gl-illustration-isometric-stroke-color-default, #171321ff)" stroke-width="var(--gl-illustration-stroke-width-default, 2)"/><path d="M196 202c0 7.18-5.82 13-13 13s-13-5.82-13-13 5.82-13 13-13 13 5.82 13 13Z" fill="var(--gl-illustration-isometric-accent-front-fill-color, #74717aff)"/><path d="M170 202c0 7.18 5.82 13 13 13 3.749 0 7.127-1.587 9.5-4.126-4 .626-11.5.376-15-4.874s-2.5-11.5 0-15.783c-4.431 2.072-7.5 6.569-7.5 11.783Z" fill="var(--gl-illustration-isometric-accent-side-fill-color, #2b2838ff)"/><path d="M196 202c0 7.18-5.82 13-13 13s-13-5.82-13-13 5.82-13 13-13 13 5.82 13 13Z" stroke="var(--gl-illustration-isometric-stroke-color-default, #171321ff)" stroke-width="var(--gl-illustration-stroke-width-default, 2)"/><path d="M273 165c0 7.18-5.82 13-13 13s-13-5.82-13-13 5.82-13 13-13 13 5.82 13 13Z" fill="var(--gl-illustration-isometric-accent-front-fill-color, #74717aff)"/><path d="M247 165c0 7.18 5.82 13 13 13 3.749 0 7.127-1.587 9.5-4.126-4 .626-11.5.376-15-4.874s-2.5-11.5 0-15.783c-4.431 2.072-7.5 6.569-7.5 11.783Z" fill="var(--gl-illustration-isometric-accent-side-fill-color, #2b2838ff)"/><path d="M273 165c0 7.18-5.82 13-13 13s-13-5.82-13-13 5.82-13 13-13 13 5.82 13 13Z" stroke="var(--gl-illustration-isometric-stroke-color-default, #171321ff)" stroke-width="var(--gl-illustration-stroke-width-default, 2)"/><path d="M156 190c0 7.18-5.82 13-13 13s-13-5.82-13-13 5.82-13 13-13 13 5.82 13 13Z" fill="var(--gl-illustration-isometric-accent-front-fill-color, #74717aff)"/><path d="M130 190c0 7.18 5.82 13 13 13 3.749 0 7.127-1.587 9.5-4.126-4 .626-11.5.376-15-4.874s-2.5-11.5 0-15.783c-4.431 2.072-7.5 6.569-7.5 11.783Z" fill="var(--gl-illustration-isometric-accent-side-fill-color, #2b2838ff)"/><path d="M156 190c0 7.18-5.82 13-13 13s-13-5.82-13-13 5.82-13 13-13 13 5.82 13 13Z" stroke="var(--gl-illustration-isometric-stroke-color-default, #171321ff)" stroke-width="var(--gl-illustration-stroke-width-default, 2)"/><path d="M147 48c-7.18 0-13 5.82-13 13 0 1.058.126 2.086.365 3.07-.449-.046-.904-.07-1.365-.07-7.18 0-13 5.82-13 13 0 2.24.567 4.348 1.564 6.188-.558.257-1.095.553-1.608.884A13.1 13.1 0 0 0 120 83c0-7.18-5.82-13-13-13s-13 5.82-13 13c0 3.441 1.337 6.57 3.52 8.895a12.925 12.925 0 0 0-.848 1.968l22.184 12.614c.234-.271.456-.552.666-.841A12.948 12.948 0 0 0 127 108c.563 0 1.117-.036 1.661-.105a12.969 12.969 0 0 0-.657 3.784L140 118.5l13.901-8.109a12.923 12.923 0 0 0-2.08-5.598 12.918 12.918 0 0 0 4.445-1.69 13.042 13.042 0 0 0 3.089 4.106l21.354-12.456a12.975 12.975 0 0 0-.21-.839c.493.057.993.086 1.501.086l11.32-6.603A12.946 12.946 0 0 0 195 81c0-7.18-5.82-13-13-13-2.24 0-4.348.567-6.188 1.564C173.754 65.1 169.239 62 164 62c-1.435 0-2.815.232-4.105.661.069-.544.105-1.098.105-1.661 0-7.18-5.82-13-13-13Z" fill="var(--gl-illustration-isometric-accent-front-fill-color, #74717aff)"/><path fill-rule="evenodd" clip-rule="evenodd" d="M141.5 49.218C139 53.5 138 59.75 141.5 65c1.483 2.224 3.683 3.549 6.031 4.292A12.995 12.995 0 0 1 156 64.153l2.5-.935C156 67.5 155 73.75 158.5 79c1.168 1.752 2.781 2.947 4.561 3.738.55-5.715 4.801-10.35 10.329-11.476a13.007 13.007 0 0 1 3.11-2.044 16.647 16.647 0 0 0-.902 1.788s-.537 1.252-.861 2.518c-.93 3.637-.687 7.801 1.763 11.476 2.001 3.002 5.311 4.368 8.525 4.871C188.5 88 192 86.5 195 83.5c0 0 0 1-1 3.5-13.286 7.664-27.746 14.309-40 23.5-.65.241-1.806-5.875-2.5-5.74l-1.362-1.88-.985-.88c-.011-.071-.019-.143-.029-.215L146 100l-2.239-.895A12.942 12.942 0 0 1 137 101c-.631 0-1.251-.046-1.858-.133-1.482 2.824-2.305 6.374-1.713 9.904 5.539 1.843 13.414 2.386 19.571-3.771 0 0 1 1.5 1 3.5l-14 8c-14.368-8.382-29.447-16.922-43.5-25l.853-1.28c.077-.155.157-.309.24-.46l-.093.114A12.954 12.954 0 0 1 94 83c0-5.214 3.07-9.71 7.5-11.782C99 75.5 98 81.75 101.5 87l-.853 1.037a13.019 13.019 0 0 1 2.853-1.82c-1.182 2.025-1.426 3.222-.713 6.003C103.5 95 117.1 102.5 120.5 103.5L122 99l-2-8-3.619-3.5.028-.04-3.341-1.46c2.516-1.589 11.306-3.702 8.432-2.933A12.939 12.939 0 0 1 120 77c0-5.214 3.07-9.71 7.5-11.782-2.326 3.985-3.352 9.673-.663 14.675a13.05 13.05 0 0 1 4.663-3.675C129 80.5 128 86.75 131.5 92s11 5.5 15 4.874c-.378.405-.783.785-1.21 1.139 1.102.941 2.375 1.622 3.712 2.101L149 100c0-6.284 4.459-11.525 10.386-12.735a13.035 13.035 0 0 1 1.984-1.45L160 83.874 156 81l-4.262-1.672C151.26 77.974 147 79 147 79l-1.5-2-.152-3c.023-.099.049-.196.075-.294L144 69.874 140 66l-5.652-2a13.008 13.008 0 0 1-.348-3c0-5.214 3.07-9.71 7.5-11.782Zm21.748 36.244-1.064.327c-2.261 4.255-3.031 10.19.316 15.211.266.399.556.769.865 1.112C168 100 174.5 96.5 180 93l-1-2-3.5-4-6.023-2.5a14.31 14.31 0 0 1-.121-.467l-6.108 1.429Z" fill="var(--gl-illustration-isometric-accent-side-fill-color, #2b2838ff)"/><path d="M182 94c-.508 0-1.008-.03-1.501-.086m-20.604-31.253c1.29-.429 2.67-.661 4.105-.661 5.239 0 9.754 3.1 11.812 7.564m-15.917-6.902c.069-.545.105-1.1.105-1.662 0-7.18-5.82-13-13-13s-13 5.82-13 13c0 1.058.126 2.086.365 3.07m25.53-1.408c-4.662 1.55-8.151 5.668-8.79 10.676m-16.74-9.267c-.449-.047-.904-.071-1.365-.071-7.18 0-13 5.82-13 13 0 2.24.567 4.348 1.564 6.188m12.801-19.117c5.509.575 9.994 4.59 11.27 9.858m0 0a12.982 12.982 0 0 0 5.47-.59m-5.47.59a13.004 13.004 0 0 1 .275 4.605m5.195-5.196A13.202 13.202 0 0 0 151 75c0 1.463.242 2.87.688 4.183m24.124-9.619A12.998 12.998 0 0 0 169 81c0 1.244.175 2.447.501 3.586m6.311-15.022A12.944 12.944 0 0 1 182 68c7.18 0 13 5.82 13 13 0 2.325-.611 4.508-1.68 6.397l-11.331 6.61m-12.488-9.421A13.145 13.145 0 0 0 168 84.5a12.94 12.94 0 0 0-6.766 1.897m8.267-1.811c5.266.605 9.575 4.357 10.998 9.328m-28.811-14.73a13.096 13.096 0 0 0-5.02.125m5.02-.126a13.017 13.017 0 0 1 9.546 7.214m19.265 7.517c.079.276.149.556.21.839l-21.354 12.456m1.879-20.812A12.991 12.991 0 0 0 155 97.5c0 2.006.454 3.906 1.266 5.603m0 0a12.918 12.918 0 0 1-4.445 1.69m4.445-1.69a13.042 13.042 0 0 0 3.089 4.106M145.91 78.534A12.953 12.953 0 0 0 137 75a13 13 0 0 0-11.585 7.096m20.495-3.562c.264.248.516.506.758.775m0 0A12.949 12.949 0 0 1 150 88c0 4.8-2.602 8.994-6.473 11.245m8.294 5.548a13.01 13.01 0 0 0-8.294-5.548m8.294 5.548a12.923 12.923 0 0 1 2.08 5.598m-10.374-11.146A12.912 12.912 0 0 1 137 101c-.865 0-1.709-.084-2.527-.245m0 0C128.503 99.579 124 94.315 124 88c0-.519.03-1.03.09-1.534a12.907 12.907 0 0 1 1.325-4.37m9.058 18.659a13.037 13.037 0 0 0-5.812 7.14m-3.246-25.8a12.92 12.92 0 0 0-3.851 1.093m0 0c-.558.257-1.095.553-1.608.884m0 0A13.1 13.1 0 0 0 120 83c0-7.18-5.82-13-13-13s-13 5.82-13 13c0 3.441 1.337 6.57 3.52 8.895m22.436-7.823a13.066 13.066 0 0 0-3.478 3.293m-18.958 4.53A12.998 12.998 0 0 1 109 85c2.783 0 5.363.875 7.478 2.365m-18.958 4.53a12.925 12.925 0 0 0-.848 1.968l22.184 12.614m-2.378-19.112A12.985 12.985 0 0 1 122 98a12.94 12.94 0 0 1-2.478 7.636m0 0A12.948 12.948 0 0 0 127 108c.563 0 1.117-.036 1.661-.105m-9.139-2.259c-.21.289-.432.57-.666.841m9.805 1.418a12.969 12.969 0 0 0-.657 3.784m31.351-4.47-5.454 3.182m0 0L140 118.5l-11.996-6.821m0 0-9.148-5.202" stroke="var(--gl-illustration-isometric-stroke-color-default, #171321ff)" stroke-width="var(--gl-illustration-stroke-width-default, 2)"/><path d="M102 192.788 86 202v-16.2l-14 8.08L51 206v-25.643L81 114l17.662-10L67 175v5.357L86 169.5V150l16-9v51.788Z" fill="var(--gl-illustration-isometric-glyph-front-fill-color, #ffffff)"/><g fill="var(--gl-illustration-isometric-glyph-top-fill-color, #c5f4ecff)"><path d="m102 141-16 9-6.212-3.675 6.518-14.617L98.662 104 81 114l-17-10 17.662-10 17 10-12.356 27.708L102 141ZM67 180.357 86 169.5 70.568 167 67 175v5.357Z"/></g><path d="M51 180.357 81 114l-17-10-30 66.357 17 10Z" fill="var(--gl-illustration-isometric-glyph-side-fill-color, #6fdac9ff)"/><g fill="var(--gl-illustration-isometric-glyph-shadow-fill-color, #10b1b1ff)"><path d="M86 150v19.5L70.568 167l2.332-5.231 6.888-15.444L86 150ZM51 206v-25.643l-17-10V196l17 10ZM86 202v-16.2l-14 8.08L86 202Z"/></g><path d="m86 202 16-9.212V141m-16 61v-16.2l-14 8.08M86 202l-14-8.12M102 141l-16 9m16-9-15.694-9.292M86 150v19.5m0-19.5-6.212-3.675M86 169.5l-19 10.857V175l3.568-8 2.332-5.231M86 169.5l-13.1-7.731M98.662 104 81 114m17.662-10-12.356 27.708M98.662 104l-17-10L64 104m17 10-30 66.357M81 114l-17-10m-13 76.357V206m0-25.643-17-10M51 206l21-12.12M51 206l-17-10v-25.643M64 104l-30 66.357m38.9-8.588 6.888-15.444m0 0 6.518-14.617" stroke="var(--gl-illustration-isometric-stroke-color-default, #171321ff)" stroke-width="var(--gl-illustration-stroke-width-default, 2)"/></svg>
