<svg xmlns="http://www.w3.org/2000/svg" width="72" height="72" fill="none" viewBox="0 0 72 72"><rect width="72" height="72" fill="#E7E4F2" rx="36"/><circle cx="36" cy="36" r="24.306" fill="#fff"/><path fill="#AEA5D6" d="M51.553 54.678A24.207 24.207 0 0 1 36 60.305a24.207 24.207 0 0 1-15.553-5.627l5.571-5.571a8 8 0 0 1 5.657-2.343h8.65a8 8 0 0 1 5.657 2.343l5.571 5.571Z"/><circle cx="36" cy="33.222" r="8.333" fill="#D0C5E2" stroke="#171321" stroke-linecap="square" stroke-width="2"/><path stroke="#171321" stroke-linecap="square" stroke-width="2" d="m20.286 54.571 4.51-4.51a11.429 11.429 0 0 1 8.08-3.347h6.247c3.031 0 5.938 1.204 8.081 3.348l4.989 4.985a25 25 0 1 1 8.55-15.476"/><circle cx="51" cy="53" r="10" fill="#6FDAC9" stroke="#171321" stroke-linecap="square" stroke-width="2"/><path fill="#171321" fill-rule="evenodd" d="M52 49v-1h-2v4h-4v2h4v4h2v-4h4v-2h-4v-3Z" clip-rule="evenodd"/></svg>