<svg width="72" height="72" fill="none" viewBox="0 0 72 72" xmlns="http://www.w3.org/2000/svg"><rect width="72" height="72" rx="36" fill="var(--gl-illustration-base-fill-color, #e7e4f2ff)"/><path d="M24 25v-6h28v6H24Z" fill="var(--gl-illustration-accent-fill-color-subtle, #d0c5e2ff)" stroke="var(--gl-illustration-stroke-color-default, #171321ff)" stroke-width="var(--gl-illustration-stroke-width-default, 2)"/><path d="M20 25h36v20a6 6 0 0 1-6 6H20V25Z" fill="var(--gl-illustration-fill-color-default, #ffffff)"/><path d="M56 25.948V25H20v26h28a8 8 0 0 0 8-8V29.087" stroke="var(--gl-illustration-stroke-color-default, #171321ff)" stroke-width="var(--gl-illustration-stroke-width-default, 2)"/><g stroke="var(--gl-illustration-stroke-color-default, #171321ff)" stroke-width="var(--gl-illustration-stroke-width-default, 2)" stroke-linecap="square"><path d="m33.586 41.114-3.313-3.184 3.313-3.184M36.71 43.022l2.84-10.187M42.864 41.114l3.314-3.184-3.314-3.184"/></g><g stroke="var(--gl-illustration-stroke-color-default, #171321ff)" stroke-width="var(--gl-illustration-stroke-width-default, 2)" stroke-linecap="square"><circle cx="22" cy="49" r="10" fill="var(--gl-illustration-status-fill-color-success, #6fdac9ff)"/><path d="m18 49.575 2.403 2.553L26.17 46"/></g></svg>