<svg width="72" height="72" fill="none" viewBox="0 0 72 72" xmlns="http://www.w3.org/2000/svg"><rect width="72" height="72" rx="36" fill="#E7E4F2"/><path fill="#D0C5E2" d="M24 19h28v6H24z"/><path stroke="#171321" stroke-width="2" d="M24 19h28v28H24z"/><path d="M20 25h36v20a6 6 0 01-6 6H20V25z" fill="#fff"/><path d="M56 25.948V25H20v26h28a8 8 0 008-8V29.087" stroke="#171321" stroke-width="2"/><path fill-rule="evenodd" clip-rule="evenodd" d="M40.787 32.121l-.268.964-2.84 10.186-.27.963-1.936-.498.269-.963 2.84-10.187.269-.963 1.936.498zM35 41.086l-.72-.693-2.564-2.463 2.563-2.463.721-.693-1.386-1.442-.72.693-3.314 3.184-.75.72.75.722 3.313 3.184.721.693L35 41.086zm7.171-.693l-.72.693 1.385 1.442.72-.693 3.314-3.184.75-.721-.75-.721-3.313-3.184-.721-.693-1.386 1.442.721.693 2.563 2.463-2.563 2.463z" fill="#171321"/><circle cx="22" cy="49" r="10" fill="#6FDAC9" stroke="#171321" stroke-width="2" stroke-linecap="square"/><path d="M18 49.575l2.403 2.553L26.17 46" stroke="#171321" stroke-width="2" stroke-linecap="square"/></svg>