<svg xmlns="http://www.w3.org/2000/svg" width="72" height="72" fill="none" viewBox="0 0 72 72"><rect width="72" height="72" fill="#E7E4F2" rx="36"/><path fill="#fff" d="M49.889 29.361v.058a9.375 9.375 0 1 1 1.389 18.686v.006H22.806c-6.137 0-11.112-4.974-11.112-11.11 0-6.137 4.975-11.112 11.112-11.112.857 0 1.692.097 2.494.281 1.41-5.358 6.288-9.309 12.089-9.309 6.903 0 12.5 5.597 12.5 12.5Z"/><path stroke="#171321" stroke-linecap="square" stroke-width="2" d="M28.361 48.111h22.917v-.006a9.375 9.375 0 1 0-1.39-18.686v-.058c0-6.903-5.596-12.5-12.5-12.5-5.8 0-10.678 3.951-12.088 9.31a11.147 11.147 0 0 0-2.494-.282c-6.137 0-11.112 4.975-11.112 11.111 0 5.425 3.888 9.941 9.029 10.916"/><circle cx="36" cy="47.417" r="9.722" fill="#6FDAC9" stroke="#171321" stroke-linecap="square" stroke-width="2"/><path stroke="#171321" stroke-linecap="square" stroke-width="2" d="m32.667 47.671 1.96 1.968 4.706-4.723"/></svg>