<svg xmlns="http://www.w3.org/2000/svg" width="72" height="72" fill="none" viewBox="0 0 72 72"><rect width="72" height="72" rx="36" fill="#E7E4F2"/><path d="M49.889 29.361v.057a9.375 9.375 0 1 1 1.389 18.686v.007H22.805c-6.136 0-11.11-4.974-11.11-11.111 0-6.137 4.974-11.111 11.11-11.111.858 0 1.693.097 2.495.281 1.41-5.358 6.288-9.309 12.089-9.309 6.903 0 12.5 5.597 12.5 12.5Z" fill="#fff"/><path d="M29 48h22c5.017-.183 9-3.938 9-9 0-5.178-3.892-9.5-9.07-9.5-.352 0-.7.02-1.041.057V29.5c0-6.904-5.485-12.5-12.389-12.5-5.8 0-10.79 3.951-12.2 9.309a11.147 11.147 0 0 0-2.494-.281C16.669 26.028 12 30.863 12 37c0 5.425 3.86 10.025 9 11" stroke="#171321" stroke-width="2" stroke-linecap="square"/><mask id="a" maskUnits="userSpaceOnUse" x="25" y="35" width="23" height="22" fill="#000"><path fill="#fff" d="M25 35h23v22H25z"/><path d="m44.7 44.73-2.46-6.32s-.12-.234-.24-.293c-.121-.058-.24-.117-.36-.117s-.241 0-.36.117c-.12.059-.18.176-.24.351l-1.68 4.975h-6.72l-1.68-4.975s-.12-.234-.24-.35c-.12-.06-.24-.118-.36-.118s-.3 0-.36.117c-.12.059-.18.176-.24.293l-2.46 6.262c-.719 1.931-.12 4.038 1.5 5.209l3.72 2.75 1.86 1.346 1.14.82s.66.175.9 0l1.14-.82 1.86-1.345 3.78-2.751c1.62-1.23 2.219-3.278 1.5-5.15Z"/></mask><path d="m44.7 44.73-2.46-6.32s-.12-.234-.24-.293c-.121-.058-.24-.117-.36-.117s-.241 0-.36.117c-.12.059-.18.176-.24.351l-1.68 4.975h-6.72l-1.68-4.975s-.12-.234-.24-.35c-.12-.06-.24-.118-.36-.118s-.3 0-.36.117c-.12.059-.18.176-.24.293l-2.46 6.262c-.719 1.931-.12 4.038 1.5 5.209l3.72 2.75 1.86 1.346 1.14.82s.66.175.9 0l1.14-.82 1.86-1.345 3.78-2.751c1.62-1.23 2.219-3.278 1.5-5.15Z" fill="#FF9D73"/><path d="m44.7 44.73 1.866-.717-.003-.008-1.864.725Zm-2.46-6.32 1.863-.726-.037-.095-.046-.09-1.78.91Zm-.24-.293.877-1.797-.004-.002-.873 1.8Zm-.72 0 .877 1.797.29-.141.23-.226-1.398-1.43Zm-.24.351-1.895-.64 1.895.64Zm-1.68 4.975v2h1.435l.46-1.36-1.896-.64Zm-6.72 0-1.894.64.46 1.36h1.435v-2Zm-1.68-4.975 1.895-.64-.047-.14-.067-.13-1.78.91Zm-.24-.35 1.398-1.431-.232-.227-.292-.142-.873 1.8Zm-.72 0 .878 1.796.596-.29.304-.59L30 38.117Zm-.24.292-1.783-.905-.043.085-.035.088 1.862.732Zm-2.46 6.262-1.86-.731-.007.016-.006.017 1.874.698Zm1.5 5.209 1.19-1.608-.009-.007-.009-.006-1.171 1.62Zm3.72 2.75-1.19 1.608.01.007.008.006 1.172-1.62Zm1.86 1.346-1.172 1.62.005.004 1.167-1.623Zm1.14.82-1.168 1.623.298.215.355.095.514-1.933Zm.9 0-1.167-1.624-.006.004-.006.005 1.18 1.615Zm1.14-.82 1.167 1.625.006-.004-1.173-1.62Zm1.86-1.345 1.172 1.62.005-.004-1.177-1.616Zm3.78-2.751 1.176 1.617.016-.012.016-.012-1.209-1.593Zm3.363-5.876-2.46-6.32-3.728 1.45 2.46 6.32 3.728-1.45ZM42.24 38.41l1.78-.912v-.001l-.002-.003a.11.11 0 0 1-.002-.005l-.006-.01a4.035 4.035 0 0 0-.055-.101 2.832 2.832 0 0 0-.402-.553 2.31 2.31 0 0 0-.675-.505l-1.755 3.594a1.692 1.692 0 0 1-.499-.364 1.162 1.162 0 0 1-.15-.202l-.007-.012c0-.003-.002-.005-.003-.008l-.002-.003-.001-.002v-.001h-.001c0-.001 0-.002 1.78-.912Zm.634-2.092c-.003-.002-.563-.318-1.234-.318v4c-.26 0-.445-.063-.507-.085l-.053-.021.047.022 1.747-3.598ZM41.639 36c-.139 0-1.016-.039-1.758.687l2.797 2.86c-.207.202-.47.344-.746.41-.21.052-.389.043-.293.043v-4Zm-1.238.32c-.92.45-1.19 1.315-1.256 1.508l3.79 1.28c.015-.045-.017.068-.114.22-.121.189-.335.425-.664.586l-1.756-3.594Zm-1.256 1.508-1.68 4.975 3.79 1.28 1.68-4.975-3.79-1.28Zm.214 3.615h-6.718v4h6.718v-4Zm-4.824 1.36-1.68-4.975-3.79 1.28 1.68 4.975 3.79-1.28Zm-3.575-4.335 1.78-.91v-.003a.109.109 0 0 0-.002-.004l-.005-.008a3.565 3.565 0 0 0-.143-.253 3.178 3.178 0 0 0-.472-.603l-2.795 2.86c-.126-.122-.171-.212-.142-.164a.247.247 0 0 1 .006.01l-.003-.005a.17.17 0 0 0-.003-.006v-.002h-.001l1.78-.912Zm.634-2.15C31.59 36.316 31.03 36 30.36 36v4c-.26 0-.446-.063-.508-.085l-.053-.021.048.022 1.746-3.598ZM30.36 36c-.022 0-.314-.008-.626.06-.297.064-1.077.296-1.512 1.14l3.555 1.834a1.79 1.79 0 0 1-1.196.935c-.178.039-.32.031-.221.031v-4Zm-1.239.32c-.818.4-1.142 1.179-1.145 1.185l3.567 1.81c.041-.081.002.007-.072.108a1.616 1.616 0 0 1-.594.491l-1.756-3.594ZM27.9 37.678l-2.46 6.263 3.723 1.462 2.46-6.262-3.723-1.463Zm-2.473 6.296c-1.016 2.728-.185 5.802 2.204 7.528l2.342-3.242c-.85-.615-1.22-1.755-.797-2.89l-3.748-1.396Zm2.186 7.515 3.719 2.75 2.378-3.215-3.719-2.751-2.378 3.216Zm3.736 2.763 1.86 1.346 2.345-3.24-1.86-1.347-2.345 3.24Zm1.864 1.35 1.14.819 2.336-3.248-1.14-.819-2.336 3.247Zm2.307-.805-.513 1.933h.002l.003.001.007.002.017.004a3.652 3.652 0 0 0 .182.042c.107.023.261.051.439.071.167.02.416.038.693.014.23-.02.752-.088 1.25-.452l-2.358-3.23c.378-.276.728-.3.766-.304.085-.007.124 0 .096-.003a.77.77 0 0 1-.087-.015h.004l.005.002h.004l.002.002h.002l-.514 1.933Zm2.068 1.624 1.14-.82-2.334-3.248-1.14.82 2.334 3.248Zm1.146-.823 1.86-1.346-2.346-3.24-1.86 1.346 2.346 3.24Zm1.864-1.35 3.779-2.75-2.354-3.234-3.78 2.75 2.355 3.234Zm3.81-2.774c2.313-1.754 3.206-4.737 2.16-7.46l-3.735 1.434c.393 1.022.086 2.136-.842 2.84l2.418 3.186Z" fill="#171321" mask="url(#a)"/></svg>