<svg width="72" height="72" fill="none" viewBox="0 0 72 72" xmlns="http://www.w3.org/2000/svg"><rect width="72" height="72" rx="36" fill="var(--gl-illustration-base-fill-color, #e7e4f2ff)"/><g stroke="var(--gl-illustration-stroke-color-default, #171321ff)" stroke-width="var(--gl-illustration-stroke-width-default, 2)" stroke-linecap="square"><path d="M36 11.833a24.167 24.167 0 0 1 21.997 14.158"/><path d="m38.5 16-4.167-4.167L38.5 7.667M11.833 36a24.167 24.167 0 0 1 13.47-21.67"/><path d="m16 33.5-4.167 4.167L7.667 33.5M36 60.167A24.167 24.167 0 0 1 14 46"/><path d="m33.5 56 4.167 4.167-4.167 4.166M60.167 36a24.166 24.166 0 0 1-14.151 21.993"/><path d="m56 38.5 4.167-4.167 4.166 4.167"/><path fill-rule="evenodd" clip-rule="evenodd" d="M38.778 21h-5.556l-.376 3.765c-.902.252-1.76.61-2.56 1.06l-2.928-2.396-3.929 3.929 2.397 2.929c-.45.799-.809 1.657-1.061 2.559L21 33.222v5.556l3.765.376c.252.902.61 1.76 1.06 2.56l-2.396 2.928 3.929 3.929 2.929-2.397c.8.45 1.657.809 2.559 1.061L33.222 51h5.556l.376-3.765c.902-.252 1.76-.61 2.56-1.06l2.928 2.396 3.929-3.929-2.397-2.929c.45-.799.809-1.657 1.061-2.559L51 38.778v-5.556l-3.765-.376a11.595 11.595 0 0 0-1.06-2.56l2.396-2.928-3.929-3.929-2.929 2.397c-.8-.45-1.657-.809-2.559-1.061L38.778 21ZM36 43.222a7.222 7.222 0 1 0 0-14.444 7.222 7.222 0 0 0 0 14.444Z" fill="var(--gl-illustration-accent-fill-color-orange, #ff9d73ff)"/></g></svg>