<svg xmlns="http://www.w3.org/2000/svg" width="144" height="144" fill="none" viewBox="0 0 144 144"><rect width="144" height="144" fill="#E7E4F2" rx="72" transform="matrix(-1 0 0 1 144 0)"/><path fill="#fff" d="M45.071 40.929 48 38l46 46-10 10-38.929-38.929c-3.905-3.905-3.905-10.237 0-14.142Z"/><path stroke="#171321" stroke-width="2" d="M45 55c-3.866-3.866-3.866-10.134 0-14l3-3 46 46-10 10-33-33"/><path fill="#D0C5E2" fill-rule="evenodd" d="M84.808 84.808c-5.077 5.076-5.077 13.308 0 18.384 5.076 5.077 13.308 5.077 18.384 0 5.077-5.076 5.077-13.308 0-18.384-5.076-5.077-13.308-5.077-18.384 0Zm4.95 4.95a6 6 0 1 0 8.484 8.485 6 6 0 0 0-8.485-8.486Z" clip-rule="evenodd"/><path fill="#171321" d="m84.808 103.192.707-.707-.707.707Zm0-18.384L84.1 84.1l.708.708Zm18.384 18.384.707.707-.707-.707Zm0-18.384-.707.707.707-.707ZM89.757 98.243l.707-.707-.707.707Zm0-8.486.707.707-.707-.707Zm8.486 0-.707.707.707-.707ZM84.1 103.9c-5.468-5.467-5.468-14.331 0-19.799l1.414 1.415c-4.687 4.686-4.687 12.284 0 16.97l-1.415 1.414Zm19.798 0c-5.467 5.468-14.331 5.468-19.799 0l1.415-1.414c4.686 4.687 12.284 4.687 16.97 0l1.414 1.414Zm0-19.799c5.468 5.468 5.468 14.332 0 19.799l-1.414-1.414c4.687-4.686 4.687-12.284 0-16.97l1.414-1.415Zm-19.799 0c5.468-5.467 14.332-5.467 19.799 0l-1.414 1.415c-4.686-4.687-12.284-4.687-16.97 0L84.1 84.1Zm4.95 14.85a7 7 0 0 1 0-9.9l1.415 1.415a5 5 0 0 0 0 7.07L89.05 98.95Zm9.9 0a7 7 0 0 1-9.9 0l1.415-1.415a5 5 0 0 0 7.07 0l1.415 1.415Zm0-9.9a7 7 0 0 1 0 9.9l-1.415-1.415a5 5 0 0 0 0-7.07l1.415-1.415Zm-9.9 0a7 7 0 0 1 9.9 0l-1.415 1.415a5 5 0 0 0-7.07 0L89.05 89.05Z"/><path fill="#fff" stroke="#171321" stroke-width="2" d="M96 38 50 84l10 10 38.929-38.929c3.905-3.905 3.905-10.237 0-14.142L96 38Z"/><path fill="#D0C5E2" fill-rule="evenodd" d="M59.192 84.808c5.077 5.076 5.077 13.308 0 18.384-5.076 5.077-13.308 5.077-18.384 0-5.077-5.076-5.077-13.308 0-18.384 5.076-5.077 13.308-5.077 18.384 0Zm-4.95 4.95a6 6 0 1 1-8.484 8.485 6 6 0 0 1 8.485-8.486Z" clip-rule="evenodd"/><path fill="#171321" d="m59.192 84.808.708-.708-.708.708Zm-18.384 18.384-.708.707.708-.707Zm0-18.384L40.1 84.1l.708.708Zm13.435 13.435.707.707-.707-.707Zm0-8.486.707-.707-.707.707Zm-8.486 8.486-.707.707.707-.707Zm0-8.486.708.707-.708-.707ZM59.9 103.9c5.467-5.467 5.467-14.331 0-19.799l-1.415 1.415c4.687 4.686 4.687 12.284 0 16.97l1.415 1.414Zm-19.8 0c5.468 5.468 14.332 5.468 19.8 0l-1.415-1.414c-4.686 4.687-12.284 4.687-16.97 0l-1.415 1.414Zm0-19.799c-5.467 5.468-5.467 14.332 0 19.799l1.415-1.414c-4.687-4.686-4.687-12.284 0-16.97L40.1 84.1Zm19.8 0c-5.468-5.467-14.332-5.467-19.8 0l1.415 1.415c4.686-4.687 12.284-4.687 16.97 0L59.9 84.1Zm-4.95 14.85a7 7 0 0 0 0-9.9l-1.415 1.415a5 5 0 0 1 0 7.07l1.415 1.415Zm-9.9 0a7 7 0 0 0 9.9 0l-1.415-1.415a5 5 0 0 1-7.07 0L45.05 98.95Zm0-9.9a7 7 0 0 0 0 9.9l1.415-1.415a5 5 0 0 1 0-7.07L45.05 89.05Zm9.9 0a7 7 0 0 0-9.9 0l1.415 1.415a5 5 0 0 1 7.07 0l1.415-1.415Z"/><circle cx="2" cy="2" r="2" fill="#171321" transform="matrix(1 0 0 -1 70 74)"/></svg>