<svg xmlns="http://www.w3.org/2000/svg" width="144" height="144" fill="none" viewBox="0 0 144 144"><rect width="144" height="144" fill="#E7E4F2" rx="72" transform="matrix(-1 0 0 1 144 0)"/><path stroke="#171321" stroke-linecap="square" stroke-width="2" d="M85 117a26.998 26.998 0 0 0 27-27"/><path fill="#D0C5E2" d="M53 46.08h-9V107h42l9-9H53V46.08Z"/><path stroke="#171321" stroke-linecap="square" stroke-width="2" d="M53 46h-9v61h39.486a6 6 0 0 0 4.277-1.793L89 103.95"/><path fill="#fff" d="M53 37h35l12 11v42a8 8 0 0 1-8 8H53V37Z"/><path fill="#171321" d="M53 37v-1h-1v1h1Zm35 0 .676-.737-.287-.263H88v1ZM53 98h-1v1h1v-1Zm48-42.5v-1h-2v1h2Zm-1-7.5v1l.676-1.737L100 48Zm-12 0h-1v1h1v-1ZM53 38h35v-2H53v2Zm39 59H53v2h39v-2Zm-38 1V37h-2v61h2Zm45-42.5V90h2V55.5h-2ZM87.324 37.737l12 11 1.352-1.474-12-11-1.352 1.474ZM100 47H88v2h12v-2Zm-11 1V37h-2v11h2Zm3 51a9 9 0 0 0 9-9h-2a7 7 0 0 1-7 7v2Z"/><path stroke="#AEA5D6" stroke-linecap="square" stroke-width="2" d="M75 84h10M75 80h16M61 64h8v8h-8zM75 70h8M75 66h16M61 78h8v8h-8z"/><path stroke="#171321" stroke-linecap="square" stroke-width="2" d="M75 56h15M75 52h7"/><path fill="#6FDAC9" stroke="#171321" stroke-linecap="square" stroke-width="2" d="M61 50h8v8h-8z"/></svg>