<svg xmlns="http://www.w3.org/2000/svg" width="72" height="72" fill="none" viewBox="0 0 72 72"><rect width="72" height="72" fill="#E7E4F2" rx="36"/><path stroke="#171321" stroke-linecap="square" stroke-width="2" d="M27.25 21H49.5a7.5 7.5 0 0 1 7.5 7.5v0a7.5 7.5 0 0 1-7.5 7.5h-26a7.5 7.5 0 0 0-7.5 7.5v0a7.5 7.5 0 0 0 7.5 7.5h21.25"/><path stroke="#171321" stroke-linecap="square" stroke-width="2" d="M45.5 23.5 48 21l-2.5-2.5M23.5 53.5 26 51l-2.5-2.5"/><path fill="#fff" stroke="#171321" stroke-linecap="square" stroke-width="2" d="M28 21a6 6 0 1 1-12 0 6 6 0 0 1 12 0ZM42 36a6 6 0 1 1-12 0 6 6 0 0 1 12 0Z"/><path fill="#6FDAC9" stroke="#171321" stroke-linecap="square" stroke-width="2" d="M57 51a6 6 0 1 1-12 0 6 6 0 0 1 12 0Z"/></svg>