<svg width="72" height="72" fill="none" viewBox="0 0 72 72" xmlns="http://www.w3.org/2000/svg"><rect width="72" height="72" rx="36" fill="var(--gl-illustration-base-fill-color, #e7e4f2ff)"/><path d="M26 18h22l9 8H17l9-8Z" fill="var(--gl-illustration-accent-fill-color-subtle, #d0c5e2ff)"/><path d="M57 26v19a8 8 0 0 1-8 8H17V26h40Z" fill="var(--gl-illustration-fill-color-default, #ffffff)"/><path d="m57 26-9-8H38m19 8v1m0-1H38m-21 0 9-8h12m-21 8v27h32a8 8 0 0 0 8-8V30.667M17 26h21m0-8v8" stroke="var(--gl-illustration-stroke-color-default, #171321ff)" stroke-width="var(--gl-illustration-stroke-width-default, 2)"/><g stroke="var(--gl-illustration-stroke-color-default, #171321ff)" stroke-width="var(--gl-illustration-stroke-width-default, 2)" stroke-linecap="square"><path d="m32.586 42.491-3.313-3.184 3.313-3.184M35.71 44.399l2.84-10.187M41.864 42.491l3.314-3.184-3.314-3.184"/></g></svg>
