<svg width="144" height="144" viewBox="0 0 144 144" fill="none" xmlns="http://www.w3.org/2000/svg"><rect width="144" height="144" rx="72" transform="matrix(-1 0 0 1 144 0)" fill="#E7E4F2"/><path d="M48.5 36h35l12 11v60l-5.875-4-5.875 4.5-5.875-4.5L72 107.5l-5.875-4.5-5.875 4.5-5.875-4.5-5.875 4V36Z" fill="#fff"/><path d="m95.5 47-12-11v11h12Z" fill="#fff"/><path d="M83.5 36h-35v71l5.875-4 5.875 4.5 5.875-4.5L72 107.5l5.875-4.5 5.875 4.5 5.875-4.5 5.875 4m-12-71 12 11m-12-11v11h12m0 0v29m-35 5h14m-14-8h23m-23-8h23m-23-8h23" stroke="#171321" stroke-width="2" stroke-linecap="square"/><circle cx="94" cy="100" r="16" fill="#6FDAC9" stroke="#171321" stroke-width="2" stroke-linecap="square"/><path d="m88.667 100.407 3.137 3.149L99.334 96" stroke="#171321" stroke-width="2" stroke-linecap="square"/><path d="M19.877 129.396a1 1 0 0 1-1.754 0l-2.518-4.603a1.001 1.001 0 0 0-.398-.398l-4.603-2.518a1 1 0 0 1 0-1.754l4.604-2.518c.167-.092.305-.23.397-.398l2.518-4.603a1 1 0 0 1 1.754 0l2.518 4.603c.092.168.23.306.398.398l4.603 2.518a1 1 0 0 1 0 1.754l-4.604 2.518c-.167.092-.305.23-.397.398l-2.518 4.603Zm106-94a1 1 0 0 1-1.754 0l-3.225-5.896a1.001 1.001 0 0 0-.398-.398l-5.896-3.225a1 1 0 0 1 0-1.754l5.896-3.225c.168-.092.306-.23.398-.398l3.225-5.896a1 1 0 0 1 1.754 0l3.225 5.896c.092.168.23.306.398.398l5.896 3.225a1 1 0 0 1 0 1.754l-5.896 3.225c-.168.092-.306.23-.398.398l-3.225 5.896Zm-18.438-20.198a.5.5 0 0 1-.878 0l-1.966-3.595a.492.492 0 0 0-.198-.198l-3.595-1.966a.5.5 0 0 1 0-.878l3.595-1.966a.492.492 0 0 0 .198-.198l1.966-3.595a.5.5 0 0 1 .878 0l1.966 3.595a.492.492 0 0 0 .198.198l3.595 1.966a.5.5 0 0 1 0 .878l-3.595 1.966a.492.492 0 0 0-.198.198l-1.966 3.595Z" fill="#fff" stroke="#171321" stroke-width="2"/></svg>