<svg width="144" height="144" viewBox="0 0 144 144" fill="none" xmlns="http://www.w3.org/2000/svg"><circle cx="72" cy="72" r="72" fill="#E7E4F2"/><g clip-path="url(#schedule-md__a)"><circle cx="72" cy="72" r="36" fill="#FF9D73"/><circle cx="72" cy="72" r="28" fill="#fff"/><path d="M83 83 72 72V50" stroke="#000" stroke-width="2"/><circle r="2" transform="matrix(1 0 0 -1 72 44)" fill="#000"/><circle r="2" transform="matrix(1 0 0 -1 100 72)" fill="#000"/><circle r="2" transform="matrix(1 0 0 -1 44 72)" fill="#000"/><circle r="2" transform="matrix(1 0 0 -1 72 100)" fill="#000"/><circle cx="72" cy="72" r="4" fill="#fff" stroke="#171321" stroke-width="2"/><path d="M103.716 57.198a34.998 34.998 0 0 1-40.246 48.747 35.003 35.003 0 0 1-25.918-40.136A35 35 0 0 1 98.54 49.183" stroke="#171321" stroke-width="2" stroke-linecap="square"/><path d="M92 50h7v-7" stroke="#171321" stroke-width="2" stroke-linecap="square"/></g><path d="M88.065 33.194a42 42 0 0 0-55.809 52.387" stroke="#171321" stroke-width="2" stroke-linecap="square"/><defs><clipPath id="schedule-md__a"><path fill="#fff" transform="translate(36 36)" d="M0 0h72v72H0z"/></clipPath></defs></svg>