<svg xmlns="http://www.w3.org/2000/svg" width="72" height="72" fill="none" viewBox="0 0 72 72"><rect width="72" height="72" fill="#E7E4F2" rx="36" transform="matrix(-1 0 0 1 72 0)"/><path fill="#fff" d="M61.575 38.3 46.5 53.375v-33.25a2.475 2.475 0 0 1 3.5 0L61.575 31.7a4.667 4.667 0 0 1 0 6.6Z"/><rect width="25" height="40" x="23" y="15" fill="#fff" rx="4.667"/><path stroke="#171321" stroke-linecap="square" stroke-width="2" d="M48.5 19.433a5.018 5.018 0 0 1 2.85 1.426L62.042 31.55a5.04 5.04 0 0 1 0 7.128l-9.605 9.605M23 33V19.667A4.667 4.667 0 0 1 27.667 15h15.666A4.667 4.667 0 0 1 48 19.667v30.666A4.667 4.667 0 0 1 43.333 55H27.667A4.667 4.667 0 0 1 23 50.333V40"/><circle cx="23" cy="49" r="10" fill="#E7E4F2" stroke="#171321" stroke-linecap="square" stroke-width="2"/><path fill="#AEA5D6" stroke="#171321" stroke-linecap="square" stroke-width="2" d="m17.755 54.96-1.184 1.183-.221.285C18.122 58.027 20.425 59 23 59c2.57 0 4.829-.97 6.6-2.562l-.171-.295-1.184-1.184c-1.072-1.071-2.525-1.459-4.04-1.459h-2.41c-1.515 0-2.968.388-4.04 1.46Z"/><circle cx="23" cy="47" r="3" fill="#AEA5D6" stroke="#171321" stroke-linecap="square" stroke-width="2"/></svg>