<svg xmlns="http://www.w3.org/2000/svg" width="72" height="72" fill="none" viewBox="0 0 72 72"><path fill-rule="evenodd" clip-rule="evenodd" d="M16.01 16.411C5.126 27.422 5.113 45.114 16.008 56.01c10.894 10.894 28.586 10.88 39.597-.001L16.009 16.411Z" fill="url(#a)" fill-opacity=".6"/><path d="M36 55c-10.493 0-19-8.507-19-19s8.507-19 19-19c10.494 0 19 8.507 19 19s-8.506 19-19 19Z" fill="#171321"/><path d="M36 55c-10.493 0-19-8.507-19-19s8.507-19 19-19c10.494 0 19 8.507 19 19s-8.506 19-19 19Z" stroke="#7759C2" stroke-width="2"/><path d="m44.7 34.73-2.46-6.32s-.12-.234-.24-.293c-.121-.059-.24-.117-.36-.117s-.241 0-.36.117c-.12.059-.18.176-.24.351l-1.68 4.975h-6.72l-1.68-4.975s-.12-.234-.24-.35c-.12-.06-.24-.118-.36-.118s-.3 0-.36.117c-.12.059-.18.176-.24.293l-2.46 6.262c-.719 1.931-.12 4.038 1.5 5.209l3.72 2.75 1.86 1.346 1.14.82s.66.175.9 0l1.14-.82 1.86-1.345 3.78-2.751c1.62-1.23 2.219-3.278 1.5-5.15Z" fill="#fff"/><path d="M21.102 6.395a.5.5 0 0 1 0 .877l-2.948 1.613a.5.5 0 0 0-.198.199l-1.613 2.948a.5.5 0 0 1-.877 0l-1.612-2.948a.5.5 0 0 0-.2-.2l-2.947-1.612a.5.5 0 0 1 0-.877l2.948-1.612a.5.5 0 0 0 .199-.199l1.612-2.948a.5.5 0 0 1 .877 0l1.613 2.948a.5.5 0 0 0 .198.199l2.948 1.612ZM9.565 14.353a.5.5 0 0 1 0 .877l-1.332.729a.5.5 0 0 0-.199.199l-.728 1.332a.5.5 0 0 1-.877 0L5.7 16.158a.5.5 0 0 0-.199-.2L4.17 15.23a.5.5 0 0 1 0-.877l1.332-.728a.5.5 0 0 0 .2-.2l.728-1.331a.5.5 0 0 1 .877 0l.728 1.332a.5.5 0 0 0 .2.199l1.331.728Z" fill="#6FDAC9"/><path d="M9.565 56.061a.5.5 0 0 1 0 .878l-1.332.728a.5.5 0 0 0-.198.199l-.729 1.332a.5.5 0 0 1-.877 0L5.7 57.866a.5.5 0 0 0-.198-.199L4.17 56.94a.5.5 0 0 1 0-.878l1.332-.728a.5.5 0 0 0 .198-.199l.729-1.332a.5.5 0 0 1 .877 0l.729 1.332a.5.5 0 0 0 .198.199l1.332.728Z" fill="#D0C5E2"/><path opacity=".7" fill-rule="evenodd" clip-rule="evenodd" d="m34.97.014.168 5.998a30.7 30.7 0 0 1 1.724 0l.169-5.998a36.675 36.675 0 0 0-2.062 0Zm5.136.218-.677 5.961c.57.065 1.136.146 1.697.242L42.142.522a35.955 35.955 0 0 0-2.036-.29Zm5.049.942-1.522 5.804a29.73 29.73 0 0 1 1.642.482l1.854-5.707a35.723 35.723 0 0 0-1.974-.579Zm4.862 1.657-2.338 5.526c.527.222 1.046.46 1.557.712l2.651-5.383a35.821 35.821 0 0 0-1.87-.855Zm4.576 2.336-3.104 5.135c.49.296.97.605 1.441.928l3.392-4.95a36.12 36.12 0 0 0-1.73-1.113Zm4.196 2.963-3.8 4.643c.442.362.874.737 1.295 1.123l4.058-4.419A36.204 36.204 0 0 0 58.79 8.13Zm3.734 3.528-4.42 4.058c.387.421.762.853 1.124 1.296l4.643-3.8a36.26 36.26 0 0 0-1.347-1.554Zm3.197 4.02-4.95 3.392c.323.47.632.951.928 1.44l5.136-3.103a36.199 36.199 0 0 0-1.114-1.729Zm2.594 4.435-5.383 2.651c.252.511.49 1.03.712 1.557l5.526-2.338a35.752 35.752 0 0 0-.855-1.87Zm1.933 4.759-5.707 1.853c.176.54.337 1.088.482 1.642l5.804-1.522a35.758 35.758 0 0 0-.579-1.973Zm1.231 4.986-5.913 1.017c.096.56.177 1.125.242 1.696l5.961-.677a35.917 35.917 0 0 0-.29-2.036Zm.508 5.111a36.41 36.41 0 0 1 .002 1.97l-5.998-.154a31.008 31.008 0 0 0-.002-1.647l5.998-.169Zm-.179 4.778-5.968-.617a29.945 29.945 0 0 1-.201 1.55l5.928.928c.096-.616.177-1.236.241-1.861Zm-.785 4.622-5.837-1.39a29.694 29.694 0 0 1-.401 1.509l5.756 1.694c.176-.598.337-1.203.482-1.813Zm-1.382 4.479-5.605-2.142a29.61 29.61 0 0 1-.595 1.444l5.484 2.432c.253-.57.492-1.148.716-1.734Zm-1.957 4.26-5.277-2.855c-.248.458-.508.91-.78 1.355l5.121 3.126c.326-.533.638-1.075.936-1.626Zm-2.495 3.969-4.861-3.517c-.306.423-.623.838-.95 1.244l4.672 3.764c.392-.487.772-.984 1.14-1.491ZM62.2 60.689l-4.366-4.115a30.413 30.413 0 0 1-1.108 1.116l4.146 4.337a36.128 36.128 0 0 0 1.328-1.338Zm-3.457 3.218-3.793-4.649c-.408.333-.824.655-1.25.966l3.545 4.842c.51-.374 1.01-.76 1.498-1.159Zm-3.853 2.745-3.153-5.105c-.447.276-.902.54-1.364.794l2.88 5.263c.554-.303 1.1-.62 1.637-.952Zm-4.18 2.216-2.455-5.476c-.478.215-.963.417-1.455.607l2.161 5.597c.59-.228 1.174-.47 1.748-.728Zm-4.437 1.645-1.709-5.752c-.502.15-1.01.286-1.522.41l1.403 5.833a35.84 35.84 0 0 0 1.828-.491Zm-4.614 1.045-.936-5.927c-.517.082-1.039.15-1.565.205l.623 5.968a35.97 35.97 0 0 0 1.878-.246Zm-4.712.43-.155-5.998a30.641 30.641 0 0 1-1.654-.002l-.169 5.998a36.398 36.398 0 0 0 1.978.002Zm-5.053-.22.677-5.961a30.02 30.02 0 0 1-1.696-.242l-1.017 5.913a35.93 35.93 0 0 0 2.036.29Zm-5.049-.942 1.522-5.804a29.739 29.739 0 0 1-1.642-.482l-1.854 5.707c.65.211 1.309.404 1.974.579Zm-4.862-1.657 2.338-5.526a29.75 29.75 0 0 1-1.557-.712l-2.651 5.383a35.79 35.79 0 0 0 1.87.855Zm-4.576-2.335 3.104-5.136c-.49-.296-.97-.605-1.441-.928l-3.392 4.95c.566.387 1.142.758 1.73 1.114Z" fill="#6FDAC9"/><defs><linearGradient id="a" x1="99.327" y1="94.434" x2="3.655" y2="16.087" gradientUnits="userSpaceOnUse"><stop stop-color="#7759BF" stop-opacity="0"/><stop offset=".5" stop-color="#7759BF" stop-opacity="0"/><stop offset="1" stop-color="#7759BF"/></linearGradient></defs></svg>