<svg xmlns="http://www.w3.org/2000/svg" width="72" height="72" fill="none" viewBox="0 0 72 72"><rect width="72" height="72" fill="#E7E4F2" rx="36"/><rect width="36" height="37" x="18" y="17" fill="#fff" rx="6"/><path stroke="#171321" stroke-width="2" d="M54 44V23a6 6 0 0 0-6-6H24a6 6 0 0 0-6 6v25a6 6 0 0 0 6 6h24a6 6 0 0 0 6-6"/><rect width="26" height="13" x="23" y="22" fill="#D0C5E2" stroke="#171321" stroke-width="2" rx="3"/><path stroke="#171321" stroke-width="2" d="M48 14a2 2 0 0 0-2-2H26a2 2 0 0 0-2 2"/><circle cx="28.972" cy="45.528" r="3.583" fill="#FF9D73" stroke="#171321" stroke-width="2"/><circle cx="43.028" cy="45.528" r="3.583" fill="#FF9D73" stroke="#171321" stroke-width="2"/><path stroke="#171321" stroke-width="2" d="M36 12v5"/><path fill="#171321" fill-rule="evenodd" d="M15.688 65.727a36 36 0 0 1-1.638-1.19l11.243-11.244 1.414 1.414zM57.95 64.536q-.801.618-1.638 1.19L45.293 54.708l1.414-1.414z" clip-rule="evenodd"/><path stroke="#171321" stroke-width="2" d="M21 59h30"/></svg>