<svg width="72" height="72" fill="none" viewBox="0 0 72 72" xmlns="http://www.w3.org/2000/svg"><rect width="72" height="72" rx="36" fill="var(--gl-illustration-base-fill-color, #e7e4f2ff)"/><rect x="18" y="17" width="36" height="37" rx="6" fill="var(--gl-illustration-fill-color-default, #ffffff)"/><path d="M54 44V23a6 6 0 0 0-6-6H24a6 6 0 0 0-6 6v25a6 6 0 0 0 6 6h24a6 6 0 0 0 6-6" stroke="var(--gl-illustration-stroke-color-default, #171321ff)" stroke-width="var(--gl-illustration-stroke-width-default, 2)"/><path d="M49 32v-7a3 3 0 0 0-3-3H26a3 3 0 0 0-3 3v7a3 3 0 0 0 3 3h20a3 3 0 0 0 3-3Z" fill="var(--gl-illustration-accent-fill-color-subtle, #d0c5e2ff)" stroke="var(--gl-illustration-stroke-color-default, #171321ff)" stroke-width="var(--gl-illustration-stroke-width-default, 2)"/><path d="M48 14a2 2 0 0 0-2-2H26a2 2 0 0 0-2 2" stroke="var(--gl-illustration-stroke-color-default, #171321ff)" stroke-width="var(--gl-illustration-stroke-width-default, 2)"/><circle cx="28.5" cy="45.5" r="3.5" fill="var(--gl-illustration-accent-fill-color-orange, #ff9d73ff)" stroke="var(--gl-illustration-stroke-color-default, #171321ff)" stroke-width="var(--gl-illustration-stroke-width-default, 2)"/><circle cx="43.5" cy="45.5" r="3.5" fill="var(--gl-illustration-accent-fill-color-orange, #ff9d73ff)" stroke="var(--gl-illustration-stroke-color-default, #171321ff)" stroke-width="var(--gl-illustration-stroke-width-default, 2)"/><path d="M36 12v5M26 54 14.858 65.141M46 54l11.141 11.141M21 59h30" stroke="var(--gl-illustration-stroke-color-default, #171321ff)" stroke-width="var(--gl-illustration-stroke-width-default, 2)"/></svg>