<svg xmlns="http://www.w3.org/2000/svg" width="72" height="72" fill="none" viewBox="0 0 72 72"><rect width="72" height="72" fill="#E7E4F2" rx="36"/><path fill="#fff" d="M24.994 17.004h20.101l6.892 6.31v20.68a8 8 0 0 1-8 8H24.994v-34.99Z"/><path fill="#fff" d="m51.987 23.313-6.892-6.31v6.31h6.892Z"/><path fill="#171321" d="M24.994 51.994h-1v1h1v-1Zm0-34.99v-1h-1v1h1Zm20.101 0 .675-.738-.286-.262h-.389v1Zm6.892 6.31h1l-.325-.738-.675.737Zm-6.892 0h-1v1h1v-1Zm-4.594-5.31h1v-2h-1v2Zm4.588-2h-1v2h1v-2Zm.898 34.99H24.994v2h20.993v-2Zm-19.993 1v-34.99h-2v34.99h2ZM44.42 17.74l6.892 6.31 1.35-1.475-6.892-6.31-1.35 1.475Zm7.567 4.572h-6.892v2h6.892v-2Zm-5.892 1v-6.31h-2v6.31h2Zm4.892 0v22.68h2v-22.68h-2Zm-25.993-5.31h15.507v-2H24.994v2Zm20.101-2h-.006v2h.006v-2Zm.892 36.99a7 7 0 0 0 7-7h-2a5 5 0 0 1-5 5v2Z"/><circle cx="24" cy="44" r="10" fill="#D0C5E2" stroke="#171321" stroke-linecap="square" stroke-width="2"/><path fill="#171321" fill-rule="evenodd" d="m25.948 40.094-.258.966-1.667 6.22-.259.966-1.932-.518.26-.966 1.666-6.22.259-.966 1.931.518Zm-4.232 5.744-.707-.707-1.22-1.22 1.22-1.22.707-.706-1.414-1.414-.707.707-1.927 1.926-.707.707.707.707 1.927 1.927.707.707 1.414-1.414Zm5.091-.707-.707.707 1.415 1.414.707-.707 1.926-1.927.707-.707-.707-.707-1.926-1.926-.707-.707-1.415 1.414.707.707 1.22 1.22-1.22 1.219Z" clip-rule="evenodd"/></svg>