<svg xmlns="http://www.w3.org/2000/svg" width="72" height="72" fill="none" viewBox="0 0 72 72"><rect width="72" height="72" rx="36" fill="#E7E4F2"/><path d="M20 19.6a3.6 3.6 0 0 1 3.6-3.6H52v32H22.8L20 50V19.6Z" fill="#AEA5D6"/><path d="M52 48H20v1a6 6 0 0 0 6 6h26v-7Z" fill="#fff"/><path d="M20 48h32v7H26a6 6 0 0 1-6-6V22a6 6 0 0 1 6-6h26v26" stroke="#171321" stroke-width="2" stroke-linecap="square"/><path d="M40 52v6.5l3.5-1.5 3.5 1.5V52h-7Z" fill="#FF9D73" stroke="#171321" stroke-width="2" stroke-linecap="square"/></svg>