<svg width="3000" height="725" fill="none" xmlns="http://www.w3.org/2000/svg"><path fill="#fff" d="M0 0h3000v725H0z"/><rect x="1216.74" y="258.447" width="562.419" height="207.494" rx="103.747" fill="#CEB3EF"/><rect x="613.372" y="506.894" width="562.419" height="207.494" rx="103.747" fill="#6FDAC9"/><rect x="10" y="258.447" width="562.419" height="207.494" rx="103.747" fill="#A989F5"/><rect x="2423.49" y="258.447" width="562.419" height="207.494" rx="103.747" fill="#2F2A6B"/><rect x="1820.61" y="10.5" width="561.419" height="206.494" rx="103.247" fill="#fff" stroke="#171321"/><rect x="613.372" y="258.447" width="562.419" height="207.494" rx="103.747" fill="#7759C2"/><rect x="2427.58" y="506.894" width="562.419" height="207.494" rx="103.747" fill="#232150"/><rect x="2423.49" y="10" width="562.419" height="207.494" rx="103.747" fill="#171321"/><rect x="1216.74" y="10" width="562.419" height="207.494" rx="103.747" fill="#E24329"/><rect x="1820.11" y="258.447" width="562.419" height="207.494" rx="103.747" fill="#5943B6"/><rect x="1212.65" y="506.894" width="562.419" height="207.494" rx="103.747" fill="#10B1B1"/><rect x="10" y="10" width="562.419" height="207.494" rx="103.747" fill="#FCA326"/><path d="M205.806 162.667l34.778-98.893h25.819l34.778 98.893h-22.3l-15.73-48.517c-3.784-12.478-7.633-25.022-12.345-42.08h5.508a1158.01 1158.01 0 01-12.61 42.08l-16.195 48.517h-21.703zm21.902-21.77v-16.128h51.571v16.128h-51.571zm102.544 22.965c-14.004 0-24.159-6.969-24.159-20.907 0-15.863 12.743-20.31 27.411-21.704 12.81-1.261 17.257-1.792 17.257-6.371v-.399c0-5.309-4.314-8.96-11.549-8.96-7.433 0-12.279 3.783-12.743 9.226h-18.186c.929-14.403 12.345-23.628 31.46-23.628 19.115 0 30.066 9.093 30.066 24.026v47.522h-18.783v-9.823h-.265c-3.717 6.77-9.757 11.018-20.509 11.018zm5.243-13.407c9.558 0 15.465-5.775 15.465-13.407v-7.102c-2.257 1.261-7.898 2.257-14.27 3.252-6.703.996-12.146 3.584-12.146 9.226 0 5.044 4.314 8.031 10.951 8.031z" fill="#171321"/><rect x="1820.11" y="508.259" width="562.419" height="207.494" rx="103.747" fill="#FDF1DD"/><path d="M2015.92 660.926l34.78-98.893h25.82l34.78 98.893h-22.31l-15.73-48.518c-3.78-12.477-7.63-25.022-12.34-42.079h5.51a1165.688 1165.688 0 01-12.61 42.079l-16.2 48.518h-21.7zm21.9-21.77v-16.128h51.57v16.128h-51.57zm102.55 22.964c-14.01 0-24.16-6.969-24.16-20.907 0-15.862 12.74-20.309 27.41-21.703 12.81-1.261 17.26-1.792 17.26-6.372v-.398c0-5.31-4.32-8.96-11.55-8.96-7.44 0-12.28 3.783-12.75 9.226h-18.18c.93-14.403 12.34-23.629 31.46-23.629 19.11 0 30.06 9.093 30.06 24.027v47.522h-18.78v-9.823h-.26c-3.72 6.77-9.76 11.017-20.51 11.017zm5.24-13.407c9.56 0 15.46-5.774 15.46-13.407v-7.101c-2.25 1.261-7.89 2.256-14.27 3.252-6.7.995-12.14 3.584-12.14 9.226 0 5.044 4.31 8.03 10.95 8.03z" fill="#171321"/><rect x="10" y="506.896" width="562.419" height="207.494" rx="103.747" fill="#C5F4EC"/><path d="M205.806 659.562l34.778-98.893h25.819l34.778 98.893h-22.3l-15.73-48.517c-3.784-12.478-7.633-25.022-12.345-42.079h5.508a1158.21 1158.21 0 01-12.61 42.079l-16.195 48.517h-21.703zm21.902-21.769v-16.129h51.571v16.129h-51.571zm102.544 22.964c-14.004 0-24.159-6.969-24.159-20.907 0-15.863 12.743-20.309 27.411-21.703 12.81-1.261 17.257-1.792 17.257-6.372v-.398c0-5.31-4.314-8.96-11.549-8.96-7.433 0-12.279 3.783-12.743 9.225h-18.186c.929-14.402 12.345-23.628 31.46-23.628 19.115 0 30.066 9.093 30.066 24.027v47.521h-18.783v-9.822h-.265c-3.717 6.769-9.757 11.017-20.509 11.017zm5.243-13.407c9.558 0 15.465-5.774 15.465-13.407v-7.102c-2.257 1.261-7.898 2.257-14.27 3.253-6.703.995-12.146 3.584-12.146 9.225 0 5.044 4.314 8.031 10.951 8.031zM1412.55 411.114l34.78-98.893h25.82l34.77 98.893h-22.3l-15.73-48.517c-3.78-12.478-7.63-25.022-12.34-42.08h5.51c-4.78 17.058-8.63 29.602-12.61 42.08l-16.2 48.517h-21.7zm21.9-21.77v-16.128h51.57v16.128h-51.57zm102.54 22.965c-14 0-24.15-6.969-24.15-20.907 0-15.863 12.74-20.31 27.41-21.703 12.81-1.262 17.25-1.792 17.25-6.372v-.398c0-5.31-4.31-8.96-11.55-8.96-7.43 0-12.27 3.783-12.74 9.225h-18.18c.93-14.402 12.34-23.628 31.46-23.628 19.11 0 30.06 9.093 30.06 24.026v47.522h-18.78v-9.823h-.27c-3.71 6.77-9.75 11.018-20.51 11.018zm5.25-13.407c9.56 0 15.46-5.774 15.46-13.407v-7.102c-2.25 1.261-7.9 2.257-14.27 3.252-6.7.996-12.14 3.584-12.14 9.226 0 5.044 4.31 8.031 10.95 8.031zM809.177 659.562l34.779-98.894h25.818l34.779 98.894h-22.301l-15.73-48.518c-3.783-12.478-7.632-25.022-12.345-42.079h5.509a1158.014 1158.014 0 01-12.611 42.079l-16.194 48.518h-21.704zm21.903-21.77v-16.129h51.57v16.129h-51.57zm102.544 22.964c-14.005 0-24.16-6.969-24.16-20.907 0-15.863 12.744-20.309 27.412-21.703 12.81-1.261 17.256-1.792 17.256-6.372v-.398c0-5.31-4.314-8.96-11.548-8.96-7.434 0-12.279 3.783-12.744 9.225h-18.185c.929-14.402 12.345-23.628 31.46-23.628 19.115 0 30.066 9.093 30.066 24.027v47.522h-18.783v-9.823h-.266c-3.716 6.769-9.756 11.017-20.508 11.017zm5.243-13.407c9.557 0 15.464-5.774 15.464-13.407v-7.102c-2.256 1.262-7.898 2.257-14.269 3.253-6.704.995-12.146 3.584-12.146 9.225 0 5.044 4.314 8.031 10.951 8.031zM205.806 411.114l34.778-98.893h25.819l34.778 98.893h-22.3l-15.73-48.517c-3.784-12.478-7.633-25.022-12.345-42.08h5.508a1157.719 1157.719 0 01-12.61 42.08l-16.195 48.517h-21.703zm21.902-21.77v-16.128h51.571v16.128h-51.571zm102.544 22.965c-14.004 0-24.159-6.969-24.159-20.907 0-15.863 12.743-20.31 27.411-21.703 12.81-1.262 17.257-1.792 17.257-6.372v-.398c0-5.31-4.314-8.96-11.549-8.96-7.433 0-12.279 3.783-12.743 9.225h-18.186c.929-14.402 12.345-23.628 31.46-23.628 19.115 0 30.066 9.093 30.066 24.026v47.522h-18.783v-9.823h-.265c-3.717 6.77-9.757 11.018-20.509 11.018zm5.243-13.407c9.558 0 15.465-5.774 15.465-13.407v-7.102c-2.257 1.261-7.898 2.257-14.27 3.252-6.703.996-12.146 3.584-12.146 9.226 0 5.044 4.314 8.031 10.951 8.031z" fill="#171321"/><path d="M2619.29 411.114l34.78-98.893h25.82l34.78 98.893h-22.3l-15.73-48.517c-3.79-12.478-7.64-25.022-12.35-42.08h5.51c-4.78 17.058-8.63 29.602-12.61 42.08L2641 411.114h-21.71zm21.9-21.77v-16.128h51.57v16.128h-51.57zm102.55 22.965c-14.01 0-24.16-6.969-24.16-20.907 0-15.863 12.74-20.31 27.41-21.703 12.81-1.262 17.26-1.792 17.26-6.372v-.398c0-5.31-4.32-8.96-11.55-8.96-7.44 0-12.28 3.783-12.75 9.225h-18.18c.93-14.402 12.34-23.628 31.46-23.628 19.11 0 30.07 9.093 30.07 24.026v47.522h-18.79v-9.823h-.26c-3.72 6.77-9.76 11.018-20.51 11.018zm5.24-13.407c9.56 0 15.47-5.774 15.47-13.407v-7.102c-2.26 1.261-7.9 2.257-14.27 3.252-6.71.996-12.15 3.584-12.15 9.226 0 5.044 4.31 8.031 10.95 8.031z" fill="#fff"/><path d="M2015.92 162.667l34.78-98.893h25.82l34.78 98.893h-22.31l-15.73-48.517c-3.78-12.478-7.63-25.022-12.34-42.08h5.51a1166.098 1166.098 0 01-12.61 42.08l-16.2 48.517h-21.7zm21.9-21.77v-16.128h51.57v16.128h-51.57zm102.55 22.965c-14.01 0-24.16-6.969-24.16-20.907 0-15.863 12.74-20.31 27.41-21.704 12.81-1.261 17.26-1.792 17.26-6.371v-.399c0-5.309-4.32-8.96-11.55-8.96-7.44 0-12.28 3.783-12.75 9.226h-18.18c.93-14.403 12.34-23.628 31.46-23.628 19.11 0 30.06 9.093 30.06 24.026v47.522h-18.78v-9.823h-.26c-3.72 6.77-9.76 11.018-20.51 11.018zm5.24-13.407c9.56 0 15.46-5.775 15.46-13.407v-7.102c-2.25 1.261-7.89 2.257-14.27 3.252-6.7.996-12.14 3.584-12.14 9.226 0 5.044 4.31 8.031 10.95 8.031z" fill="#171321"/><path d="M809.177 411.114l34.779-98.893h25.818l34.779 98.893h-22.301l-15.73-48.517c-3.783-12.478-7.632-25.022-12.345-42.08h5.509a1157.523 1157.523 0 01-12.611 42.08l-16.194 48.517h-21.704zm21.903-21.77v-16.128h51.57v16.128h-51.57zm102.544 22.965c-14.005 0-24.16-6.969-24.16-20.907 0-15.863 12.744-20.31 27.412-21.703 12.81-1.262 17.256-1.792 17.256-6.372v-.398c0-5.31-4.314-8.96-11.548-8.96-7.434 0-12.279 3.783-12.744 9.225h-18.185c.929-14.402 12.345-23.628 31.46-23.628 19.115 0 30.066 9.093 30.066 24.026v47.522h-18.783v-9.823h-.266c-3.716 6.77-9.756 11.018-20.508 11.018zm5.243-13.407c9.557 0 15.464-5.774 15.464-13.407v-7.102c-2.256 1.261-7.898 2.257-14.269 3.252-6.704.996-12.146 3.584-12.146 9.226 0 5.044 4.314 8.031 10.951 8.031zM2623.39 659.562l34.78-98.894h25.81l34.78 98.894h-22.3l-15.73-48.518c-3.78-12.478-7.63-25.022-12.34-42.079h5.51c-4.78 17.057-8.63 29.601-12.62 42.079l-16.19 48.518h-21.7zm21.9-21.77v-16.129h51.57v16.129h-51.57zm102.54 22.964c-14 0-24.16-6.969-24.16-20.907 0-15.863 12.75-20.309 27.42-21.703 12.8-1.261 17.25-1.792 17.25-6.372v-.398c0-5.31-4.31-8.96-11.55-8.96-7.43 0-12.28 3.783-12.74 9.225h-18.19c.93-14.402 12.35-23.628 31.46-23.628 19.12 0 30.07 9.093 30.07 24.027v47.522h-18.78v-9.823h-.27c-3.71 6.769-9.75 11.017-20.51 11.017zm5.25-13.407c9.55 0 15.46-5.774 15.46-13.407v-7.102c-2.26 1.262-7.9 2.257-14.27 3.253-6.7.995-12.14 3.584-12.14 9.225 0 5.044 4.31 8.031 10.95 8.031zM2619.29 162.667l34.78-98.893h25.82l34.78 98.893h-22.3l-15.73-48.517c-3.79-12.478-7.64-25.022-12.35-42.08h5.51a1166.098 1166.098 0 01-12.61 42.08L2641 162.667h-21.71zm21.9-21.77v-16.128h51.57v16.128h-51.57zm102.55 22.965c-14.01 0-24.16-6.969-24.16-20.907 0-15.863 12.74-20.31 27.41-21.704 12.81-1.261 17.26-1.792 17.26-6.371v-.399c0-5.309-4.32-8.96-11.55-8.96-7.44 0-12.28 3.783-12.75 9.226h-18.18c.93-14.403 12.34-23.628 31.46-23.628 19.11 0 30.07 9.093 30.07 24.026v47.522h-18.79v-9.823h-.26c-3.72 6.77-9.76 11.018-20.51 11.018zm5.24-13.407c9.56 0 15.47-5.775 15.47-13.407v-7.102c-2.26 1.261-7.9 2.257-14.27 3.252-6.71.996-12.15 3.584-12.15 9.226 0 5.044 4.31 8.031 10.95 8.031z" fill="#fff"/><rect x="613.372" y="10" width="562.419" height="207.494" rx="103.747" fill="#FC6D26"/><path d="M809.177 162.667l34.779-98.893h25.818l34.779 98.893h-22.301l-15.73-48.517c-3.783-12.478-7.632-25.022-12.345-42.08h5.509a1157.814 1157.814 0 01-12.611 42.08l-16.194 48.517h-21.704zm21.903-21.77v-16.128h51.57v16.128h-51.57zm102.544 22.965c-14.005 0-24.16-6.969-24.16-20.907 0-15.863 12.744-20.31 27.412-21.704 12.81-1.261 17.256-1.792 17.256-6.371v-.399c0-5.309-4.314-8.96-11.548-8.96-7.434 0-12.279 3.783-12.744 9.226h-18.185c.929-14.403 12.345-23.628 31.46-23.628 19.115 0 30.066 9.093 30.066 24.026v47.522h-18.783v-9.823h-.266c-3.716 6.77-9.756 11.018-20.508 11.018zm5.243-13.407c9.557 0 15.464-5.775 15.464-13.407v-7.102c-2.256 1.261-7.898 2.257-14.269 3.252-6.704.996-12.146 3.584-12.146 9.226 0 5.044 4.314 8.031 10.951 8.031z" fill="#171321"/><path d="M1408.45 164.032l34.78-98.893h25.82l34.78 98.893h-22.3l-15.73-48.517c-3.79-12.478-7.63-25.022-12.35-42.08h5.51a1166.125 1166.125 0 01-12.61 42.08l-16.19 48.517h-21.71zm21.91-21.77v-16.128h51.57v16.128h-51.57zm102.54 22.965c-14 0-24.16-6.969-24.16-20.907 0-15.863 12.74-20.31 27.41-21.703 12.81-1.262 17.26-1.793 17.26-6.372v-.398c0-5.31-4.32-8.96-11.55-8.96-7.43 0-12.28 3.783-12.74 9.225h-18.19c.93-14.402 12.35-23.628 31.46-23.628 19.12 0 30.07 9.093 30.07 24.026v47.522h-18.79v-9.823h-.26c-3.72 6.77-9.76 11.018-20.51 11.018zm5.24-13.407c9.56 0 15.47-5.774 15.47-13.407v-7.102c-2.26 1.261-7.9 2.257-14.27 3.252-6.71.996-12.15 3.584-12.15 9.226 0 5.044 4.32 8.031 10.95 8.031zM2015.92 412.479l34.78-98.894h25.82l34.78 98.894h-22.31l-15.73-48.518c-3.78-12.478-7.63-25.022-12.34-42.079h5.51a1166.301 1166.301 0 01-12.61 42.079l-16.2 48.518h-21.7zm21.9-21.77V374.58h51.57v16.129h-51.57zm102.55 22.964c-14.01 0-24.16-6.969-24.16-20.907 0-15.863 12.74-20.309 27.41-21.703 12.81-1.261 17.26-1.792 17.26-6.372v-.398c0-5.31-4.32-8.96-11.55-8.96-7.44 0-12.28 3.783-12.75 9.225h-18.18c.93-14.402 12.34-23.628 31.46-23.628 19.11 0 30.06 9.093 30.06 24.027v47.522h-18.78v-9.823h-.26c-3.72 6.769-9.76 11.017-20.51 11.017zm5.24-13.407c9.56 0 15.46-5.774 15.46-13.407v-7.102c-2.25 1.262-7.89 2.257-14.27 3.253-6.7.995-12.14 3.584-12.14 9.225 0 5.044 4.31 8.031 10.95 8.031z" fill="#FFFEFE"/><path d="M1408.45 660.927l34.78-98.894h25.82l34.78 98.894h-22.3l-15.73-48.518c-3.79-12.477-7.63-25.022-12.35-42.079h5.51a1165.688 1165.688 0 01-12.61 42.079l-16.19 48.518h-21.71zm21.91-21.77v-16.128h51.57v16.128h-51.57zm102.54 22.964c-14 0-24.16-6.969-24.16-20.907 0-15.862 12.74-20.309 27.41-21.703 12.81-1.261 17.26-1.792 17.26-6.372v-.398c0-5.31-4.32-8.96-11.55-8.96-7.43 0-12.28 3.783-12.74 9.226h-18.19c.93-14.403 12.35-23.629 31.46-23.629 19.12 0 30.07 9.093 30.07 24.027v47.522h-18.79v-9.823h-.26c-3.72 6.77-9.76 11.017-20.51 11.017zm5.24-13.407c9.56 0 15.47-5.774 15.47-13.407v-7.101c-2.26 1.261-7.9 2.256-14.27 3.252-6.71.995-12.15 3.584-12.15 9.226 0 5.044 4.32 8.03 10.95 8.03z" fill="#171321"/></svg>