<svg width="3000" height="800" fill="none" xmlns="http://www.w3.org/2000/svg"><path fill="#fff" d="M0 0h3000v800H0z"/><rect x="1520.5" y="10.5" width="1469" height="779" rx="49.5" stroke="#A2A1A6"/><rect x="10.5" y="10.5" width="1469" height="779" rx="49.5" stroke="#A2A1A6"/><path d="m2202.03 340.215-.82-2.137-81.12-211.664c-1.62-4.147-4.54-7.64-8.33-10.053-3.79-2.425-8.22-3.569-12.72-3.33a21.611 21.611 0 0 0-12.28 4.662 21.3 21.3 0 0 0-7.17 10.92l-54.78 167.645h-221.62l-54.77-167.645c-1.18-4.298-3.7-8.105-7.18-10.92-3.5-2.79-7.8-4.423-12.27-4.662-4.5-.239-8.94.905-12.72 3.33-3.8 2.413-6.71 5.906-8.33 10.053l-81.13 211.677-.82 2.124c-24.04 62.705-3.55 133.591 49.98 174.079.1.063.19.138.29.213l.71.541 123.58 92.512 61.12 46.268 37.2 28.124a25.111 25.111 0 0 0 30.31 0l37.19-28.124 61.11-46.268 124.31-93.053c.11-.088.21-.163.32-.251 53.5-40.488 73.97-111.349 49.94-174.041Z" fill="#E24329"/><path d="m2202.03 340.216-.82-2.136c-40.24 8.268-77.31 25.295-109.06 49.045-.51.377-96.45 72.934-178.15 134.697 60.66 45.867 113.46 85.739 113.46 85.739l124.31-93.052c.11-.088.21-.164.32-.252 53.5-40.488 73.97-111.348 49.94-174.041Z" fill="#FC6D26"/><path d="m1800.53 607.56 61.12 46.268 37.2 28.123a25.108 25.108 0 0 0 30.31 0l37.19-28.123 61.11-46.268s-52.8-39.873-113.46-85.739c-60.67 45.866-113.47 85.739-113.47 85.739Z" fill="#FCA326"/><path d="M1735.84 387.124c-31.73-23.738-68.79-40.777-109.05-49.033l-.82 2.123c-24.04 62.705-3.55 133.591 49.98 174.079.1.063.19.139.29.214l.71.54 123.58 92.512s52.8-39.872 113.47-85.738c-81.69-61.763-177.65-134.32-178.16-134.697Z" fill="#FC6D26"/><path d="m692.031 340.215-.816-2.137-81.128-211.664c-1.621-4.147-4.536-7.64-8.331-10.053-3.782-2.425-8.218-3.569-12.717-3.33a21.583 21.583 0 0 0-12.277 4.662c-3.481 2.815-5.994 6.622-7.175 10.92l-54.776 167.645H293.194l-54.776-167.645c-1.181-4.298-3.695-8.105-7.175-10.92a21.584 21.584 0 0 0-12.278-4.662c-4.498-.239-8.934.905-12.716 3.33-3.795 2.413-6.711 5.906-8.332 10.053L116.79 338.091l-.817 2.124c-24.039 62.705-3.556 133.591 49.976 174.079.1.063.188.138.289.213l.716.541L290.53 607.56l61.122 46.268 37.196 28.124c8.959 6.785 21.349 6.785 30.309 0l37.196-28.124 61.109-46.268 124.305-93.053.326-.251c53.495-40.488 73.965-111.349 49.938-174.041Z" fill="#E24329"/><path d="m692.031 340.216-.816-2.136c-40.25 8.268-77.32 25.295-109.062 49.045-.515.377-96.458 72.934-178.151 134.697 60.657 45.867 113.46 85.739 113.46 85.739l124.305-93.052.327-.252c53.494-40.488 73.964-111.348 49.937-174.041Z" fill="#FC6D26"/><path d="m290.53 607.56 61.122 46.268 37.196 28.123a25.108 25.108 0 0 0 30.31 0l37.195-28.123 61.11-46.268s-52.803-39.873-113.46-85.739c-60.67 45.866-113.473 85.739-113.473 85.739Z" fill="#FCA326"/><path d="M225.839 387.124c-31.73-23.738-68.787-40.777-109.049-49.033l-.817 2.123c-24.039 62.705-3.556 133.591 49.976 174.079.1.063.188.139.289.214l.716.54 123.576 92.512s52.803-39.872 113.472-85.738c-81.692-61.763-177.648-134.32-178.163-134.697Z" fill="#FC6D26"/><rect x="2336" y="303" width="88" height="88" rx="44" fill="#FCA326"/><rect x="2493" y="303" width="88" height="88" rx="44" fill="#FC6D26"/><rect x="2650" y="303" width="88" height="88" rx="44" fill="#E24329"/><rect x="826" y="303" width="88" height="88" rx="44" fill="#FCA326"/><rect x="983" y="303" width="88" height="88" rx="44" fill="#FC6D26"/><rect x="1140" y="303" width="88" height="88" rx="44" fill="#E24329"/><path d="M2340.38 206v-58.203h22.89c13.04 0 21.25 7.383 21.25 19.062 0 11.68-8.36 19.063-21.41 19.063h-16.17v-9.961h15.58c6.41 0 10.39-3.516 10.39-9.102 0-5.625-3.98-9.101-10.39-9.101h-10.31V206h-11.83Zm49.8 0v-41.25h10.9v7.031h.12c1.52-4.922 4.64-7.304 10.03-7.304 1.37 0 2.5.078 3.4.117v9.687c-.82-.078-2.97-.234-4.92-.234-4.73 0-8.24 3.281-8.24 9.492V206h-11.29Zm30.08 0v-41.25h11.29V206h-11.29Zm5.62-46.875c-3.55 0-6.33-2.695-6.33-6.133 0-3.398 2.78-6.133 6.33-6.133 3.56 0 6.33 2.735 6.33 6.133 0 3.438-2.77 6.133-6.33 6.133Zm25.2 23.945V206h-11.29v-41.25h11.13v10.742h-1.95c2.62-7.304 7.3-11.601 14.8-11.601 8.75 0 14.5 5.859 14.5 16.289V206h-11.29v-23.75c0-5.586-2.82-8.555-7.7-8.555-4.8 0-8.2 2.891-8.2 9.375Zm58.9-18.32v8.945h-26.91v-8.945h26.91Zm-19.76-11.25h11.33v39.883c0 2.812.9 3.711 4.02 3.711h4.41V206h-6.64c-8.98 0-13.12-3.398-13.12-10.859V153.5ZM850.844 206h-15v-9.961h14.336c11.875 0 17.461-6.836 17.461-19.141 0-12.304-5.664-19.101-17.305-19.101H835.57v-10h15.508c17.5 0 28.438 11.211 28.438 29.101 0 17.891-10.86 29.102-28.672 29.102Zm-8.633-58.203V206h-11.836v-58.203h11.836ZM886.195 206v-41.25h11.289V206h-11.289Zm5.625-46.875c-3.554 0-6.328-2.695-6.328-6.133 0-3.398 2.774-6.133 6.328-6.133 3.555 0 6.328 2.735 6.328 6.133 0 3.438-2.773 6.133-6.328 6.133Zm33.282 63.75c-11.602 0-18.008-5.273-19.18-13.281h10.937c.86 3.164 3.907 4.922 8.243 4.922 5.703 0 8.906-3.164 8.906-9.141v-6.328h-.039c-2.461 4.844-6.836 7.031-12.227 7.031-10.781 0-17.851-8.672-17.851-20.976 0-12.422 7.226-21.211 17.773-21.211 5.352 0 9.648 2.304 12.305 6.875h.039v-6.016h11.211v39.727c0 13.046-8.242 18.398-20.117 18.398Zm-.469-25.898c5.898 0 9.805-4.727 9.805-12.032 0-7.265-3.907-12.031-9.805-12.031-5.625 0-9.297 4.375-9.297 12.031 0 7.696 3.672 12.032 9.297 12.032ZM953.461 206v-41.25h11.289V206h-11.289Zm5.625-46.875c-3.555 0-6.328-2.695-6.328-6.133 0-3.398 2.773-6.133 6.328-6.133s6.328 2.735 6.328 6.133c0 3.438-2.773 6.133-6.328 6.133Zm37.93 5.625v8.945h-26.914v-8.945h26.914ZM977.25 153.5h11.328v39.883c0 2.812.899 3.711 4.024 3.711h4.414V206h-6.641c-8.984 0-13.125-3.398-13.125-10.859V153.5Zm39.06 53.203c-8.24 0-14.22-4.101-14.22-12.305 0-9.336 7.5-11.953 16.14-12.773 7.54-.742 10.15-1.055 10.15-3.75v-.234c0-3.125-2.54-5.274-6.79-5.274-4.38 0-7.23 2.227-7.5 5.43h-10.71c.55-8.477 7.27-13.906 18.52-13.906s17.69 5.351 17.69 14.14V206h-11.05v-5.781h-.16c-2.18 3.984-5.74 6.484-12.07 6.484Zm3.09-7.891c5.62 0 9.1-3.398 9.1-7.89v-4.18c-1.33.742-4.65 1.328-8.4 1.914-3.94.586-7.15 2.11-7.15 5.43 0 2.969 2.54 4.726 6.45 4.726Zm41.64 7.188c-9.34 0-13.2-3.164-13.2-11.055v-47.148h11.28v46.015c0 2.618.94 3.516 3.56 3.516h1.64V206h-3.28ZM2358.59 536.703c-12.01 0-20.71-8.672-20.71-22.5 0-13.916 8.7-22.558 20.71-22.558 10.19 0 17.78 6.328 19.16 16.054h-8.97c-1.05-5.185-4.86-8.203-10.07-8.203-7.5 0-11.93 5.742-11.93 14.707s4.43 14.678 11.93 14.678c5.18 0 8.99-2.988 10.1-8.145h8.94c-1.38 9.727-8.97 15.967-19.16 15.967Zm38.38 0c-9.35 0-15.68-6.445-15.68-16.142 0-9.668 6.33-16.202 15.68-16.202 9.34 0 15.64 6.534 15.64 16.202 0 9.697-6.3 16.142-15.64 16.142Zm0-6.914c4.24 0 7.09-3.428 7.09-9.228 0-5.801-2.85-9.258-7.09-9.258-4.25 0-7.09 3.457-7.09 9.258 0 5.8 2.81 9.228 7.09 9.228Zm30.35 6.211c-7 0-9.9-2.373-9.9-8.291v-35.361h8.46v34.511c0 1.963.71 2.637 2.67 2.637h1.23V536h-2.46Zm19.8.703c-9.34 0-15.67-6.445-15.67-16.142 0-9.668 6.33-16.202 15.67-16.202 9.35 0 15.65 6.534 15.65 16.202 0 9.697-6.3 16.142-15.65 16.142Zm0-6.914c4.25 0 7.09-3.428 7.09-9.228 0-5.801-2.84-9.258-7.09-9.258-4.24 0-7.09 3.457-7.09 9.258 0 5.8 2.82 9.228 7.09 9.228Zm20.45 6.211v-30.938h8.18v5.274h.08c1.15-3.691 3.49-5.479 7.53-5.479 1.03 0 1.88.059 2.55.088v7.266c-.61-.059-2.22-.176-3.69-.176-3.54 0-6.18 2.461-6.18 7.119V536h-8.47Zm26.49.557a4.924 4.924 0 0 1-4.93-4.952c0-2.724 2.2-4.921 4.93-4.921 2.72 0 4.92 2.197 4.92 4.921 0 2.754-2.2 4.952-4.92 4.952Zm0-20.596a4.917 4.917 0 0 1-4.93-4.922c0-2.725 2.2-4.922 4.93-4.922 2.72 0 4.92 2.197 4.92 4.922 0 2.725-2.2 4.922-4.92 4.922Zm43.12 20.742c-12.07 0-20.18-9.375-20.18-22.5 0-13.213 8.08-22.558 20.18-22.558 9.14 0 16.38 5.712 17.99 14.824h-5.39c-1.41-6.358-6.24-9.903-12.6-9.903-9.2 0-14.91 7.207-14.91 17.637 0 10.371 5.71 17.578 14.91 17.578 6.3 0 11.13-3.515 12.63-9.843h5.36c-1.58 9.082-8.85 14.765-17.99 14.765Zm24.87-.703v-43.652h7.18l11.08 28.183c.99 2.52 3.01 7.91 3.83 10.196h-1.2c.77-2.286 2.82-7.676 3.78-10.196l10.9-28.183h7.21V536h-5.19v-25.312c0-3.75.12-8.76.24-13.126h.73c-1.99 5.508-3.78 10.43-4.86 13.126L2585.61 536h-4.34l-10.19-25.312c-1.09-2.696-2.96-7.618-5.04-13.126h.76c.12 4.366.24 9.376.24 13.126V536h-4.99Zm63.75 0v-17.988l-16.05-25.664h6.09l8.76 14.121c1.76 2.812 3.37 5.625 5.01 8.437h-2.25c1.61-2.812 3.25-5.625 4.98-8.437l8.73-14.121h6.06l-16.05 25.664V536h-5.28Zm29.83-12.48v-6.915a930.34 930.34 0 0 1 9.2-10.019l13.24-14.238h6.97l-18.63 19.863h-.26l-10.52 11.309Zm-3.58 12.48v-43.652h5.28V536h-5.28Zm26.75 0-16.02-22.412 3.25-4.16L2685.04 536h-6.24Zm38.47.703c-8.58 0-14.36-6.68-14.36-16.113 0-9.492 5.78-16.231 14.36-16.231 8.58 0 14.35 6.739 14.35 16.231 0 9.433-5.77 16.113-14.35 16.113Zm0-4.512c5.86 0 9.32-4.599 9.32-11.601 0-7.061-3.49-11.719-9.32-11.719s-9.32 4.629-9.32 11.719c0 7.031 3.46 11.601 9.32 11.601Zm20.16 3.809v-30.938h4.74v4.864h.12c1.14-3.194 3.57-5.332 7.44-5.332.91 0 1.7.117 2.11.176v4.98c-.41-.117-1.61-.352-3.05-.352-3.42 0-6.38 2.315-6.38 7.559V536h-4.98Zm34.98 0v-43.652h15.64c9.11 0 14.83 5.097 14.83 13.242 0 8.144-5.95 13.271-15.06 13.271h-12.78v-4.687h12.84c6.06 0 9.78-3.281 9.78-8.584 0-5.303-3.72-8.555-9.78-8.555h-10.2V536h-5.27Zm36.73 0v-43.652h7.18l11.08 28.183c.99 2.52 3.01 7.91 3.83 10.196h-1.2c.76-2.286 2.82-7.676 3.78-10.196l10.9-28.183h7.21V536h-5.19v-25.312c0-3.75.12-8.76.24-13.126h.73c-1.99 5.508-3.78 10.43-4.86 13.126L2832.7 536h-4.34l-10.19-25.312c-1.09-2.696-2.96-7.618-5.04-13.126h.76c.12 4.366.23 9.376.23 13.126V536h-4.98Zm65.86.703c-10.07 0-16.46-5.683-16.46-14.765h5.39c0 6.24 4.07 9.96 11.07 9.96 6.36 0 10.55-2.988 10.55-7.675 0-3.633-2.34-5.743-8.64-7.295l-4.89-1.201c-8.91-2.198-12.6-5.655-12.6-11.602 0-7.529 5.95-12.48 15.06-12.48 9.08 0 14.88 5.214 15.11 13.593h-5.21c-.32-5.449-4.16-8.759-10.08-8.759-5.65 0-9.67 3.046-9.67 7.382 0 3.399 2.43 5.362 8.76 6.944l4.95 1.23c8.5 2.11 12.48 5.86 12.48 11.953 0 7.588-6.32 12.715-15.82 12.715ZM2339.28 638v-43.652h30.24v7.617h-21.36v10.869h19.89v7.412h-19.89V638h-8.88Zm34.66 0v-30.938h8.47V638h-8.47Zm4.22-35.156c-2.67 0-4.75-2.022-4.75-4.6 0-2.549 2.08-4.599 4.75-4.599 2.66 0 4.74 2.05 4.74 4.599 0 2.578-2.08 4.6-4.74 4.6ZM2398.49 638c-7 0-9.9-2.373-9.9-8.291v-35.361h8.46v34.511c0 1.963.71 2.637 2.67 2.637h1.23V638h-2.46Zm19.57.703c-9.37 0-15.44-6.738-15.44-16.142 0-9.434 6.27-16.202 15.15-16.202 9.08 0 15.17 6.592 15.17 16.055v2.285h-27.24v-5.478h23.14l-3.84 1.318c0-4.717-2.72-7.676-7.06-7.676-4.33 0-7.06 2.959-7.06 7.676v3.721c0 4.863 2.7 8.056 7.41 8.056 3.4 0 5.78-1.582 6.57-4.013h7.76c-1.14 6.152-7.09 10.4-14.56 10.4Zm23.79-.146c-2.73 0-4.92-2.198-4.92-4.952a4.908 4.908 0 0 1 4.92-4.921c2.72 0 4.92 2.197 4.92 4.921 0 2.754-2.2 4.952-4.92 4.952Zm0-20.596a4.909 4.909 0 0 1-4.92-4.922 4.909 4.909 0 0 1 4.92-4.922c2.72 0 4.92 2.197 4.92 4.922 0 2.725-2.2 4.922-4.92 4.922Zm28.94 20.537a3.625 3.625 0 0 1-3.66-3.662 3.625 3.625 0 0 1 3.66-3.662c2.06 0 3.67 1.611 3.67 3.662s-1.61 3.662-3.67 3.662Zm23.06.205c-9.08 0-14.35-6.797-14.35-16.113 0-9.404 5.8-16.231 14-16.231 8.61 0 14.06 6.621 14.06 16.231v1.377h-25.43v-4.278h22.65l-2.14 1.495c0-6.299-3.6-10.372-9.14-10.372-5.51 0-9.08 4.073-9.08 10.372v2.109c0 6.416 3.37 10.898 9.43 10.898 4.4 0 7.27-2.226 8.2-5.449h4.99c-1.18 5.918-6.45 9.961-13.19 9.961Zm19.4 11.543v-43.184h4.86v4.571h.06c1.99-3.457 5.77-5.156 9.78-5.156 8.06 0 13.42 6.503 13.42 16.054 0 9.522-5.36 16.055-13.42 16.055-4.01 0-7.44-1.699-9.66-5.274h-.06v16.934h-4.98Zm13.94-16.142c5.36 0 9.14-3.985 9.14-11.573 0-7.588-3.78-11.601-9.14-11.601-5.74 0-9.37 4.599-9.37 11.601 0 7.002 3.63 11.573 9.37 11.573Zm30.76 4.599c-6.62 0-11.83-3.223-12.24-9.961h4.92c.35 3.692 2.87 5.684 7.21 5.684 4.27 0 6.94-1.992 6.94-4.746 0-2.344-1.9-3.692-4.66-4.336l-4.98-1.172c-5.74-1.348-8.73-4.277-8.73-8.789 0-5.274 4.6-9.024 11.22-9.024 6.45 0 11.28 3.809 11.46 9.961h-4.87c-.06-3.281-2.6-5.683-6.59-5.683-3.81 0-6.24 2.109-6.24 4.746 0 2.344 1.82 3.721 4.81 4.424l4.98 1.172c5.91 1.406 8.61 4.13 8.61 8.583 0 5.743-5.1 9.141-11.84 9.141Zm15.65 7.529 2.58-14.326h5.33l-4.28 14.326h-3.63Zm33.13-7.734a3.625 3.625 0 0 1-3.66-3.662 3.625 3.625 0 0 1 3.66-3.662c2.05 0 3.66 1.611 3.66 3.662a3.625 3.625 0 0 1-3.66 3.662Zm10.29-31.436h4.98v35.274c0 4.482-2.93 7.91-8.15 7.91h-2.17v-4.394h1.7c2.52 0 3.64-1.29 3.64-4.278v-34.512Zm2.49-6.035a3.399 3.399 0 1 1 0-6.797c1.87 0 3.39 1.524 3.39 3.399a3.397 3.397 0 0 1-3.39 3.398Zm9.87 49.219v-43.184h4.86v4.571h.06c1.99-3.457 5.77-5.156 9.79-5.156 8.05 0 13.41 6.503 13.41 16.054 0 9.522-5.36 16.055-13.41 16.055-4.02 0-7.45-1.699-9.67-5.274h-.06v16.934h-4.98Zm13.94-16.142c5.37 0 9.14-3.985 9.14-11.573 0-7.588-3.77-11.601-9.14-11.601-5.74 0-9.37 4.599-9.37 11.601 0 7.002 3.63 11.573 9.37 11.573Zm32.93 16.552c-6.97 0-12.24-3.281-13-9.375h5.09c.88 3.34 3.93 4.981 7.91 4.981 5.39 0 8.68-2.989 8.68-8.262v-4.688h-.03c-2.29 3.604-5.69 5.274-9.76 5.274-8.06 0-13.42-6.533-13.42-16.055 0-9.551 5.36-16.054 13.42-16.054 4.01 0 7.68 1.611 9.82 5.419h.02v-4.834h4.87V638c0 9.141-6.39 12.656-13.6 12.656Zm-.35-16.552c5.74 0 9.38-4.571 9.38-11.573 0-7.002-3.64-11.601-9.38-11.601-5.36 0-9.14 4.013-9.14 11.601 0 7.588 3.78 11.573 9.14 11.573Zm19.28 12.128 2.58-14.326h5.33l-4.28 14.326h-3.63Zm33.13-7.734a3.625 3.625 0 0 1-3.66-3.662 3.625 3.625 0 0 1 3.66-3.662c2.06 0 3.67 1.611 3.67 3.662s-1.61 3.662-3.67 3.662Zm10.29 11.748v-43.184h4.86v4.571h.06c1.99-3.457 5.77-5.156 9.78-5.156 8.06 0 13.42 6.503 13.42 16.054 0 9.522-5.36 16.055-13.42 16.055-4.01 0-7.44-1.699-9.66-5.274h-.06v16.934h-4.98Zm13.94-16.142c5.36 0 9.14-3.985 9.14-11.573 0-7.588-3.78-11.601-9.14-11.601-5.74 0-9.37 4.599-9.37 11.601 0 7.002 3.63 11.573 9.37 11.573Zm31.82 4.482c-8.06 0-13.42-6.533-13.42-16.055 0-9.551 5.36-16.054 13.42-16.054 4.01 0 7.68 1.699 9.67 5.156h.06v-17.285h4.98V638h-4.87v-4.688h-.06c-2.22 3.575-5.77 5.274-9.78 5.274Zm.76-4.482c5.74 0 9.38-4.571 9.38-11.573 0-7.002-3.64-11.601-9.38-11.601-5.36 0-9.14 4.013-9.14 11.601 0 7.588 3.78 11.573 9.14 11.573Zm34.84-27.042v4.278h-16.76v-4.278h16.76ZM2808.71 638v-36.445c0-4.424 3.13-7.207 8.14-7.207h3.11v4.277h-2.64c-2.64 0-3.63 1.025-3.63 3.691V638h-4.98ZM848.588 536.703c-12.012 0-20.713-8.672-20.713-22.5 0-13.916 8.701-22.558 20.713-22.558 10.195 0 17.783 6.328 19.16 16.054h-8.965c-1.054-5.185-4.863-8.203-10.078-8.203-7.5 0-11.924 5.742-11.924 14.707s4.424 14.678 11.924 14.678c5.186 0 8.994-2.988 10.107-8.145h8.936c-1.377 9.727-8.965 15.967-19.16 15.967Zm38.379 0c-9.346 0-15.674-6.445-15.674-16.142 0-9.668 6.328-16.202 15.674-16.202 9.345 0 15.644 6.534 15.644 16.202 0 9.697-6.299 16.142-15.644 16.142Zm0-6.914c4.248 0 7.09-3.428 7.09-9.228 0-5.801-2.842-9.258-7.09-9.258-4.248 0-7.09 3.457-7.09 9.258 0 5.8 2.812 9.228 7.09 9.228ZM917.318 536c-7.002 0-9.902-2.373-9.902-8.291v-35.361h8.467v34.511c0 1.963.703 2.637 2.666 2.637h1.23V536h-2.461Zm19.805.703c-9.346 0-15.674-6.445-15.674-16.142 0-9.668 6.328-16.202 15.674-16.202s15.645 6.534 15.645 16.202c0 9.697-6.299 16.142-15.645 16.142Zm0-6.914c4.248 0 7.09-3.428 7.09-9.228 0-5.801-2.842-9.258-7.09-9.258-4.248 0-7.09 3.457-7.09 9.258 0 5.8 2.813 9.228 7.09 9.228ZM957.572 536v-30.938h8.174v5.274h.088c1.143-3.691 3.486-5.479 7.529-5.479 1.026 0 1.875.059 2.549.088v7.266a44.45 44.45 0 0 0-3.691-.176c-3.545 0-6.182 2.461-6.182 7.119V536h-8.467Zm26.485.557a4.92 4.92 0 0 1-4.922-4.952 4.913 4.913 0 0 1 4.922-4.921 4.914 4.914 0 0 1 4.922 4.921 4.921 4.921 0 0 1-4.922 4.952Zm0-20.596a4.914 4.914 0 0 1-4.922-4.922 4.914 4.914 0 0 1 4.922-4.922 4.914 4.914 0 0 1 4.922 4.922 4.914 4.914 0 0 1-4.922 4.922ZM1008.7 536v-43.652h16.2c9.11 0 14.82 5.097 14.82 13.242 0 8.174-6.15 13.271-15.23 13.271h-12.87v-4.687h13.16c6.03 0 9.73-3.281 9.73-8.584 0-5.303-3.72-8.555-9.79-8.555h-10.75V536h-5.27Zm25.4 0-10.55-19.629h5.98L1040.25 536h-6.15Zm30.82.703c-11.61 0-19.96-9.375-19.96-22.5 0-13.213 8.33-22.558 19.96-22.558 9.25 0 16.64 6.093 18.16 14.824h-5.33c-1.35-5.86-6.42-9.903-12.83-9.903-8.73 0-14.68 7.207-14.68 17.637 0 10.371 5.95 17.578 14.68 17.578 7.29 0 13.21-5.273 13.21-13.008l1.7.088h-13.13v-4.687h16.64v4.717c0 10.195-8.02 17.812-18.42 17.812Zm25.57-.703v-43.652h15.76c8.76 0 14.07 4.482 14.07 11.601 0 5.01-2.64 7.94-7.09 9.434v.058c4.95.821 8.87 4.073 8.87 10.313 0 7.471-5.12 12.246-15.61 12.246h-16Zm5.28-4.688h10.72c6.59 0 10.25-2.519 10.25-7.353s-3.57-7.822-9.96-7.822h-11.01v15.175Zm0-19.804h10.69c5.42 0 8.64-2.783 8.64-7.237 0-4.453-3.22-7.236-8.64-7.236h-10.69v14.473Zm60.17 25.195c-8.58 0-14.35-6.68-14.35-16.113 0-9.492 5.77-16.231 14.35-16.231 8.59 0 14.36 6.739 14.36 16.231 0 9.433-5.77 16.113-14.36 16.113Zm0-4.512c5.86 0 9.32-4.599 9.32-11.601 0-7.061-3.49-11.719-9.32-11.719s-9.32 4.629-9.32 11.719c0 7.031 3.46 11.601 9.32 11.601ZM1176.1 536v-30.938h4.74v4.864h.12c1.14-3.194 3.58-5.332 7.44-5.332.91 0 1.7.117 2.11.176v4.98c-.41-.117-1.61-.352-3.05-.352-3.42 0-6.38 2.315-6.38 7.559V536h-4.98Zm34.98 0v-43.652h5.27v18.955h23.26v-18.955h5.28V536h-5.28v-20.01h-23.26V536h-5.27Zm42.48 0v-43.652h28.39v4.687h-23.12v14.268h21.42v4.687h-21.42v15.322h23.12V536h-28.39Zm31.2 0 16.99-24.287v3.896l-16.05-23.261h6.09l6.45 9.433a686.09 686.09 0 0 1 5.62 8.438h-.85c1.88-2.813 3.75-5.625 5.71-8.438l6.57-9.433h5.94l-16.05 23.056v-3.896L1322.03 536h-6.07l-7.76-11.25a370.532 370.532 0 0 1-5.36-7.969h1.17c-1.79 2.666-3.61 5.303-5.45 7.969l-7.82 11.25h-5.98ZM829.281 638v-43.652h30.235v7.617h-21.358v10.869h19.893v7.412h-19.893V638h-8.877Zm34.658 0v-30.938h8.467V638h-8.467Zm4.219-35.156c-2.666 0-4.746-2.022-4.746-4.6 0-2.549 2.08-4.599 4.746-4.599 2.666 0 4.746 2.05 4.746 4.599 0 2.578-2.08 4.6-4.746 4.6ZM888.49 638c-7.002 0-9.902-2.373-9.902-8.291v-35.361h8.467v34.511c0 1.963.703 2.637 2.666 2.637h1.23V638h-2.461Zm19.571.703c-9.375 0-15.44-6.738-15.44-16.142 0-9.434 6.27-16.202 15.147-16.202 9.082 0 15.175 6.592 15.175 16.055v2.285h-27.246v-5.478h23.145l-3.838 1.318c0-4.717-2.725-7.676-7.061-7.676s-7.06 2.959-7.06 7.676v3.721c0 4.863 2.695 8.056 7.412 8.056 3.398 0 5.771-1.582 6.562-4.013h7.764c-1.142 6.152-7.09 10.4-14.56 10.4Zm23.789-.146a4.92 4.92 0 0 1-4.922-4.952 4.913 4.913 0 0 1 4.922-4.921 4.913 4.913 0 0 1 4.921 4.921 4.92 4.92 0 0 1-4.921 4.952Zm0-20.596a4.914 4.914 0 0 1-4.922-4.922 4.914 4.914 0 0 1 4.922-4.922 4.913 4.913 0 0 1 4.921 4.922 4.913 4.913 0 0 1-4.921 4.922Zm28.945 20.537a3.626 3.626 0 0 1-3.662-3.662 3.626 3.626 0 0 1 3.662-3.662 3.626 3.626 0 0 1 3.662 3.662 3.626 3.626 0 0 1-3.662 3.662Zm10.283 11.748v-43.184h4.863v4.571H976c1.992-3.457 5.771-5.156 9.785-5.156 8.057 0 13.418 6.503 13.418 16.054 0 9.522-5.361 16.055-13.418 16.055-4.014 0-7.441-1.699-9.668-5.274h-.058v16.934h-4.981Zm13.945-16.142c5.362 0 9.141-3.985 9.141-11.573 0-7.588-3.779-11.601-9.141-11.601-5.742 0-9.375 4.599-9.375 11.601 0 7.002 3.633 11.573 9.375 11.573Zm24.957-14.209V638H1005v-30.938h4.87v7.5h-1.41c2.02-5.566 5.71-8.085 10.61-8.085 6.24 0 11.36 4.072 11.36 12.304V638h-4.98v-18.867c0-5.362-2.69-8.086-7.32-8.086-4.51 0-8.15 2.607-8.15 8.848Zm40.79 30.761c-6.98 0-12.25-3.281-13.01-9.375h5.1c.87 3.34 3.92 4.981 7.91 4.981 5.39 0 8.67-2.989 8.67-8.262v-4.688h-.03c-2.29 3.604-5.69 5.274-9.76 5.274-8.05 0-13.42-6.533-13.42-16.055 0-9.551 5.37-16.054 13.42-16.054 4.02 0 7.68 1.611 9.82 5.419h.03v-4.834h4.86V638c0 9.141-6.39 12.656-13.59 12.656Zm-.36-16.552c5.75 0 9.38-4.571 9.38-11.573 0-7.002-3.63-11.601-9.38-11.601-5.36 0-9.14 4.013-9.14 11.601 0 7.588 3.78 11.573 9.14 11.573Zm19.28 12.128 2.58-14.326h5.33l-4.28 14.326h-3.63Zm33.14-7.734c-2.05 0-3.67-1.611-3.67-3.662s1.62-3.662 3.67-3.662 3.66 1.611 3.66 3.662a3.625 3.625 0 0 1-3.66 3.662Zm10.28-31.436h4.98v35.274c0 4.482-2.93 7.91-8.14 7.91h-2.17v-4.394h1.7c2.52 0 3.63-1.29 3.63-4.278v-34.512Zm2.49-6.035a3.399 3.399 0 1 1 0-6.797c1.87 0 3.4 1.524 3.4 3.399a3.405 3.405 0 0 1-3.4 3.398Zm9.87 49.219v-43.184h4.87v4.571h.05c2-3.457 5.78-5.156 9.79-5.156 8.06 0 13.42 6.503 13.42 16.054 0 9.522-5.36 16.055-13.42 16.055-4.01 0-7.44-1.699-9.67-5.274h-.06v16.934h-4.98Zm13.95-16.142c5.36 0 9.14-3.985 9.14-11.573 0-7.588-3.78-11.601-9.14-11.601-5.74 0-9.38 4.599-9.38 11.601 0 7.002 3.64 11.573 9.38 11.573Zm32.93 16.552c-6.97 0-12.25-3.281-13.01-9.375h5.1c.88 3.34 3.92 4.981 7.91 4.981 5.39 0 8.67-2.989 8.67-8.262v-4.688h-.03c-2.28 3.604-5.68 5.274-9.76 5.274-8.05 0-13.41-6.533-13.41-16.055 0-9.551 5.36-16.054 13.41-16.054 4.02 0 7.68 1.611 9.82 5.419h.03v-4.834h4.86V638c0 9.141-6.39 12.656-13.59 12.656Zm-.35-16.552c5.74 0 9.37-4.571 9.37-11.573 0-7.002-3.63-11.601-9.37-11.601-5.37 0-9.14 4.013-9.14 11.601 0 7.588 3.77 11.573 9.14 11.573Zm19.27 12.128 2.58-14.326h5.33l-4.27 14.326h-3.64Zm33.14-7.734a3.625 3.625 0 0 1-3.66-3.662 3.625 3.625 0 0 1 3.66-3.662c2.05 0 3.66 1.611 3.66 3.662a3.625 3.625 0 0 1-3.66 3.662Zm21.06.205c-6.62 0-11.83-3.223-12.24-9.961h4.92c.35 3.692 2.87 5.684 7.21 5.684 4.27 0 6.94-1.992 6.94-4.746 0-2.344-1.91-3.692-4.66-4.336l-4.98-1.172c-5.74-1.348-8.73-4.277-8.73-8.789 0-5.274 4.6-9.024 11.22-9.024 6.45 0 11.28 3.809 11.46 9.961h-4.87c-.06-3.281-2.61-5.683-6.59-5.683-3.81 0-6.24 2.109-6.24 4.746 0 2.344 1.82 3.721 4.8 4.424l4.99 1.172c5.91 1.406 8.61 4.13 8.61 8.583 0 5.743-5.1 9.141-11.84 9.141Zm25.96-.703-11.95-30.938h5.39l6.68 17.813c1.11 2.959 2.11 5.947 3.1 8.906h-1.2c1-2.959 1.99-5.947 3.08-8.906l6.59-17.813h5.3L1276.47 638h-5.04Zm33.34 12.656c-6.97 0-12.25-3.281-13.01-9.375h5.1c.88 3.34 3.93 4.981 7.91 4.981 5.39 0 8.67-2.989 8.67-8.262v-4.688h-.03c-2.28 3.604-5.68 5.274-9.75 5.274-8.06 0-13.42-6.533-13.42-16.055 0-9.551 5.36-16.054 13.42-16.054 4.01 0 7.67 1.611 9.81 5.419h.03v-4.834h4.86V638c0 9.141-6.38 12.656-13.59 12.656Zm-.35-16.552c5.74 0 9.37-4.571 9.37-11.573 0-7.002-3.63-11.601-9.37-11.601-5.36 0-9.14 4.013-9.14 11.601 0 7.588 3.78 11.573 9.14 11.573Z" fill="#171321"/></svg>