<svg width="3000" height="1290" fill="none" xmlns="http://www.w3.org/2000/svg"><path fill="#fff" d="M0 0h3000v1290H0z"/><path d="M41.63 115.223c-5.114 0-8.774-4.14-8.774-9.967 0-5.84 3.66-9.98 8.773-9.98 5.126 0 8.786 4.14 8.786 9.98 0 5.827-3.66 9.967-8.786 9.967zm0-2.181c3.503 0 6.436-2.777 6.436-7.786 0-5.023-2.933-7.8-6.437-7.8-3.504 0-6.437 2.777-6.437 7.8 0 5.009 2.933 7.786 6.437 7.786zm13.847-6.177v8.046h-2.22v-13.744h2.155l.013 3.336h-.61c.895-2.479 2.53-3.582 4.698-3.582 2.777 0 5.022 1.804 5.022 5.451v8.539H62.33v-8.384c0-2.375-1.194-3.582-3.245-3.582-2.011 0-3.607 1.168-3.607 3.92zm18.078 8.358c-4.036 0-6.385-2.998-6.385-7.151 0-4.179 2.57-7.203 6.216-7.203 3.79 0 6.243 2.881 6.243 7.19v.636H68.364v-1.908h10.032l-.96.662c0-2.79-1.584-4.607-4.05-4.607-2.44 0-4.023 1.83-4.023 4.594v.947c0 2.868 1.505 4.841 4.192 4.841 1.934 0 3.205-.973 3.634-2.401l2.206.026c-.532 2.609-2.855 4.374-5.84 4.374zm16.936-9.254v2.077H82.03v-2.077h8.462zm7.943 9.254c-2.933 0-5.243-1.415-5.438-4.374l2.18-.026c.169 1.635 1.298 2.505 3.206 2.505 1.895 0 3.088-.896 3.088-2.103 0-1.038-.843-1.648-2.063-1.933l-2.22-.519c-2.556-.597-3.867-1.895-3.867-3.894 0-2.349 2.05-4.01 4.984-4.01 2.868 0 4.97 1.674 5.087 4.361l-2.154.026c-.052-1.428-1.155-2.492-2.933-2.492-1.687 0-2.777.934-2.777 2.102 0 1.038.804 1.648 2.14 1.973l2.207.519c2.622.623 3.829 1.83 3.829 3.803 0 2.543-2.271 4.062-5.27 4.062zm13.873-14.056v1.908h-7.423v-1.908h7.423zm-4.996-3.724h2.206v14.133c0 1.077.389 1.44 1.518 1.44h1.272l.026 1.895c-.454.013-1.038.013-1.492.013-2.362 0-3.53-1.038-3.53-3.115V97.443zm12.679 17.78c-4.036 0-6.385-2.998-6.385-7.151 0-4.179 2.57-7.203 6.216-7.203 3.79 0 6.243 2.881 6.243 7.19v.636h-11.265v-1.908h10.032l-.961.662c0-2.79-1.583-4.607-4.049-4.607-2.44 0-4.023 1.83-4.023 4.594v.947c0 2.868 1.506 4.841 4.192 4.841 1.934 0 3.206-.973 3.634-2.401l2.206.026c-.532 2.609-2.855 4.374-5.84 4.374zm8.643 5.113v-19.169h2.168v2.051h.026c.869-1.492 2.504-2.297 4.334-2.297 3.569 0 5.957 2.881 5.957 7.125s-2.388 7.138-5.957 7.138c-1.83 0-3.322-.805-4.282-2.349h-.026v7.501h-2.22zm6.191-7.151c2.388 0 4.049-1.791 4.049-5.139 0-3.349-1.661-5.152-4.049-5.152-2.557 0-4.153 2.05-4.153 5.152 0 3.102 1.609 5.139 4.153 5.139zm21.362 7.346c-3.102 0-5.412-1.454-5.776-4.088l2.233-.065c.402 1.44 1.739 2.206 3.543 2.206 2.375 0 3.841-1.311 3.841-3.66v-2.115h-.026c-.986 1.557-2.453 2.349-4.309 2.349-3.569 0-5.957-2.881-5.957-7.112 0-4.244 2.388-7.125 5.957-7.125 1.83 0 3.414.766 4.348 2.401h.013v-2.155h2.167v13.77c0 4.036-2.829 5.594-6.034 5.594zm-.156-7.372c2.543 0 4.153-2.011 4.153-5.126 0-3.089-1.597-5.139-4.153-5.139-2.388 0-4.049 1.803-4.049 5.139 0 3.348 1.661 5.126 4.049 5.126zm9.513 1.752v-13.744h2.115v2.168h.052c.506-1.428 1.609-2.375 3.322-2.375.403 0 .766.052.948.078v2.219a5.596 5.596 0 00-1.35-.156c-1.557 0-2.868 1.038-2.868 3.349v8.461h-2.219zm12.433.221c-2.726 0-4.789-1.428-4.789-4.166 0-3.154 2.712-3.725 5.463-4.088 2.609-.351 3.465-.247 3.465-1.298v-.13c0-1.505-1.116-2.582-3.036-2.582-1.921 0-3.232 1.051-3.349 2.401l-2.245-.039c.156-2.505 2.388-4.309 5.594-4.309 3.127 0 5.217 1.739 5.217 4.542v9.448h-2.181v-1.947h-.051c-.507 1-1.597 2.168-4.088 2.168zm.311-1.973c2.699 0 3.828-1.648 3.828-3.439v-1.726c-.337.324-2.037.571-3.568.779-1.597.22-3.102.765-3.102 2.323 0 1.297 1.09 2.063 2.842 2.063zm14.6 2.025c-3.569 0-5.957-2.894-5.957-7.138s2.388-7.125 5.957-7.125c1.83 0 3.413.805 4.283 2.297h.026v-7.644h2.219v19.337h-2.167v-2.076h-.039c-.961 1.544-2.492 2.349-4.322 2.349zm.338-1.999c2.543 0 4.153-2.037 4.153-5.139 0-3.102-1.61-5.152-4.153-5.152-2.401 0-4.049 1.803-4.049 5.152 0 3.348 1.661 5.139 4.049 5.139zm9.512 1.726v-13.744h2.22v13.744h-2.22zm1.104-16.391a1.518 1.518 0 01-1.506-1.518c0-.831.675-1.506 1.506-1.506a1.51 1.51 0 011.518 1.506 1.52 1.52 0 01-1.518 1.518zm10.109 16.703c-4.036 0-6.385-2.998-6.385-7.151 0-4.179 2.57-7.203 6.217-7.203 3.789 0 6.242 2.881 6.242 7.19v.636h-11.265v-1.908h10.032l-.96.662c0-2.79-1.583-4.607-4.049-4.607-2.44 0-4.023 1.83-4.023 4.594v.947c0 2.868 1.505 4.841 4.191 4.841 1.934 0 3.206-.973 3.634-2.401l2.206.026c-.532 2.609-2.855 4.374-5.84 4.374zm10.863-8.358v8.046h-2.219v-13.744h2.154l.013 3.336h-.61c.896-2.479 2.531-3.582 4.698-3.582 2.777 0 5.023 1.804 5.023 5.451v8.539h-2.207v-8.384c0-2.375-1.194-3.582-3.244-3.582-2.012 0-3.608 1.168-3.608 3.92zm18.364-5.698v1.908h-7.424v-1.908h7.424zm-4.997-3.724h2.206v14.133c0 1.077.39 1.44 1.519 1.44h1.272l.026 1.895c-.455.013-1.039.013-1.493.013-2.362 0-3.53-1.038-3.53-3.115V97.443zm11.862 17.78c-2.933 0-5.243-1.415-5.438-4.374l2.181-.026c.168 1.635 1.297 2.505 3.205 2.505 1.895 0 3.089-.896 3.089-2.103 0-1.038-.844-1.648-2.064-1.933l-2.219-.519c-2.556-.597-3.867-1.895-3.867-3.894 0-2.349 2.05-4.01 4.983-4.01 2.868 0 4.971 1.674 5.088 4.361l-2.155.026c-.052-1.428-1.155-2.492-2.933-2.492-1.687 0-2.777.934-2.777 2.102 0 1.038.805 1.648 2.141 1.973l2.207.519c2.621.623 3.828 1.83 3.828 3.803 0 2.543-2.271 4.062-5.269 4.062zM32.35 389.875v-2.089h14.912v2.089h-6.269v17.248h-2.349v-17.248H32.35zm17.468 17.248l-4.256-13.744h2.31l1.726 6.048c.532 1.843 1.012 3.829 1.531 5.736h-.324c.506-1.907 1.012-3.88 1.531-5.736l1.739-6.048h2.206l1.713 6.048c.52 1.843 1.013 3.829 1.519 5.736h-.35c.519-1.907 1.012-3.893 1.557-5.736l1.765-6.048h2.31l-4.257 13.744h-2.31l-1.817-6.242c-.532-1.856-1.012-3.868-1.518-5.75h.584c-.52 1.882-1 3.894-1.558 5.75l-1.843 6.242h-2.258zm22.244.312c-3.802 0-6.372-2.959-6.372-7.151 0-4.218 2.57-7.203 6.372-7.203 3.816 0 6.373 2.985 6.373 7.203 0 4.192-2.557 7.151-6.373 7.151zm0-1.999c2.609 0 4.14-2.064 4.14-5.152 0-3.115-1.544-5.204-4.14-5.204-2.595 0-4.126 2.076-4.126 5.204 0 3.101 1.518 5.152 4.126 5.152zm17.287-7.255v2.077h-8.462v-2.077h8.462zm7.943 9.254c-2.933 0-5.243-1.415-5.438-4.374l2.18-.026c.169 1.635 1.298 2.505 3.206 2.505 1.895 0 3.088-.896 3.088-2.103 0-1.038-.843-1.648-2.063-1.933l-2.22-.52c-2.556-.597-3.867-1.894-3.867-3.893 0-2.349 2.05-4.01 4.984-4.01 2.868 0 4.97 1.674 5.087 4.36l-2.154.026c-.052-1.427-1.155-2.491-2.933-2.491-1.687 0-2.778.934-2.778 2.102 0 1.038.805 1.648 2.142 1.973l2.206.519c2.622.623 3.829 1.83 3.829 3.802 0 2.544-2.272 4.063-5.27 4.063zm13.873-14.056v1.908h-7.423v-1.908h7.423zm-4.996-3.724h2.206v14.133c0 1.077.389 1.44 1.518 1.44h1.272l.026 1.895c-.454.013-1.038.013-1.492.013-2.362 0-3.53-1.038-3.53-3.115v-14.366zm12.679 17.78c-4.036 0-6.385-2.998-6.385-7.151 0-4.179 2.569-7.203 6.216-7.203 3.79 0 6.243 2.881 6.243 7.19v.636h-11.265v-1.908h10.032l-.961.662c0-2.791-1.583-4.607-4.049-4.607-2.44 0-4.023 1.829-4.023 4.594v.947c0 2.868 1.506 4.841 4.192 4.841 1.934 0 3.206-.973 3.634-2.401l2.206.026c-.532 2.609-2.855 4.374-5.84 4.374zm8.643 5.113v-19.169h2.168v2.051h.026c.869-1.493 2.504-2.297 4.334-2.297 3.569 0 5.957 2.881 5.957 7.125s-2.388 7.138-5.957 7.138c-1.83 0-3.322-.805-4.283-2.349h-.025v7.501h-2.22zm6.191-7.151c2.388 0 4.049-1.791 4.049-5.139 0-3.349-1.661-5.153-4.049-5.153-2.557 0-4.153 2.051-4.153 5.153 0 3.101 1.609 5.139 4.153 5.139zm21.361 7.346c-3.101 0-5.411-1.454-5.775-4.089l2.232-.064c.403 1.44 1.74 2.206 3.543 2.206 2.375 0 3.842-1.311 3.842-3.66v-2.115h-.026c-.986 1.557-2.453 2.349-4.309 2.349-3.569 0-5.957-2.881-5.957-7.112 0-4.244 2.388-7.125 5.957-7.125 1.83 0 3.414.766 4.348 2.401h.013v-2.155h2.167v13.77c0 4.036-2.829 5.594-6.035 5.594zm-.155-7.372c2.543 0 4.153-2.012 4.153-5.126 0-3.089-1.597-5.14-4.153-5.14-2.388 0-4.049 1.804-4.049 5.14 0 3.348 1.661 5.126 4.049 5.126zm9.513 1.752v-13.744h2.115v2.168h.052c.506-1.428 1.609-2.375 3.322-2.375.403 0 .766.052.948.078v2.219a5.596 5.596 0 00-1.35-.156c-1.557 0-2.868 1.038-2.868 3.348v8.462h-2.219zm12.432.221c-2.725 0-4.788-1.428-4.788-4.166 0-3.154 2.712-3.725 5.463-4.088 2.609-.351 3.465-.247 3.465-1.298v-.13c0-1.505-1.116-2.582-3.036-2.582-1.921 0-3.232 1.051-3.349 2.4l-2.245-.039c.156-2.504 2.388-4.308 5.594-4.308 3.127 0 5.217 1.739 5.217 4.542v9.448h-2.181v-1.947h-.051c-.507 1-1.597 2.168-4.089 2.168zm.312-1.973c2.699 0 3.828-1.648 3.828-3.439v-1.726c-.337.324-2.037.571-3.569.778-1.596.221-3.101.766-3.101 2.324 0 1.297 1.09 2.063 2.842 2.063zm14.6 2.025c-3.569 0-5.957-2.894-5.957-7.138s2.388-7.125 5.957-7.125c1.83 0 3.413.804 4.283 2.297h.026v-7.644h2.219v19.337h-2.167v-2.076h-.039c-.961 1.544-2.492 2.349-4.322 2.349zm.338-1.999c2.543 0 4.153-2.038 4.153-5.139 0-3.102-1.61-5.153-4.153-5.153-2.401 0-4.05 1.804-4.05 5.153 0 3.348 1.662 5.139 4.05 5.139zm9.512 1.726v-13.744h2.22v13.744h-2.22zm1.104-16.391a1.518 1.518 0 01-1.506-1.519c0-.83.675-1.505 1.506-1.505a1.51 1.51 0 011.518 1.505 1.52 1.52 0 01-1.518 1.519zm10.109 16.703c-4.036 0-6.385-2.998-6.385-7.151 0-4.179 2.57-7.203 6.217-7.203 3.789 0 6.242 2.881 6.242 7.19v.636h-11.265v-1.908h10.032l-.96.662c0-2.791-1.584-4.607-4.049-4.607-2.44 0-4.024 1.829-4.024 4.594v.947c0 2.868 1.506 4.841 4.192 4.841 1.934 0 3.206-.973 3.634-2.401l2.206.026c-.532 2.609-2.855 4.374-5.84 4.374zm10.863-8.358v8.046h-2.219v-13.744h2.154l.013 3.336h-.61c.896-2.479 2.531-3.582 4.698-3.582 2.777 0 5.023 1.804 5.023 5.451v8.539h-2.207v-8.384c0-2.375-1.194-3.582-3.244-3.582-2.012 0-3.608 1.168-3.608 3.92zm18.364-5.698v1.908h-7.424v-1.908h7.424zm-4.997-3.724h2.206v14.133c0 1.077.39 1.44 1.519 1.44h1.272l.026 1.895c-.455.013-1.039.013-1.493.013-2.362 0-3.53-1.038-3.53-3.115v-14.366zm11.862 17.78c-2.933 0-5.243-1.415-5.438-4.374l2.181-.026c.168 1.635 1.297 2.505 3.205 2.505 1.895 0 3.089-.896 3.089-2.103 0-1.038-.844-1.648-2.064-1.933l-2.219-.52c-2.556-.597-3.867-1.894-3.867-3.893 0-2.349 2.05-4.01 4.983-4.01 2.868 0 4.971 1.674 5.088 4.36l-2.155.026c-.052-1.427-1.155-2.491-2.933-2.491-1.687 0-2.777.934-2.777 2.102 0 1.038.805 1.648 2.141 1.973l2.207.519c2.621.623 3.828 1.83 3.828 3.802 0 2.544-2.271 4.063-5.269 4.063z" fill="#171321"/><path d="M49.106 621.797c-4.283 0-6.97-3.868-6.97-9.967 0-6.113 2.687-9.98 6.97-9.98 4.283 0 6.982 3.867 6.982 9.98 0 6.099-2.687 9.967-6.982 9.967zm0-2.077c2.959 0 4.763-2.985 4.763-7.89 0-4.932-1.804-7.904-4.763-7.904-2.946 0-4.75 2.985-4.75 7.904 0 4.905 1.804 7.89 4.75 7.89zM49.106 355.469c-4.283 0-6.97-3.868-6.97-9.967 0-6.113 2.687-9.98 6.97-9.98 4.283 0 6.982 3.867 6.982 9.98 0 6.099-2.687 9.967-6.982 9.967zm0-2.077c2.959 0 4.763-2.985 4.763-7.89 0-4.932-1.804-7.904-4.763-7.904-2.946 0-4.75 2.985-4.75 7.904 0 4.905 1.804 7.89 4.75 7.89zM551.514 335.82v19.337h-2.258v-16.923h-.026l-4.802 3.206v-2.401l4.802-3.219h2.284zM1046.01 355.157v-1.946l6.85-6.308c2.44-2.258 3.49-3.504 3.49-5.438 0-2.452-1.49-3.867-4.04-3.867-2.48 0-4.03 1.726-4.03 4.451h-2.2c0-3.841 2.56-6.527 6.23-6.527 3.73 0 6.26 2.375 6.26 5.866 0 2.426-1.36 4.321-4.21 6.93l-5.17 4.737v.026h9.51v2.076h-12.69zM1554.99 355.469c-4 0-6.79-2.583-6.8-6.321h2.37c0 2.7 1.64 4.27 4.38 4.27 2.63 0 4.45-1.44 4.45-3.699 0-2.063-1.92-3.426-4.77-3.426h-1.55v-2.089h1.55c2.48 0 4.16-1.246 4.16-3.141 0-2.167-1.56-3.491-3.95-3.491-2.44 0-3.96 1.441-3.96 3.855h-2.27c.02-3.492 2.61-5.905 6.25-5.905 3.56 0 6.22 2.271 6.22 5.411 0 1.973-1.32 3.582-3.46 4.231v.052c2.47.415 4.06 2.219 4.06 4.503 0 3.375-2.85 5.75-6.68 5.75zM2055.55 350.524v-1.921l9.21-12.783h1.43v2.648h-.84l-7.15 9.954v.026h12.36v2.076h-15.01zm9.84 4.633V335.82h2.23v19.337h-2.23zM434.47 621.485v-1.946l6.852-6.308c2.44-2.258 3.491-3.504 3.491-5.437 0-2.453-1.492-3.868-4.036-3.868-2.479 0-4.036 1.726-4.036 4.452h-2.193c0-3.842 2.557-6.528 6.229-6.528 3.725 0 6.256 2.375 6.256 5.866 0 2.427-1.363 4.321-4.205 6.93l-5.178 4.737v.026h9.512v2.076H434.47zM446.371 335.82v19.337h-2.258v-16.923h-.026l-4.802 3.206v-2.401l4.802-3.219h2.284zM937.293 355.157v-1.946l6.853-6.308c2.439-2.258 3.491-3.504 3.491-5.438 0-2.452-1.493-3.867-4.036-3.867-2.479 0-4.037 1.726-4.037 4.451h-2.193c0-3.841 2.557-6.527 6.23-6.527 3.724 0 6.255 2.375 6.255 5.866 0 2.426-1.363 4.321-4.205 6.93l-5.178 4.737v.026h9.513v2.076h-12.693zM1435.98 355.469c-4 0-6.79-2.583-6.8-6.321h2.38c0 2.7 1.63 4.27 4.37 4.27 2.63 0 4.45-1.44 4.45-3.699 0-2.063-1.92-3.426-4.76-3.426h-1.56v-2.089h1.56c2.48 0 4.15-1.246 4.15-3.141 0-2.167-1.56-3.491-3.94-3.491-2.44 0-3.96 1.441-3.96 3.855h-2.27c.01-3.492 2.61-5.905 6.24-5.905 3.57 0 6.23 2.271 6.23 5.411 0 1.973-1.33 3.582-3.47 4.231v.052c2.47.415 4.07 2.219 4.07 4.503 0 3.375-2.86 5.75-6.69 5.75zM1938.56 350.524v-1.921l9.22-12.783h1.42v2.648h-.84l-7.15 9.954v.026h12.37v2.076h-15.02zm9.84 4.633V335.82h2.23v19.337h-2.23zM2462.93 355.417c-3.71 0-6.49-2.492-6.63-5.827h2.35c.19 2.18 1.94 3.75 4.28 3.75 2.5 0 4.2-1.881 4.2-4.503 0-2.596-1.64-4.477-4.05-4.477-2.07 0-3.67.843-4.28 2.439l-2.24-.013.67-10.966h11.11v2.09h-9.01l-.46 6.229h.02c1.2-1.272 2.69-1.882 4.49-1.882 3.56 0 6.01 2.738 6.01 6.554 0 3.88-2.59 6.606-6.46 6.606zM551.514 602.148v19.337h-2.258v-16.923h-.026l-4.802 3.206v-2.401l4.802-3.219h2.284zM1046.01 621.485v-1.946l6.85-6.308c2.44-2.258 3.49-3.504 3.49-5.437 0-2.453-1.49-3.868-4.04-3.868-2.48 0-4.03 1.726-4.03 4.452h-2.2c0-3.842 2.56-6.528 6.23-6.528 3.73 0 6.26 2.375 6.26 5.866 0 2.427-1.36 4.321-4.21 6.93l-5.17 4.737v.026h9.51v2.076h-12.69zM1554.99 621.797c-4 0-6.79-2.583-6.8-6.32h2.37c0 2.699 1.64 4.269 4.38 4.269 2.63 0 4.45-1.44 4.45-3.698 0-2.064-1.92-3.427-4.77-3.427h-1.55v-2.089h1.55c2.48 0 4.16-1.246 4.16-3.141 0-2.167-1.56-3.491-3.95-3.491-2.44 0-3.96 1.441-3.96 3.855h-2.27c.02-3.491 2.61-5.905 6.25-5.905 3.56 0 6.22 2.271 6.22 5.412 0 1.972-1.32 3.581-3.46 4.23v.052c2.47.416 4.06 2.219 4.06 4.504 0 3.374-2.85 5.749-6.68 5.749zM943.198 621.797c-3.997 0-6.787-2.583-6.8-6.32h2.375c0 2.699 1.635 4.269 4.373 4.269 2.635 0 4.452-1.44 4.452-3.698 0-2.064-1.921-3.427-4.763-3.427h-1.558v-2.089h1.558c2.479 0 4.153-1.246 4.153-3.141 0-2.167-1.558-3.491-3.946-3.491-2.439 0-3.958 1.441-3.958 3.855h-2.271c.013-3.491 2.609-5.905 6.242-5.905 3.569 0 6.23 2.271 6.23 5.412 0 1.972-1.324 3.581-3.465 4.23v.052c2.466.416 4.062 2.219 4.062 4.504 0 3.374-2.855 5.749-6.684 5.749zM1428.21 616.852v-1.921l9.21-12.783h1.43v2.648h-.84l-7.15 9.954v.026h12.36v2.076h-15.01zm9.84 4.633v-19.337h2.23v19.337h-2.23zM1946.65 621.745c-3.72 0-6.49-2.492-6.64-5.827h2.35c.2 2.18 1.95 3.75 4.29 3.75 2.5 0 4.2-1.881 4.2-4.503 0-2.596-1.65-4.477-4.05-4.477-2.07 0-3.67.843-4.28 2.44l-2.25-.013.68-10.967h11.11v2.09h-9.01l-.47 6.229h.03c1.19-1.272 2.69-1.882 4.49-1.882 3.56 0 6.01 2.739 6.01 6.554 0 3.881-2.6 6.606-6.46 6.606z" fill="#74717A"/><path d="M35.453 61V22.326h15.21c8.669 0 14.12 4.905 14.12 12.666S59.228 47.66 50.559 47.66H39.813v-6.62H50.17c4.256 0 6.904-2.335 6.904-6.047 0-3.737-2.648-6.047-6.904-6.047h-6.853V61h-7.864zm42.983.597c-5.815 0-9.63-3.893-9.63-10.824V33.591h7.501v15.807c0 3.711 1.869 5.684 5.114 5.684 3.192 0 5.45-1.92 5.45-6.23V33.592h7.502V61h-7.398v-7.112h1.298c-1.74 4.854-4.854 7.709-9.837 7.709zM99.849 61V33.59h7.242v4.673h.078c1.012-3.27 3.089-4.854 6.67-4.854.909 0 1.662.052 2.259.078v6.437a39.6 39.6 0 00-3.271-.156c-3.141 0-5.477 2.18-5.477 6.307V61h-7.5zm20.142 10.85V33.59h7.397v3.738h.104c1.687-2.855 4.594-4.309 8.15-4.309 6.983 0 11.784 5.84 11.784 14.25 0 8.592-4.672 14.328-11.836 14.328-3.607 0-6.411-1.61-8.02-4.672h-.078V71.85h-7.501zm13.653-16.405c3.763 0 6.203-2.959 6.203-8.176 0-5.165-2.44-8.124-6.203-8.124-3.92 0-6.515 3.193-6.515 8.124 0 4.958 2.595 8.176 6.515 8.176zM160.482 61c-6.203 0-8.773-2.102-8.773-7.346V22.326h7.501v30.576c0 1.739.623 2.336 2.362 2.336h1.09V61h-2.18zm17.339.623c-8.306 0-13.679-5.97-13.679-14.302 0-8.358 5.555-14.353 13.419-14.353 8.047 0 13.445 5.84 13.445 14.223v2.025h-24.139v-4.854h20.506l-3.401 1.168c0-4.179-2.414-6.8-6.255-6.8-3.842 0-6.255 2.621-6.255 6.8v3.297c0 4.308 2.387 7.138 6.566 7.138 3.011 0 5.114-1.402 5.815-3.556h6.878c-1.012 5.45-6.282 9.214-12.9 9.214zm41.685 10.59c-7.709 0-11.966-3.504-12.744-8.825h7.267c.571 2.102 2.596 3.27 5.477 3.27 3.789 0 5.918-2.102 5.918-6.073V56.38h-.026c-1.635 3.218-4.542 4.672-8.124 4.672-7.164 0-11.862-5.762-11.862-13.938 0-8.254 4.802-14.094 11.81-14.094 3.556 0 6.411 1.53 8.176 4.568h.026V33.59h7.449v26.397c0 8.669-5.476 12.225-13.367 12.225zm-.312-17.209c3.92 0 6.515-3.14 6.515-7.994 0-4.828-2.595-7.995-6.515-7.995-3.737 0-6.177 2.907-6.177 7.995 0 5.113 2.44 7.994 6.177 7.994zM238.35 61V33.59h7.242v4.673h.077c1.013-3.27 3.089-4.854 6.671-4.854.909 0 1.661.052 2.258.078v6.437a39.57 39.57 0 00-3.27-.156c-3.141 0-5.477 2.18-5.477 6.307V61h-7.501zm27.695.467c-5.477 0-9.448-2.725-9.448-8.176 0-6.203 4.983-7.942 10.72-8.487 5.009-.494 6.748-.701 6.748-2.492v-.156c0-2.076-1.687-3.504-4.516-3.504-2.907 0-4.802 1.48-4.984 3.608h-7.112c.364-5.633 4.828-9.24 12.304-9.24 7.475 0 11.758 3.555 11.758 9.396V61h-7.346v-3.842h-.104c-1.453 2.648-3.815 4.31-8.02 4.31zm2.05-5.243c3.738 0 6.048-2.258 6.048-5.243v-2.777c-.882.493-3.089.882-5.58 1.272-2.622.389-4.75 1.401-4.75 3.607 0 1.973 1.687 3.141 4.282 3.141zm29.538 5.373c-7.164 0-11.862-5.736-11.862-14.328 0-8.41 4.802-14.25 11.81-14.25 3.556 0 6.334 1.428 8.099 4.387h.026v-15.08h7.527V61h-7.424v-4.205h-.026c-1.609 3.193-4.542 4.802-8.15 4.802zm1.921-6.152c3.919 0 6.515-3.218 6.515-8.176 0-4.931-2.596-8.124-6.515-8.124-3.738 0-6.178 2.96-6.178 8.124 0 5.218 2.44 8.176 6.178 8.176zM318.709 61V33.59h7.502V61h-7.502zm3.738-31.147c-2.362 0-4.205-1.791-4.205-4.075 0-2.258 1.843-4.075 4.205-4.075s4.205 1.817 4.205 4.075c0 2.284-1.843 4.075-4.205 4.075zm21.699 31.77c-8.306 0-13.679-5.97-13.679-14.302 0-8.358 5.555-14.353 13.42-14.353 8.046 0 13.445 5.84 13.445 14.223v2.025h-24.139v-4.854h20.505l-3.4 1.168c0-4.179-2.414-6.8-6.256-6.8-3.841 0-6.255 2.621-6.255 6.8v3.297c0 4.308 2.388 7.138 6.567 7.138 3.011 0 5.113-1.402 5.814-3.556h6.878c-1.012 5.45-6.281 9.214-12.9 9.214zm24.84-15.86V61h-7.501V33.59h7.397v7.138h-1.298c1.739-4.853 4.854-7.709 9.838-7.709 5.814 0 9.629 3.894 9.629 10.824V61h-7.501V45.219c0-3.712-1.869-5.684-5.113-5.684-3.193 0-5.451 1.92-5.451 6.229zm39.142-12.172v5.944h-17.884V33.59h17.884zm-13.134-7.476h7.527v26.501c0 1.87.597 2.466 2.673 2.466h2.934V61h-4.413c-5.97 0-8.721-2.258-8.721-7.216V26.115zm27.928 35.56c-7.034 0-12.147-3.374-12.588-9.266h7.397c.286 2.44 2.077 3.867 5.062 3.867 2.881 0 4.646-1.22 4.646-2.933 0-1.48-1.324-2.362-3.582-2.803l-4.802-.935c-5.295-1.038-8.098-3.737-8.098-7.968 0-5.191 4.464-8.617 11.55-8.617 7.034 0 11.706 3.555 11.862 9.266h-6.982c-.052-2.232-1.947-3.894-4.672-3.894-2.674 0-4.283 1.298-4.283 2.96 0 1.427 1.246 2.335 3.374 2.777l5.166 1.012c5.502 1.116 8.072 3.504 8.072 7.527 0 5.45-4.984 9.007-12.122 9.007z" fill="#171321"/><rect x="512.146" y="165.558" width="470.585" height="162.458" rx="81.229" fill="url(#paint0_linear_544_183)" stroke="#D1D0D3"/><rect x="512.146" y="433.348" width="470.585" height="162.458" rx="81.229" fill="url(#paint1_linear_544_183)" stroke="#D1D0D3"/><rect x="482.964" y="328.016" width="472.464" height="162.458" rx="81.229" transform="rotate(-180 482.964 328.016)" fill="url(#paint2_linear_544_183)" stroke="#D1D0D3"/><rect x="482.964" y="595.806" width="472.464" height="162.458" rx="81.229" transform="rotate(-180 482.964 595.806)" fill="url(#paint3_linear_544_183)" stroke="#D1D0D3"/><rect x="1484.38" y="328.016" width="470.585" height="162.458" rx="81.229" transform="rotate(180 1484.38 328.016)" fill="url(#paint4_linear_544_183)" stroke="#D1D0D3"/><rect x="1013.79" y="433.348" width="470.585" height="162.458" rx="81.229" fill="url(#paint5_linear_544_183)" stroke="#D1D0D3"/><rect x="1515.44" y="165.558" width="470.585" height="162.458" rx="81.229" fill="url(#paint6_linear_544_183)" stroke="#D1D0D3"/><rect x="1515.44" y="433.348" width="470.585" height="162.458" rx="81.229" fill="url(#paint7_linear_544_183)" stroke="#D1D0D3"/><rect x="2030.24" y="165.558" width="472.464" height="162.458" rx="81.229" fill="url(#paint8_linear_544_183)" stroke="#D1D0D3"/><path d="M41.63 784.696c-5.114 0-8.774-4.14-8.774-9.967 0-5.84 3.66-9.98 8.773-9.98 5.126 0 8.786 4.14 8.786 9.98 0 5.827-3.66 9.967-8.786 9.967zm0-2.18c3.503 0 6.436-2.777 6.436-7.787 0-5.022-2.933-7.8-6.437-7.8-3.504 0-6.437 2.778-6.437 7.8 0 5.01 2.933 7.787 6.437 7.787zm13.847-6.178v8.047h-2.22v-13.744h2.155l.013 3.335h-.61c.895-2.478 2.53-3.581 4.698-3.581 2.777 0 5.022 1.803 5.022 5.45v8.54H62.33v-8.384c0-2.375-1.194-3.582-3.245-3.582-2.011 0-3.607 1.168-3.607 3.919zm18.078 8.358c-4.036 0-6.385-2.998-6.385-7.151 0-4.179 2.57-7.202 6.216-7.202 3.79 0 6.243 2.881 6.243 7.189v.636H68.364v-1.907h10.032l-.96.661c0-2.79-1.584-4.607-4.05-4.607-2.44 0-4.023 1.83-4.023 4.594v.948c0 2.868 1.505 4.841 4.192 4.841 1.934 0 3.205-.974 3.634-2.401l2.206.026c-.532 2.608-2.855 4.373-5.84 4.373zm16.936-9.253v2.076H82.03v-2.076h8.462zm7.943 9.253c-2.933 0-5.243-1.414-5.438-4.373l2.18-.026c.169 1.635 1.298 2.504 3.206 2.504 1.895 0 3.088-.895 3.088-2.102 0-1.038-.843-1.648-2.063-1.934l-2.22-.519c-2.556-.597-3.867-1.895-3.867-3.893 0-2.349 2.05-4.01 4.984-4.01 2.868 0 4.97 1.674 5.087 4.36l-2.154.026c-.052-1.427-1.155-2.492-2.933-2.492-1.687 0-2.777.935-2.777 2.103 0 1.038.804 1.648 2.14 1.972l2.207.52c2.622.623 3.829 1.829 3.829 3.802 0 2.544-2.271 4.062-5.27 4.062zm13.873-14.055v1.908h-7.423v-1.908h7.423zm-4.996-3.725h2.206v14.133c0 1.078.389 1.441 1.518 1.441h1.272l.026 1.895c-.454.013-1.038.013-1.492.013-2.362 0-3.53-1.038-3.53-3.115v-14.367zm12.679 17.78c-4.036 0-6.385-2.998-6.385-7.151 0-4.179 2.57-7.202 6.216-7.202 3.79 0 6.243 2.881 6.243 7.189v.636h-11.265v-1.907h10.032l-.961.661c0-2.79-1.583-4.607-4.049-4.607-2.44 0-4.023 1.83-4.023 4.594v.948c0 2.868 1.506 4.841 4.192 4.841 1.934 0 3.206-.974 3.634-2.401l2.206.026c-.532 2.608-2.855 4.373-5.84 4.373zm8.643 5.114v-19.169h2.168v2.051h.026c.869-1.493 2.504-2.297 4.334-2.297 3.569 0 5.957 2.881 5.957 7.124 0 4.244-2.388 7.138-5.957 7.138-1.83 0-3.322-.804-4.282-2.349h-.026v7.502h-2.22zm6.191-7.151c2.388 0 4.049-1.791 4.049-5.14 0-3.348-1.661-5.152-4.049-5.152-2.557 0-4.153 2.051-4.153 5.152 0 3.102 1.609 5.14 4.153 5.14zm21.362 7.345c-3.102 0-5.412-1.453-5.776-4.088l2.233-.065c.402 1.441 1.739 2.207 3.543 2.207 2.375 0 3.841-1.311 3.841-3.66v-2.116h-.026c-.986 1.558-2.453 2.349-4.309 2.349-3.569 0-5.957-2.881-5.957-7.112 0-4.243 2.388-7.124 5.957-7.124 1.83 0 3.414.765 4.348 2.4h.013v-2.154h2.167v13.77c0 4.036-2.829 5.593-6.034 5.593zm-.156-7.371c2.543 0 4.153-2.012 4.153-5.127 0-3.088-1.597-5.139-4.153-5.139-2.388 0-4.049 1.804-4.049 5.139 0 3.349 1.661 5.127 4.049 5.127zm9.513 1.752v-13.744h2.115v2.167h.052c.506-1.427 1.609-2.375 3.322-2.375.403 0 .766.052.948.078v2.22a5.596 5.596 0 00-1.35-.156c-1.557 0-2.868 1.038-2.868 3.348v8.462h-2.219zm12.433.22c-2.726 0-4.789-1.427-4.789-4.166 0-3.153 2.712-3.724 5.463-4.088 2.609-.35 3.465-.246 3.465-1.297v-.13c0-1.506-1.116-2.583-3.036-2.583-1.921 0-3.232 1.051-3.349 2.401l-2.245-.039c.156-2.505 2.388-4.308 5.594-4.308 3.127 0 5.217 1.739 5.217 4.542v9.448h-2.181v-1.947h-.051c-.507.999-1.597 2.167-4.088 2.167zm.311-1.972c2.699 0 3.828-1.648 3.828-3.439v-1.726c-.337.324-2.037.571-3.568.778-1.597.221-3.102.766-3.102 2.323 0 1.298 1.09 2.064 2.842 2.064zm14.6 2.024c-3.569 0-5.957-2.894-5.957-7.138 0-4.243 2.388-7.124 5.957-7.124 1.83 0 3.413.804 4.283 2.297h.026v-7.644h2.219v19.337h-2.167v-2.077h-.039c-.961 1.545-2.492 2.349-4.322 2.349zm.338-1.998c2.543 0 4.153-2.038 4.153-5.14 0-3.101-1.61-5.152-4.153-5.152-2.401 0-4.049 1.804-4.049 5.152 0 3.349 1.661 5.14 4.049 5.14zm9.512 1.726v-13.744h2.22v13.744h-2.22zm1.104-16.391a1.518 1.518 0 01-1.506-1.519c0-.83.675-1.505 1.506-1.505a1.51 1.51 0 011.518 1.505 1.52 1.52 0 01-1.518 1.519zm10.109 16.702c-4.036 0-6.385-2.998-6.385-7.151 0-4.179 2.57-7.202 6.217-7.202 3.789 0 6.242 2.881 6.242 7.189v.636h-11.265v-1.907h10.032l-.96.661c0-2.79-1.583-4.607-4.049-4.607-2.44 0-4.023 1.83-4.023 4.594v.948c0 2.868 1.505 4.841 4.191 4.841 1.934 0 3.206-.974 3.634-2.401l2.206.026c-.532 2.608-2.855 4.373-5.84 4.373zm10.863-8.358v8.047h-2.219v-13.744h2.154l.013 3.335h-.61c.896-2.478 2.531-3.581 4.698-3.581 2.777 0 5.023 1.803 5.023 5.45v8.54h-2.207v-8.384c0-2.375-1.194-3.582-3.244-3.582-2.012 0-3.608 1.168-3.608 3.919zm18.364-5.697v1.908h-7.424v-1.908h7.424zm-4.997-3.725h2.206v14.133c0 1.078.39 1.441 1.519 1.441h1.272l.026 1.895c-.455.013-1.039.013-1.493.013-2.362 0-3.53-1.038-3.53-3.115v-14.367zm11.862 17.78c-2.933 0-5.243-1.414-5.438-4.373l2.181-.026c.168 1.635 1.297 2.504 3.205 2.504 1.895 0 3.089-.895 3.089-2.102 0-1.038-.844-1.648-2.064-1.934l-2.219-.519c-2.556-.597-3.867-1.895-3.867-3.893 0-2.349 2.05-4.01 4.983-4.01 2.868 0 4.971 1.674 5.088 4.36l-2.155.026c-.052-1.427-1.155-2.492-2.933-2.492-1.687 0-2.777.935-2.777 2.103 0 1.038.805 1.648 2.141 1.972l2.207.52c2.621.623 3.828 1.829 3.828 3.802 0 2.544-2.271 4.062-5.269 4.062zM32.35 1048.93v-2.09h14.912v2.09h-6.269v17.25h-2.349v-17.25H32.35zm17.468 17.25l-4.256-13.75h2.31l1.726 6.05c.532 1.84 1.012 3.83 1.531 5.74h-.324c.506-1.91 1.012-3.88 1.531-5.74l1.739-6.05h2.206l1.713 6.05c.52 1.84 1.013 3.83 1.519 5.74h-.35c.519-1.91 1.012-3.9 1.557-5.74l1.765-6.05h2.31l-4.257 13.75h-2.31l-1.817-6.25c-.532-1.85-1.012-3.86-1.518-5.75h.584c-.52 1.89-1 3.9-1.558 5.75l-1.843 6.25h-2.258zm22.244.31c-3.802 0-6.372-2.96-6.372-7.15 0-4.22 2.57-7.21 6.372-7.21 3.816 0 6.373 2.99 6.373 7.21 0 4.19-2.557 7.15-6.373 7.15zm0-2c2.609 0 4.14-2.06 4.14-5.15 0-3.12-1.544-5.21-4.14-5.21-2.595 0-4.126 2.08-4.126 5.21 0 3.1 1.518 5.15 4.126 5.15zm17.287-7.26v2.08h-8.462v-2.08h8.462zm7.943 9.26c-2.933 0-5.243-1.42-5.438-4.38l2.18-.02c.169 1.63 1.298 2.5 3.206 2.5 1.895 0 3.088-.89 3.088-2.1 0-1.04-.843-1.65-2.063-1.93l-2.22-.52c-2.556-.6-3.867-1.9-3.867-3.9 0-2.35 2.05-4.01 4.984-4.01 2.868 0 4.97 1.68 5.087 4.36l-2.154.03c-.052-1.43-1.155-2.49-2.933-2.49-1.687 0-2.778.93-2.778 2.1 0 1.04.805 1.65 2.142 1.97l2.206.52c2.622.63 3.829 1.83 3.829 3.81 0 2.54-2.272 4.06-5.27 4.06zm13.873-14.06v1.91h-7.423v-1.91h7.423zm-4.996-3.72h2.206v14.13c0 1.08.389 1.44 1.518 1.44h1.272l.026 1.9c-.454.01-1.038.01-1.492.01-2.362 0-3.53-1.04-3.53-3.12v-14.36zm12.679 17.78c-4.036 0-6.385-3-6.385-7.15 0-4.18 2.569-7.21 6.216-7.21 3.79 0 6.243 2.88 6.243 7.19v.64h-11.265v-1.91h10.032l-.961.66c0-2.79-1.583-4.6-4.049-4.6-2.44 0-4.023 1.83-4.023 4.59v.95c0 2.87 1.506 4.84 4.192 4.84 1.934 0 3.206-.97 3.634-2.4l2.206.02c-.532 2.61-2.855 4.38-5.84 4.38zm8.643 5.11v-19.17h2.168v2.05h.026c.869-1.49 2.504-2.29 4.334-2.29 3.569 0 5.957 2.88 5.957 7.12s-2.388 7.14-5.957 7.14c-1.83 0-3.322-.81-4.283-2.35h-.025v7.5h-2.22zm6.191-7.15c2.388 0 4.049-1.79 4.049-5.14 0-3.35-1.661-5.15-4.049-5.15-2.557 0-4.153 2.05-4.153 5.15 0 3.1 1.609 5.14 4.153 5.14zm21.361 7.35c-3.101 0-5.411-1.46-5.775-4.09l2.232-.07c.403 1.44 1.74 2.21 3.543 2.21 2.375 0 3.842-1.31 3.842-3.66v-2.12h-.026c-.986 1.56-2.453 2.35-4.309 2.35-3.569 0-5.957-2.88-5.957-7.11 0-4.24 2.388-7.12 5.957-7.12 1.83 0 3.414.76 4.348 2.4h.013v-2.16h2.167v13.77c0 4.04-2.829 5.6-6.035 5.6zm-.155-7.38c2.543 0 4.153-2.01 4.153-5.12 0-3.09-1.597-5.14-4.153-5.14-2.388 0-4.049 1.8-4.049 5.14 0 3.35 1.661 5.12 4.049 5.12zm9.513 1.76v-13.75h2.115v2.17h.052c.506-1.43 1.609-2.38 3.322-2.38.403 0 .766.06.948.08v2.22a5.808 5.808 0 00-1.35-.15c-1.557 0-2.868 1.03-2.868 3.34v8.47h-2.219zm12.432.22c-2.725 0-4.788-1.43-4.788-4.17 0-3.15 2.712-3.72 5.463-4.09 2.609-.35 3.465-.24 3.465-1.3v-.13c0-1.5-1.116-2.58-3.036-2.58-1.921 0-3.232 1.05-3.349 2.4l-2.245-.04c.156-2.5 2.388-4.3 5.594-4.3 3.127 0 5.217 1.73 5.217 4.54v9.45h-2.181v-1.95h-.051c-.507 1-1.597 2.17-4.089 2.17zm.312-1.98c2.699 0 3.828-1.64 3.828-3.44v-1.72c-.337.32-2.037.57-3.569.78-1.596.22-3.101.76-3.101 2.32 0 1.3 1.09 2.06 2.842 2.06zm14.6 2.03c-3.569 0-5.957-2.9-5.957-7.14s2.388-7.12 5.957-7.12c1.83 0 3.413.8 4.283 2.29h.026v-7.64h2.219v19.34h-2.167v-2.08h-.039c-.961 1.54-2.492 2.35-4.322 2.35zm.338-2c2.543 0 4.153-2.04 4.153-5.14 0-3.1-1.61-5.15-4.153-5.15-2.401 0-4.05 1.8-4.05 5.15 0 3.35 1.662 5.14 4.05 5.14zm9.512 1.73v-13.75h2.22v13.75h-2.22zm1.104-16.4a1.511 1.511 0 11.01-3.022 1.511 1.511 0 01-.01 3.022zm10.109 16.71c-4.036 0-6.385-3-6.385-7.15 0-4.18 2.57-7.21 6.217-7.21 3.789 0 6.242 2.88 6.242 7.19v.64h-11.265v-1.91h10.032l-.96.66c0-2.79-1.584-4.6-4.049-4.6-2.44 0-4.024 1.83-4.024 4.59v.95c0 2.87 1.506 4.84 4.192 4.84 1.934 0 3.206-.97 3.634-2.4l2.206.02c-.532 2.61-2.855 4.38-5.84 4.38zm10.863-8.36v8.05h-2.219v-13.75h2.154l.013 3.34h-.61c.896-2.48 2.531-3.58 4.698-3.58 2.777 0 5.023 1.8 5.023 5.45v8.54h-2.207v-8.39c0-2.37-1.194-3.58-3.244-3.58-2.012 0-3.608 1.17-3.608 3.92zm18.364-5.7v1.91h-7.424v-1.91h7.424zm-4.997-3.72h2.206v14.13c0 1.08.39 1.44 1.519 1.44h1.272l.026 1.9c-.455.01-1.039.01-1.493.01-2.362 0-3.53-1.04-3.53-3.12v-14.36zm11.862 17.78c-2.933 0-5.243-1.42-5.438-4.38l2.181-.02c.168 1.63 1.297 2.5 3.205 2.5 1.895 0 3.089-.89 3.089-2.1 0-1.04-.844-1.65-2.064-1.93l-2.219-.52c-2.556-.6-3.867-1.9-3.867-3.9 0-2.35 2.05-4.01 4.983-4.01 2.868 0 4.971 1.68 5.088 4.36l-2.155.03c-.052-1.43-1.155-2.49-2.933-2.49-1.687 0-2.777.93-2.777 2.1 0 1.04.805 1.65 2.141 1.97l2.207.52c2.621.63 3.828 1.83 3.828 3.81 0 2.54-2.271 4.06-5.269 4.06z" fill="#171321"/><path d="M49.106 1272.47c-4.283 0-6.97-3.87-6.97-9.97 0-6.11 2.687-9.98 6.97-9.98 4.283 0 6.982 3.87 6.982 9.98 0 6.1-2.687 9.97-6.982 9.97zm0-2.08c2.959 0 4.763-2.98 4.763-7.89 0-4.93-1.804-7.9-4.763-7.9-2.946 0-4.75 2.98-4.75 7.9 0 4.91 1.804 7.89 4.75 7.89zM49.106 1006.54c-4.283 0-6.97-3.87-6.97-9.965 0-6.113 2.687-9.98 6.97-9.98 4.283 0 6.982 3.867 6.982 9.98 0 6.095-2.687 9.965-6.982 9.965zm0-2.07c2.959 0 4.763-2.99 4.763-7.895 0-4.932-1.804-7.904-4.763-7.904-2.946 0-4.75 2.985-4.75 7.904 0 4.905 1.804 7.895 4.75 7.895zM551.514 986.893v19.337h-2.258v-16.923h-.026l-4.802 3.206v-2.401l4.802-3.219h2.284zM1046.01 1006.23v-1.95l6.85-6.304c2.44-2.258 3.49-3.504 3.49-5.437 0-2.453-1.49-3.868-4.04-3.868-2.48 0-4.03 1.726-4.03 4.452h-2.2c0-3.842 2.56-6.528 6.23-6.528 3.73 0 6.26 2.375 6.26 5.866 0 2.427-1.36 4.322-4.21 6.93l-5.17 4.739v.02h9.51v2.08h-12.69zM434.47 1272.16v-1.95l6.852-6.3c2.44-2.26 3.491-3.51 3.491-5.44 0-2.46-1.492-3.87-4.036-3.87-2.479 0-4.036 1.73-4.036 4.45h-2.193c0-3.84 2.557-6.53 6.229-6.53 3.725 0 6.256 2.38 6.256 5.87 0 2.43-1.363 4.32-4.205 6.93l-5.178 4.74v.02h9.512v2.08H434.47zM446.371 986.893v19.337h-2.258v-16.923h-.026l-4.802 3.206v-2.401l4.802-3.219h2.284zM937.293 1006.23v-1.95l6.853-6.304c2.439-2.258 3.491-3.504 3.491-5.437 0-2.453-1.493-3.868-4.036-3.868-2.479 0-4.037 1.726-4.037 4.452h-2.193c0-3.842 2.557-6.528 6.23-6.528 3.724 0 6.255 2.375 6.255 5.866 0 2.427-1.363 4.322-4.205 6.93l-5.178 4.739v.02h9.513v2.08h-12.693zM1435.98 1006.54c-4 0-6.79-2.58-6.8-6.32h2.38c0 2.7 1.63 4.27 4.37 4.27 2.63 0 4.45-1.44 4.45-3.7 0-2.061-1.92-3.423-4.76-3.423h-1.56v-2.09h1.56c2.48 0 4.15-1.246 4.15-3.141 0-2.167-1.56-3.491-3.94-3.491-2.44 0-3.96 1.441-3.96 3.855h-2.27c.01-3.491 2.61-5.905 6.24-5.905 3.57 0 6.23 2.271 6.23 5.412 0 1.972-1.33 3.582-3.47 4.23v.052c2.47.416 4.07 2.22 4.07 4.501 0 3.38-2.86 5.75-6.69 5.75zM551.514 1252.82v19.34h-2.258v-16.92h-.026l-4.802 3.2v-2.4l4.802-3.22h2.284zM943.198 1272.47c-3.997 0-6.787-2.58-6.8-6.32h2.375c0 2.7 1.635 4.27 4.373 4.27 2.635 0 4.452-1.44 4.452-3.7 0-2.06-1.921-3.42-4.763-3.42h-1.558v-2.09h1.558c2.479 0 4.153-1.25 4.153-3.14 0-2.17-1.558-3.5-3.946-3.5-2.439 0-3.958 1.44-3.958 3.86h-2.271c.013-3.49 2.609-5.91 6.242-5.91 3.569 0 6.23 2.27 6.23 5.42 0 1.97-1.324 3.58-3.465 4.23v.05c2.466.41 4.062 2.22 4.062 4.5 0 3.38-2.855 5.75-6.684 5.75z" fill="#74717A"/><path d="M52.402 730.101c-10.409 0-18.195-7.682-18.195-19.934 0-12.303 7.786-19.986 18.195-19.986 10.382 0 18.195 7.683 18.195 19.986 0 12.277-7.813 19.934-18.195 19.934zm0-6.93c5.996 0 10.304-4.724 10.304-13.004 0-8.306-4.308-13.03-10.304-13.03-6.022 0-10.305 4.724-10.305 13.03 0 8.28 4.283 13.004 10.305 13.004zm22.633 6.308v-27.41h7.242v4.672h.078c1.012-3.27 3.089-4.854 6.67-4.854.909 0 1.662.052 2.259.078v6.437a39.619 39.619 0 00-3.27-.155c-3.141 0-5.477 2.18-5.477 6.307v14.925h-7.502zm27.695.467c-5.476 0-9.448-2.726-9.448-8.176 0-6.204 4.984-7.943 10.72-8.488 5.01-.493 6.749-.701 6.749-2.492v-.155c0-2.077-1.687-3.505-4.517-3.505-2.907 0-4.801 1.48-4.983 3.608h-7.112c.363-5.632 4.828-9.24 12.303-9.24 7.475 0 11.758 3.556 11.758 9.396v18.585h-7.345v-3.842h-.104c-1.454 2.648-3.816 4.309-8.021 4.309zm2.051-5.243c3.737 0 6.048-2.259 6.048-5.243v-2.778c-.883.493-3.089.883-5.581 1.272-2.622.389-4.75 1.402-4.75 3.608 0 1.973 1.687 3.141 4.283 3.141zm26.397-10.461v15.237h-7.501v-27.41h7.397v7.138h-1.298c1.739-4.854 4.854-7.709 9.838-7.709 5.814 0 9.629 3.893 9.629 10.824v17.157h-7.501v-15.782c0-3.711-1.869-5.684-5.113-5.684-3.193 0-5.451 1.921-5.451 6.229zm36.416 26.449c-7.709 0-11.966-3.504-12.744-8.825h7.267c.571 2.103 2.596 3.271 5.477 3.271 3.79 0 5.918-2.103 5.918-6.074v-4.205h-.026c-1.635 3.219-4.542 4.672-8.124 4.672-7.164 0-11.862-5.762-11.862-13.938 0-8.254 4.802-14.094 11.81-14.094 3.556 0 6.411 1.531 8.176 4.568h.026v-3.997h7.449v26.397c0 8.67-5.476 12.225-13.367 12.225zm-.311-17.208c3.919 0 6.515-3.141 6.515-7.995 0-4.828-2.596-7.994-6.515-7.994-3.738 0-6.178 2.907-6.178 7.994 0 5.114 2.44 7.995 6.178 7.995zm31.614 6.618c-8.306 0-13.679-5.969-13.679-14.301 0-8.358 5.555-14.354 13.419-14.354 8.047 0 13.446 5.84 13.446 14.224v2.025h-24.139v-4.854h20.505l-3.401 1.168c0-4.179-2.413-6.801-6.255-6.801-3.841 0-6.255 2.622-6.255 6.801v3.296c0 4.309 2.388 7.138 6.567 7.138 3.01 0 5.113-1.402 5.814-3.556h6.878c-1.012 5.451-6.281 9.214-12.9 9.214zm41.685 10.59c-7.709 0-11.966-3.504-12.744-8.825h7.267c.571 2.103 2.596 3.271 5.477 3.271 3.79 0 5.918-2.103 5.918-6.074v-4.205h-.026c-1.635 3.219-4.542 4.672-8.124 4.672-7.164 0-11.862-5.762-11.862-13.938 0-8.254 4.802-14.094 11.81-14.094 3.556 0 6.411 1.531 8.176 4.568h.026v-3.997h7.449v26.397c0 8.67-5.476 12.225-13.367 12.225zm-.311-17.208c3.919 0 6.515-3.141 6.515-7.995 0-4.828-2.596-7.994-6.515-7.994-3.738 0-6.178 2.907-6.178 7.994 0 5.114 2.44 7.995 6.178 7.995zm19.155 5.996v-27.41h7.242v4.672h.078c1.012-3.27 3.088-4.854 6.67-4.854.909 0 1.662.052 2.259.078v6.437a39.651 39.651 0 00-3.271-.155c-3.141 0-5.477 2.18-5.477 6.307v14.925h-7.501zm27.695.467c-5.477 0-9.448-2.726-9.448-8.176 0-6.204 4.984-7.943 10.72-8.488 5.009-.493 6.748-.701 6.748-2.492v-.155c0-2.077-1.687-3.505-4.516-3.505-2.907 0-4.802 1.48-4.983 3.608h-7.112c.363-5.632 4.827-9.24 12.303-9.24 7.475 0 11.758 3.556 11.758 9.396v18.585h-7.346v-3.842h-.104c-1.453 2.648-3.815 4.309-8.02 4.309zm2.051-5.243c3.737 0 6.047-2.259 6.047-5.243v-2.778c-.882.493-3.088.883-5.58 1.272-2.622.389-4.75 1.402-4.75 3.608 0 1.973 1.687 3.141 4.283 3.141zm29.537 5.373c-7.163 0-11.861-5.737-11.861-14.328 0-8.41 4.801-14.25 11.81-14.25 3.555 0 6.333 1.428 8.098 4.387h.026v-15.081h7.527v38.675h-7.423v-4.205h-.026c-1.61 3.192-4.543 4.802-8.151 4.802zm1.921-6.152c3.92 0 6.515-3.219 6.515-8.176 0-4.932-2.595-8.124-6.515-8.124-3.737 0-6.177 2.959-6.177 8.124 0 5.217 2.44 8.176 6.177 8.176zm19.156 5.555v-27.41h7.501v27.41h-7.501zm3.737-31.148c-2.362 0-4.205-1.791-4.205-4.075 0-2.258 1.843-4.075 4.205-4.075s4.205 1.817 4.205 4.075c0 2.284-1.843 4.075-4.205 4.075zm21.699 31.77c-8.305 0-13.678-5.969-13.678-14.301 0-8.358 5.554-14.354 13.419-14.354 8.046 0 13.445 5.84 13.445 14.224v2.025h-24.139v-4.854h20.505l-3.4 1.168c0-4.179-2.414-6.801-6.255-6.801-3.842 0-6.256 2.622-6.256 6.801v3.296c0 4.309 2.388 7.138 6.567 7.138 3.011 0 5.113-1.402 5.814-3.556h6.879c-1.013 5.451-6.282 9.214-12.901 9.214zm24.84-15.859v15.237h-7.501v-27.41h7.397v7.138h-1.297c1.739-4.854 4.853-7.709 9.837-7.709 5.814 0 9.63 3.893 9.63 10.824v17.157h-7.502v-15.782c0-3.711-1.869-5.684-5.113-5.684-3.193 0-5.451 1.921-5.451 6.229zm39.142-12.173v5.944H411.32v-5.944h17.884zm-13.134-7.475h7.527v26.501c0 1.869.597 2.466 2.674 2.466h2.933v5.918h-4.413c-5.97 0-8.721-2.259-8.721-7.216v-27.669zm27.929 35.559c-7.034 0-12.148-3.374-12.589-9.266h7.397c.286 2.44 2.077 3.868 5.062 3.868 2.881 0 4.646-1.22 4.646-2.933 0-1.48-1.324-2.362-3.582-2.804l-4.802-.934c-5.295-1.038-8.098-3.738-8.098-7.969 0-5.191 4.464-8.617 11.55-8.617 7.034 0 11.706 3.556 11.862 9.266h-6.982c-.052-2.232-1.947-3.893-4.672-3.893-2.674 0-4.283 1.298-4.283 2.959 0 1.427 1.246 2.336 3.374 2.777l5.166 1.012c5.502 1.117 8.072 3.505 8.072 7.528 0 5.45-4.984 9.006-12.121 9.006z" fill="#171321"/><rect x="512.146" y="816.245" width="470.585" height="162.458" rx="81.229" fill="url(#paint9_linear_544_183)" stroke="#D1D0D3"/><rect x="512.146" y="1084.03" width="470.585" height="162.458" rx="81.229" fill="url(#paint10_linear_544_183)" stroke="#D1D0D3"/><rect x="482.964" y="978.702" width="472.464" height="162.458" rx="81.229" transform="rotate(-180 482.964 978.702)" fill="url(#paint11_linear_544_183)" stroke="#D1D0D3"/><rect x="482.964" y="1246.48" width="472.464" height="162.458" rx="81.229" transform="rotate(-180 482.964 1246.48)" fill="url(#paint12_linear_544_183)" stroke="#D1D0D3"/><rect x="1013.79" y="816.245" width="470.585" height="162.458" rx="81.229" fill="url(#paint13_linear_544_183)" stroke="#D1D0D3"/><path d="M1538.81 697.553v-6.749h31.41v6.749h-11.76v31.926h-7.87v-31.926h-11.78zm41.3 32.548c-8.31 0-13.68-5.969-13.68-14.301 0-8.358 5.55-14.354 13.42-14.354 8.04 0 13.44 5.84 13.44 14.224v2.025h-24.14v-4.854h20.51l-3.4 1.168c0-4.179-2.42-6.801-6.26-6.801s-6.25 2.622-6.25 6.801v3.296c0 4.309 2.39 7.138 6.56 7.138 3.02 0 5.12-1.402 5.82-3.556h6.88c-1.02 5.451-6.28 9.214-12.9 9.214zm26.13-.155c-5.47 0-9.44-2.726-9.44-8.176 0-6.204 4.98-7.943 10.72-8.488 5.01-.493 6.74-.701 6.74-2.492v-.155c0-2.077-1.68-3.505-4.51-3.505-2.91 0-4.8 1.48-4.99 3.608h-7.11c.37-5.632 4.83-9.24 12.31-9.24 7.47 0 11.75 3.556 11.75 9.396v18.585h-7.34v-3.842h-.11c-1.45 2.648-3.81 4.309-8.02 4.309zm2.05-5.243c3.74 0 6.05-2.259 6.05-5.243v-2.778c-.88.493-3.09.883-5.58 1.272-2.62.389-4.75 1.402-4.75 3.608 0 1.973 1.69 3.141 4.28 3.141zm27.67 4.776c-6.2 0-8.77-2.103-8.77-7.346v-31.329h7.5v30.576c0 1.739.62 2.336 2.36 2.336h1.09v5.763h-2.18zm30.01 11.212c-7.71 0-11.97-3.504-12.75-8.825h7.27c.57 2.103 2.6 3.271 5.48 3.271 3.79 0 5.92-2.103 5.92-6.074v-4.205h-.03c-1.63 3.219-4.54 4.672-8.12 4.672-7.17 0-11.87-5.762-11.87-13.938 0-8.254 4.81-14.094 11.81-14.094 3.56 0 6.42 1.531 8.18 4.568h.03v-3.997h7.45v26.397c0 8.67-5.48 12.225-13.37 12.225zm-.31-17.208c3.92 0 6.51-3.141 6.51-7.995 0-4.828-2.59-7.994-6.51-7.994-3.74 0-6.18 2.907-6.18 7.994 0 5.114 2.44 7.995 6.18 7.995zm19.15 5.996v-27.41h7.24v4.672h.08c1.01-3.27 3.09-4.854 6.67-4.854.91 0 1.66.052 2.26.078v6.437c-.54-.052-1.97-.155-3.27-.155-3.14 0-5.48 2.18-5.48 6.307v14.925h-7.5zm27.7.467c-5.48 0-9.45-2.726-9.45-8.176 0-6.204 4.98-7.943 10.72-8.488 5.01-.493 6.75-.701 6.75-2.492v-.155c0-2.077-1.69-3.505-4.52-3.505-2.91 0-4.8 1.48-4.98 3.608h-7.11c.36-5.632 4.82-9.24 12.3-9.24 7.47 0 11.76 3.556 11.76 9.396v18.585h-7.35v-3.842h-.1c-1.46 2.648-3.82 4.309-8.02 4.309zm2.05-5.243c3.74 0 6.05-2.259 6.05-5.243v-2.778c-.89.493-3.09.883-5.58 1.272-2.63.389-4.75 1.402-4.75 3.608 0 1.973 1.68 3.141 4.28 3.141zm29.54 5.373c-7.17 0-11.87-5.737-11.87-14.328 0-8.41 4.81-14.25 11.81-14.25 3.56 0 6.34 1.428 8.1 4.387h.03v-15.081h7.53v38.675h-7.43v-4.205h-.02c-1.61 3.192-4.55 4.802-8.15 4.802zm1.92-6.152c3.92 0 6.51-3.219 6.51-8.176 0-4.932-2.59-8.124-6.51-8.124-3.74 0-6.18 2.959-6.18 8.124 0 5.217 2.44 8.176 6.18 8.176zm19.15 5.555v-27.41h7.5v27.41h-7.5zm3.74-31.148c-2.36 0-4.2-1.791-4.2-4.075 0-2.258 1.84-4.075 4.2-4.075 2.36 0 4.2 1.817 4.2 4.075 0 2.284-1.84 4.075-4.2 4.075zm21.7 31.77c-8.31 0-13.68-5.969-13.68-14.301 0-8.358 5.55-14.354 13.42-14.354 8.05 0 13.44 5.84 13.44 14.224v2.025h-24.13v-4.854h20.5l-3.4 1.168c0-4.179-2.41-6.801-6.25-6.801-3.85 0-6.26 2.622-6.26 6.801v3.296c0 4.309 2.39 7.138 6.57 7.138 3.01 0 5.11-1.402 5.81-3.556h6.88c-1.01 5.451-6.28 9.214-12.9 9.214zm24.84-15.859v15.237h-7.5v-27.41h7.4v7.138h-1.3c1.74-4.854 4.85-7.709 9.83-7.709 5.82 0 9.63 3.893 9.63 10.824v17.157h-7.5v-15.782c0-3.711-1.87-5.684-5.11-5.684-3.19 0-5.45 1.921-5.45 6.229zm39.14-12.173v5.944h-17.88v-5.944h17.88zm-13.13-7.475h7.52v26.501c0 1.869.6 2.466 2.68 2.466h2.93v5.918h-4.41c-5.97 0-8.72-2.259-8.72-7.216v-27.669zm27.93 35.559c-7.04 0-12.15-3.374-12.59-9.266h7.39c.29 2.44 2.08 3.868 5.07 3.868 2.88 0 4.64-1.22 4.64-2.933 0-1.48-1.32-2.362-3.58-2.804l-4.8-.934c-5.3-1.038-8.1-3.738-8.1-7.969 0-5.191 4.46-8.617 11.55-8.617 7.03 0 11.71 3.556 11.86 9.266h-6.98c-.05-2.232-1.95-3.893-4.67-3.893-2.68 0-4.29 1.298-4.29 2.959 0 1.427 1.25 2.336 3.38 2.777l5.16 1.012c5.51 1.117 8.08 3.505 8.08 7.528 0 5.45-4.99 9.006-12.12 9.006zM1546.75 785.58c-5.11 0-8.77-4.14-8.77-9.967 0-5.84 3.66-9.98 8.77-9.98 5.13 0 8.79 4.14 8.79 9.98 0 5.827-3.66 9.967-8.79 9.967zm0-2.18c3.51 0 6.44-2.778 6.44-7.787 0-5.023-2.93-7.8-6.44-7.8-3.5 0-6.43 2.777-6.43 7.8 0 5.009 2.93 7.787 6.43 7.787zm13.85-6.178v8.047h-2.22v-13.744h2.15l.02 3.335h-.61c.89-2.479 2.53-3.582 4.7-3.582 2.77 0 5.02 1.804 5.02 5.451v8.54h-2.21v-8.384c0-2.375-1.19-3.582-3.24-3.582-2.01 0-3.61 1.168-3.61 3.919zm18.08 8.358c-4.04 0-6.39-2.998-6.39-7.151 0-4.179 2.57-7.203 6.22-7.203 3.79 0 6.24 2.882 6.24 7.19v.636h-11.26v-1.908h10.03l-.96.662c0-2.79-1.58-4.607-4.05-4.607-2.44 0-4.02 1.83-4.02 4.594v.948c0 2.868 1.5 4.84 4.19 4.84 1.93 0 3.2-.973 3.63-2.401l2.21.026c-.53 2.609-2.86 4.374-5.84 4.374zm16.93-9.253v2.076h-8.46v-2.076h8.46zm7.95 9.253c-2.94 0-5.25-1.415-5.44-4.374l2.18-.026c.17 1.636 1.3 2.505 3.2 2.505 1.9 0 3.09-.895 3.09-2.102 0-1.038-.84-1.648-2.06-1.934l-2.22-.519c-2.56-.597-3.87-1.895-3.87-3.893 0-2.349 2.05-4.011 4.99-4.011 2.87 0 4.97 1.675 5.08 4.361l-2.15.026c-.05-1.428-1.16-2.492-2.93-2.492-1.69 0-2.78.935-2.78 2.103 0 1.038.8 1.648 2.14 1.972l2.21.519c2.62.623 3.83 1.83 3.83 3.803 0 2.544-2.28 4.062-5.27 4.062zm13.87-14.055v1.908h-7.42v-1.908h7.42zm-5-3.725h2.21v14.133c0 1.077.39 1.441 1.52 1.441h1.27l.03 1.895c-.46.013-1.04.013-1.5.013-2.36 0-3.53-1.039-3.53-3.115V767.8zm12.68 17.78c-4.03 0-6.38-2.998-6.38-7.151 0-4.179 2.57-7.203 6.21-7.203 3.79 0 6.25 2.882 6.25 7.19v.636h-11.27v-1.908h10.03l-.96.662c0-2.79-1.58-4.607-4.05-4.607-2.44 0-4.02 1.83-4.02 4.594v.948c0 2.868 1.51 4.84 4.19 4.84 1.94 0 3.21-.973 3.64-2.401l2.2.026c-.53 2.609-2.85 4.374-5.84 4.374zm8.65 5.113v-19.168h2.16v2.05h.03c.87-1.492 2.5-2.297 4.33-2.297 3.57 0 5.96 2.881 5.96 7.125s-2.39 7.138-5.96 7.138c-1.83 0-3.32-.805-4.28-2.349h-.02v7.501h-2.22zm6.19-7.151c2.38 0 4.05-1.79 4.05-5.139 0-3.348-1.67-5.152-4.05-5.152-2.56 0-4.16 2.05-4.16 5.152 0 3.102 1.61 5.139 4.16 5.139zm21.36 7.346c-3.1 0-5.41-1.454-5.78-4.088l2.24-.065c.4 1.441 1.73 2.206 3.54 2.206 2.37 0 3.84-1.31 3.84-3.659v-2.116h-.03c-.98 1.557-2.45 2.349-4.3 2.349-3.57 0-5.96-2.881-5.96-7.112 0-4.244 2.39-7.125 5.96-7.125 1.83 0 3.41.766 4.34 2.401h.02v-2.154h2.16v13.77c0 4.036-2.83 5.593-6.03 5.593zm-.16-7.371c2.55 0 4.16-2.012 4.16-5.127 0-3.089-1.6-5.139-4.16-5.139-2.39 0-4.05 1.804-4.05 5.139 0 3.349 1.66 5.127 4.05 5.127zm9.52 1.752v-13.744h2.11v2.167h.05c.51-1.427 1.61-2.375 3.33-2.375.4 0 .76.052.94.078v2.219a5.567 5.567 0 00-1.35-.155c-1.55 0-2.87 1.038-2.87 3.348v8.462h-2.21zm12.43.22c-2.73 0-4.79-1.427-4.79-4.166 0-3.153 2.71-3.724 5.46-4.088 2.61-.35 3.47-.246 3.47-1.298v-.129c0-1.506-1.12-2.583-3.04-2.583s-3.23 1.051-3.35 2.401l-2.24-.039c.15-2.505 2.39-4.309 5.59-4.309 3.13 0 5.22 1.739 5.22 4.543v9.448h-2.18v-1.947h-.05c-.51.999-1.6 2.167-4.09 2.167zm.31-1.972c2.7 0 3.83-1.649 3.83-3.44v-1.726c-.34.325-2.04.571-3.57.779-1.6.221-3.1.766-3.1 2.323 0 1.298 1.09 2.064 2.84 2.064zm14.6 2.024c-3.57 0-5.96-2.894-5.96-7.138s2.39-7.125 5.96-7.125c1.83 0 3.41.805 4.28 2.297h.03v-7.644h2.22v19.338h-2.17v-2.077h-.04c-.96 1.544-2.49 2.349-4.32 2.349zm.34-1.999c2.54 0 4.15-2.037 4.15-5.139 0-3.102-1.61-5.152-4.15-5.152-2.4 0-4.05 1.804-4.05 5.152 0 3.349 1.66 5.139 4.05 5.139zm9.51 1.727v-13.744h2.22v13.744h-2.22zm1.1-16.392c-.83 0-1.5-.687-1.5-1.518s.67-1.505 1.5-1.505c.85 0 1.52.674 1.52 1.505 0 .831-.67 1.518-1.52 1.518zm10.11 16.703c-4.03 0-6.38-2.998-6.38-7.151 0-4.179 2.57-7.203 6.21-7.203 3.79 0 6.25 2.882 6.25 7.19v.636h-11.27v-1.908h10.03l-.96.662c0-2.79-1.58-4.607-4.05-4.607-2.44 0-4.02 1.83-4.02 4.594v.948c0 2.868 1.51 4.84 4.19 4.84 1.94 0 3.21-.973 3.64-2.401l2.2.026c-.53 2.609-2.85 4.374-5.84 4.374zm10.87-8.358v8.047h-2.22v-13.744h2.15l.01 3.335h-.61c.9-2.479 2.53-3.582 4.7-3.582 2.78 0 5.02 1.804 5.02 5.451v8.54h-2.2v-8.384c0-2.375-1.2-3.582-3.25-3.582-2.01 0-3.6 1.168-3.6 3.919zm18.36-5.697v1.908h-7.42v-1.908h7.42zm-5-3.725h2.21v14.133c0 1.077.39 1.441 1.52 1.441h1.27l.03 1.895c-.46.013-1.04.013-1.5.013-2.36 0-3.53-1.039-3.53-3.115V767.8zm11.87 17.78c-2.94 0-5.25-1.415-5.44-4.374l2.18-.026c.17 1.636 1.3 2.505 3.2 2.505 1.9 0 3.09-.895 3.09-2.102 0-1.038-.84-1.648-2.06-1.934l-2.22-.519c-2.56-.597-3.87-1.895-3.87-3.893 0-2.349 2.05-4.011 4.99-4.011 2.86 0 4.97 1.675 5.08 4.361l-2.15.026c-.05-1.428-1.16-2.492-2.93-2.492-1.69 0-2.78.935-2.78 2.103 0 1.038.8 1.648 2.14 1.972l2.21.519c2.62.623 3.82 1.83 3.82 3.803 0 2.544-2.27 4.062-5.26 4.062z" fill="#171321"/><rect x="2989.5" y="979.585" width="470.585" height="162.458" rx="81.229" transform="rotate(-180 2989.5 979.585)" fill="url(#paint14_linear_544_183)" stroke="#D1D0D3"/><rect x="2017.27" y="817.128" width="470.585" height="162.458" rx="81.229" fill="url(#paint15_linear_544_183)" stroke="#D1D0D3"/><rect x="1988.09" y="979.585" width="472.464" height="162.458" rx="81.229" transform="rotate(-180 1988.09 979.585)" fill="url(#paint16_linear_544_183)" stroke="#D1D0D3"/><path d="M1554.23 999.058c-4.28 0-6.97-3.868-6.97-9.968 0-6.112 2.69-9.98 6.97-9.98 4.28 0 6.98 3.868 6.98 9.98 0 6.1-2.69 9.968-6.98 9.968zm0-2.077c2.96 0 4.76-2.985 4.76-7.891 0-4.931-1.8-7.903-4.76-7.903-2.95 0-4.75 2.985-4.75 7.903 0 4.906 1.8 7.891 4.75 7.891zM1951.49 979.214v19.337h-2.25v-16.923h-.03l-4.8 3.205v-2.401l4.8-3.218h2.28zM2056.64 979.409v19.337h-2.26v-16.923h-.03l-4.8 3.205v-2.401l4.8-3.218h2.29zM2442.42 998.746v-1.947l6.85-6.307c2.44-2.258 3.49-3.504 3.49-5.438 0-2.452-1.49-3.867-4.04-3.867-2.48 0-4.03 1.726-4.03 4.451h-2.2c0-3.841 2.56-6.528 6.23-6.528 3.73 0 6.26 2.375 6.26 5.866 0 2.427-1.36 4.322-4.21 6.931l-5.17 4.737v.026h9.51v2.076h-12.69zM2551.13 998.746v-1.947l6.85-6.307c2.44-2.258 3.49-3.504 3.49-5.438 0-2.452-1.49-3.867-4.03-3.867-2.48 0-4.04 1.726-4.04 4.451h-2.19c0-3.841 2.55-6.528 6.23-6.528 3.72 0 6.25 2.375 6.25 5.866 0 2.427-1.36 4.322-4.2 6.931l-5.18 4.737v.026h9.51v2.076h-12.69zM2941.1 999.058c-3.99 0-6.78-2.583-6.8-6.321h2.38c0 2.7 1.63 4.27 4.37 4.27 2.64 0 4.45-1.441 4.45-3.699 0-2.063-1.92-3.426-4.76-3.426h-1.56v-2.089h1.56c2.48 0 4.15-1.246 4.15-3.141 0-2.167-1.55-3.491-3.94-3.491-2.44 0-3.96 1.441-3.96 3.854h-2.27c.01-3.491 2.61-5.905 6.24-5.905 3.57 0 6.23 2.272 6.23 5.412 0 1.973-1.32 3.582-3.46 4.231v.052c2.46.415 4.06 2.219 4.06 4.503 0 3.375-2.86 5.75-6.69 5.75z" fill="#74717A"/><path d="M1537.47 1041.45v-2.09h14.91v2.09h-6.26v17.24h-2.35v-17.24h-6.3zm17.47 17.24l-4.26-13.74h2.31l1.73 6.05c.53 1.84 1.01 3.83 1.53 5.73h-.32c.5-1.9 1.01-3.88 1.53-5.73l1.74-6.05h2.2l1.72 6.05c.52 1.84 1.01 3.83 1.52 5.73h-.35c.51-1.9 1.01-3.89 1.55-5.73l1.77-6.05h2.31l-4.26 13.74h-2.31l-1.82-6.24c-.53-1.85-1.01-3.87-1.51-5.75h.58c-.52 1.88-1 3.9-1.56 5.75l-1.84 6.24h-2.26zm22.25.31c-3.81 0-6.38-2.95-6.38-7.15 0-4.21 2.57-7.2 6.38-7.2s6.37 2.99 6.37 7.2c0 4.2-2.56 7.15-6.37 7.15zm0-1.99c2.6 0 4.14-2.07 4.14-5.16 0-3.11-1.55-5.2-4.14-5.2-2.6 0-4.13 2.08-4.13 5.2 0 3.11 1.52 5.16 4.13 5.16zm17.28-7.26v2.08h-8.46v-2.08h8.46zm7.94 9.25c-2.93 0-5.24-1.41-5.43-4.37l2.18-.02c.17 1.63 1.29 2.5 3.2 2.5 1.9 0 3.09-.9 3.09-2.1 0-1.04-.84-1.65-2.06-1.94l-2.22-.52c-2.56-.59-3.87-1.89-3.87-3.89 0-2.35 2.05-4.01 4.98-4.01 2.87 0 4.98 1.68 5.09 4.36l-2.15.03c-.05-1.43-1.16-2.49-2.94-2.49-1.68 0-2.77.93-2.77 2.1 0 1.04.8 1.65 2.14 1.97l2.21.52c2.62.62 3.82 1.83 3.82 3.8 0 2.55-2.27 4.06-5.27 4.06zm13.88-14.05v1.91h-7.43v-1.91h7.43zm-5-3.72h2.21v14.13c0 1.08.39 1.44 1.52 1.44h1.27l.02 1.89c-.45.02-1.03.02-1.49.02-2.36 0-3.53-1.04-3.53-3.12v-14.36zm12.68 17.77c-4.04 0-6.38-2.99-6.38-7.15 0-4.17 2.57-7.2 6.21-7.2 3.79 0 6.24 2.88 6.24 7.19v.64h-11.26v-1.91h10.03l-.96.66c0-2.79-1.58-4.61-4.05-4.61-2.44 0-4.02 1.83-4.02 4.6v.95c0 2.86 1.5 4.84 4.19 4.84 1.93 0 3.21-.98 3.63-2.4l2.21.02c-.53 2.61-2.85 4.37-5.84 4.37zm8.64 5.12v-19.17h2.17v2.05h.03c.87-1.49 2.5-2.3 4.33-2.3 3.57 0 5.96 2.88 5.96 7.13 0 4.24-2.39 7.14-5.96 7.14-1.83 0-3.32-.81-4.28-2.35h-.03v7.5h-2.22zm6.19-7.15c2.39 0 4.05-1.79 4.05-5.14 0-3.35-1.66-5.15-4.05-5.15-2.55 0-4.15 2.05-4.15 5.15 0 3.1 1.61 5.14 4.15 5.14zm21.37 7.34c-3.11 0-5.42-1.45-5.78-4.09l2.23-.06c.41 1.44 1.74 2.21 3.55 2.21 2.37 0 3.84-1.31 3.84-3.66v-2.12h-.03c-.98 1.56-2.45 2.35-4.31 2.35-3.57 0-5.95-2.88-5.95-7.11 0-4.25 2.38-7.13 5.95-7.13 1.83 0 3.42.77 4.35 2.4h.01v-2.15h2.17v13.77c0 4.04-2.83 5.59-6.03 5.59zm-.16-7.37c2.54 0 4.15-2.01 4.15-5.12 0-3.09-1.59-5.14-4.15-5.14-2.39 0-4.05 1.8-4.05 5.14s1.66 5.12 4.05 5.12zm9.51 1.75v-13.74h2.12v2.17h.05c.51-1.43 1.61-2.38 3.32-2.38.41 0 .77.05.95.08v2.22a5.59 5.59 0 00-1.35-.16c-1.56 0-2.87 1.04-2.87 3.35v8.46h-2.22zm12.44.22c-2.73 0-4.79-1.42-4.79-4.16 0-3.16 2.71-3.73 5.46-4.09 2.61-.35 3.47-.25 3.47-1.3v-.13c0-1.5-1.12-2.58-3.04-2.58s-3.23 1.05-3.35 2.4l-2.24-.04c.15-2.5 2.38-4.31 5.59-4.31 3.13 0 5.22 1.74 5.22 4.55v9.44h-2.18v-1.94h-.06c-.5 1-1.59 2.16-4.08 2.16zm.31-1.97c2.7 0 3.83-1.65 3.83-3.44v-1.72c-.34.32-2.04.57-3.57.77-1.6.23-3.1.77-3.1 2.33 0 1.3 1.09 2.06 2.84 2.06zm14.6 2.03c-3.57 0-5.96-2.9-5.96-7.14 0-4.25 2.39-7.13 5.96-7.13 1.83 0 3.41.81 4.28 2.3h.03v-7.64h2.22v19.33h-2.17v-2.07h-.04c-.96 1.54-2.49 2.35-4.32 2.35zm.34-2c2.54 0 4.15-2.04 4.15-5.14 0-3.1-1.61-5.15-4.15-5.15-2.41 0-4.05 1.8-4.05 5.15 0 3.35 1.66 5.14 4.05 5.14zm9.51 1.72v-13.74h2.22v13.74h-2.22zm1.1-16.39c-.83 0-1.5-.69-1.5-1.52 0-.83.67-1.5 1.5-1.5.85 0 1.52.67 1.52 1.5s-.67 1.52-1.52 1.52zm10.11 16.7c-4.03 0-6.38-2.99-6.38-7.15 0-4.17 2.57-7.2 6.21-7.2 3.79 0 6.25 2.88 6.25 7.19v.64h-11.27v-1.91h10.03l-.96.66c0-2.79-1.58-4.61-4.05-4.61-2.44 0-4.02 1.83-4.02 4.6v.95c0 2.86 1.5 4.84 4.19 4.84 1.94 0 3.21-.98 3.64-2.4l2.2.02c-.53 2.61-2.85 4.37-5.84 4.37zm10.86-8.35v8.04h-2.22v-13.74h2.16l.01 3.34h-.61c.9-2.48 2.53-3.59 4.7-3.59 2.78 0 5.02 1.81 5.02 5.45v8.54h-2.2v-8.38c0-2.38-1.2-3.58-3.25-3.58-2.01 0-3.61 1.17-3.61 3.92zm18.37-5.7v1.91h-7.43v-1.91h7.43zm-5-3.72h2.21v14.13c0 1.08.39 1.44 1.52 1.44h1.27l.02 1.89c-.45.02-1.03.02-1.49.02-2.36 0-3.53-1.04-3.53-3.12v-14.36zm11.86 17.77c-2.93 0-5.24-1.41-5.43-4.37l2.18-.02c.16 1.63 1.29 2.5 3.2 2.5 1.9 0 3.09-.9 3.09-2.1 0-1.04-.84-1.65-2.06-1.94l-2.22-.52c-2.56-.59-3.87-1.89-3.87-3.89 0-2.35 2.05-4.01 4.98-4.01 2.87 0 4.97 1.68 5.09 4.36l-2.15.03c-.06-1.43-1.16-2.49-2.94-2.49-1.68 0-2.77.93-2.77 2.1 0 1.04.8 1.65 2.14 1.97l2.2.52c2.63.62 3.83 1.83 3.83 3.8 0 2.55-2.27 4.06-5.27 4.06z" fill="#171321"/><rect x="2017.27" y="1084.92" width="470.585" height="162.458" rx="81.229" fill="url(#paint17_linear_544_183)" stroke="#D1D0D3"/><rect x="1988.09" y="1247.36" width="472.464" height="162.458" rx="81.229" transform="rotate(-180 1988.09 1247.36)" fill="url(#paint18_linear_544_183)" stroke="#D1D0D3"/><path d="M1554.23 1273.35c-4.28 0-6.97-3.86-6.97-9.96 0-6.12 2.69-9.98 6.97-9.98 4.28 0 6.98 3.86 6.98 9.98 0 6.1-2.69 9.96-6.98 9.96zm0-2.07c2.96 0 4.76-2.99 4.76-7.89 0-4.93-1.8-7.91-4.76-7.91-2.95 0-4.75 2.99-4.75 7.91 0 4.9 1.8 7.89 4.75 7.89zM1939.59 1273.04v-1.94l6.86-6.31c2.44-2.26 3.49-3.51 3.49-5.44 0-2.45-1.5-3.87-4.04-3.87-2.48 0-4.04 1.73-4.04 4.46h-2.19c0-3.85 2.56-6.53 6.23-6.53 3.72 0 6.26 2.37 6.26 5.86 0 2.43-1.37 4.33-4.21 6.93l-5.18 4.74v.03h9.52v2.07h-12.7zM2056.64 1253.71v19.33h-2.26v-16.92h-.03l-4.8 3.21v-2.41l4.8-3.21h2.29zM2448.32 1273.35c-4 0-6.79-2.58-6.8-6.32h2.38c0 2.7 1.63 4.27 4.37 4.27 2.63 0 4.45-1.44 4.45-3.69 0-2.07-1.92-3.43-4.76-3.43h-1.56v-2.09h1.56c2.48 0 4.15-1.25 4.15-3.14 0-2.17-1.56-3.49-3.94-3.49-2.44 0-3.96 1.44-3.96 3.85h-2.27c.01-3.49 2.6-5.9 6.24-5.9 3.57 0 6.23 2.27 6.23 5.41 0 1.97-1.33 3.58-3.47 4.23v.05c2.47.42 4.06 2.22 4.06 4.51 0 3.37-2.85 5.74-6.68 5.74z" fill="#74717A"/><defs><linearGradient id="paint0_linear_544_183" x1="511.646" y1="246.786" x2="983.231" y2="246.786" gradientUnits="userSpaceOnUse"><stop stop-color="#CEB3EF"/><stop offset="1" stop-color="#A989F5"/></linearGradient><linearGradient id="paint1_linear_544_183" x1="511.646" y1="514.577" x2="983.231" y2="514.577" gradientUnits="userSpaceOnUse"><stop stop-color="#CEB3EF"/><stop offset="1" stop-color="#7759C2"/></linearGradient><linearGradient id="paint2_linear_544_183" x1="483.464" y1="410.244" x2="956.927" y2="410.244" gradientUnits="userSpaceOnUse"><stop stop-color="#CEB3EF"/><stop offset="1" stop-color="#FFFEFE"/></linearGradient><linearGradient id="paint3_linear_544_183" x1="483.464" y1="678.035" x2="956.927" y2="678.035" gradientUnits="userSpaceOnUse"><stop stop-color="#A989F5"/><stop offset="1" stop-color="#FFFEFE"/></linearGradient><linearGradient id="paint4_linear_544_183" x1="1484.88" y1="410.245" x2="1956.46" y2="410.245" gradientUnits="userSpaceOnUse"><stop stop-color="#7759C2"/><stop offset="1" stop-color="#A989F5"/></linearGradient><linearGradient id="paint5_linear_544_183" x1="1013.29" y1="514.577" x2="1484.88" y2="514.577" gradientUnits="userSpaceOnUse"><stop stop-color="#A989F5"/><stop offset="1" stop-color="#5943B6"/></linearGradient><linearGradient id="paint6_linear_544_183" x1="1514.94" y1="246.786" x2="1986.52" y2="246.786" gradientUnits="userSpaceOnUse"><stop stop-color="#7759C2"/><stop offset="1" stop-color="#5943B6"/></linearGradient><linearGradient id="paint7_linear_544_183" x1="1514.94" y1="514.577" x2="1986.52" y2="514.577" gradientUnits="userSpaceOnUse"><stop stop-color="#7759C2"/><stop offset="1" stop-color="#2F2A6B"/></linearGradient><linearGradient id="paint8_linear_544_183" x1="2029.74" y1="246.786" x2="2503.2" y2="246.786" gradientUnits="userSpaceOnUse"><stop stop-color="#5943B6"/><stop offset="1" stop-color="#2F2A6B"/></linearGradient><linearGradient id="paint9_linear_544_183" x1="511.646" y1="897.474" x2="983.231" y2="897.474" gradientUnits="userSpaceOnUse"><stop stop-color="#FCA326"/><stop offset="1" stop-color="#FC6D26"/></linearGradient><linearGradient id="paint10_linear_544_183" x1="511.646" y1="1165.26" x2="983.231" y2="1165.26" gradientUnits="userSpaceOnUse"><stop stop-color="#FCA326"/><stop offset="1" stop-color="#E24329"/></linearGradient><linearGradient id="paint11_linear_544_183" x1="483.464" y1="1060.93" x2="956.927" y2="1060.93" gradientUnits="userSpaceOnUse"><stop stop-color="#FCA326"/><stop offset="1" stop-color="#FFFEFE"/></linearGradient><linearGradient id="paint12_linear_544_183" x1="483.464" y1="1328.71" x2="956.927" y2="1328.71" gradientUnits="userSpaceOnUse"><stop stop-color="#FC6D26"/><stop offset="1" stop-color="#FFFEFE"/></linearGradient><linearGradient id="paint13_linear_544_183" x1="1013.29" y1="897.474" x2="1484.88" y2="897.474" gradientUnits="userSpaceOnUse"><stop stop-color="#FC6D26"/><stop offset="1" stop-color="#E24329"/></linearGradient><linearGradient id="paint14_linear_544_183" x1="2990" y1="1061.81" x2="3461.58" y2="1061.81" gradientUnits="userSpaceOnUse"><stop stop-color="#10B1B1"/><stop offset="1" stop-color="#6FDAC9"/></linearGradient><linearGradient id="paint15_linear_544_183" x1="2016.77" y1="898.357" x2="2488.35" y2="898.357" gradientUnits="userSpaceOnUse"><stop stop-color="#C5F4EC"/><stop offset="1" stop-color="#6FDAC9"/></linearGradient><linearGradient id="paint16_linear_544_183" x1="1988.59" y1="1061.81" x2="2462.05" y2="1061.81" gradientUnits="userSpaceOnUse"><stop stop-color="#C5F4EC"/><stop offset="1" stop-color="#FFFEFE"/></linearGradient><linearGradient id="paint17_linear_544_183" x1="2016.77" y1="1166.15" x2="2488.35" y2="1166.15" gradientUnits="userSpaceOnUse"><stop stop-color="#C5F4EC"/><stop offset="1" stop-color="#10B1B1"/></linearGradient><linearGradient id="paint18_linear_544_183" x1="1988.59" y1="1329.59" x2="2462.05" y2="1329.59" gradientUnits="userSpaceOnUse"><stop stop-color="#6FDAC9"/><stop offset="1" stop-color="#FFFEFE"/></linearGradient></defs></svg>