<svg xmlns="http://www.w3.org/2000/svg" width="1077" height="939.264"><defs><clipPath id="clippath"><path style="fill:none" d="M0 0h1077v939.264H0z"/></clipPath><style>.cls-2,.cls-3{fill:none;stroke-width:.29336px;stroke:#737477;stroke-miterlimit:10}.cls-3{stroke-width:.93148px}</style></defs><g style="isolation:isolate"><g id="DO_NOT_EXPORT" data-name="DO NOT EXPORT"><g style="clip-path:url(#clippath)"><path class="cls-2" d="M221.041 1134.422V-182.993M0 1134.422V-182.993M55.26 1129.535V-187.881M28.021 1129.535V-187.881M110.649 1134.422V-182.993M193.347 1134.422V-182.993M165.781 1134.422V-182.993M138.258 1134.422V-182.993M248.479 1134.422V-182.993M276.13 1126.429V-190.986M303.74 1134.422V-182.993M386.566 1134.422V-182.993M358.901 1134.422V-182.993M414.26 1134.422V-182.993M441.826 1134.422V-182.993M469.392 1134.422V-182.993M497.087 1134.422V-182.993M524.781 1134.422V-182.993M552.347 1134.422V-182.993M579.913 1134.49V-182.926M607.607 1134.422V-182.993M635.302 1134.422V-182.993M662.868 1134.422V-182.993M690.434 1134.422V-182.993M718 1134.422V-182.993M773.26 1134.422V-182.993M800.826 1134.422V-182.993M828.521 1134.422V-182.993M911.347 1134.422V-182.993M883.565 1134.422V-182.993M856.092 1134.422V-182.993M966.607 1134.49V-182.926M939.859 1134.49V-182.926M1021.426 1133.282V-184.134M1077 1134.422V-182.993M1049.065 1134.422V-182.993M-185.504 856.43h1432.959M-185.504 883.968h1432.959M-185.504 939.264h1432.959M-185.504 828.673h1432.959M-185.504 801.134h1432.959M-185.504 773.451h1432.959M-185.504 745.839h1432.959M-182.503 718.228h1432.959M-183.691 690.616h1432.959M-182.503 635.394h1432.959M-182.503 607.782h1432.959M-182.503 580.171h1432.959M-182.503 552.481h1432.959M-182.503 524.839h1432.959M-182.503 497.219h1432.959M-182.503 469.662h1432.959M-182.249 442.043h1432.958M1250.456 414.36H-182.503h1432.96ZM-182.503 386.74h1432.959M-182.503 359.12h1432.959M-182.503 331.5h1432.959M-182.503 303.881h1432.959M-182.503 248.641h1432.959M-182.503 221.021h1432.959M-182.503 193.402h1432.959M-182.503 165.782h1432.959M-182.503 138.099h1432.959M-182.503 110.542h1432.959M-182.503 55.303h1432.959M-182.503 82.923h1432.959M-182.503 0h1432.959"/><path class="cls-3" d="M82.688 1134.327V-183.089M331.624 1134.327V-183.089M1250.456 276.324H-182.503h1432.96ZM1250.456 27.683H-182.503h1432.96ZM1251.39 662.933H-181.57h1432.96ZM1251.39 911.652H-181.57h1432.96ZM745.463-179.939v1314.361M994.037-179.939v1314.361"/></g><path d="m82.817 27.563-.13 884.09 911.44.027.135-883.87-911.445-.247ZM331.413 662.11V275.502h414.242V662.11H331.413Z" style="fill:#515254;opacity:.1"/></g><g id="LOGO"><g style="mix-blend-mode:multiply"><path d="m732.519 428.528-.55-1.439-54.638-142.553c-1.092-2.793-3.055-5.145-5.611-6.77a14.412 14.412 0 0 0-8.565-2.243 14.536 14.536 0 0 0-8.268 3.14 14.354 14.354 0 0 0-4.833 7.354l-36.89 112.907H463.907l-36.891-112.907a14.353 14.353 0 0 0-4.833-7.354 14.536 14.536 0 0 0-8.268-3.14c-3.03-.16-6.017.61-8.565 2.243-2.556 1.625-4.52 3.977-5.61 6.77l-54.639 142.562-.55 1.43c-16.19 42.23-2.395 89.971 33.658 117.24.068.042.127.093.195.144l.482.363 83.226 62.306 41.165 31.161 25.051 18.94a16.91 16.91 0 0 0 20.413 0l25.05-18.94 41.157-31.161 83.717-62.67.22-.169c36.028-27.268 49.815-74.992 33.633-117.214Z" style="fill:#7a7a7a"/></g><path d="m640.775 858.799 9.246 15.777 9.245-15.777h6.834l-12.461 19.295 12.46 19.295h-6.833l-9.245-14.974-9.246 14.974h-6.834l12.261-19.295-12.26-19.295h6.833ZM696.85 872.567v-5.426h30.952v5.426H696.85Zm0 14.873v-5.427h30.952v5.427H696.85Z"/><path d="M845.464 911.176c37.646 0 60.14-17.651 70.447-37.802h1.876v32.96h54.361V745.752c0-63.42-51.704-82.478-97.473-82.478-50.456 0-89.196 22.494-101.692 66.233l52.799 7.498c5.623-16.402 21.554-30.461 49.203-30.461 26.245 0 40.616 13.434 40.616 37.021v.937c0 16.246-17.028 17.027-59.359 21.557-46.552 4.999-91.068 18.901-91.068 72.949 0 47.175 34.521 72.168 80.29 72.168Zm18.59-41.551c-23.588 0-40.458-10.779-40.458-31.554 0-21.713 18.904-30.773 44.209-34.366 14.84-2.03 44.519-5.78 51.86-11.716v28.274c0 26.711-21.558 49.362-55.611 49.362Z" style="opacity:.25;fill:#7a7a7a"/></g></g></svg>