<svg width="3000" height="700" fill="none" xmlns="http://www.w3.org/2000/svg"><path fill="#fff" d="M0 0h3000v700H0z"/><g clip-path="url(#clip0_505_183)"><g opacity=".5"><mask id="a" style="mask-type:luminance" maskUnits="userSpaceOnUse" x="10" y="20" width="1016" height="574"><path d="M1025.94 20H10v573.206h1015.94V20z" fill="#fff"/></mask><g mask="url(#a)"><path d="M218.497 853.318v-1214.43M9.981 853.318v-1214.43M62.105 848.703v-1214.43M88.116 853.318v-1214.43M114.362 853.318v-1214.43M192.364 853.318v-1214.43M166.363 853.318v-1214.43M244.375 853.318v-1214.43M270.461 845.777v-1214.43M296.5 853.318v-1214.43M322.632 853.318v-1214.43M374.634 853.318v-1214.43M348.539 853.318v-1214.43M400.757 853.318v-1214.43M426.768 853.318v-1214.43M452.768 853.318v-1214.43M478.892 853.318v-1214.43M505.015 853.318v-1214.43M531.016 853.318v-1214.43M557.026 853.375V-361.046M583.15 853.318v-1214.43M609.273 853.318v-1214.43M635.274 853.318v-1214.43M661.275 853.318v-1214.43M687.285 853.318v-1214.43M713.409 853.318v-1214.43M739.409 853.318v-1214.43M765.41 853.318v-1214.43M791.543 853.318v-1214.43M869.668 853.318v-1214.43M843.46 853.318v-1214.43M817.544 853.318v-1214.43M921.802 853.375V-361.046M947.803 853.318v-1214.43M973.511 852.242v-1214.43M1025.94 853.318v-1214.43M-165.012 593.206H1186.73M-165.012 567.234H1186.73M-165.012 541.12H1186.73M-165.012 515.072H1186.73M-162.181 489.024H1189.56M-163.294 462.976H1188.44M-162.181 410.889H1189.56M-162.181 384.842H1189.56M-162.181 437.003H1189.56M-162.181 358.793H1189.56M-162.181 306.594H1189.56M-162.181 280.546H1189.56M-162.181 332.462H1189.56M-162.181 254.545H1189.56M-161.935 228.497H1189.79M1189.56 202.383H-162.181M-162.181 176.326H1189.56M-162.181 124.22H1189.56M-162.181 98.163H1189.56M-162.181 72.313H1189.56M-162.181 20H1189.56" stroke="#737477" stroke-width=".274" stroke-miterlimit="10"/><path d="M140.363 853.224V-361.207M36.039 853.318v-1214.43M1189.56 46.048H-162.181M1190.44 567.168H-161.294 1190.45h-.01zM1189.56 462.976H-162.181M999.795-358.233V853.318M896.245-358.233V853.318" stroke="#737477" stroke-width=".878" stroke-miterlimit="10"/><path opacity=".1" d="M36.039 46.048V567.12H999.86V46.048H36.039zM140.4 463.014V149.806h755.845v313.208H140.4z" fill="#515254"/><path d="M1189.56 150.268H-162.181" stroke="#737477" stroke-width=".878" stroke-miterlimit="10"/></g></g><path d="M851.621 516.832l3.887 6.634 3.888-6.634h2.873l-5.239 8.113 5.239 8.113h-2.873l-3.888-6.296-3.887 6.296h-2.873l5.155-8.113-5.155-8.113h2.873zm23.586 5.789v-2.282h13.015v2.282h-13.015zm0 6.254v-2.282h13.015v2.282h-13.015z" fill="#000"/><path opacity=".25" d="M937.685 567.168c15.827 0 25.284-7.418 29.625-15.893h.793v13.854h22.858v-67.517c0-26.671-21.744-34.683-40.988-34.683-21.216 0-37.505 9.456-42.762 27.85l22.197 3.152c2.369-6.898 9.061-12.806 20.688-12.806 11.627 0 17.082 5.653 17.082 15.562v.397c0 6.833-7.163 7.163-24.963 9.06-19.573 2.104-38.288 7.946-38.288 30.672 0 19.838 14.515 30.342 33.758 30.342v.01zm7.815-17.469c-9.919 0-17.016-4.53-17.016-13.27 0-8.739 7.946-12.939 18.592-14.449 6.238-.849 18.715-2.425 21.801-4.926v11.891c0 11.231-9.06 20.754-23.387 20.754h.01z" fill="#7A7A7A"/><path d="M444.086 221.57h24.821c-4.134-26.397-26.992-44.791-56.749-44.791-35.202 0-61.6 25.878-61.6 69.225 0 43.347 25.218 68.961 62.327 68.961 33.296 0 57.135-21.414 57.135-56.088V242.72h-54.578v19.045h31.003c-.396 19.177-13.203 31.324-33.428 31.324-22.528 0-37.958-16.875-37.958-47.349 0-30.474 15.694-47.094 37.439-47.094 16.223 0 27.256 8.673 31.588 22.924zM486.433 313.124h23.773V212.245h-23.773v100.879zm11.957-116.857c7.55 0 13.723-5.776 13.723-12.873 0-7.097-6.173-12.939-13.723-12.939-7.55 0-13.788 5.776-13.788 12.939s6.172 12.873 13.788 12.873zM581.404 212.245H561.5v-24.17h-23.774v24.17h-14.317v18.394h14.317v56.088c-.132 18.979 13.657 28.304 31.522 27.785 6.767-.198 11.429-1.51 13.987-2.369l-4.002-18.583c-1.312.33-4.011.916-6.965.916-5.974 0-10.768-2.105-10.768-11.694v-52.143h19.904v-18.394zM599.807 313.124h83.609v-20.423h-59.241V178.619h-24.368v134.505zM728.943 315.163c15.827 0 25.283-7.418 29.615-15.893h.793v13.855h22.858v-67.517c0-26.662-21.735-34.674-40.978-34.674-21.216 0-37.506 9.456-42.753 27.85l22.198 3.152c2.368-6.899 9.06-12.807 20.687-12.807s17.073 5.644 17.073 15.563v.397c0 6.832-7.163 7.163-24.954 9.06-19.573 2.104-38.288 7.946-38.288 30.672 0 19.838 14.515 30.342 33.758 30.342h-.009zm7.814-17.469c-9.919 0-17.006-4.53-17.006-13.269 0-8.74 7.946-12.939 18.582-14.449 6.239-.85 18.715-2.426 21.801-4.927v11.892c0 11.231-9.06 20.753-23.377 20.753zM799.744 313.124h23.378v-15.893h1.377c3.747 7.352 11.562 17.668 28.899 17.668 23.773 0 41.573-18.847 41.573-52.077s-18.319-51.889-41.639-51.889c-17.8 0-25.218 10.703-28.833 17.998h-.981v-50.312h-23.774v134.505zm23.311-50.435c0-19.573 8.409-32.248 23.708-32.248 15.298 0 23.972 13.467 23.972 32.248s-8.277 32.711-23.972 32.711c-15.695 0-23.708-13.137-23.708-32.711z" fill="#171321"/><path d="M307.221 224.694l-.236-.604-23.104-60.288a5.955 5.955 0 00-2.369-2.86 6.053 6.053 0 00-3.624-.944 6.165 6.165 0 00-3.501 1.331 6.104 6.104 0 00-2.048 3.115l-15.601 47.745h-63.119l-15.6-47.745a6.049 6.049 0 00-2.048-3.115 6.24 6.24 0 00-3.502-1.331 6.119 6.119 0 00-3.624.944 5.895 5.895 0 00-2.368 2.86l-23.104 60.288-.236.604c-6.842 17.856-1.01 38.052 14.232 49.585l.085.057.208.151 35.193 26.35 17.412 13.175 10.599 8.012a7.148 7.148 0 008.635 0l10.599-8.012 17.403-13.175 35.401-26.501s.056-.047.094-.076c15.232-11.533 21.065-31.71 14.223-49.576v.01z" fill="#E24329"/><path d="M307.221 224.694l-.236-.604a78.028 78.028 0 00-31.06 13.968c-.151.103-27.473 20.772-50.746 38.364l32.315 24.424 35.4-26.501s.057-.047.095-.075c15.232-11.533 21.065-31.711 14.222-49.576h.01z" fill="#FC6D26"/><path d="M192.864 300.837l17.413 13.175 10.598 8.012a7.15 7.15 0 008.636 0l10.598-8.012 17.403-13.175s-15.043-11.354-32.314-24.425c-17.281 13.062-32.324 24.425-32.324 24.425h-.01z" fill="#FCA326"/><path d="M174.442 238.058a78.024 78.024 0 00-31.059-13.968l-.236.604c-6.843 17.856-1.01 38.053 14.232 49.585l.085.057.207.151 35.193 26.35s15.044-11.354 32.324-24.425a97515.873 97515.873 0 00-50.746-38.364v.01z" fill="#FC6D26"/><path d="M140.306 438.07h9.532c0 11.033 7.201 17.611 19.583 17.611 11.241 0 18.649-5.285 18.649-13.571 0-6.428-4.143-10.155-15.28-12.902l-8.654-2.123c-15.751-3.889-22.273-9.995-22.273-20.518 0-13.316 10.514-22.065 26.633-22.065 16.12 0 26.322 9.221 26.728 24.038h-9.221c-.566-9.636-7.352-15.488-17.818-15.488-10.466 0-17.092 5.389-17.092 13.053 0 6.012 4.304 9.485 15.488 12.278l8.758 2.18c15.024 3.728 22.065 10.363 22.065 21.141 0 13.42-11.193 22.48-27.973 22.48-17.819 0-29.116-10.051-29.116-26.114h-.009zM205.171 435.682c0-16.789 10.202-28.7 25.387-28.7 15.186 0 25.388 11.92 25.388 28.7 0 16.781-10.202 28.493-25.388 28.493-15.185 0-25.387-11.816-25.387-28.493zm41.856 0c0-12.486-6.163-20.725-16.478-20.725-10.315 0-16.478 8.183-16.478 20.725 0 12.543 6.115 20.518 16.478 20.518 10.363 0 16.478-8.135 16.478-20.518zM290.082 415.797h-29.634v-7.559h29.634v7.559zm-19.895-17.309c0-7.823 5.54-12.74 14.402-12.74h5.493v7.559h-4.662c-4.663 0-6.427 1.812-6.427 6.531v63.1h-8.806v-64.45z" fill="#171321"/><path d="M318.933 415.798h-29.634v-7.56h29.634v7.56zm-11.089-22.49v56.361c0 4.247 1.5 5.701 6.011 5.701h5.078v7.559h-5.908c-9.381 0-13.987-4.096-13.987-12.325v-57.296h8.806zM325.671 408.229h9.221l6.889 24.037c2.124 7.409 4.04 15.28 6.059 22.745h-1.245c2.019-7.456 3.992-15.336 6.115-22.745l6.946-24.037h8.702l6.842 24.037c2.124 7.409 4.04 15.28 6.059 22.745h-1.397c2.077-7.456 4.04-15.336 6.22-22.745l7.05-24.037h9.22l-16.997 54.71h-9.22l-7.201-24.869c-2.124-7.408-4.04-15.383-6.059-22.848h2.331c-2.077 7.456-3.992 15.44-6.163 22.848l-7.352 24.869h-9.013l-16.997-54.71h-.01zM407.524 447.187c0-12.533 10.778-14.817 21.763-16.271 10.41-1.397 13.779-.981 13.779-5.181v-.519c0-5.955-4.454-10.259-12.127-10.259-7.673 0-12.901 4.2-13.316 9.636h-8.966c.462-9.994 9.324-17.403 22.273-17.403 12.948 0 20.829 7.201 20.829 18.026v37.713h-8.702v-7.767h-.208c-2.019 3.935-6.323 8.597-16.27 8.597-10.882 0-19.064-5.643-19.064-16.582l.009.01zm35.542-4.974v-6.842c-1.349 1.246-7.927 2.227-14.194 3.105-6.323.878-12.325 3.058-12.325 9.22 0 5.125 4.303 8.183 11.296 8.183 10.778 0 15.233-6.531 15.233-13.675l-.01.009zM464.82 408.228h8.39v8.598h.208c2.02-5.644 6.323-9.428 13.156-9.428 1.605 0 3.001.208 3.728.311v8.806c-.727-.208-2.85-.623-5.389-.623-6.059 0-11.297 4.096-11.297 13.364v33.673h-8.805v-54.71l.009.009zM495.181 435.682c0-16.629 10.259-28.7 24.765-28.7 15.232 0 24.868 11.713 24.868 28.7v2.435h-44.97v-7.559h40.044l-3.785 2.642c0-11.136-6.37-18.337-16.167-18.337-9.796 0-16.063 7.201-16.063 18.337v3.728c0 11.344 5.956 19.272 16.686 19.272 7.767 0 12.845-3.936 14.506-9.636h8.805c-2.076 10.466-11.4 17.611-23.311 17.611-16.063 0-25.387-12.024-25.387-28.493h.009zM553.516 457.342c0-3.624 2.85-6.474 6.474-6.474s6.474 2.85 6.474 6.474-2.85 6.474-6.474 6.474-6.474-2.85-6.474-6.474zM605.838 385.748h48.548v8.286h-39.214v25.227h36.108v8.286h-36.108v35.382h-9.324v-77.191l-.01.01zM659.567 447.187c0-12.533 10.778-14.817 21.763-16.271 10.41-1.397 13.779-.981 13.779-5.181v-.519c0-5.955-4.455-10.259-12.127-10.259-7.673 0-12.902 4.2-13.317 9.636h-8.966c.463-9.994 9.325-17.403 22.273-17.403 12.949 0 20.829 7.201 20.829 18.026v37.713h-8.702v-7.767h-.207c-2.02 3.935-6.323 8.597-16.271 8.597-10.881 0-19.064-5.643-19.064-16.582l.01.01zm35.532-4.974v-6.842c-1.349 1.246-7.927 2.227-14.194 3.105-6.323.878-12.325 3.058-12.325 9.22 0 5.125 4.303 8.183 11.297 8.183 10.777 0 15.232-6.531 15.232-13.675l-.01.009zM714.267 446.564h8.702c.623 6.531 5.077 10.051 12.741 10.051 7.663 0 12.278-3.52 12.278-8.39 0-4.143-3.369-6.531-8.239-7.663l-8.805-2.077c-10.155-2.387-15.44-7.559-15.44-15.543 0-9.325 8.135-15.96 19.838-15.96 11.702 0 19.942 6.739 20.253 17.611h-8.598c-.104-5.804-4.615-10.051-11.655-10.051-7.041 0-11.033 3.728-11.033 8.39 0 4.143 3.209 6.578 8.494 7.824l8.805 2.076c10.467 2.482 15.233 7.305 15.233 15.176 0 10.155-9.013 16.167-20.933 16.167s-20.933-5.701-21.659-17.611h.018zM791.1 415.798h-29.635v-7.56H791.1v7.56zm-11.09-22.49v56.361c0 4.247 1.501 5.701 6.012 5.701h5.078v7.559h-5.908c-9.381 0-13.987-4.096-13.987-12.325v-57.296h8.805zM796.13 435.682c0-16.629 10.259-28.7 24.764-28.7 15.233 0 24.868 11.713 24.868 28.7v2.435h-44.97v-7.559h40.044l-3.784 2.642c0-11.136-6.371-18.337-16.167-18.337-9.796 0-16.063 7.201-16.063 18.337v3.728c0 11.344 5.955 19.272 16.686 19.272 7.767 0 12.844-3.936 14.505-9.636h8.806c-2.077 10.466-11.401 17.611-23.311 17.611-16.063 0-25.388-12.024-25.388-28.493h.01zM855.804 408.228h8.39v8.598h.208c2.019-5.644 6.323-9.428 13.156-9.428 1.604 0 3.001.208 3.728.311v8.806c-.727-.208-2.85-.623-5.389-.623-6.059 0-11.297 4.096-11.297 13.364v33.673h-8.805v-54.71l.009.009zM882.022 457.342c0-3.624 2.85-6.474 6.474-6.474s6.474 2.85 6.474 6.474-2.85 6.474-6.474 6.474-6.474-2.85-6.474-6.474z" fill="#171321"/><path d="M114.305 332.321h807.61M114.305 385.748h807.61" stroke="#737477" stroke-width=".613" stroke-linecap="round" stroke-linejoin="round" stroke-dasharray="4.72 4.72"/></g><g clip-path="url(#clip1_505_183)"><g opacity=".5"><mask id="b" style="mask-type:luminance" maskUnits="userSpaceOnUse" x="1176" y="20" width="1277" height="573"><path d="M2452.74 20H1176v572.867h1276.74V20z" fill="#fff"/></mask><g mask="url(#b)"><path d="M1444.92 1094.74V-471.522M1243.23 1088.78V-477.475M1276.77 1094.74V-471.522M1310.62 1094.74V-471.522M1411.23 1094.74V-471.522M1377.69 1094.74V-471.522M1478.3 1094.74V-471.522M1511.94 1085.01V-481.248M1545.54 1094.74V-471.522M1579.23 1094.74V-471.522M1646.29 1094.74V-471.522M1612.64 1094.74V-471.522M1679.99 1094.74V-471.522M1713.53 1094.74V-471.522M1747.07 1094.74V-471.522M1780.76 1094.74V-471.522M1814.45 1094.74V-471.522M1847.98 1094.74V-471.522M1881.53 1094.81V-471.438M1915.22 1094.74V-471.522M1948.91 1094.74V-471.522M1982.44 1094.74V-471.522M2015.99 1094.74V-471.522M2049.52 1094.74V-471.522M2083.21 1094.74V-471.522M2116.75 1094.74V-471.522M2150.29 1094.74V-471.522M2183.98 1094.74V-471.522M2284.74 1094.74V-471.522M2250.94 1094.74V-471.522M2217.52 1094.74V-471.522M2351.98 1094.81V-471.438M2385.51 1094.74V-471.522M2418.67 1093.35V-472.91M952.525 591.309H2695.86M953.961 524.132H2697.31M953.961 490.539H2697.31M953.961 456.944H2697.31M953.961 389.622H2697.31M953.961 356.027H2697.31M953.961 322.494H2697.31M954.278 288.9H2697.61M2697.31 255.221H953.961M953.961 221.614H2697.31M953.961 154.413H2697.31M953.961 120.807H2697.31M953.961 87.468H2697.31M953.961 20H2697.31" stroke="#737477" stroke-width=".353" stroke-miterlimit="10"/><path d="M1344.15 1094.61V-471.644M1209.61 1094.74V-471.522M2697.31 53.595H953.961M2698.44 557.63H955.106 2698.45h-.01zM2697.31 423.252H953.961M2452.57-467.81v1562.55M2319.02-467.81v1562.55" stroke="#737477" stroke-width="1.132" stroke-miterlimit="10"/><path opacity=".1" d="M1209.61 53.595v504.047h1243.04V53.595H1209.61zm134.59 369.78V187.412h974.82v235.963H1344.2z" fill="#515254"/><path d="M2697.31 188.008H953.961" stroke="#737477" stroke-width="1.132" stroke-miterlimit="10"/></g></g><g opacity=".5"><mask id="c" style="mask-type:luminance" maskUnits="userSpaceOnUse" x="2452" y="20" width="538" height="573"><path d="M2989.5 20h-536.76v572.867h536.76V20z" fill="#fff"/></mask><g mask="url(#c)"><path d="M2687.36 1094.74V-471.522M2485.68 1088.78V-477.475M2519.21 1094.74V-471.522M2553.06 1094.74V-471.522M2653.67 1094.74V-471.522M2620.14 1094.74V-471.522M2720.74 1094.74V-471.522M2754.38 1085.01V-481.248M2787.98 1094.74V-471.522M2821.67 1094.74V-471.522M2888.75 1094.74V-471.522M2855.08 1094.74V-471.522M2922.44 1094.74V-471.522M2955.97 1094.74V-471.522M2989.5 1094.74V-471.522M2194.96 591.309h1743.35M2196.41 524.132h1743.34M2196.41 490.539h1743.34M2196.41 456.944h1743.34M2196.41 389.622h1743.34M2196.41 356.027h1743.34M2196.41 322.494h1743.34M2196.72 288.9h1743.34M3939.75 255.221H2196.41h1743.35-.01zM2196.41 221.614h1743.34M2196.41 154.413h1743.34M2196.41 120.807h1743.34M2196.41 87.468h1743.34M2196.41 20h1743.34" stroke="#737477" stroke-width=".353" stroke-miterlimit="10"/><path d="M2821.91 1094.61V-471.644" stroke="#737477" stroke-width="1.132" stroke-miterlimit="10"/><path d="M3056.33 53.595H2196.4M3056.89 557.63h-859.93M3056.33 423.252H2196.4" stroke="#737477" stroke-width=".791" stroke-miterlimit="10"/><path d="M2955.97-467.81v1562.55" stroke="#737477" stroke-width="1.132" stroke-miterlimit="10"/><path d="M3056.33 188.008H2196.4" stroke="#737477" stroke-width=".791" stroke-miterlimit="10"/><path opacity=".1" d="M2453.35 423.545v134.109h503.41V53.606h-503.41V188.02m0-.012l369.77-.609v235.963h-369.77" fill="#515254"/></g></g><path d="M2763.97 492.65l5.01 8.556 5.02-8.556h3.7l-6.75 10.463 6.75 10.464h-3.7l-5.02-8.12-5.01 8.12h-3.71l6.65-10.464-6.65-10.463h3.71zm30.42 7.466v-2.943h16.78v2.943h-16.78zm0 8.066v-2.943h16.78v2.943h-16.78z" fill="#000"/><path opacity=".25" d="M2874.97 557.969c20.41 0 32.61-9.567 38.2-20.497h1.03v17.868h29.48v-87.077c0-34.397-28.05-44.731-52.87-44.731-27.36 0-48.37 12.196-55.15 35.919l28.63 4.065c3.06-8.897 11.69-16.517 26.68-16.517 15 0 22.03 7.291 22.03 20.071v.512c0 8.812-9.23 9.238-32.19 11.685-25.24 2.714-49.38 10.248-49.38 39.558 0 25.585 18.72 39.132 43.54 39.132v.012zm10.09-22.53c-12.79 0-21.95-5.842-21.95-17.113s10.25-16.688 23.98-18.635c8.05-1.096 24.14-3.128 28.12-6.354v15.337c0 14.484-11.69 26.765-30.16 26.765h.01z" fill="#7A7A7A"/><path d="M2960.34 562.231H1205.25V49.128h1755.1v513.091l-.01.012zm-1746.58-8.508h1738.08V57.636H1213.76v496.087z" fill="url(#paint0_linear_505_183)"/><path d="M1735.87 279.966h32.01c-5.33-34.045-34.81-57.768-73.19-57.768-45.4 0-79.45 33.375-79.45 89.281 0 55.905 32.53 88.939 80.39 88.939 42.94 0 73.69-27.618 73.69-72.337v-20.838h-70.39v24.563h39.98c-.51 24.733-17.03 40.398-43.11 40.398-29.06 0-48.96-21.763-48.96-61.066s20.24-60.738 48.29-60.738c20.92 0 35.15 11.186 40.74 29.566zM1790.48 398.045h30.66V267.94h-30.66v130.105zm15.42-150.712c9.74 0 17.7-7.449 17.7-16.602s-7.96-16.688-17.7-16.688c-9.73 0-17.78 7.45-17.78 16.688s7.96 16.602 17.78 16.602zM1912.97 267.94h-25.67v-31.172h-30.66v31.172h-18.47v23.723h18.47V364c-.17 24.478 17.61 36.503 40.65 35.834 8.73-.256 14.74-1.948 18.04-3.055l-5.16-23.967c-1.69.426-5.18 1.181-8.98 1.181-7.71 0-13.89-2.714-13.89-15.081v-67.249h25.67V267.94zM1936.7 398.044h107.83v-26.34h-76.4V224.571h-31.43v173.473zM2103.25 400.674c20.41 0 32.61-9.567 38.19-20.498h1.03v17.869h29.48v-87.078c0-34.385-28.03-44.719-52.85-44.719-27.37 0-48.37 12.196-55.14 35.919l28.63 4.065c3.05-8.897 11.68-16.517 26.68-16.517 14.99 0 22.02 7.279 22.02 20.072v.511c0 8.812-9.24 9.238-32.19 11.685-25.24 2.714-49.38 10.248-49.38 39.558 0 25.585 18.72 39.133 43.54 39.133h-.01zm10.08-22.53c-12.8 0-21.94-5.843-21.94-17.114s10.25-16.688 23.97-18.635c8.05-1.096 24.14-3.128 28.12-6.354v15.337c0 14.484-11.69 26.766-30.15 26.766zM2194.56 398.044h30.15v-20.497h1.78c4.83 9.482 14.91 22.785 37.27 22.785 30.66 0 53.62-24.307 53.62-67.164s-23.63-66.92-53.71-66.92c-22.95 0-32.52 13.802-37.18 23.211h-1.27v-64.888h-30.66v173.473zm30.07-65.046c0-25.245 10.84-41.591 30.57-41.591s30.92 17.369 30.92 41.591-10.68 42.187-30.92 42.187c-20.24 0-30.57-16.943-30.57-42.187z" fill="#171321"/><path d="M1559.35 283.994l-.3-.779-29.8-77.753a7.728 7.728 0 00-3.05-3.688 7.81 7.81 0 00-4.68-1.217 7.94 7.94 0 00-4.51 1.716 7.88 7.88 0 00-2.65 4.017l-20.12 61.577h-81.4l-20.12-61.577a7.801 7.801 0 00-2.64-4.017 8.029 8.029 0 00-4.52-1.716 7.883 7.883 0 00-4.67 1.217c-1.4.888-2.47 2.166-3.06 3.688l-29.79 77.753-.31.779c-8.82 23.03-1.3 49.077 18.36 63.951.03.024.07.049.11.073l.26.195 45.39 33.984 22.46 16.992 13.67 10.333a9.223 9.223 0 0011.14 0l13.67-10.333 22.44-16.992 45.66-34.179s.07-.061.12-.097c19.64-14.874 27.17-40.897 18.34-63.939v.012z" fill="#E24329"/><path d="M1559.35 283.995l-.3-.779a100.638 100.638 0 00-40.06 18.014c-.19.134-35.43 26.79-65.45 49.479l41.68 31.5 45.65-34.178.13-.098c19.64-14.874 27.16-40.897 18.34-63.938h.01z" fill="#FC6D26"/><path d="M1411.87 382.196l22.45 16.992 13.67 10.334a9.226 9.226 0 0011.14 0l13.67-10.334 22.44-16.992s-19.4-14.642-41.67-31.5c-22.29 16.846-41.69 31.5-41.69 31.5h-.01z" fill="#FCA326"/><path d="M1388.11 301.23c-11.66-8.715-25.27-14.983-40.06-18.014l-.31.779c-8.82 23.029-1.3 49.077 18.36 63.951.04.024.07.048.11.073l.27.194 45.39 33.984s19.4-14.643 41.68-31.501c-30-22.688-65.25-49.344-65.44-49.478v.012z" fill="#FC6D26"/><path d="M2453.43 266.93h8.21c0 9.506 6.19 15.166 16.85 15.166 9.68 0 16.06-4.553 16.06-11.685 0-5.526-3.57-8.74-13.16-11.101l-7.45-1.826c-13.56-3.347-19.18-8.605-19.18-17.661 0-11.466 9.06-19 22.93-19 13.88 0 22.66 7.936 23.02 20.692h-7.94c-.49-8.301-6.33-13.34-15.35-13.34s-14.71 4.637-14.71 11.234c0 5.173 3.7 8.167 13.34 10.565l7.53 1.875c12.94 3.213 19 8.922 19 18.197 0 11.551-9.64 19.353-24.09 19.353-15.34 0-25.06-8.654-25.06-22.482v.013zM2509.28 264.873c0-14.448 8.78-24.709 21.86-24.709 13.07 0 21.86 10.261 21.86 24.709s-8.79 24.526-21.86 24.526c-13.08 0-21.86-10.163-21.86-24.526zm36.04 0c0-10.748-5.31-17.844-14.18-17.844-8.88 0-14.18 7.047-14.18 17.844 0 10.796 5.26 17.661 14.18 17.661s14.18-6.999 14.18-17.661zM2582.38 247.747h-25.51v-6.511h25.51v6.511zm-17.12-14.898c0-6.731 4.77-10.967 12.4-10.967h4.72v6.512h-4.02c-4.01 0-5.52 1.558-5.52 5.624v54.322h-7.58v-55.491z" fill="#171321"/><path d="M2607.22 247.747h-25.51v-6.512h25.51v6.512zm-9.54-19.353v48.529c0 3.652 1.29 4.905 5.17 4.905h4.37v6.512h-5.08c-8.07 0-12.04-3.517-12.04-10.614v-49.332h7.58zM2613.02 241.235h7.93l5.93 20.692c1.83 6.378 3.48 13.158 5.22 19.585h-1.07c1.74-6.427 3.43-13.207 5.26-19.585l5.98-20.692h7.49l5.9 20.692c1.82 6.378 3.48 13.158 5.22 19.585h-1.21c1.79-6.427 3.48-13.207 5.36-19.585l6.06-20.692h7.93l-14.63 47.105h-7.93l-6.2-21.41c-1.82-6.378-3.48-13.243-5.22-19.67h2.01c-1.79 6.427-3.43 13.292-5.31 19.67l-6.33 21.41h-7.76l-14.63-47.105zM2683.49 274.781c0-10.797 9.28-12.756 18.73-14.01 8.98-1.205 11.87-.852 11.87-4.455v-.45c0-5.125-3.83-8.837-10.43-8.837s-11.1 3.615-11.46 8.301h-7.72c.4-8.605 8.03-14.983 19.18-14.983s17.93 6.195 17.93 15.519v32.474h-7.5v-6.694h-.18c-1.74 3.383-5.44 7.4-14.01 7.4-9.37 0-16.42-4.856-16.42-14.277l.01.012zm30.6-4.285v-5.891c-1.15 1.071-6.83 1.923-12.22 2.678-5.44.755-10.61 2.629-10.61 7.936 0 4.418 3.7 7.047 9.72 7.047 9.28 0 13.11-5.623 13.11-11.77zM2732.82 241.235h7.23v7.401h.19c1.74-4.857 5.44-8.119 11.33-8.119 1.39 0 2.59.183 3.21.268v7.583c-.62-.183-2.46-.536-4.63-.536-5.23 0-9.73 3.518-9.73 11.503v28.993h-7.58v-47.105l-.02.012zM2758.96 264.873c0-14.314 8.83-24.709 21.32-24.709 13.11 0 21.41 10.078 21.41 24.709v2.093h-38.72v-6.512h34.49l-3.27 2.277c0-9.592-5.48-15.787-13.91-15.787-8.42 0-13.82 6.195-13.82 15.787v3.213c0 9.774 5.12 16.59 14.36 16.59 6.69 0 11.06-3.384 12.49-8.301h7.58c-1.79 9.007-9.81 15.166-20.07 15.166-13.83 0-21.86-10.346-21.86-24.526zM2809.18 283.52c0-3.128 2.46-5.574 5.57-5.574 3.12 0 5.58 2.459 5.58 5.574 0 3.116-2.46 5.575-5.58 5.575-3.11 0-5.57-2.459-5.57-5.575zM2456.55 331.489h41.8v7.133h-33.77v21.727h31.09v7.132h-31.09v30.466h-8.03v-66.458zM2502.8 384.388c0-10.796 9.28-12.756 18.73-14.01 8.97-1.205 11.87-.852 11.87-4.454v-.451c0-5.124-3.83-8.837-10.43-8.837s-11.1 3.615-11.47 8.302h-7.71c.4-8.606 8.03-14.984 19.18-14.984s17.93 6.196 17.93 15.519v32.475h-7.5v-6.695h-.18c-1.74 3.384-5.44 7.401-14.01 7.401-9.37 0-16.42-4.857-16.42-14.278l.01.012zm30.6-4.284v-5.891c-1.16 1.071-6.83 1.923-12.22 2.677-5.44.755-10.61 2.629-10.61 7.936 0 4.419 3.7 7.048 9.72 7.048 9.28 0 13.11-5.624 13.11-11.77zM2549.91 383.852h7.49c.54 5.623 4.37 8.654 10.97 8.654 6.6 0 10.57-3.031 10.57-7.23 0-3.566-2.9-5.623-7.1-6.597l-7.58-1.789c-8.74-2.057-13.29-6.512-13.29-13.377 0-8.033 6.99-13.742 17.07-13.742s17.18 5.794 17.44 15.166h-7.4c-.08-4.99-3.96-8.654-10.03-8.654-6.06 0-9.5 3.213-9.5 7.23 0 3.566 2.76 5.66 7.31 6.731l7.59 1.789c9 2.143 13.11 6.293 13.11 13.073 0 8.739-7.77 13.912-18.02 13.912s-18.01-4.905-18.65-15.166h.02zM2616.05 357.366h-25.51v-6.512h25.51v6.512zm-9.54-19.365v48.529c0 3.652 1.29 4.905 5.17 4.905h4.37v6.512h-5.09c-8.07 0-12.04-3.517-12.04-10.614v-49.332h7.59zM2620.38 374.492c0-14.314 8.84-24.708 21.33-24.708 13.11 0 21.41 10.078 21.41 24.708v2.094h-38.72v-6.512h34.48l-3.26 2.276c0-9.591-5.49-15.787-13.91-15.787-8.43 0-13.83 6.196-13.83 15.787v3.214c0 9.774 5.12 16.59 14.36 16.59 6.7 0 11.07-3.384 12.49-8.301h7.58c-1.79 9.007-9.81 15.166-20.07 15.166-13.83 0-21.86-10.346-21.86-24.527zM2671.76 350.855h7.23v7.4h.18c1.74-4.856 5.44-8.118 11.33-8.118 1.39 0 2.6.182 3.22.268v7.583c-.62-.183-2.46-.536-4.64-.536-5.22 0-9.73 3.518-9.73 11.502v28.994h-7.58v-47.105l-.01.012zM2694.34 393.127c0-3.128 2.46-5.574 5.57-5.574 3.12 0 5.58 2.458 5.58 5.574 0 3.116-2.46 5.575-5.58 5.575-3.11 0-5.57-2.459-5.57-5.575z" fill="#171321"/><path d="M1579.23 398.044h1275.85M1579.23 221.639h1275.85" stroke="#737477" stroke-width=".791" stroke-linecap="round" stroke-linejoin="round" stroke-dasharray="6.09 6.09"/></g><path d="M1099 197v214" stroke="#74717A" stroke-width="2"/><path d="M50.625 677.586c-8.398 0-13.72-4.736-13.72-12.305h4.492c0 5.2 3.393 8.301 9.228 8.301 5.298 0 8.79-2.49 8.79-6.396 0-3.028-1.954-4.786-7.203-6.08l-4.077-1.001c-7.422-1.831-10.498-4.711-10.498-9.667 0-6.275 4.956-10.401 12.548-10.401 7.569 0 12.403 4.346 12.598 11.328h-4.346c-.268-4.541-3.466-7.3-8.398-7.3-4.712 0-8.057 2.539-8.057 6.153 0 2.832 2.027 4.468 7.3 5.786l4.126 1.025c7.08 1.758 10.4 4.883 10.4 9.961 0 6.323-5.273 10.596-13.183 10.596zm29.419-26.367v3.564H66.079v-3.564h13.965zm-9.375-7.031h4.15v26.562c0 2.002.708 2.686 2.832 2.686h2.393V677H77.26c-4.42 0-6.592-1.929-6.592-5.811v-27.001zm22.046 33.203c-5.127 0-8.984-2.662-8.984-7.813 0-5.908 5.078-6.982 10.253-7.666 4.908-.659 6.495-.464 6.495-2.441v-.244c0-2.808-2.1-4.834-5.713-4.834-3.59 0-6.08 1.977-6.275 4.541h-4.223c.22-4.712 4.394-8.204 10.498-8.204 6.005 0 9.814 3.394 9.814 8.497V677h-4.101v-3.662h-.098c-.952 1.855-2.979 4.053-7.666 4.053zm.586-3.711c5.078 0 7.178-3.076 7.178-6.446v-3.222c-.635.586-3.736 1.05-6.69 1.465-2.978.415-5.81 1.44-5.81 4.345 0 2.417 2.026 3.858 5.322 3.858zm28.076 3.906c-7.153 0-11.963-5.566-11.963-13.428 0-7.91 4.81-13.525 11.963-13.525 5.859 0 10.156 3.784 10.864 8.984h-4.199c-.61-3.027-2.856-5.224-6.665-5.224-4.858 0-7.764 3.857-7.764 9.765 0 5.86 2.881 9.668 7.764 9.668 3.857 0 5.786-2.075 6.592-5.224h4.272c-.708 5.078-5.053 8.984-10.864 8.984zm19.409-9.863v-4.908h.318l11.987-11.596h5.371l-12.549 12.207h-.391l-4.736 4.297zM136.904 677v-36.377h4.151V677h-4.151zm17.115 0l-10.498-12.646 2.929-2.881L159.292 677h-5.273zm17.797.586c-7.568 0-11.962-5.664-11.962-13.428 0-7.837 4.834-13.525 11.669-13.525 7.178 0 11.719 5.517 11.719 13.525v1.148h-21.191v-3.565h18.872l-1.782 1.245c0-5.249-3.003-8.642-7.618-8.642-4.589 0-7.568 3.393-7.568 8.642v1.758c0 5.347 2.808 9.082 7.861 9.082 3.663 0 6.055-1.855 6.836-4.541h4.151c-.977 4.932-5.371 8.301-10.987 8.301zm26.026-.098c-6.714 0-11.182-5.444-11.182-13.379 0-7.959 4.468-13.379 11.182-13.379 3.345 0 6.396 1.416 8.056 4.297h.049v-14.404h4.151V677h-4.053v-3.906h-.049c-1.855 2.978-4.809 4.394-8.154 4.394zm.635-3.735c4.785 0 7.812-3.809 7.812-9.644s-3.027-9.668-7.812-9.668c-4.468 0-7.618 3.345-7.618 9.668 0 6.324 3.15 9.644 7.618 9.644zM1210.61 677v-36.377h4.4v15.796h19.38v-15.796h4.4V677h-4.4v-16.675h-19.38V677h-4.4zm45.51.586c-7.15 0-11.96-5.566-11.96-13.428 0-7.91 4.81-13.525 11.96-13.525 7.15 0 11.96 5.615 11.96 13.525 0 7.862-4.81 13.428-11.96 13.428zm0-3.76c4.88 0 7.76-3.833 7.76-9.668 0-5.884-2.9-9.765-7.76-9.765-4.86 0-7.76 3.857-7.76 9.765 0 5.86 2.88 9.668 7.76 9.668zm16.8 3.174v-25.781h3.95v4.052h.1c.95-2.661 2.98-4.443 6.2-4.443.76 0 1.42.098 1.76.147v4.15c-.34-.098-1.34-.293-2.54-.293-2.86 0-5.32 1.929-5.32 6.299V677h-4.15zm16.11 0v-25.781h4.15V677h-4.15zm2.08-30.811a2.836 2.836 0 01-2.84-2.832 2.834 2.834 0 015.67 0 2.834 2.834 0 01-2.83 2.832zm7.44 30.811v-3.174l14.11-18.799v-.097h-14.11v-3.711h19.24v3.32l-13.96 18.652v.098h14.06V677h-19.34zm34.62.586c-7.15 0-11.96-5.566-11.96-13.428 0-7.91 4.81-13.525 11.96-13.525 7.16 0 11.96 5.615 11.96 13.525 0 7.862-4.8 13.428-11.96 13.428zm0-3.76c4.88 0 7.77-3.833 7.77-9.668 0-5.884-2.91-9.765-7.77-9.765-4.86 0-7.76 3.857-7.76 9.765 0 5.86 2.88 9.668 7.76 9.668zm20.95-11.914V677h-4.15v-25.781h4.05v6.25h-1.17c1.68-4.639 4.76-6.739 8.84-6.739 5.2 0 9.47 3.394 9.47 10.254V677h-4.15v-15.723c0-4.467-2.25-6.738-6.1-6.738-3.76 0-6.79 2.173-6.79 7.373zm34.45-10.693v3.564h-13.97v-3.564h13.97zm-9.38-7.031h4.15v26.562c0 2.002.71 2.686 2.83 2.686h2.4V677h-2.79c-4.41 0-6.59-1.929-6.59-5.811v-27.001zm22.05 33.203c-5.13 0-8.99-2.662-8.99-7.813 0-5.908 5.08-6.982 10.26-7.666 4.91-.659 6.49-.464 6.49-2.441v-.244c0-2.808-2.1-4.834-5.71-4.834-3.59 0-6.08 1.977-6.28 4.541h-4.22c.22-4.712 4.4-8.204 10.5-8.204 6 0 9.81 3.394 9.81 8.497V677h-4.1v-3.662h-.1c-.95 1.855-2.97 4.053-7.66 4.053zm.58-3.711c5.08 0 7.18-3.076 7.18-6.446v-3.222c-.63.586-3.73 1.05-6.69 1.465-2.98.415-5.81 1.44-5.81 4.345 0 2.417 2.03 3.858 5.32 3.858zm24.03 3.32c-4.76 0-6.59-1.611-6.59-5.811v-30.566h4.15v30.127c0 2.197.51 2.686 2.63 2.686h1V677h-1.19z" fill="#171321"/><defs><clipPath id="clip0_505_183"><path fill="#fff" transform="translate(10 20)" d="M0 0h1015.94v573.206H0z"/></clipPath><clipPath id="clip1_505_183"><path fill="#fff" transform="translate(1176.5 20)" d="M0 0h1813.5v572.867H0z"/></clipPath><linearGradient id="paint0_linear_505_183" x1="1205.25" y1="305.686" x2="2960.34" y2="305.686" gradientUnits="userSpaceOnUse"><stop stop-color="#FCA326" stop-opacity=".6"/><stop offset="1" stop-color="#A989F5" stop-opacity=".9"/></linearGradient></defs></svg>