<svg width="72" height="72" fill="none" viewBox="0 0 72 72" xmlns="http://www.w3.org/2000/svg"><rect width="72" height="72" rx="36" fill="var(--gl-illustration-base-fill-color, #e7e4f2ff)"/><circle cx="36" cy="36" r="24.306" fill="var(--gl-illustration-fill-color-default, #ffffff)"/><path d="M51.553 54.678A24.207 24.207 0 0 1 36 60.306a24.207 24.207 0 0 1-15.553-5.628l5.571-5.571a8 8 0 0 1 5.657-2.343h8.65a8 8 0 0 1 5.657 2.343l5.571 5.571Z" fill="var(--gl-illustration-accent-fill-color-strong, #aea5d6ff)"/><circle cx="36" cy="33.222" r="8.333" fill="var(--gl-illustration-accent-fill-color-subtle, #d0c5e2ff)" stroke="var(--gl-illustration-stroke-color-default, #171321ff)" stroke-width="var(--gl-illustration-stroke-width-default, 2)" stroke-linecap="square"/><path d="m20.286 54.571 4.51-4.51a11.429 11.429 0 0 1 8.08-3.347h6.247c3.031 0 5.938 1.204 8.081 3.348l4.989 4.985a25 25 0 1 1 8.55-15.476" stroke="var(--gl-illustration-stroke-color-default, #171321ff)" stroke-width="var(--gl-illustration-stroke-width-default, 2)" stroke-linecap="square"/><g stroke="var(--gl-illustration-stroke-color-default, #171321ff)" stroke-width="var(--gl-illustration-stroke-width-default, 2)" stroke-linecap="square"><circle cx="51" cy="53" r="10" fill="var(--gl-illustration-status-fill-color-success, #6fdac9ff)"/><path d="M47 53h4m4 0h-4m0 0v-4m0 4v4"/></g></svg>