<svg width="72" height="72" fill="none" viewBox="0 0 72 72" xmlns="http://www.w3.org/2000/svg"><rect width="72" height="72" rx="36" fill="var(--gl-illustration-base-fill-color, #e7e4f2ff)"/><path d="M49.889 29.361v.057a9.375 9.375 0 1 1 1.389 18.686v.007H22.806c-6.137 0-11.112-4.974-11.112-11.111 0-6.137 4.975-11.111 11.112-11.111.857 0 1.692.097 2.494.281 1.41-5.358 6.288-9.309 12.089-9.309 6.903 0 12.5 5.597 12.5 12.5Z" fill="var(--gl-illustration-fill-color-default, #ffffff)"/><path d="M28.361 48.111h22.917v-.006a9.375 9.375 0 1 0-1.39-18.687v-.057c0-6.903-5.596-12.5-12.5-12.5-5.8 0-10.678 3.951-12.088 9.309a11.147 11.147 0 0 0-2.494-.281c-6.137 0-11.112 4.974-11.112 11.111 0 5.425 3.888 9.941 9.029 10.916" stroke="var(--gl-illustration-stroke-color-default, #171321ff)" stroke-width="var(--gl-illustration-stroke-width-default, 2)" stroke-linecap="square"/><g stroke="var(--gl-illustration-stroke-color-default, #171321ff)" stroke-width="var(--gl-illustration-stroke-width-default, 2)" stroke-linecap="square"><circle cx="36" cy="47.417" fill="var(--gl-illustration-status-fill-color-success, #6fdac9ff)" r="9.722"/><path d="m32.667 47.671 1.96 1.968 4.706-4.722"/></g></svg>