<svg width="72" height="72" fill="none" viewBox="0 0 72 72" xmlns="http://www.w3.org/2000/svg"><rect width="72" height="72" rx="36" fill="var(--gl-illustration-base-fill-color, #e7e4f2ff)"/><path d="M49.889 29.361v.057a9.375 9.375 0 1 1 1.389 18.686v.007H22.806c-6.137 0-11.112-4.974-11.112-11.111 0-6.137 4.975-11.111 11.112-11.111.857 0 1.692.097 2.494.281 1.41-5.358 6.288-9.309 12.089-9.309 6.903 0 12.5 5.597 12.5 12.5Z" fill="var(--gl-illustration-fill-color-default, #ffffff)"/><path d="M29 48h22c5.017-.183 9-3.938 9-9 0-5.178-3.892-9.5-9.07-9.5-.352 0-.7.02-1.041.057V29.5c0-6.904-5.485-12.5-12.389-12.5-5.8 0-10.79 3.951-12.2 9.309a11.147 11.147 0 0 0-2.494-.281C16.669 26.028 12 30.863 12 37c0 5.425 3.86 10.025 9 11" stroke="var(--gl-illustration-stroke-color-default, #171321ff)" stroke-width="var(--gl-illustration-stroke-width-default, 2)" stroke-linecap="square"/><g stroke="var(--gl-illustration-stroke-color-default, #171321ff)" stroke-width="var(--gl-illustration-stroke-width-default, 2)" stroke-linecap="square"><circle cx="36" cy="47" r="10" fill="var(--gl-illustration-accent-fill-color-subtle, #d0c5e2ff)"/><path d="m30.755 52.96-1.184 1.183-.266.285A9.963 9.963 0 0 0 36 57c2.57 0 4.913-.97 6.684-2.562l-.255-.295-1.184-1.184a5.714 5.714 0 0 0-4.04-1.673h-2.41a5.714 5.714 0 0 0-4.04 1.673Z" fill="var(--gl-illustration-accent-fill-color-strong, #aea5d6ff)"/><path d="m29.571 54.143.514-.514a8 8 0 0 1 5.657-2.343h.516a8 8 0 0 1 5.657 2.343l.514.514"/><circle cx="36" cy="45.571" r="2.857" fill="var(--gl-illustration-accent-fill-color-strong, #aea5d6ff)"/></g></svg>