<svg width="72" height="72" fill="none" viewBox="0 0 72 72" xmlns="http://www.w3.org/2000/svg"><rect width="72" height="72" rx="36" fill="var(--gl-illustration-base-fill-color, #e7e4f2ff)"/><path d="M49.889 29.361v.057a9.375 9.375 0 1 1 1.389 18.686v.007H22.806c-6.137 0-11.112-4.974-11.112-11.111 0-6.137 4.975-11.111 11.112-11.111.857 0 1.692.097 2.494.281 1.41-5.358 6.288-9.309 12.089-9.309 6.903 0 12.5 5.597 12.5 12.5Z" fill="var(--gl-illustration-fill-color-default, #ffffff)"/><path d="M29 48h22c5.017-.183 9-3.938 9-9 0-5.178-3.892-9.5-9.07-9.5-.352 0-.7.02-1.041.057V29.5c0-6.904-5.485-12.5-12.389-12.5-5.8 0-10.79 3.951-12.2 9.309a11.147 11.147 0 0 0-2.494-.281C16.669 26.028 12 30.863 12 37c0 5.425 3.86 10.025 9 11" stroke="var(--gl-illustration-stroke-color-default, #171321ff)" stroke-width="var(--gl-illustration-stroke-width-default, 2)" stroke-linecap="square"/><path d="m45.666 44.516-2.734-7.117s-.133-.264-.266-.33c-.134-.066-.267-.132-.4-.132s-.267 0-.4.132c-.133.066-.2.198-.266.396l-1.867 5.6h-7.465l-1.868-5.6s-.133-.264-.266-.396c-.134-.066-.267-.132-.4-.132s-.333 0-.4.132c-.133.066-.2.198-.266.33l-2.734 7.05c-.8 2.175-.133 4.547 1.667 5.865l4.132 3.097 2.067 1.516 1.266.923s.734.197 1 0l1.267-.923 2.067-1.516 4.199-3.097c1.8-1.383 2.466-3.69 1.667-5.798Z" fill="var(--gl-illustration-accent-fill-color-orange, #ff9d73ff)" stroke="var(--gl-illustration-stroke-color-default, #171321ff)" stroke-width="var(--gl-illustration-stroke-width-default, 2)"/></svg>