<svg width="144" height="144" fill="none" viewBox="0 0 144 144" xmlns="http://www.w3.org/2000/svg"><rect width="144" height="144" rx="72" fill="var(--gl-illustration-base-fill-color, #e7e4f2ff)"/><path d="M85 117a26.998 26.998 0 0 0 27-27" stroke="var(--gl-illustration-stroke-color-default, #171321ff)" stroke-width="var(--gl-illustration-stroke-width-default, 2)" stroke-linecap="square"/><path d="M53 46.08h-9V107h42l9-9H53V46.08Z" fill="var(--gl-illustration-accent-fill-color-subtle, #d0c5e2ff)"/><path d="M53 46h-9v61h39.486a6 6 0 0 0 4.277-1.793L89 103.95" stroke="var(--gl-illustration-stroke-color-default, #171321ff)" stroke-width="var(--gl-illustration-stroke-width-default, 2)" stroke-linecap="square"/><path d="M53 37h35l12 11v42a8 8 0 0 1-8 8H53V37Z" fill="var(--gl-illustration-fill-color-default, #ffffff)"/><path d="M88 37H53v61h39a8 8 0 0 0 8-8V55.5M88 37v11h12v-.5L88 37Z" stroke="var(--gl-illustration-stroke-color-default, #171321ff)" stroke-width="var(--gl-illustration-stroke-width-default, 2)" stroke-linecap="square"/><path d="M75 84h10M75 80h16M75 70h8M75 66h16" stroke="var(--gl-illustration-accent-stroke-color-strong, #aea5d6ff)" stroke-width="var(--gl-illustration-stroke-width-default, 2)" stroke-linecap="square"/><path d="M75 56h15M75 52h7" stroke="var(--gl-illustration-stroke-color-default, #171321ff)" stroke-width="var(--gl-illustration-stroke-width-default, 2)" stroke-linecap="square"/><path d="M61 58v-8h8v8h-8Z" fill="var(--gl-illustration-accent-fill-color-teal, #6fdac9ff)" stroke="var(--gl-illustration-stroke-color-default, #171321ff)" stroke-width="var(--gl-illustration-stroke-width-default, 2)" stroke-linecap="square"/><path d="M61 72v-8h8v8h-8ZM61 86v-8h8v8h-8Z" stroke="var(--gl-illustration-accent-stroke-color-strong, #aea5d6ff)" stroke-width="var(--gl-illustration-stroke-width-default, 2)" stroke-linecap="square"/></svg>