<svg width="144" height="144" fill="none" viewBox="0 0 144 144" xmlns="http://www.w3.org/2000/svg"><rect width="144" height="144" rx="72" fill="var(--gl-illustration-base-fill-color, #e7e4f2ff)"/><path d="M85 117a26.998 26.998 0 0 0 27-27" stroke="var(--gl-illustration-stroke-color-default, #171321ff)" stroke-width="var(--gl-illustration-stroke-width-default, 2)" stroke-linecap="square"/><path d="M53 46.08h-9V107h42l9-9H53V46.08Z" fill="var(--gl-illustration-accent-fill-color-subtle, #d0c5e2ff)"/><path d="M53 46h-9v61h39.486a6 6 0 0 0 4.277-1.793L89 103.95" stroke="var(--gl-illustration-stroke-color-default, #171321ff)" stroke-width="var(--gl-illustration-stroke-width-default, 2)" stroke-linecap="square"/><path d="M53 37h35l12 11v42a8 8 0 0 1-8 8H53V37Z" fill="var(--gl-illustration-fill-color-default, #ffffff)"/><path d="M88 37H53v61h39a8 8 0 0 0 8-8V55.5M88 37v11h12v-.5L88 37Z" stroke="var(--gl-illustration-stroke-color-default, #171321ff)" stroke-width="var(--gl-illustration-stroke-width-default, 2)" stroke-linecap="square"/><path d="M124.123 14.604a1 1 0 0 1 1.754 0l2.518 4.604c.092.167.23.305.398.397l4.603 2.518a1 1 0 0 1 0 1.754l-4.603 2.518c-.168.092-.306.23-.398.398l-2.518 4.603a1 1 0 0 1-1.754 0l-2.518-4.604a1.001 1.001 0 0 0-.398-.397l-4.603-2.518a1 1 0 0 1 0-1.754l4.603-2.518c.168-.092.306-.23.398-.398l2.518-4.603ZM18.123 108.604a1 1 0 0 1 1.754 0l3.225 5.896c.092.168.23.306.398.398l5.896 3.225a1 1 0 0 1 0 1.754l-5.896 3.225c-.168.092-.306.23-.398.398l-3.225 5.896a1 1 0 0 1-1.754 0l-3.225-5.896a1.001 1.001 0 0 0-.398-.398l-5.896-3.225a1 1 0 0 1 0-1.754l5.896-3.225c.168-.092.306-.23.398-.398l3.225-5.896ZM36.561 128.802a.5.5 0 0 1 .878 0l1.966 3.595a.492.492 0 0 0 .198.198l3.595 1.966a.5.5 0 0 1 0 .878l-3.595 1.966a.492.492 0 0 0-.198.198l-1.966 3.595a.5.5 0 0 1-.878 0l-1.966-3.595a.492.492 0 0 0-.198-.198l-3.595-1.966a.5.5 0 0 1 0-.878l3.595-1.966a.492.492 0 0 0 .198-.198l1.966-3.595Z" fill="var(--gl-illustration-fill-color-default, #ffffff)" stroke="var(--gl-illustration-stroke-color-default, #171321ff)" stroke-width="var(--gl-illustration-stroke-width-default, 2)"/><path d="M75 84h10M75 80h16M75 70h8M75 66h16M75 56h15M75 52h7" stroke="var(--gl-illustration-stroke-color-default, #171321ff)" stroke-width="var(--gl-illustration-stroke-width-default, 2)" stroke-linecap="square"/><path d="M61 58v-8h8v8h-8ZM61 72v-8h8v8h-8ZM61 86v-8h8v8h-8Z" fill="var(--gl-illustration-accent-fill-color-teal, #6fdac9ff)" stroke="var(--gl-illustration-stroke-color-default, #171321ff)" stroke-width="var(--gl-illustration-stroke-width-default, 2)" stroke-linecap="square"/></svg>