<svg width="72" height="72" fill="none" viewBox="0 0 72 72" xmlns="http://www.w3.org/2000/svg"><rect width="72" height="72" rx="36" fill="var(--gl-illustration-base-fill-color, #e7e4f2ff)"/><path d="M27.25 21H49.5a7.5 7.5 0 0 1 7.5 7.5v0a7.5 7.5 0 0 1-7.5 7.5h-26a7.5 7.5 0 0 0-7.5 7.5v0a7.5 7.5 0 0 0 7.5 7.5h21.25" stroke="var(--gl-illustration-stroke-color-default, #171321ff)" stroke-width="var(--gl-illustration-stroke-width-default, 2)" stroke-linecap="square"/><path d="M45.5 23.5 48 21l-2.5-2.5M23.5 53.5 26 51l-2.5-2.5" stroke="var(--gl-illustration-stroke-color-default, #171321ff)" stroke-width="var(--gl-illustration-stroke-width-default, 2)" stroke-linecap="square"/><circle cx="22" cy="21" r="6" fill="var(--gl-illustration-fill-color-default, #ffffff)" stroke="var(--gl-illustration-stroke-color-default, #171321ff)" stroke-width="var(--gl-illustration-stroke-width-default, 2)" stroke-linecap="square"/><circle cx="36" cy="36" r="6" fill="var(--gl-illustration-fill-color-default, #ffffff)" stroke="var(--gl-illustration-stroke-color-default, #171321ff)" stroke-width="var(--gl-illustration-stroke-width-default, 2)" stroke-linecap="square"/><circle cx="51" cy="51" r="6" fill="var(--gl-illustration-accent-fill-color-teal, #6fdac9ff)" stroke="var(--gl-illustration-stroke-color-default, #171321ff)" stroke-width="var(--gl-illustration-stroke-width-default, 2)" stroke-linecap="square"/></svg>