<svg width="144" height="144" fill="none" viewBox="0 0 144 144" xmlns="http://www.w3.org/2000/svg"><rect width="144" height="144" rx="72" fill="var(--gl-illustration-base-fill-color, #e7e4f2ff)"/><circle cx="72" cy="72" r="36" fill="var(--gl-illustration-accent-fill-color-orange, #ff9d73ff)"/><circle cx="72" cy="72" r="28" fill="var(--gl-illustration-fill-color-default, #ffffff)"/><path d="M83 83 72 72V50" stroke="var(--gl-illustration-stroke-color-default, #171321ff)" stroke-width="var(--gl-illustration-stroke-width-default, 2)"/><path d="M83 83 72 72V50" stroke="var(--gl-illustration-stroke-color-default, #171321ff)" stroke-width="2"/><path d="M72 43a1 1 0 1 1 0 2 1 1 0 0 1 0-2ZM100 71a1 1 0 1 1 0 2 1 1 0 0 1 0-2ZM72 99a1 1 0 1 1 0 2 1 1 0 0 1 0-2ZM44 71a1 1 0 1 1 0 2 1 1 0 0 1 0-2Z" stroke="var(--gl-illustration-stroke-color-default, #171321ff)" stroke-width="2"/><circle cx="72" cy="72" r="4" fill="var(--gl-illustration-fill-color-default, #ffffff)" stroke="var(--gl-illustration-stroke-color-default, #171321ff)" stroke-width="2"/><circle cx="72" cy="72" r="4" fill="var(--gl-illustration-fill-color-default, #ffffff)" stroke="var(--gl-illustration-stroke-color-default, #171321ff)" stroke-width="var(--gl-illustration-stroke-width-default, 2)"/><path d="M103.716 57.198a34.998 34.998 0 0 1-40.246 48.747 35.003 35.003 0 0 1-25.918-40.136A35 35 0 0 1 98.54 49.183" stroke="var(--gl-illustration-stroke-color-default, #171321ff)" stroke-width="var(--gl-illustration-stroke-width-default, 2)" stroke-linecap="square"/><path d="M92 50h7v-7M88.065 33.194a42 42 0 0 0-55.809 52.387" stroke="var(--gl-illustration-stroke-color-default, #171321ff)" stroke-width="var(--gl-illustration-stroke-width-default, 2)" stroke-linecap="square"/></svg>
