<svg width="72" height="72" fill="none" viewBox="0 0 72 72" xmlns="http://www.w3.org/2000/svg"><rect width="72" height="72" rx="36" fill="var(--gl-illustration-base-fill-color, #e7e4f2ff)"/><path d="M61.575 38.3 46.5 53.375v-33.25a2.475 2.475 0 0 1 3.5 0L61.575 31.7a4.667 4.667 0 0 1 0 6.6Z" fill="var(--gl-illustration-fill-color-default, #ffffff)"/><rect x="23" y="15" width="25" height="40" rx="4.667" fill="var(--gl-illustration-fill-color-default, #ffffff)"/><path d="M48.5 19.433a5.018 5.018 0 0 1 2.85 1.426L62.042 31.55a5.04 5.04 0 0 1 0 7.128l-9.605 9.605M23 33V19.667A4.667 4.667 0 0 1 27.667 15h15.666A4.667 4.667 0 0 1 48 19.667v30.666A4.667 4.667 0 0 1 43.333 55H27.667A4.667 4.667 0 0 1 23 50.333V40" stroke="var(--gl-illustration-stroke-color-default, #171321ff)" stroke-width="var(--gl-illustration-stroke-width-default, 2)" stroke-linecap="square"/><g stroke="var(--gl-illustration-stroke-color-default, #171321ff)" stroke-width="var(--gl-illustration-stroke-width-default, 2)" stroke-linecap="square"><circle cx="23" cy="49" r="10" fill="var(--gl-illustration-accent-fill-color-subtle, #d0c5e2ff)"/><path d="m17.755 54.96-1.184 1.183-.221.285C18.122 58.027 20.425 59 23 59c2.57 0 4.829-.97 6.6-2.562l-.171-.295-1.184-1.184c-1.072-1.071-2.525-1.459-4.04-1.459h-2.41c-1.515 0-2.968.388-4.04 1.46Z" fill="var(--gl-illustration-accent-fill-color-strong, #aea5d6ff)"/><circle cx="23" cy="47" r="3" fill="var(--gl-illustration-accent-fill-color-strong, #aea5d6ff)"/></g></svg>