<svg width="72" height="72" fill="none" viewBox="0 0 72 72" xmlns="http://www.w3.org/2000/svg"><rect width="72" height="72" rx="36" fill="var(--gl-illustration-base-fill-color, #e7e4f2ff)"/><path d="M24.994 17.004h20.101l6.892 6.31v20.68a8 8 0 0 1-8 8H24.994v-34.99Z" fill="var(--gl-illustration-fill-color-default, #ffffff)"/><path d="m51.987 23.313-6.892-6.31v6.31h6.892Z" fill="var(--gl-illustration-fill-color-default, #ffffff)"/><path d="m45.095 17.004 6.892 6.31m-6.892-6.31v6.31h6.892m-6.892-6.31h-.006m6.898 6.31v22.68a6 6 0 0 1-6 6H24.994v-34.99h15.507" stroke="var(--gl-illustration-stroke-color-default, #171321ff)" stroke-width="var(--gl-illustration-stroke-width-default, 2)" stroke-linecap="square"/><g stroke="var(--gl-illustration-stroke-color-default, #171321ff)" stroke-width="var(--gl-illustration-stroke-width-default, 2)" stroke-linecap="square"><circle cx="24" cy="44" r="10" fill="var(--gl-illustration-accent-fill-color-subtle, #d0c5e2ff)"/><path d="m20.302 45.838-1.927-1.927 1.927-1.926M23.057 47.021l1.667-6.22M27.515 45.838l1.926-1.927-1.926-1.926"/></g></svg>