<svg width="72" height="72" fill="none" viewBox="0 0 72 72" xmlns="http://www.w3.org/2000/svg"><rect width="72" height="72" rx="36" fill="var(--gl-illustration-base-fill-color, #e7e4f2ff)"/><path d="M20 19.6a3.6 3.6 0 0 1 3.6-3.6H52v32H22.8L20 50V19.6Z" fill="var(--gl-illustration-accent-fill-color-strong, #aea5d6ff)"/><path d="M52 48H20v1a6 6 0 0 0 6 6h26v-7Z" fill="var(--gl-illustration-fill-color-default, #ffffff)"/><path d="M20 48h32v7H26a6 6 0 0 1-6-6V22a6 6 0 0 1 6-6h26v26" stroke="var(--gl-illustration-stroke-color-default, #171321ff)" stroke-width="var(--gl-illustration-stroke-width-default, 2)" stroke-linecap="square"/><path d="M40 52v6.5l3.5-1.5 3.5 1.5V52h-7Z" fill="var(--gl-illustration-accent-fill-color-orange, #ff9d73ff)" stroke="var(--gl-illustration-stroke-color-default, #171321ff)" stroke-width="var(--gl-illustration-stroke-width-default, 2)" stroke-linecap="square"/></svg>