<svg width="16" height="16" viewBox="0 0 16 16" xmlns="http://www.w3.org/2000/svg"><path fill-rule="evenodd" clip-rule="evenodd" d="M4.256 6.041a3.75 3.75 0 0 1 7.348-.832l.152.528.55.014a2.25 2.25 0 0 1 1.069 4.198.75.75 0 1 0 .75 1.299 3.75 3.75 0 0 0-1.25-6.946 5.251 5.251 0 0 0-10.035.974 3.25 3.25 0 0 0-.896 6.2.75.75 0 1 0 .603-1.373A1.75 1.75 0 0 1 3.25 6.75h.967l.039-.709ZM6.22 7.22a.75.75 0 0 1 1.06 0l1.75 1.75.53.53-.53.53-1.75 1.75a.75.75 0 0 1-1.06-1.06L7.44 9.5 6.22 8.28a.75.75 0 0 1 0-1.06ZM8 13.25a.75.75 0 0 1 .75-.75h2.5a.75.75 0 0 1 0 1.5h-2.5a.75.75 0 0 1-.75-.75Z" fill="#000"/></svg>