<svg width="16" height="16" viewBox="0 0 16 16" xmlns="http://www.w3.org/2000/svg">
<path fill-rule="evenodd" clip-rule="evenodd" d="M6.6602 0.11182C7.09633 0.0382308 7.54399 0 8 0C8.45601 0 8.90368 0.0382308 9.3398 0.11182C9.74824 0.180737 10.0235 0.567712 9.95456 0.976152C9.88565 1.38459 9.49867 1.65983 9.09023 1.59091C8.73623 1.53118 8.37204 1.5 8 1.5C7.62796 1.5 7.26377 1.53118 6.90977 1.59091C6.50133 1.65983 6.11435 1.38459 6.04544 0.976152C5.97652 0.567712 6.25176 0.180737 6.6602 0.11182ZM11.5843 1.65215C11.8243 1.31454 12.2926 1.23539 12.6302 1.47537C13.3628 1.99615 14.0039 2.63718 14.5246 3.36983C14.7646 3.70744 14.6855 4.17567 14.3478 4.41565C14.0102 4.65563 13.542 4.57648 13.302 4.23887C12.8785 3.64302 12.357 3.12151 11.7611 2.69798C11.4235 2.458 11.3444 1.98977 11.5843 1.65215ZM4.41565 1.65215C4.65563 1.98977 4.57648 2.458 4.23887 2.69798C3.64302 3.12151 3.12151 3.64302 2.69798 4.23887C2.458 4.57648 1.98977 4.65563 1.65215 4.41565C1.31454 4.17567 1.23539 3.70744 1.47537 3.36983C1.99615 2.63718 2.63718 1.99615 3.36983 1.47537C3.70744 1.23539 4.17567 1.31454 4.41565 1.65215ZM0.976152 6.04544C1.38459 6.11435 1.65983 6.50133 1.59091 6.90977C1.53118 7.26377 1.5 7.62796 1.5 8C1.5 8.37204 1.53118 8.73623 1.59091 9.09023C1.65983 9.49867 1.38459 9.88565 0.976152 9.95456C0.567712 10.0235 0.180737 9.74824 0.11182 9.3398C0.0382308 8.90368 0 8.45601 0 8C0 7.54399 0.0382308 7.09633 0.11182 6.6602C0.180737 6.25176 0.567712 5.97652 0.976152 6.04544ZM15.0238 6.04544C15.4323 5.97652 15.8193 6.25176 15.8882 6.6602C15.9618 7.09633 16 7.54399 16 8C16 8.45601 15.9618 8.90368 15.8882 9.3398C15.8193 9.74824 15.4323 10.0235 15.0238 9.95456C14.6154 9.88565 14.3402 9.49867 14.4091 9.09023C14.4688 8.73623 14.5 8.37204 14.5 8C14.5 7.62796 14.4688 7.26377 14.4091 6.90977C14.3402 6.50133 14.6154 6.11435 15.0238 6.04544ZM1.65215 11.5843C1.98977 11.3444 2.458 11.4235 2.69798 11.7611C3.12151 12.357 3.64302 12.8785 4.23887 13.302C4.57648 13.542 4.65563 14.0102 4.41565 14.3478C4.17567 14.6855 3.70744 14.7646 3.36983 14.5246C2.63718 14.0039 1.99615 13.3628 1.47537 12.6302C1.23539 12.2926 1.31454 11.8243 1.65215 11.5843ZM14.3478 11.5843C14.6855 11.8243 14.7646 12.2926 14.5246 12.6302C14.0039 13.3628 13.3628 14.0039 12.6302 14.5246C12.2926 14.7646 11.8243 14.6855 11.5843 14.3478C11.3444 14.0102 11.4235 13.542 11.7611 13.302C12.357 12.8785 12.8785 12.357 13.302 11.7611C13.542 11.4235 14.0102 11.3444 14.3478 11.5843ZM6.04544 15.0238C6.11435 14.6154 6.50133 14.3402 6.90977 14.4091C7.26377 14.4688 7.62796 14.5 8 14.5C8.37204 14.5 8.73623 14.4688 9.09023 14.4091C9.49867 14.3402 9.88565 14.6154 9.95456 15.0238C10.0235 15.4323 9.74824 15.8193 9.3398 15.8882C8.90368 15.9618 8.45601 16 8 16C7.54399 16 7.09633 15.9618 6.6602 15.8882C6.25176 15.8193 5.97652 15.4323 6.04544 15.0238Z" fill="black"/>
</svg>
