<svg width="16" height="16" viewBox="0 0 16 16" xmlns="http://www.w3.org/2000/svg">
<path fill-rule="evenodd" clip-rule="evenodd" d="M5.5 5.5V2.5H10.5V5.5H5.5ZM4 2C4 1.44772 4.44772 1 5 1H11C11.5523 1 12 1.44772 12 2V6C12 6.55228 11.5523 7 11 7H10.8973L12.4316 9H14C14.5523 9 15 9.44772 15 10V14C15 14.5523 14.5523 15 14 15H10C9.44772 15 9 14.5523 9 14V10C9 9.44772 9.44772 9 10 9H10.541L9.00679 7H6.99322L5.45898 9H6C6.55228 9 7 9.44772 7 10V14C7 14.5523 6.55228 15 6 15H2C1.44772 15 1 14.5523 1 14V10C1 9.44772 1.44772 9 2 9H3.56846L5.1027 7H5C4.44772 7 4 6.55228 4 6V2ZM2.5 10.5V13.5H5.5V10.5H2.5ZM10.5 13.5V10.5H13.5V13.5H10.5Z" fill="black"/>
</svg>
