<svg width="16" height="16" viewBox="0 0 16 16"  xmlns="http://www.w3.org/2000/svg">  
<path d="M13.5535 3.01557C12.5023 2.5343 11.3925 2.19287 10.2526 2C10.0966 2.27886 9.95547 2.56577 9.82976 2.85952C8.6155 2.67655 7.38067 2.67655 6.16641 2.85952C6.04063 2.5658 5.89949 2.27889 5.74357 2C4.60289 2.1945 3.4924 2.53674 2.44013 3.01809C0.351096 6.10885 -0.215207 9.12284 0.0679444 12.094C1.29133 12.9979 2.66066 13.6854 4.11639 14.1265C4.44417 13.6856 4.73422 13.2179 4.98346 12.7283C4.51007 12.5515 4.05317 12.3334 3.61804 12.0764C3.73256 11.9934 3.84456 11.9078 3.95279 11.8247C5.21891 12.4202 6.60083 12.7289 7.99997 12.7289C9.39912 12.7289 10.781 12.4202 12.0472 11.8247C12.1566 11.9141 12.2686 11.9997 12.3819 12.0764C11.9459 12.3338 11.4882 12.5523 11.014 12.7296C11.2629 13.2189 11.553 13.6862 11.881 14.1265C13.338 13.6871 14.7084 13 15.932 12.0953C16.2642 8.64966 15.3644 5.66336 13.5535 3.01557ZM5.34212 10.2668C4.55307 10.2668 3.90119 9.55072 3.90119 8.6698C3.90119 7.78888 4.53042 7.06653 5.3396 7.06653C6.14879 7.06653 6.79563 7.78888 6.78179 8.6698C6.76795 9.55072 6.14627 10.2668 5.34212 10.2668ZM10.6578 10.2668C9.86752 10.2668 9.21815 9.55072 9.21815 8.6698C9.21815 7.78888 9.84738 7.06653 10.6578 7.06653C11.4683 7.06653 12.1101 7.78888 12.0962 8.6698C12.0824 9.55072 11.462 10.2668 10.6578 10.2668Z" fill="#000"/>
</svg>
