<svg width="16" height="16" viewBox="0 0 16 16" xmlns="http://www.w3.org/2000/svg"><path d="M9.644 0a1 1 0 0 1 .645.236l.074.07L13.72 3.78a1 1 0 0 1 .28.695v.774a.75.75 0 0 1-.75.75.666.666 0 0 1-.063-.004.606.606 0 0 1-.062.004H9.75A1.75 1.75 0 0 1 8 4.25V1.5H3.5v13h2.75a.75.75 0 0 1 0 1.5H3a1 1 0 0 1-1-1V1a1 1 0 0 1 1-1h6.644ZM12 8a.75.75 0 0 1 .75.75v2.5h2.5a.75.75 0 0 1 0 1.5h-2.5v2.5a.75.75 0 0 1-1.5 0v-2.5h-2.5a.75.75 0 0 1 0-1.5h2.5v-2.5A.75.75 0 0 1 12 8ZM9.5 4.25c0 .138.112.25.25.25h2.58L9.5 1.57v2.68Z" fill="#000"/></svg>