<svg width="16" height="16" viewBox="0 0 16 16" xmlns="http://www.w3.org/2000/svg"><path fill-rule="evenodd" clip-rule="evenodd" d="M6.995 1.84a.75.75 0 0 0-1.49-.18L5.105 5H1.75a.75.75 0 0 0 0 1.5h3.175l-.36 3H1.75a.75.75 0 0 0 0 1.5h2.635l-.38 3.16a.75.75 0 0 0 1.49.18l.4-3.34h3.49l-.38 3.16a.75.75 0 0 0 1.49.18l.4-3.34h3.355a.75.75 0 0 0 0-1.5h-3.175l.36-3h2.815a.75.75 0 0 0 0-1.5h-2.635l.38-3.16a.75.75 0 0 0-1.49-.18l-.4 3.34h-3.49l.38-3.16Zm2.57 7.66.36-3h-3.49l-.36 3h3.49Z" fill="#000"/></svg>