<svg width="16" height="16" viewBox="0 0 16 16" xmlns="http://www.w3.org/2000/svg">
<path fill-rule="evenodd" clip-rule="evenodd" d="M2 14.25C2 13.8358 2.33579 13.5 2.75 13.5L13.25 13.5C13.6642 13.5 14 13.8358 14 14.25C14 14.6642 13.6642 15 13.25 15L2.75 15C2.33579 15 2 14.6642 2 14.25Z" fill="black"/>
<path fill-rule="evenodd" clip-rule="evenodd" d="M3.5 10.9977V9.1123L4.78991 7.85358L6.60082 9.68764L5.33151 10.9977H3.5ZM7.64485 8.6101L12.3597 3.74397C12.5579 3.53939 12.5454 3.21078 12.3322 3.02184L11.3224 2.12699L12.3173 1.00437L13.327 1.89923C14.1798 2.65496 14.2298 3.9694 13.4369 4.78775L5.96675 12.4977H3.5H2V10.9977V8.48021L9.59397 1.06979C10.3443 0.337607 11.5326 0.309061 12.3173 1.00437L11.3224 2.12699C11.1262 1.95316 10.8292 1.9603 10.6416 2.14334L5.86348 6.80595L7.64485 8.6101Z" fill="black"/>
</svg>
