<svg width="16" height="16" viewBox="0 0 16 16" xmlns="http://www.w3.org/2000/svg">
  <path
     d="M 15.497679,3.7060707 C 15.263874,1.9869364 13.749166,0.63214251 11.953597,0.36961944 11.650663,0.32525903 10.502889,0.163818 7.8440786,0.163818 h -0.019856 c -2.6595282,0 -3.2301128,0.16144103 -3.5330462,0.20580144 C 2.5455965,0.62487072 0.95149813,1.8422225 0.56473628,3.5817015 c -0.18602759,0.8566564 -0.20588041,1.8064 -0.17132184,2.6776 0.0492642,1.2493538 0.058823,2.4965128 0.17352779,3.7407795 0.0792985,0.826502 0.21763282,1.64642 0.41396718,2.4536 0.36764309,1.49079 1.85586659,2.731405 3.31393839,3.237559 1.5610872,0.527836 3.2398974,0.615446 4.8484923,0.253067 0.1769436,-0.04072 0.351959,-0.088 0.5249846,-0.141806 0.3904413,-0.122892 0.8485333,-0.260348 1.1852923,-0.501784 0.0046,-0.0034 0.0084,-0.0078 0.01108,-0.0128 0.0027,-0.005 0.0042,-0.0106 0.0043,-0.01629 v -1.205703 c -8.2e-5,-0.0053 -0.0014,-0.01054 -0.0037,-0.0153 -0.0024,-0.0048 -0.0058,-0.0089 -0.01007,-0.01221 -0.0042,-0.0033 -0.0091,-0.0056 -0.01438,-0.0067 -0.0053,-0.0011 -0.01069,-0.0011 -0.01592,6.1e-5 -1.030605,0.243487 -2.0867076,0.365539 -3.1462973,0.36361 -1.8235077,0 -2.3139487,-0.855917 -2.4544,-1.212266 -0.1128821,-0.307959 -0.1845744,-0.62919 -0.2132308,-0.955549 -2.872e-4,-0.0055 7.385e-4,-0.01095 0.00297,-0.01598 0.00224,-0.005 0.00566,-0.0094 0.00995,-0.0129 0.00431,-0.0035 0.00937,-0.0059 0.01479,-0.0071 0.00542,-0.0012 0.011036,-0.0011 0.01641,3.07e-4 1.0134359,0.241826 2.0523077,0.363877 3.0948308,0.363611 0.2507282,0 0.5007179,0 0.7514666,-0.0065 1.0485128,-0.02909 2.1536417,-0.08217 3.1852517,-0.281436 0.02574,-0.0051 0.05147,-0.0095 0.07354,-0.016 1.62718,-0.309067 3.175693,-1.279159 3.333046,-3.7356922 0.0059,-0.096718 0.0206,-1.0130051 0.0206,-1.1133539 7.39e-4,-0.3410666 0.111036,-2.4194256 -0.01618,-3.6964102 z m -2.50439,6.1296615 H 11.282294 V 5.6906245 c 0,-0.8726564 -0.367651,-1.3177025 -1.115446,-1.3177025 -0.8220515,0 -1.2338053,0.5265025 -1.2338053,1.5664 V 8.2082245 H 7.2323247 V 5.939322 c 0,-1.0398975 -0.4124923,-1.5664 -1.2345436,-1.5664 -0.7433846,0 -1.1147076,0.4450461 -1.1154461,1.3177025 V 9.8357322 H 3.1727965 V 5.5648194 c 0,-0.8726564 0.2252513,-1.5659282 0.6757334,-2.0798359 0.4646974,-0.5126769 1.0742564,-0.7759179 1.8308718,-0.7759179 0.8757128,0 1.5374769,0.3330461 1.9786461,0.9984615 L 8.0837914,4.4143784 8.5102529,3.7075271 C 8.9514222,3.0421117 9.6131863,2.7090656 10.487443,2.7090656 c 0.755877,0 1.365415,0.263241 1.83159,0.7759179 0.450502,0.5134154 0.675733,1.2066872 0.675733,2.0798359 z"
     fill="#000000"
     style="stroke-width:0.205128" />
</svg>
