<svg xmlns="http://www.w3.org/2000/svg" viewBox="0 0 16 16">
  <path
    d="m7.15 1.809.578.479a.75.75 0 0 0-.679-1.223l.101.744ZM6 5h-.75H6Zm5 5v.75V10Zm3.19-1.151.744.1a.75.75 0 0 0-1.223-.678l.48.578ZM8 14.25V15v-.75ZM1.75 8H1h.75Zm5.4-6.191-.577-.48A5.73 5.73 0 0 0 5.25 5h1.5a4.23 4.23 0 0 1 .978-2.712l-.578-.48ZM6 5h-.75A5.75 5.75 0 0 0 11 10.75v-1.5A4.25 4.25 0 0 1 6.75 5H6Zm5 5v.75a5.729 5.729 0 0 0 3.67-1.324l-.48-.577-.479-.578A4.229 4.229 0 0 1 11 9.25V10Zm3.19-1.151-.743-.101A5.5 5.5 0 0 1 8 13.5V15a7 7 0 0 0 6.934-6.05l-.744-.101ZM8 14.25v-.75A5.5 5.5 0 0 1 2.5 8H1a7 7 0 0 0 7 7v-.75ZM1.75 8h.75a5.5 5.5 0 0 1 4.751-5.448l-.1-.743-.102-.744A7 7 0 0 0 1 8h.75Z"
    fill="#000" />
</svg>
