<svg width="16" height="16" viewBox="0 0 16 16" xmlns="http://www.w3.org/2000/svg"><path d="M6.385 8.158c1.784 0 3.23-1.379 3.23-3.08C9.615 3.379 8.17 2 6.385 2 4.6 2 3.154 3.379 3.154 5.079c0 1.7 1.446 3.079 3.23 3.079Zm8.615 0a2.31 2.31 0 0 0-.346-1.22 2.46 2.46 0 0 0-.949-.883 2.612 2.612 0 0 0-2.557.068c-.38.23-.69.551-.896.933a2.3 2.3 0 0 0 .153 2.433c.251.356.599.64 1.005.824v3.66L12.487 15l1.795-1.71-1.077-1.027 1.077-1.026-.89-.849c.473-.174.88-.48 1.166-.878.287-.398.441-.87.442-1.352Zm-2.513 0a.75.75 0 0 1-.516-.196.684.684 0 0 1-.216-.488.658.658 0 0 1 .216-.489.722.722 0 0 1 .516-.195.736.736 0 0 1 .499.205c.132.127.205.3.205.479s-.073.35-.205.479a.736.736 0 0 1-.499.205ZM9.213 9.54a4.489 4.489 0 0 0-1.751-.356H5.308a4.418 4.418 0 0 0-3.046 1.203A4.01 4.01 0 0 0 1 13.289v1.369h9.333v-3.77a3.564 3.564 0 0 1-1.12-1.348Z" fill="#000"/></svg>