<svg width="16" height="16" viewBox="0 0 16 16" xmlns="http://www.w3.org/2000/svg"><path d="M7 10a1 1 0 0 1 1 1v3a1 1 0 0 1-1 1H1a1 1 0 0 1-1-1v-3a1 1 0 0 1 1-1h6Zm3 0a.75.75 0 0 1 .75.75v3.5a.75.75 0 0 1-1.5 0v-3.5A.75.75 0 0 1 10 10Zm2.75 0a.75.75 0 0 1 .75.75v3.5a.75.75 0 0 1-1.5 0v-3.5a.75.75 0 0 1 .75-.75Zm-6.5-9a.75.75 0 0 1 0 1.5H6c-.69 0-1.25.56-1.25 1.25v2.44l.97-.97a.75.75 0 1 1 1.06 1.06L4 9.06 1.22 6.28a.75.75 0 1 1 1.06-1.06l.97.97V3.75A2.75 2.75 0 0 1 6 1h.25ZM15 1a1 1 0 0 1 1 1v3a1 1 0 0 1-1 1H9a1 1 0 0 1-.995-.897L8 5V2a1 1 0 0 1 1-1h6ZM9.5 4.5h5v-2h-5v2Z" fill="#000"/></svg>