<svg xmlns="http://www.w3.org/2000/svg" viewBox="0 0 16 16">
  <path
    d="M8 13a.75.75 0 0 1 .75.75v1.5a.75.75 0 0 1-1.5 0v-1.5A.75.75 0 0 1 8 13Zm3.537-1.46a.75.75 0 0 1 1.06 0l1.061 1.06a.75.75 0 0 1-1.06 1.06l-1.06-1.06a.75.75 0 0 1 0-1.06Zm-8.132-.008a.75.75 0 1 1 1.06 1.06l-1.06 1.061a.75.75 0 0 1-1.06-1.06l1.06-1.06ZM8 4a4 4 0 1 1 0 8 4 4 0 0 1 0-8Zm0 1.5a2.5 2.5 0 1 0 0 5 2.5 2.5 0 0 0 0-5ZM2.255 7.245a.75.75 0 1 1 0 1.5h-1.5a.75.75 0 0 1 0-1.5h1.5Zm13 0a.75.75 0 0 1 0 1.5h-1.5a.75.75 0 0 1 0-1.5h1.5ZM2.345 2.347a.75.75 0 0 1 1.06 0l1.06 1.06a.75.75 0 0 1-1.06 1.06l-1.06-1.06a.75.75 0 0 1 0-1.06Zm10.253-.007a.75.75 0 1 1 1.06 1.06l-1.06 1.06a.75.75 0 0 1-1.06-1.06l1.06-1.06ZM8 0a.75.75 0 0 1 .75.75v1.5a.75.75 0 0 1-1.5 0V.75A.75.75 0 0 1 8 0Z"
    fill="#000" />
</svg>
