<svg width="16" height="16" viewBox="0 0 16 16" xmlns="http://www.w3.org/2000/svg"><path d="M13 5a3 3 0 0 1 0 6 2.983 2.983 0 0 1-1.523-.418l-.667.668.72.72a.75.75 0 0 1-1.06 1.06l-.72-.72-.69.69.72.72a.75.75 0 0 1-1.06 1.06L8 14.06l-.72.72a.75.75 0 0 1-1.06-1.06l4.197-4.199A3 3 0 0 1 13 5Zm-2-3c.85 0 1.651.213 2.354.588a.75.75 0 1 1-.707 1.322A3.482 3.482 0 0 0 11 3.5H5a3.5 3.5 0 1 0 0 7h1A.75.75 0 0 1 6 12H5A5 5 0 0 1 5 2h6Zm2 4.5a1.5 1.5 0 1 0 0 3 1.5 1.5 0 0 0 0-3ZM5 6a1 1 0 1 1 0 2 1 1 0 0 1 0-2Zm3 0a1 1 0 1 1 0 2 1 1 0 0 1 0-2Z" fill="#000"/></svg>