<svg width="16" height="16" viewBox="0 0 16 16" xmlns="http://www.w3.org/2000/svg"><path d="M13 6a3 3 0 0 1 0 6 2.983 2.983 0 0 1-1.523-.418l-.667.668.72.72a.75.75 0 0 1-1.06 1.06l-.72-.72-.69.69.72.72a.75.75 0 0 1-1.06 1.06L8 15.06l-.72.72a.75.75 0 0 1-1.06-1.06l4.197-4.199A3 3 0 0 1 13 6ZM6 1a4 4 0 1 1 0 8H4a2.5 2.5 0 0 0-2.5 2.5V13a.5.5 0 0 0 .5.5h2.25a.75.75 0 0 1 0 1.5H2a2 2 0 0 1-2-2v-1.5a4.002 4.002 0 0 1 2.986-3.871A4 4 0 0 1 6 1Zm7 6.5a1.5 1.5 0 1 0 0 3 1.5 1.5 0 0 0 0-3Zm-7-5a2.5 2.5 0 1 0 0 5 2.5 2.5 0 0 0 0-5Z" fill="#000"/></svg>