<svg width="16" height="16" viewBox="0 0 16 16" xmlns="http://www.w3.org/2000/svg"><path d="M12.482 1.01c.343.052.639.28.775.605l2.628 6.308a1.5 1.5 0 01-1.189 2.064L14.5 10h-13v.75c0 .138.112.25.25.25h12l.077.004a.75.75 0 010 1.492l-.077.004H3.5v.75c0 .138.112.25.25.25h8.5a.75.75 0 010 1.5h-8.5A1.75 1.75 0 012 13.25v-.75h-.25A1.75 1.75 0 010 10.75V8.436c.005-.108.022-.218.052-.327l.063-.186 2.628-6.308c.136-.326.432-.553.775-.604L3.667 1h8.666l.15.01zM1.5 8.5h13l-2.5-6H4l-2.5 6z" fill="#000"/></svg>