<svg width="16" height="16" viewBox="0 0 16 16" xmlns="http://www.w3.org/2000/svg"><path d="M11.443 1.005a3.75 3.75 0 0 1 0 7.49l-.193.005c-.217 0-.429-.021-.635-.057L10.06 9l.941.94 1-1 2.405 2.406.149.164a2.165 2.165 0 0 1-3.045 3.045l-.164-.149L8.939 12l1-1-.94-.94-4.344 4.345a2.164 2.164 0 0 1-2.896.149l-.164-.149a2.164 2.164 0 0 1 0-3.06l4.343-4.346L3.5 4.561l-.616.616-.508-.761-1-1.5-.34-.512 1.368-1.369.512.341 1.5 1 .76.508-.615.616 2.438 2.438.557-.556A3.75 3.75 0 0 1 11.25 1l.193.005ZM11.25 2.5a2.25 2.25 0 0 0-2.153 2.903l.13.43-.318.317-6.254 6.255a.666.666 0 0 0 0 .94l.105.085c.257.17.608.142.835-.085L9.849 7.09l.317-.318.43.13c.209.063.428.098.654.098l.23-.012a2.25 2.25 0 0 0 1.798-3.207l-1.498 1.5a.75.75 0 0 1-1.06-1.061l1.498-1.5a2.233 2.233 0 0 0-.738-.208l-.23-.012Zm-.19 9.5 1.345 1.345.105.085a.664.664 0 0 0 .92-.92l-.085-.105L12 11.06l-.94.94Z" fill="#000"/></svg>