<svg width="16" height="16" viewBox="0 0 16 16" xmlns="http://www.w3.org/2000/svg"><path d="M11 0c1.102 0 2 .889 2 1.996v.254a.75.75 0 0 1-1.5 0v-.254A.497.497 0 0 0 11 1.5H6a.5.5 0 0 0-.5.5v8a.5.5 0 0 0 .5.5h.25a.75.75 0 0 1 0 1.5H6a2 2 0 0 1-2-2V5.5H3a.5.5 0 0 0-.5.5v8a.5.5 0 0 0 .5.5h5a.5.5 0 0 0 .5-.5v-.25a.75.75 0 0 1 1.5 0V14a2 2 0 0 1-2 2H3a2 2 0 0 1-2-2V6a2 2 0 0 1 2-2h1V2a2 2 0 0 1 2-2h5Zm1 5.25a.75.75 0 0 1 .75.75v2.5h2.5a.75.75 0 0 1 0 1.5h-2.5v2.5a.75.75 0 0 1-1.5 0V10h-2.5a.75.75 0 0 1 0-1.5h2.5V6a.75.75 0 0 1 .75-.75ZM9.75 3a.75.75 0 0 1 0 1.5h-2.5a.75.75 0 0 1 0-1.5h2.5Z" fill="#000"/></svg>