<svg width="16" height="16" viewBox="0 0 16 16" xmlns="http://www.w3.org/2000/svg"><path fill-rule="evenodd" clip-rule="evenodd" d="M9 1C10.1046 1 11 1.89543 11 3V5C11 6.10457 10.1046 7 9 7H8.75V8H12.25C12.8023 8 13.25 8.44771 13.25 9V10.0176C14.2365 10.1407 15 10.9802 15 12V13C15 14.0357 14.2128 14.887 13.2041 14.9893L13 15H12L11.7959 14.9893C10.8543 14.8938 10.1062 14.1457 10.0107 13.2041L10 13V12C10 10.9802 10.7635 10.1407 11.75 10.0176V9.5H4.25V10.0176C5.23645 10.1407 6 10.9802 6 12V13C6 14.0357 5.21278 14.887 4.2041 14.9893L4 15H3L2.7959 14.9893C1.85435 14.8938 1.1062 14.1457 1.01074 13.2041L1 13V12C1 10.9802 1.76355 10.1407 2.75 10.0176V9C2.75 8.44772 3.19772 8 3.75 8H7.25V7H7C5.89543 7 5 6.10457 5 5V3C5 1.89543 5.89543 1 7 1H9ZM3 11.5C2.72386 11.5 2.5 11.7239 2.5 12V13C2.5 13.2761 2.72386 13.5 3 13.5H4C4.27614 13.5 4.5 13.2761 4.5 13V12C4.5 11.7239 4.27614 11.5 4 11.5H3ZM12 11.5C11.7239 11.5 11.5 11.7239 11.5 12V13C11.5 13.2761 11.7239 13.5 12 13.5H13C13.2761 13.5 13.5 13.2761 13.5 13V12C13.5 11.7239 13.2761 11.5 13 11.5H12Z" fill="#000"/></svg>