<svg xmlns="http://www.w3.org/2000/svg" width="288" height="288" fill="none" viewBox="0 0 288 288"><path d="M287 181c0 22.41-15.768 42.89-41.676 57.823C219.443 253.741 183.621 263 144 263c-39.621 0-75.443-9.259-101.324-24.177C16.768 223.89 1 203.41 1 181v-18h286v18Z" fill="var(--gl-illustration-isometric-base-side-fill-color, #aea5d6ff)" stroke="var(--gl-illustration-stroke-color-default, #171321ff)" stroke-width="var(--gl-illustration-stroke-width-default, 2)"/><ellipse cx="144" cy="161" rx="144" ry="83" fill="var(--gl-illustration-isometric-base-top-fill-color, #e7e4f2ff)"/><path d="M53.632 225.442C21.51 210.314 1 187.289 1 161.5 1 115.937 65.023 79 144 79s143 36.937 143 82.5S222.977 244 144 244c-29.826 0-57.52-5.268-80.438-14.28" stroke="var(--gl-illustration-stroke-color-default, #171321ff)" stroke-width="var(--gl-illustration-stroke-width-default, 2)"/><path d="m219.014 126.313-19 11 17.5-44.5c-3.833 2.666-12.3 8-15.5 8-1.736 0-4.887-.189-7.855-1.835-3.869-2.144-7.428-6.763-7.145-16.665.244-8.53 2.37-16.049 5.61-22.5 8.156-16.239 23.371-25.711 33.39-27.5 4.29-.766 7.547-.077 10.002 1.521 5.555 3.617 6.998 11.89 6.998 18.479 0 7.6-4.666 22.166-7 28.5l-17 45.5Z" fill="var(--gl-illustration-isometric-glyph-front-fill-color, #ffffff)"/><g fill="var(--gl-illustration-isometric-glyph-top-fill-color, #c5f4ecff)"><path d="M210.014 82.313c-2 0-6.999-1.4-6.999-11 0-.675.037-1.342.11-2 0 0 5.891.5 10.891.5s10.962-.5 10.962-.5c-3.73 8.82-11.486 13-14.964 13ZM235.189 33.347c.285.151.561.314.827.487l-.827-.487c-2.346-1.243-5.35-1.717-9.175-1.034-10.019 1.789-25.234 11.261-33.39 27.5l-16.998-10c8.156-16.239 23.37-25.71 33.39-27.5 4.004-.715 7.108-.162 9.5 1.214l16.673 9.82Z"/></g><path d="M217.514 92.813c-3.833 2.666-12.3 8-15.5 8-1.737 0-4.887-.189-7.856-1.835l-11.142 28.335 16.998 10 17.5-44.5Z" fill="var(--gl-illustration-isometric-glyph-side-fill-color, #6fdac9ff)"/><g fill="var(--gl-illustration-isometric-glyph-shadow-fill-color, #10b1b1ff)"><path d="M221.014 49.813c5.5 0 6.278 5.5 6 10.5-.189 3.41-.938 6.406-2.036 9 0 0-5.962.5-10.962.5s-10.891-.5-10.891-.5c1.22-11.039 12.227-19.5 17.889-19.5ZM177.516 89.169c-4.003-2.057-7.792-6.651-7.5-16.856.243-8.53 2.37-16.049 5.61-22.5l16.998 10c-3.24 6.451-5.366 13.97-5.61 22.5-.268 9.412 2.934 14.051 6.573 16.329l.572.337a12.458 12.458 0 0 1-.572-.337l-16.071-9.473Z"/></g><path d="m200.014 137.313 19-11 1.238-3.313m-20.238 14.313 17.5-44.5c-3.833 2.666-12.3 8-15.5 8-1.736 0-4.887-.189-7.855-1.835m5.855 38.335-16.998-10 11.143-28.335m0 0c-3.869-2.144-7.427-6.763-7.145-16.665.244-8.53 2.37-16.049 5.61-22.5 8.156-16.239 23.371-25.711 33.39-27.5 4.29-.766 7.547-.077 10.002 1.521m-41.857 65.144-16.643-9.81c-4.003-2.056-7.792-6.65-7.5-16.855.244-8.53 2.37-16.049 5.61-22.5 8.156-16.239 23.37-25.71 33.39-27.5 4.004-.715 7.108-.162 9.5 1.214l17.5 10.307m0 0c5.555 3.617 6.998 11.89 6.998 18.479 0 7.6-4.666 22.166-7 28.5L223.241 115m3.773-54.687c.278-5-.5-10.5-6-10.5-5.662 0-16.669 8.461-17.889 19.5a18.12 18.12 0 0 0-.11 2c0 9.6 5 11 7 11 3.477 0 11.233-4.18 14.963-13 1.098-2.594 1.847-5.59 2.036-9Z" stroke="var(--gl-illustration-stroke-color-default, #171321ff)" stroke-width="var(--gl-illustration-stroke-width-default, 2)"/><path d="M178.619 149.097s-57.5 33.5-59.5 34.5c-1.757.878-3.899 1.371-5.749.123a5 5 0 0 1-.751-.623c-1.649-1.649-1.167-6.833-.5-9.5.667-2.666 29.5-91.5 29.5-91.5.219-.659.56-1.438.999-2.274 1.562-2.973 4.379-6.665 7.501-8.226 1.797-.898 3.325-.687 4.538 0 1.488.842 2.503 2.399 2.962 3.5l27.5 54c1 2 2.278 5 1.5 8.5-1.389 6.248-5.167 9.667-8 11.5Z" fill="var(--gl-illustration-isometric-object-front-fill-color, #ffc2a8ff)"/><path d="M112.119 173.597c.667-2.666 29.5-91.5 29.5-91.5.22-.659.56-1.438.999-2.274l-17.38-10.226c-.498.922-.88 1.782-1.12 2.5 0 0-28.833 88.833-29.5 91.5-.666 2.667-1.149 7.851.5 9.5.189.188.381.355.578.5l17.674 10.123a5.102 5.102 0 0 1-.751-.623c-1.649-1.649-1.166-6.833-.5-9.5Z" fill="var(--gl-illustration-isometric-object-side-fill-color, #ff7b42ff)"/><path d="M150.119 71.597c1.797-.898 3.325-.687 4.539 0l-18.04-10.263c-1.116-.462-2.459-.507-4 .263-3.043 1.522-5.797 5.07-7.38 8l17.38 10.226c1.562-2.973 4.38-6.665 7.501-8.226Z" fill="var(--gl-illustration-isometric-object-top-fill-color, #ff9d73ff)"/><path d="M113.37 183.72a5.102 5.102 0 0 1-.751-.623c-1.649-1.649-1.167-6.833-.5-9.5.667-2.666 29.5-91.5 29.5-91.5.22-.659.56-1.438.999-2.274M113.37 183.72c1.85 1.248 3.993.755 5.749-.123 2-1 59.5-34.5 59.5-34.5 2.834-1.833 6.612-5.252 8-11.5.778-3.5-.5-6.5-1.5-8.5l-27.5-54c-.459-1.101-1.474-2.658-2.961-3.5M113.37 183.72l-17.674-10.123a5.156 5.156 0 0 1-.578-.5c-1.649-1.649-1.166-6.833-.5-9.5.667-2.667 29.5-91.5 29.5-91.5.24-.718.622-1.578 1.12-2.5m29.42 2c-1.214-.687-2.742-.898-4.539 0-3.121 1.561-5.939 5.253-7.501 8.226m12.04-8.226-18.04-10.263c-1.116-.462-2.459-.507-4 .263-3.043 1.522-5.797 5.07-7.38 8m17.38 10.226-17.38-10.226" stroke="var(--gl-illustration-stroke-color-default, #171321ff)" stroke-width="var(--gl-illustration-stroke-width-default, 2)"/><path d="m144.618 100.897 10.5-5.8-1 38-8.5 4.5-1-36.7ZM152.118 141.597c2-1 4 .5 4 2.5 0 2.5-1.5 6-4 7.5-1.724 1.034-4.5 2.5-4.5 2.5-1 .5-3.1.6-3.5-3-.4-3.6 2.167-6.166 3.5-7 .833-.5 2.9-1.7 4.5-2.5Z" fill="var(--gl-illustration-isometric-accent-front-fill-color, #74717aff)"/><path d="m144.618 100.897 10.5-5.8-1 38-8.5 4.5-1-36.7ZM152.118 141.597c2-1 4 .5 4 2.5 0 2.5-1.5 6-4 7.5-1.724 1.034-4.5 2.5-4.5 2.5-1 .5-3.1.6-3.5-3-.4-3.6 2.167-6.166 3.5-7 .833-.5 2.9-1.7 4.5-2.5Z" stroke="var(--gl-illustration-stroke-color-default, #171321ff)" stroke-width="var(--gl-illustration-stroke-width-default, 2)"/><path d="M102 192.788 86 202v-16.2l-14 8.08L51 206v-25.643L81 114l17.662-10L67 175v5.357L86 169.5V150l16-9v51.788Z" fill="var(--gl-illustration-isometric-glyph-front-fill-color, #ffffff)"/><g fill="var(--gl-illustration-isometric-glyph-top-fill-color, #c5f4ecff)"><path d="m102 141-16 9-6.212-3.675 6.518-14.617L98.662 104 81 114l-17-10 17.662-10 17 10-12.356 27.708L102 141ZM67 180.357 86 169.5 70.568 167 67 175v5.357Z"/></g><path d="M51 180.357 81 114l-17-10-30 66.357 17 10Z" fill="var(--gl-illustration-isometric-glyph-side-fill-color, #6fdac9ff)"/><g fill="var(--gl-illustration-isometric-glyph-shadow-fill-color, #10b1b1ff)"><path d="M86 150v19.5L70.568 167l2.332-5.231 6.888-15.444L86 150ZM51 206v-25.643l-17-10V196l17 10ZM86 202v-16.2l-14 8.08L86 202Z"/></g><path d="m86 202 16-9.212V141m-16 61v-16.2l-14 8.08M86 202l-14-8.12M102 141l-16 9m16-9-15.694-9.292M86 150v19.5m0-19.5-6.212-3.675M86 169.5l-19 10.857V175l3.568-8 2.332-5.231M86 169.5l-13.1-7.731M98.662 104 81 114m17.662-10-12.356 27.708M98.662 104l-17-10L64 104m17 10-30 66.357M81 114l-17-10m-13 76.357V206m0-25.643-17-10M51 206l21-12.12M51 206l-17-10v-25.643M64 104l-30 66.357m38.9-8.588 6.888-15.444m0 0 6.518-14.617" stroke="var(--gl-illustration-stroke-color-default, #171321ff)" stroke-width="var(--gl-illustration-stroke-width-default, 2)"/></svg>