<svg xmlns="http://www.w3.org/2000/svg" width="288" height="288" fill="none" viewBox="0 0 288 288"><path d="M287 181c0 22.41-15.768 42.89-41.676 57.823C219.443 253.741 183.621 263 144 263c-39.621 0-75.443-9.259-101.324-24.177C16.768 223.89 1 203.41 1 181v-18h286v18Z" fill="var(--gl-illustration-isometric-base-side-fill-color, #aea5d6ff)" stroke="var(--gl-illustration-isometric-stroke-color-default, #171321ff)" stroke-width="var(--gl-illustration-stroke-width-default, 2)"/><ellipse cx="144" cy="161" rx="144" ry="83" fill="var(--gl-illustration-isometric-base-top-fill-color, #e7e4f2ff)"/><path d="M53.632 225.442C21.51 210.314 1 187.289 1 161.5 1 115.937 65.023 79 144 79s143 36.937 143 82.5S222.977 244 144 244c-29.826 0-57.52-5.268-80.438-14.28" stroke="var(--gl-illustration-isometric-stroke-color-default, #171321ff)" stroke-width="var(--gl-illustration-stroke-width-default, 2)"/><path d="m187.135 57.417 47-27.417v16.5L220.904 68l-2.769 4.5c5.712-.714 9.895-.153 13.095 1.5a13.64 13.64 0 0 1 3.405 2.5c3.335 3.335 3.5 14.5 2.5 23.5s-5.334 16-9 21.5c-3.21 4.815-18 20.5-32 20.5-2.695 0-4.826-.617-6.5-1.63-5.283-3.194-6.007-10.32-5.5-14.37l16-9c1.5 8 7.5 5.5 11 3.5s7-5.5 8.5-9.5c.841-2.244.5-15 .5-15 0-6-7-5-9.5-3.5l-7.52 4.25-3.98 2.25V85l17.5-28-29.5 17V57.417Z" fill="var(--gl-illustration-isometric-glyph-front-fill-color, #ffffff)"/><g fill="var(--gl-illustration-isometric-glyph-top-fill-color, #c5f4ecff)"><path d="m187.135 57.417 47-27.417-17-10-47 27.417 17 10ZM184.135 126l16-9-8.769-5.158-8.231-4.842-16 9 17 10ZM218.135 72.5c5.713-.714 9.895-.153 13.095 1.5l-10.326-6-2.769 4.5Z"/></g><g fill="var(--gl-illustration-isometric-glyph-side-fill-color, #6fdac9ff)"><path d="m216.635 57-29.5 17-3.199-1.882L182.135 75l17 10 17.5-28ZM211.135 120.5c3.5-2 7-5.5 8.5-9.5 0 0-5.5.5-13 .5s-12.5-1-12.5-1c-.816.467-1.769.96-2.769 1.342l8.769 5.158c1.5 8 7.5 5.5 11 3.5Z"/></g><g fill="var(--gl-illustration-isometric-glyph-shadow-fill-color, #10b1b1ff)"><path d="M187.135 74V57.417l-17-10V64l13.801 8.118L187.135 74ZM199.135 85v14l3.98-2.25 7.52-4.25c2.5-1.5 9.5-2.5 9.5 3.5 0 0 .341 12.756-.5 15 0 0-5.5.5-13 .5s-12.5-1-12.5-1c3.5-2 7-5.5 8.5-9.5.254-.676.4-2.304.48-4.25l-3.98 2.25-17-10V75l17 10ZM189.635 140.37c-5.282-3.194-6.006-10.32-5.5-14.37l-17-10c-.522 4.175.264 11.617 6 14.653l16.5 9.717Z"/></g><path d="M187.135 57.417V74m0-16.583-17-10m17 10L226 34.745M187.135 74l29.5-17-17.5 28m-12-11-3.199-1.882M199.135 85v14m0-14-17-10m17 24-17-10V75m17 24 3.98-2.25m-2.98 20.25c1.5 8 7.5 5.5 11 3.5s7-5.5 8.5-9.5c.841-2.244.5-15 .5-15 0-6-7-5-9.5-3.5l-7.52 4.25m-2.98 20.25-16 9m16-9-8.769-5.158M184.135 126c-.506 4.05.218 11.176 5.5 14.37m-5.5-14.37-17-10m3-68.583 47-27.417 17 10v16.5L220.904 68m-50.769-20.583V64l13.801 8.118M182.135 75l1.801-2.882M167.135 116l16-9 8.231 4.842M167.135 116c-.522 4.175.264 11.616 6 14.653l16.5 9.717M231.23 74a13.64 13.64 0 0 1 3.405 2.5c3.335 3.335 3.5 14.5 2.5 23.5s-5.333 16-9 21.5c-3.21 4.815-18 20.5-32 20.5-2.695 0-4.826-.617-6.5-1.63M231.23 74c-3.2-1.653-7.382-2.214-13.095-1.5l2.769-4.5m10.326 6-10.326-6m-29.538 43.842c1-.382 1.953-.875 2.769-1.342 3.5-2 7-5.5 8.5-9.5.254-.676.4-2.304.48-4.25" stroke="var(--gl-illustration-isometric-stroke-color-default, #171321ff)" stroke-width="var(--gl-illustration-stroke-width-default, 2)"/><path d="M120.5 125.551v61c13-7.5 40.4-23.3 46-26.5 4.898-2.799 8-10 8-13.5v-52l-54 31Z" fill="var(--gl-illustration-isometric-object-front-fill-color, #ffc2a8ff)"/><path d="M120.5 125.551v61l-17.5-10.5v-61l17.5 10.5Z" fill="var(--gl-illustration-isometric-object-side-fill-color, #ff7b42ff)"/><path d="m174.5 94.55-54 31.001-17.5-10.5 54-31 17.5 10.5Z" fill="var(--gl-illustration-isometric-object-top-fill-color, #ff9d73ff)"/><path d="M149.5 151.051v-21.5c0-.667-.4-2-2-2-1 0-2 1-2 2v22c0 1 .5 2 1.5 2 2 0 2.5-1.5 2.5-2.5Z" fill="var(--gl-illustration-isometric-object-shadow-fill-color, #e24329ff)"/><path d="M120.5 186.551v-61m0 61c13-7.5 40.4-23.3 46-26.5 4.898-2.799 8-10 8-13.5v-52m-54 92-17.5-10.5v-61m17.5 10.5 54-31m-54 31-17.5-10.5m71.5-20.5L157 84.05l-54 31m46.5 14.5v21.5c0 1-.5 2.5-2.5 2.5-1 0-1.5-1-1.5-2v-22c0-1 1-2 2-2 1.6 0 2 1.333 2 2Z" stroke="var(--gl-illustration-isometric-stroke-color-default, #171321ff)" stroke-width="var(--gl-illustration-stroke-width-default, 2)"/><path d="M153.5 98.55v-31c0-4.912-2.393-11.91-8.605-10.061l.105.062c3.6 2.4 4.5 7.5 4.5 10-.167 9.166 0 26.5 0 29 0 2 2.52 2.246 4 2Z" fill="var(--gl-illustration-isometric-accent-front-fill-color, #74717aff)"/><path d="M127.5 113.551c-2 1.2-5.5 1-5.5-1v-31c0-8.5 6-26 19-31 5.218-2.007 16 1.1 16 15.5v28.5c0 2.5-.5 3.5-3.5 4v-31c0-5.5-3-13.616-11-9-10.4 6-13 19.166-13 25v26.5c0 .833 0 2.3-2 3.5Z" fill="var(--gl-illustration-isometric-object-highlight-fill-color, #ffffff)"/><path d="M153.5 98.55v-31c0-5.5-3-13.615-11-9-10.4 6-13 19.167-13 25v26.501c0 .833 0 2.3-2 3.5-2 1.2-5.5 1-5.5-1v-31c0-8.5 6-26 19-31 5.218-2.007 16 1.1 16 15.5v28.5c0 2.5-.5 3.5-3.5 4Zm0 0c-1.48.247-4 0-4-2 0-2.5-.167-19.833 0-29 0-2.5-.9-7.6-4.5-10" stroke="var(--gl-illustration-isometric-stroke-color-default, #171321ff)" stroke-width="var(--gl-illustration-stroke-width-default, 2)"/><path d="M106 194.788 90 204v-16.2l-14 8.08L55 208v-25.643L85 116l17.662-10L71 177v5.357L90 171.5V152l16-9v51.788Z" fill="var(--gl-illustration-isometric-glyph-front-fill-color, #ffffff)"/><g fill="var(--gl-illustration-isometric-glyph-top-fill-color, #c5f4ecff)"><path d="m106 143-16 9-6.212-3.675 6.518-14.617L102.662 106 85 116l-17-10 17.662-10 17 10-12.356 27.708L106 143ZM71 182.357 90 171.5 74.568 169 71 177v5.357Z"/></g><path d="M55 182.357 85 116l-17-10-30 66.357 17 10Z" fill="var(--gl-illustration-isometric-glyph-side-fill-color, #6fdac9ff)"/><g fill="var(--gl-illustration-isometric-glyph-shadow-fill-color, #10b1b1ff)"><path d="M90 152v19.5L74.568 169l2.332-5.231 6.888-15.444L90 152ZM55 208v-25.643l-17-10V198l17 10ZM90 204v-16.2l-14 8.08L90 204Z"/></g><path d="m90 204 16-9.212V143m-16 61v-16.2l-14 8.08M90 204l-14-8.12M106 143l-16 9m16-9-15.694-9.292M90 152v19.5m0-19.5-6.212-3.675M90 171.5l-19 10.857V177l3.568-8 2.332-5.231M90 171.5l-13.1-7.731M102.662 106 85 116m17.662-10-12.356 27.708M102.662 106l-17-10L68 106m17 10-30 66.357M85 116l-17-10m-13 76.357V208m0-25.643-17-10M55 208l21-12.12M55 208l-17-10v-25.643M68 106l-30 66.357m38.9-8.588 6.888-15.444m0 0 6.518-14.617" stroke="var(--gl-illustration-isometric-stroke-color-default, #171321ff)" stroke-width="var(--gl-illustration-stroke-width-default, 2)"/></svg>